<!-- Generator: Adobe Illustrator 21.1.0, SVG Export Plug-In . SVG Version: 6.00 Build 0)  -->
<svg version="1.1" id="Слой_1" xmlns="http://www.w3.org/2000/svg" xmlns:xlink="http://www.w3.org/1999/xlink" x="0px" y="0px"
	 viewBox="50 80 250 220" enable-background="new 0 0 370.7062988 370.7062988" xml:space="preserve">
<g>
	<path fill="#00A4DB" d="M133.1959076,114.1973038c2.3177948-0.455307,9.495697-1.7794037,18.642395-1.689003
		c14.9983978,0.1483994,26.6170044,4.0079956,33.7364044,6.4353027c8.2285919,2.8051987,26.4636993,9.930191,44.9062958,25.9391022
		c6.9599915,6.0412903,12.149292,11.7855988,15.6777954,16.0475006c1.6457977-3.2714081,3.0605011-6.6273041,4.2098999-9.9886017
		c1.5108948-4.418808,2.6248016-8.9867096,3.3103943-13.5755005l1.08461-7.2565002
		c-4.3928986-4.2268066-10.2978058-9.4417038-17.7279053-14.8166046c-3.5346985-2.5569-14.7823944-10.4801025-29.1717987-16.8698959
		c-11.4098969-5.066803-37.956192-16.8552017-72.0952911-12.6374054
		c-25.3377075,3.1304016-43.1487045,13.6315002-47.2617035,16.1405029
		c-2.9994049,1.8294983-5.9084015,3.7969971-8.6472015,5.8488007l-1.884201,1.4113998l-0.2802048,2.3375015
		c-0.4065933,3.3896942-0.6560974,6.8936996-0.7420959,10.4124985c-0.2801971,11.5818024,1.1669998,29.4848938,9.6537018,49.0007935
		c2.4496002,5.6345062,5.3868942,11.1741028,8.7304993,16.4650116c0.9263,1.4655914,2.7832947,4.2818909,5.5393982,7.9049988
		c-0.2843018-2.0503998-0.5318985-4.1026001-0.7378006-6.1263123c-1.2060013-11.8365936-1.1977005-23.9251862,0.0233002-35.928894
		c1.0103989-9.9315948,2.6901016-17.9084015,3.8955994-22.944397c0.547905-2.2884064,1.055603-4.2037048,1.4384003-5.5967026
		c3.269104-1.9243011,7.4123001-4.0787964,12.3764038-6.0343018
		C120.9215012,117.4754028,126.268898,115.558403,133.1959076,114.1973038z"/>
	<path fill="#00A4DB" d="M212.4219971,253.7989044c-9.1062012,4.0908051-16.8542938,6.6244049-21.8183899,8.0982819
		c-2.2557068,0.6700134-4.1683044,1.1878052-5.5659027,1.5527039c-3.3011017-1.8688049-7.2385101-4.3797913-11.4141083-7.7007904
		c-2.5644989-2.0397949-6.8984985-5.7124939-11.5406952-11.0307922c-1.553299-1.7797089-6.2888947-7.3338013-10.7841034-15.300415
		c-7.3704987-13.0629883-9.837204-25.0548859-11.2949982-32.4339905c-1.6847992-8.5287018-4.6320038-27.883606,0.0106049-51.8598022
		c1.7521973-9.0480042,4.1322021-16.4141998,6.0588989-21.6008987c-3.6560974,0.2101974-7.2696991,0.6632004-10.7555084,1.3483963
		c-4.5821991,0.9009018-9.0947952,2.2201996-13.4117966,3.9207001l-6.8266983,2.6889038
		c-1.4639969,5.9178925-3.0279007,13.6394043-3.967598,22.7612915c-0.4469986,4.3396149-1.6847992,18.0420074-0.0237045,33.6985016
		c1.3170013,12.4147034,4.3811035,41.2985077,25.103302,68.7548981
		c15.3798065,20.3781128,33.3796082,30.5523071,37.608902,32.8597107c3.0839996,1.6828003,6.2427979,3.2182922,9.3887939,4.564209
		l2.1643982,0.9260864l2.1644135-0.9260864c3.1388855-1.342926,6.2981873-2.878418,9.3885956-4.5635071
		c10.1701965-5.5480957,24.9512024-15.7529907,37.6091919-32.8608093
		c3.6547089-4.9386902,6.9835052-10.2521973,9.8937073-15.7931976c0.8060913-1.5350952,2.3166962-4.5516968,4.0762939-8.7498016
		c-1.6335907,1.2713013-3.2870026,2.5121002-4.9367981,3.7020111
		C233.901001,242.8171997,223.4279938,248.8544006,212.4219971,253.7989044z"/>
	<path fill="#00A4DB" d="M293.7572937,121.8125c-0.0849915-3.5121002-0.334198-7.0154037-0.7416992-10.413002l-0.2801819-2.3375015
		l-1.8842163-1.4113998c-2.732605-2.0468979-5.6420898-4.0149002-8.6464844-5.848999
		c-9.8901062-6.0335007-26.1182251-13.7319946-47.2629089-16.139801
		c-6.1043091-0.6957932-12.3704071-0.9218979-18.6240082-0.6717987c-1.7325897,0.0695038-5.1001892,0.2695999-9.6156921,0.8446045
		c1.9176941,0.7790985,3.8188019,1.5906982,5.6741943,2.4244995c10.8540039,4.8737946,21.3186035,10.9250946,31.1036987,17.9844971
		c8.0960999,5.8407974,14.1641998,11.2840042,17.9228058,14.8459015c1.7077942,1.6185989,3.112793,3.016098,4.1275024,4.0439987
		c0.0319824,3.793396-0.1737976,8.4586029-0.9620972,13.7353973c-0.4841919,3.2409058-1.4977112,8.830307-3.7825928,15.5097046
		c-0.7645264,2.2353058-3.2067261,9.1132965-7.8586121,16.989502
		c-7.6276093,12.9147949-16.7792053,21.0467987-22.4409027,25.9989014
		c-6.5437012,5.7236023-21.8318939,17.9533997-44.9174042,25.9205017
		c-8.7119904,3.0066986-16.281189,4.6289978-21.7360992,5.5536957c2.0100098,3.0608978,4.2089996,5.9640045,6.5449982,8.6401978
		c3.0716095,3.5175934,6.4704132,6.7662048,10.1015015,9.6544952l5.7422028,4.5676117
		c5.8572083-1.6909027,13.3258057-4.1975098,21.6952972-7.9445038c3.9820099-1.7826996,16.4674988-7.5621033,29.1959991-16.828598
		c10.0930023-7.3479004,33.5749054-24.443512,46.991806-56.1177979
		C294.0622864,147.3043976,293.8735962,126.629097,293.7572937,121.8125z"/>
</g>
</svg>
