<?xml version="1.0" encoding="utf-8"?>
<!-- Generator: Adobe Illustrator 24.3.0, SVG Export Plug-In . SVG Version: 6.00 Build 0)  -->
<svg version="1.1" id="Layer_1" xmlns="http://www.w3.org/2000/svg" xmlns:xlink="http://www.w3.org/1999/xlink" x="0px" y="0px"
	 viewBox="0 0 857 130" style="enable-background:new 0 0 857 130;" xml:space="preserve">
<style type="text/css">
	.st0{fill:#FFFFFF;}
</style>
<desc>Created with Sketch.</desc>
<g id="Page-1">
	<g id="bcio">
		<path id="Fill-1" class="st0" d="M230.3,88.1V67.1c0-10.8-8.8-19.6-19.7-19.6h-0.9c-4.3,0-8.5,1.5-10.6,4V26.8
			c0-3-2.3-4.6-4.6-4.6s-4.6,1.6-4.6,4.6v76.5c0,2.9,2.3,4.4,4.6,4.4c2.1,0,4.1-1.2,4.5-3.6c1.7,1.7,5.2,3.6,10.5,3.6h1.1
			C221.4,107.6,230.3,98.9,230.3,88.1z M221,88.1c0,5.7-4.6,10.3-10.5,10.3h-1.1c-5.5,0-10.3-3.6-10.3-9.6V66.2
			c0-5.6,4.9-9.4,10.3-9.4h1.1c5.8,0,10.5,4.6,10.5,10.3V88.1z M269.1,103c0-2.3-1.5-4.6-4.6-4.6c-3.8-0.1-6.7-3-6.7-6.8V26.8
			c0-3-2.3-4.6-4.6-4.6c-2.3,0-4.6,1.6-4.6,4.6v64.8c0,8.9,7.1,16.1,15.9,16.1C267.6,107.6,269.1,105.3,269.1,103z M322.1,88.1V67.1
			c0-10.8-8.8-19.6-19.6-19.6h-1.2c-10.8,0-19.6,8.8-19.6,19.6v20.9c0,10.8,8.8,19.6,19.6,19.6h1.2
			C313.3,107.6,322.1,98.9,322.1,88.1z M312.8,88.1c0,5.7-4.6,10.3-10.3,10.3h-1.1c-5.8,0-10.5-4.6-10.5-10.3V67.1
			c0-5.7,4.6-10.3,10.3-10.3h1.2c5.7,0,10.3,4.6,10.3,10.3V88.1z M378.2,88.1c0-3.2-2.3-4.7-4.6-4.7c-2.2,0-4.5,1.6-4.6,4.7
			c-0.2,5.7-4.6,10.3-10.3,10.3h-1.1c-5.8,0-10.5-4.6-10.5-10.3V67.1c0-5.7,4.6-10.3,10.3-10.3h1.2c5.7,0,10.1,4.3,10.3,10.5
			c0.1,3,2.4,4.5,4.6,4.5c2.3,0,4.6-1.6,4.6-4.6c0-10.8-8.9-19.6-19.6-19.6h-1.2c-10.7,0-19.6,8.6-19.6,19.6v20.9
			c0,10.8,8.8,19.6,19.6,19.6h1.2C369.4,107.6,378.2,98.9,378.2,88.1z M436.4,103c0-0.7-0.1-1.6-0.6-2.3l-16.7-29.2l15.1-16.1
			c1-1,1.3-2.1,1.3-3.2c0-2.4-2.1-4.7-4.7-4.7c-1.1,0-2.3,0.5-3.3,1.6l-23.1,24.6V26.8c0-3-2.3-4.6-4.6-4.6c-2.3,0-4.6,1.6-4.6,4.6
			V103c0,3,2.3,4.6,4.6,4.6c2.3,0,4.6-1.6,4.6-4.6V87.3l8.1-8.8l15.2,26.6c1,1.7,2.4,2.4,3.9,2.4C434.5,107.6,436.4,105.4,436.4,103
			z M488.9,88.1c0-3.2-2.3-4.7-4.6-4.7c-2.2,0-4.5,1.6-4.6,4.7c-0.2,5.7-4.6,10.3-10.3,10.3h-1.1c-5.8,0-10.5-4.6-10.5-10.3V67.1
			c0-5.7,4.6-10.3,10.3-10.3h1.2c5.7,0,10.1,4.3,10.3,10.5c0.1,3,2.4,4.5,4.6,4.5c2.3,0,4.6-1.6,4.6-4.6c0-10.8-8.9-19.6-19.6-19.6
			h-1.2c-10.7,0-19.6,8.6-19.6,19.6v20.9c0,10.8,8.8,19.6,19.6,19.6h1.2C480.2,107.6,488.9,98.9,488.9,88.1z M546.3,103V67.1
			c0-10.8-8.8-19.6-19.6-19.6h-1c-4.3,0-8.5,1.5-10.6,3.6V26.8c0-3-2.3-4.6-4.6-4.6c-2.3,0-4.6,1.6-4.6,4.6V103c0,3,2.3,4.6,4.6,4.6
			c2.3,0,4.6-1.6,4.6-4.6V66.5c0-6.3,5.5-9.7,11.1-9.7c5.3,0,10.8,3.3,10.8,10.3V103c0,3,2.3,4.6,4.6,4.6
			C544,107.6,546.3,106,546.3,103z M607.1,102.9c0-1.9-1.2-3.9-3.9-4.4c-2.2-0.4-3.2-1.8-3.2-4V66.3c0-10.5-8.3-18.7-19.1-18.7h-0.9
			c-6.4,0-14.2,2.6-18.1,11.3c-0.4,0.7-0.5,1.5-0.5,2.2c0,2.6,2.3,4.3,4.6,4.3c1.6,0,3.2-0.7,4.1-2.4c2.3-4,4.9-6.1,9.9-6.1h0.9
			c5.4,0,9.8,2.7,9.8,9.8c0,0.6,0,1.6-0.4,2.1c-2.9,4.1-29.9,0.7-30.8,19.9v1.5c0,11.3,9.7,17.5,19.6,17.5h1.1c5,0,9.6-1.8,13.1-4.9
			c1.6,2.3,4.1,4.1,8.3,4.7c0.2,0.1,0.6,0.1,0.9,0.1C605.6,107.6,607.1,105.3,607.1,102.9z M590.8,88.1c0,5.7-4.7,10.3-10.5,10.3
			h-1.1c-6.2,0-10.3-3.3-10.3-8.5v-1c0.4-8.5,12.9-8,21.9-10.5L590.8,88.1L590.8,88.1z M631,103V52.2c0-3-2.3-4.6-4.6-4.6
			s-4.6,1.6-4.6,4.6V103c0,3,2.3,4.6,4.6,4.6S631,106,631,103z M690.8,103V67.1c0-13.4-9.1-19.6-19.5-19.6h-1.1
			c-4.3,0-8.3,1.5-10.5,3.6c-0.5-2.4-2.6-3.6-4.6-3.6c-2.4,0-4.7,1.7-4.7,4.6V103c0,3,2.3,4.6,4.6,4.6c2.3,0,4.6-1.6,4.6-4.6V67.1
			c0-5.7,4.7-10.3,10.5-10.3h1.1c5.8,0,10.5,4.6,10.5,10.3V103c0,3,2.3,4.6,4.6,4.6C688.6,107.6,690.8,106,690.8,103z M738.5,103
			V52.2c0-3-2.3-4.6-4.6-4.6c-2.3,0-4.6,1.6-4.6,4.6V103c0,3,2.3,4.6,4.6,4.6C736.2,107.6,738.5,106,738.5,103z M797,88.1V67.1
			c0-10.8-8.8-19.6-19.6-19.6h-1.2c-10.8,0-19.6,8.8-19.6,19.6v20.9c0,10.8,8.8,19.6,19.6,19.6h1.2C788.3,107.6,797,98.9,797,88.1z
			 M787.8,88.1c0,5.7-4.6,10.3-10.3,10.3h-1.1c-5.8,0-10.5-4.6-10.5-10.3V67.1c0-5.7,4.6-10.3,10.3-10.3h1.2
			c5.7,0,10.3,4.6,10.3,10.3V88.1z"/>
		<path id="Fill-2" class="st0" d="M98.3,61.9c-2.8,0-5.1,2.3-5.1,5.1s2.3,5.1,5.1,5.1s5.1-2.3,5.1-5.1S101.1,61.9,98.3,61.9"/>
		<path id="Fill-3" class="st0" d="M121.9,47.7c-2.8,0-5.1,2.3-5.1,5.1c0,2.8,2.3,5.1,5.1,5.1s5.1-2.3,5.1-5.1
			C127,50,124.7,47.7,121.9,47.7"/>
		<path id="Fill-4" class="st0" d="M145.5,33.6c-2.8,0-5.1,2.3-5.1,5.1c0,2.8,2.3,5.1,5.1,5.1c2.8,0,5.1-2.3,5.1-5.1
			C150.6,35.9,148.4,33.6,145.5,33.6"/>
		<g id="Group-8" transform="translate(24.000000, 0.000000)">
			<path id="Fill-5" class="st0" d="M50.7,19.4c-2.8,0-5.1,2.3-5.1,5.1c0,2.8,2.3,5.1,5.1,5.1c2.8,0,5.1-2.3,5.1-5.1
				C55.8,21.7,53.5,19.4,50.7,19.4"/>
			<path id="Fill-7" class="st0" d="M74.3,5.3c-2.8,0-5.1,2.3-5.1,5.1c0,2.8,2.3,5.1,5.1,5.1s5.1-2.3,5.1-5.1
				C79.4,7.5,77.1,5.3,74.3,5.3"/>
		</g>
		<path id="Fill-9" class="st0" d="M98.3,33.6c-2.8,0-5.1,2.3-5.1,5.1c0,2.8,2.3,5.1,5.1,5.1s5.1-2.3,5.1-5.1
			C103.4,35.9,101.1,33.6,98.3,33.6"/>
		<path id="Fill-10" class="st0" d="M121.9,19.4c-2.8,0-5.1,2.3-5.1,5.1c0,2.8,2.3,5.1,5.1,5.1s5.1-2.3,5.1-5.1
			C127,21.7,124.7,19.4,121.9,19.4"/>
		<path id="Fill-11" class="st0" d="M121.9,76.1c-2.8,0-5.1,2.3-5.1,5.1c0,2.8,2.3,5.1,5.1,5.1s5.1-2.3,5.1-5.1
			C127,78.4,124.7,76.1,121.9,76.1"/>
		<path id="Fill-12" class="st0" d="M145.5,61.9c-2.8,0-5.1,2.3-5.1,5.1s2.3,5.1,5.1,5.1c2.8,0,5.1-2.3,5.1-5.1
			S148.4,61.9,145.5,61.9"/>
		<path id="Fill-13" class="st0" d="M121.9,104.4c-2.8,0-5.1,2.3-5.1,5.1c0,2.8,2.3,5.1,5.1,5.1s5.1-2.3,5.1-5.1
			C127,106.7,124.7,104.4,121.9,104.4"/>
		<path id="Fill-14" class="st0" d="M145.5,90.2c-2.8,0-5.1,2.3-5.1,5.1c0,2.8,2.3,5.1,5.1,5.1c2.8,0,5.1-2.3,5.1-5.1
			C150.6,92.5,148.4,90.2,145.5,90.2"/>
		<path id="Fill-15" class="st0" d="M98.3,118.6c-2.8,0-5.1,2.3-5.1,5.1c0,2.8,2.3,5.1,5.1,5.1s5.1-2.3,5.1-5.1
			C103.4,120.9,101.1,118.6,98.3,118.6"/>
		<path id="Fill-16" class="st0" d="M98.3,90.2c-2.8,0-5.1,2.3-5.1,5.1c0,2.8,2.3,5.1,5.1,5.1s5.1-2.3,5.1-5.1
			C103.4,92.5,101.1,90.2,98.3,90.2"/>
		<path id="Fill-17" class="st0" d="M74.7,47.7c-2.8,0-5.1,2.3-5.1,5.1c0,2.8,2.3,5.1,5.1,5.1c2.8,0,5.1-2.3,5.1-5.1
			S77.5,47.7,74.7,47.7"/>
		<path id="Fill-18" class="st0" d="M74.7,104.4c-2.8,0-5.1,2.3-5.1,5.1c0,2.8,2.3,5.1,5.1,5.1c2.8,0,5.1-2.3,5.1-5.1
			C79.8,106.7,77.5,104.4,74.7,104.4"/>
		<g id="Group-24" transform="translate(0.000000, 29.000000)">
			<path id="Fill-19" class="st0" d="M74.7,47.1c-2.8,0-5.1,2.3-5.1,5.1c0,2.8,2.3,5.1,5.1,5.1c2.8,0,5.1-2.3,5.1-5.1
				C79.8,49.4,77.5,47.1,74.7,47.1"/>
			<path id="Fill-21" class="st0" d="M51.1,4.6c-2.8,0-5.1,2.3-5.1,5.1c0,2.8,2.3,5.1,5.1,5.1s5.1-2.3,5.1-5.1
				C56.2,6.9,53.9,4.6,51.1,4.6"/>
			<path id="Fill-22" class="st0" d="M51.1,61.2c-2.8,0-5.1,2.3-5.1,5.1c0,2.8,2.3,5.1,5.1,5.1s5.1-2.3,5.1-5.1
				C56.2,63.5,53.9,61.2,51.1,61.2"/>
			<path id="Fill-23" class="st0" d="M51.1,32.9c-2.8,0-5.1,2.3-5.1,5.1s2.3,5.1,5.1,5.1s5.1-2.3,5.1-5.1S53.9,32.9,51.1,32.9"/>
		</g>
		<path id="Fill-25" class="st0" d="M626.3,21.9c-2.6,0-4.6,2.1-4.6,4.6s2.1,4.6,4.6,4.6s4.6-2.1,4.6-4.6S628.8,21.9,626.3,21.9"/>
		<path id="Fill-26" class="st0" d="M733.9,21.9c-2.6,0-4.6,2.1-4.6,4.6s2.1,4.6,4.6,4.6c2.6,0,4.6-2.1,4.6-4.6
			C738.5,24,736.4,21.9,733.9,21.9"/>
		<path id="Fill-27" class="st0" d="M709.5,98.7c-2.5,0-4.6,2.1-4.6,4.6s2.1,4.6,4.6,4.6c2.5,0,4.6-2.1,4.6-4.6S712,98.7,709.5,98.7
			"/>
	</g>
</g>
</svg>
