<?xml version="1.0" encoding="utf-8"?>
<!-- Generator: Adobe Illustrator 16.0.0, SVG Export Plug-In . SVG Version: 6.00 Build 0)  -->
<!DOCTYPE svg PUBLIC "-//W3C//DTD SVG 1.1//EN" "http://www.w3.org/Graphics/SVG/1.1/DTD/svg11.dtd">
<svg version="1.1" id="Layer_1" xmlns="http://www.w3.org/2000/svg" xmlns:xlink="http://www.w3.org/1999/xlink" x="0px" y="0px"
	 width="857px" height="130px" viewBox="0 0 857 130" enable-background="new 0 0 857 130" xml:space="preserve">
<title>bcio</title>
<desc>Created with Sketch.</desc>
<g id="Page-1">
	<g id="bcio">
		<path id="Fill-1" fill="#3F46AD" d="M230.275,88.051V67.134c0-10.824-8.755-19.579-19.701-19.579h-0.852
			c-4.256,0-8.513,1.459-10.58,4.013V26.759c0-3.042-2.311-4.621-4.622-4.621s-4.621,1.58-4.621,4.621v76.493
			c0,2.919,2.311,4.378,4.621,4.378c2.068,0,4.135-1.217,4.5-3.646c1.702,1.701,5.229,3.646,10.458,3.646h1.095
			C221.397,107.63,230.275,98.875,230.275,88.051z M221.033,88.051c0,5.716-4.621,10.338-10.459,10.338h-1.095
			c-5.472,0-10.336-3.649-10.336-9.608V66.161c0-5.595,4.865-9.364,10.336-9.364h1.095c5.838,0,10.459,4.622,10.459,10.337V88.051z
			 M269.07,103.008c0-2.31-1.46-4.619-4.621-4.619c-3.771-0.123-6.689-3.041-6.689-6.812V26.759c0-3.042-2.31-4.621-4.622-4.621
			c-2.31,0-4.621,1.58-4.621,4.621v64.818c0,8.877,7.054,16.053,15.932,16.053C267.61,107.63,269.07,105.319,269.07,103.008z
			 M322.091,88.051V67.134c0-10.824-8.755-19.579-19.579-19.579h-1.216c-10.824,0-19.58,8.755-19.58,19.579v20.917
			c0,10.824,8.756,19.579,19.58,19.579h1.216C313.335,107.63,322.091,98.875,322.091,88.051z M312.849,88.051
			c0,5.716-4.621,10.338-10.337,10.338h-1.095c-5.837,0-10.458-4.622-10.458-10.338V67.134c0-5.715,4.621-10.337,10.337-10.337
			h1.216c5.716,0,10.337,4.622,10.337,10.337V88.051z M378.153,88.051c0-3.161-2.31-4.742-4.621-4.742
			c-2.188,0-4.5,1.581-4.621,4.742c-0.243,5.716-4.622,10.338-10.337,10.338h-1.095c-5.837,0-10.458-4.622-10.458-10.338V67.134
			c0-5.715,4.621-10.337,10.337-10.337h1.215c5.716,0,10.094,4.256,10.337,10.458c0.121,3.042,2.433,4.501,4.621,4.501
			c2.311,0,4.621-1.582,4.621-4.622c0-10.824-8.877-19.579-19.58-19.579h-1.215c-10.702,0-19.58,8.634-19.58,19.579v20.917
			c0,10.824,8.756,19.579,19.58,19.579h1.215C369.397,107.63,378.153,98.875,378.153,88.051z M436.404,103.008
			c0-0.729-0.121-1.579-0.607-2.31l-16.662-29.187l15.08-16.052c0.974-0.973,1.338-2.067,1.338-3.162
			c0-2.434-2.069-4.743-4.742-4.743c-1.095,0-2.311,0.485-3.285,1.581L404.42,73.7V26.759c0-3.042-2.311-4.621-4.622-4.621
			c-2.31,0-4.621,1.58-4.621,4.621v76.249c0,3.041,2.311,4.622,4.621,4.622c2.311,0,4.622-1.581,4.622-4.622V87.319l8.147-8.755
			l15.202,26.632c0.973,1.705,2.432,2.434,3.892,2.434C434.459,107.63,436.404,105.44,436.404,103.008z M488.938,88.051
			c0-3.161-2.311-4.742-4.621-4.742c-2.188,0-4.501,1.581-4.622,4.742c-0.243,5.716-4.621,10.338-10.335,10.338h-1.097
			c-5.837,0-10.458-4.622-10.458-10.338V67.134c0-5.715,4.621-10.337,10.338-10.337h1.217c5.714,0,10.092,4.256,10.335,10.458
			c0.121,3.042,2.435,4.501,4.622,4.501c2.311,0,4.621-1.582,4.621-4.622c0-10.824-8.877-19.579-19.578-19.579h-1.217
			c-10.702,0-19.579,8.634-19.579,19.579v20.917c0,10.824,8.756,19.579,19.579,19.579h1.217
			C480.183,107.63,488.938,98.875,488.938,88.051z M546.34,103.008V67.134c0-10.824-8.757-19.579-19.582-19.579h-0.972
			c-4.257,0-8.514,1.459-10.583,3.648V26.759c0-3.042-2.309-4.621-4.617-4.621c-2.312,0-4.621,1.58-4.621,4.621v76.249
			c0,3.041,2.31,4.622,4.621,4.622c2.309,0,4.617-1.581,4.617-4.622V66.526c0-6.325,5.476-9.729,11.071-9.729
			c5.349,0,10.821,3.284,10.821,10.337v35.874c0,3.041,2.311,4.622,4.621,4.622C544.028,107.63,546.34,106.049,546.34,103.008z
			 M607.144,102.89c0-1.948-1.217-3.894-3.892-4.38c-2.188-0.364-3.162-1.826-3.162-4.014V66.281
			c0-10.458-8.269-18.727-19.093-18.727h-0.852c-6.445,0-14.229,2.554-18.12,11.31c-0.364,0.729-0.487,1.458-0.487,2.189
			c0,2.554,2.312,4.256,4.622,4.256c1.582,0,3.162-0.729,4.135-2.433c2.311-4.013,4.865-6.08,9.851-6.08h0.852
			c5.351,0,9.85,2.676,9.85,9.849c0,0.609,0,1.582-0.363,2.068c-2.918,4.136-29.917,0.729-30.769,19.944v1.459
			c0,11.312,9.729,17.513,19.58,17.513h1.095c4.985,0,9.607-1.824,13.134-4.862c1.581,2.31,4.135,4.134,8.269,4.741
			c0.244,0.121,0.608,0.121,0.853,0.121C605.563,107.63,607.144,105.319,607.144,102.89z M590.847,88.051
			c0,5.716-4.743,10.338-10.457,10.338h-1.095c-6.202,0-10.337-3.284-10.337-8.514v-0.974c0.364-8.513,12.891-8.025,21.889-10.457
			V88.051z M630.979,103.008V52.176c0-3.041-2.312-4.621-4.621-4.621s-4.621,1.581-4.621,4.621v50.832
			c0,3.041,2.312,4.622,4.621,4.622S630.979,106.049,630.979,103.008z M690.81,103.008V67.134c0-13.378-9.121-19.579-19.457-19.579
			h-1.095c-4.258,0-8.27,1.459-10.459,3.648c-0.484-2.434-2.555-3.648-4.621-3.648c-2.433,0-4.743,1.702-4.743,4.621v50.832
			c0,3.041,2.311,4.622,4.622,4.622c2.311,0,4.621-1.581,4.621-4.622V67.134c0-5.715,4.743-10.337,10.457-10.337h1.096
			c5.837,0,10.458,4.622,10.458,10.337v35.874c0,3.041,2.312,4.622,4.622,4.622C688.622,107.63,690.81,106.049,690.81,103.008z
			 M738.533,103.008V52.176c0-3.041-2.311-4.621-4.622-4.621c-2.309,0-4.619,1.581-4.619,4.621v50.832
			c0,3.041,2.311,4.622,4.619,4.622C736.223,107.63,738.533,106.049,738.533,103.008z M797.026,88.051V67.134
			c0-10.824-8.756-19.579-19.578-19.579h-1.217c-10.824,0-19.578,8.755-19.578,19.579v20.917c0,10.824,8.754,19.579,19.578,19.579
			h1.217C788.271,107.63,797.026,98.875,797.026,88.051z M787.785,88.051c0,5.716-4.621,10.338-10.337,10.338h-1.095
			c-5.84,0-10.459-4.622-10.459-10.338V67.134c0-5.715,4.619-10.337,10.337-10.337h1.217c5.716,0,10.337,4.622,10.337,10.337V88.051
			z"/>
		<path id="Fill-2" fill="#3F46AD" d="M98.324,61.916c-2.816,0-5.106,2.291-5.106,5.106s2.291,5.105,5.106,5.105
			s5.107-2.29,5.107-5.105S101.14,61.916,98.324,61.916"/>
		<path id="Fill-3" fill="#3F46AD" d="M121.933,47.749c-2.816,0-5.104,2.291-5.104,5.106c0,2.816,2.289,5.105,5.104,5.105
			s5.108-2.29,5.108-5.105C127.042,50.04,124.749,47.749,121.933,47.749"/>
		<path id="Fill-4" fill="#3F46AD" d="M145.543,33.584c-2.815,0-5.106,2.29-5.106,5.105c0,2.816,2.291,5.109,5.106,5.109
			c2.817,0,5.106-2.292,5.106-5.109C150.649,35.874,148.36,33.584,145.543,33.584"/>
		<g id="Group-8" transform="translate(24.000000, 0.000000)">
			<path id="Fill-5" fill="#3F46AD" d="M50.713,19.417c-2.815,0-5.106,2.291-5.106,5.107c0,2.815,2.291,5.105,5.106,5.105
				c2.816,0,5.107-2.29,5.107-5.105C55.82,21.708,53.53,19.417,50.713,19.417"/>
			<path id="Fill-7" fill="#3F46AD" d="M74.324,5.251c-2.816,0-5.106,2.292-5.106,5.107c0,2.816,2.291,5.107,5.106,5.107
				s5.107-2.291,5.107-5.107C79.431,7.543,77.14,5.251,74.324,5.251"/>
		</g>
		<path id="Fill-9" fill="#3F46AD" d="M98.324,33.584c-2.816,0-5.106,2.29-5.106,5.105c0,2.816,2.291,5.109,5.106,5.109
			s5.107-2.292,5.107-5.109C103.431,35.874,101.14,33.584,98.324,33.584"/>
		<path id="Fill-10" fill="#3F46AD" d="M121.933,19.417c-2.816,0-5.104,2.291-5.104,5.107c0,2.815,2.289,5.105,5.104,5.105
			s5.108-2.29,5.108-5.105C127.042,21.708,124.749,19.417,121.933,19.417"/>
		<path id="Fill-11" fill="#3F46AD" d="M121.933,76.082c-2.816,0-5.104,2.29-5.104,5.104c0,2.816,2.289,5.106,5.104,5.106
			s5.108-2.29,5.108-5.106C127.042,78.372,124.749,76.082,121.933,76.082"/>
		<path id="Fill-12" fill="#3F46AD" d="M145.543,61.916c-2.815,0-5.106,2.291-5.106,5.106s2.291,5.105,5.106,5.105
			c2.817,0,5.106-2.29,5.106-5.105S148.36,61.916,145.543,61.916"/>
		<path id="Fill-13" fill="#3F46AD" d="M121.933,104.413c-2.816,0-5.104,2.29-5.104,5.106c0,2.815,2.289,5.105,5.104,5.105
			s5.108-2.29,5.108-5.105C127.042,106.703,124.749,104.413,121.933,104.413"/>
		<path id="Fill-14" fill="#3F46AD" d="M145.543,90.247c-2.815,0-5.106,2.29-5.106,5.106c0,2.815,2.291,5.105,5.106,5.105
			c2.817,0,5.106-2.29,5.106-5.105C150.649,92.537,148.36,90.247,145.543,90.247"/>
		<path id="Fill-15" fill="#3F46AD" d="M98.324,118.579c-2.816,0-5.106,2.291-5.106,5.106c0,2.814,2.291,5.105,5.106,5.105
			s5.107-2.291,5.107-5.105C103.431,120.87,101.14,118.579,98.324,118.579"/>
		<path id="Fill-16" fill="#3F46AD" d="M98.324,90.247c-2.816,0-5.106,2.29-5.106,5.106c0,2.815,2.291,5.105,5.106,5.105
			s5.107-2.29,5.107-5.105C103.431,92.537,101.14,90.247,98.324,90.247"/>
		<path id="Fill-17" fill="#3F46AD" d="M74.713,47.749c-2.815,0-5.106,2.291-5.106,5.106c0,2.816,2.291,5.105,5.106,5.105
			c2.816,0,5.107-2.29,5.107-5.105C79.82,50.04,77.53,47.749,74.713,47.749"/>
		<path id="Fill-18" fill="#3F46AD" d="M74.713,104.413c-2.815,0-5.106,2.29-5.106,5.106c0,2.815,2.291,5.105,5.106,5.105
			c2.816,0,5.107-2.29,5.107-5.105C79.82,106.703,77.53,104.413,74.713,104.413"/>
		<g id="Group-24" transform="translate(0.000000, 29.000000)">
			<path id="Fill-19" fill="#3F46AD" d="M74.713,47.082c-2.815,0-5.106,2.29-5.106,5.104c0,2.816,2.291,5.106,5.106,5.106
				c2.816,0,5.107-2.29,5.107-5.106C79.82,49.372,77.53,47.082,74.713,47.082"/>
			<path id="Fill-21" fill="#3F46AD" d="M51.104,4.584c-2.816,0-5.105,2.29-5.105,5.105c0,2.816,2.29,5.109,5.105,5.109
				c2.815,0,5.107-2.292,5.107-5.109C56.211,6.874,53.919,4.584,51.104,4.584"/>
			<path id="Fill-22" fill="#3F46AD" d="M51.104,61.247c-2.816,0-5.105,2.29-5.105,5.106c0,2.815,2.29,5.105,5.105,5.105
				c2.815,0,5.107-2.29,5.107-5.105C56.211,63.537,53.919,61.247,51.104,61.247"/>
			<path id="Fill-23" fill="#3F46AD" d="M51.104,32.916c-2.816,0-5.105,2.291-5.105,5.106s2.29,5.105,5.105,5.105
				c2.815,0,5.107-2.29,5.107-5.105S53.919,32.916,51.104,32.916"/>
		</g>
		<path id="Fill-25" fill="#3F46AD" d="M626.282,21.884c-2.562,0-4.648,2.083-4.648,4.645c0,2.562,2.087,4.646,4.648,4.646
			s4.646-2.084,4.646-4.646C630.928,23.967,628.844,21.884,626.282,21.884"/>
		<path id="Fill-26" fill="#3F46AD" d="M733.872,21.884c-2.562,0-4.647,2.083-4.647,4.645c0,2.562,2.086,4.646,4.647,4.646
			c2.563,0,4.646-2.084,4.646-4.646C738.519,23.967,736.435,21.884,733.872,21.884"/>
		<path id="Fill-27" fill="#3F46AD" d="M709.499,98.721c-2.547,0-4.622,2.072-4.622,4.62s2.075,4.622,4.622,4.622
			c2.549,0,4.621-2.074,4.621-4.622S712.048,98.721,709.499,98.721"/>
	</g>
</g>
</svg>
