<?xml version="1.0" encoding="UTF-8"?>
<svg width="135px" height="130px" viewBox="0 0 135 130" version="1.1" xmlns="http://www.w3.org/2000/svg" xmlns:xlink="http://www.w3.org/1999/xlink">
    <!-- Generator: Sketch 52.2 (67145) - http://www.bohemiancoding.com/sketch -->
    <title>Group 11</title>
    <desc>Created with Sketch.</desc>
    <g id="Page-1" stroke="none" stroke-width="1" fill="none" fill-rule="evenodd">
        <g id="Group-11">
            <path d="M1.17721572,14.92 C10.5105491,4.97333333 32.5105491,-1.13686838e-13 67.1772157,-1.13686838e-13 C101.843882,-1.13686838e-13 123.843882,4.97333333 133.177216,14.92 L133.177216,15 C137.124615,28.0562371 130.431648,49.5954627 113.098315,79.6176766 C95.7649814,109.639891 80.4579484,126.205783 67.1772157,129.315353 L67.0983147,129.315353 C53.8175821,126.205783 38.5105491,109.639891 21.1772157,79.6176766 C3.84388238,49.5954627 -2.84908461,28.0562371 1.09831474,15" id="Path-5" fill="#419CF8"></path>
            <g id="user" transform="translate(23.000000, 16.000000)" stroke="#FFFFFF" stroke-linecap="round" stroke-linejoin="round" stroke-width="2">
                <path d="M23,26 L23,23.3333333 C23,20.3878147 20.4256373,18 17.25,18 L5.75,18 C2.57436269,18 0,20.3878147 0,23.3333333 L0,26" id="Path"></path>
                <circle id="Oval" cx="11" cy="6" r="6"></circle>
            </g>
            <g id="user" transform="translate(88.275530, 16.000000)" stroke="#FFFFFF" stroke-linecap="round" stroke-linejoin="round" stroke-width="2">
                <path d="M23,26 L23,23.3333333 C23,20.3878147 20.4256373,18 17.25,18 L5.75,18 C2.57436269,18 0,20.3878147 0,23.3333333 L0,26" id="Path"></path>
                <circle id="Oval" cx="11" cy="6" r="6"></circle>
            </g>
            <g id="user" transform="translate(56.000000, 74.000000)" stroke="#FFFFFF" stroke-linecap="round" stroke-linejoin="round" stroke-width="2">
                <path d="M23,26 L23,23.3333333 C23,20.3878147 20.4256373,18 17.25,18 L5.75,18 C2.57436269,18 0,20.3878147 0,23.3333333 L0,26" id="Path"></path>
                <circle id="Oval" cx="11" cy="6" r="6"></circle>
            </g>
            <path d="M84,52.8527221 L75.5,65.87" id="Line" stroke="#FFFFFF" stroke-width="2" stroke-linecap="square"></path>
            <path d="M52,52.8527221 L60.5,65.87 L52,52.8527221 Z" id="Line" stroke="#FFFFFF" stroke-width="2" stroke-linecap="square"></path>
            <path d="M79,47.08 L56,47.08" id="Line" stroke="#FFFFFF" stroke-width="2" stroke-linecap="square"></path>
        </g>
    </g>
</svg>