<?xml version='1.0' encoding='utf-8'?>
<!-- Generator: imaengine 6.0   -->
<svg viewBox="0,0,1440,1443" xmlns:xlink="http://www.w3.org/1999/xlink" xmlns="http://www.w3.org/2000/svg" width="1440" height="1443" version="1.1">
<defs/>
<g id="layer0">
<path d="M0,0M0,1443L105,1443L210,1443L315,1443L420,1443C419.1,1438.5 421.7,1434 423,1434C430.9,1416.5 436.7,1394.7 454,1389C466.6,1392.5 469.5,1419.2 478,1434C478.7,1437.9 483.3,1440.8 483,1443L562,1443C561.2,1439.3 558.6,1436.9 556,1434L555,1434C555.7,1430.1 550.3,1429.1 552,1426C543.9,1413.6 531.4,1405.1 525,1390C514,1371.1 503.7,1348.9 490,1333C483.7,1328.3 481.5,1318.5 477,1311L471,1311C459.5,1298.5 446.2,1287.8 441,1269C432.9,1255.6 426.5,1231.4 429,1213C427.8,1202.2 421.1,1182.1 427,1174C427,1166.9 425,1157.4 424,1152L423,1152C419,1143.9 418.7,1128.9 418,1119L415,1119C409.7,1109 409.2,1089.4 418,1083C421.1,1067.3 425.9,1051.2 429,1038C432.8,1020.8 426.5,1002.1 430,987L429,987L429,979C422.7,1005.7 407.5,1024.9 391,1039C379.5,1060 365.3,1080.1 355,1101C346.6,1124.5 342.2,1154.5 328,1171C310.7,1186.2 287.4,1197.2 267,1207C244.3,1217.3 221.6,1229 205,1243C185.3,1255.8 170,1274.9 150,1285C130.8,1298.8 102.5,1304.9 79,1312C53.2,1318.7 28.1,1327.9 0,1330L0,1387L0,1443Z" stroke="#c4d1d0" stroke-width="0.75" stroke-linecap="round" fill="#c4d1d0" stroke-linejoin="round"/>
<path d="M0,0M420,1443L483,1443C483.3,1440.8 478.7,1437.9 478,1434C468.9,1443.4 449.3,1437 429,1440C426.9,1438.5 421,1437.4 423,1434C421.7,1434 419.1,1438.5 420,1443Z" stroke="#16697b" stroke-width="0.75" stroke-linecap="round" fill="#16697b" stroke-linejoin="round"/>
<path d="M0,0M562,1443L597,1443C603.1,1423.1 618,1412 634,1402C655.8,1395.2 681.8,1405.3 690,1417C709.9,1423.6 723.2,1436.3 748,1437C764.9,1439.8 805.5,1431.4 816,1443L864,1443C856.1,1429.6 855.7,1406.2 847,1395C837.7,1383.8 827.2,1373.3 808,1371C786.7,1370.2 771.4,1375.9 751,1377C732.3,1375.2 716.7,1369.8 712,1353C690.8,1349.7 672.5,1343 657,1333C639.7,1326.4 627.4,1312.1 606,1311C593.9,1307.4 592.8,1318.5 603,1315C599.6,1322.6 589.3,1340.6 589,1359C590.6,1386.3 573,1401.4 567,1417C570,1424.4 554.1,1423.4 556,1434C558.6,1436.9 561.2,1439.3 562,1443Z" stroke="#77a3aa" stroke-width="0.75" stroke-linecap="round" fill="#77a3aa" stroke-linejoin="round"/>
<path d="M0,0M597,1443L652,1443L706,1443L762,1443L816,1443C805.5,1431.4 764.9,1439.8 748,1437C723.2,1436.3 709.9,1423.6 690,1417C681.8,1405.3 655.8,1395.2 634,1402C618,1412 603.1,1423.1 597,1443Z" stroke="#91b0b5" stroke-width="0.75" stroke-linecap="round" fill="#91b0b5" stroke-linejoin="round"/>
<path d="M0,0M864,1443L879,1443L880,1440C880.1,1425.7 882.4,1416.1 880,1392L880,1389C877.3,1372.9 865.7,1362.6 856,1354C847.1,1344.7 832.4,1337.5 814,1338C793.9,1336.7 775.8,1340.5 762,1344C746,1347.3 724.8,1348 712,1353C716.7,1369.8 732.3,1375.2 751,1377C771.4,1375.9 786.7,1370.2 808,1371C827.2,1373.3 837.7,1383.8 847,1395C855.7,1406.2 856.1,1429.6 864,1443Z" stroke="#5392a3" stroke-width="0.75" stroke-linecap="round" fill="#5392a3" stroke-linejoin="round"/>
<path d="M0,0M879,1443L955,1443C957.4,1440.8 957.7,1433.6 960,1434C967.6,1413.3 982.7,1376.8 1011,1398C1017,1395.8 1022.1,1405.7 1029,1407C1016.7,1396.5 999.1,1392.3 1017,1374C1024.1,1348.5 996.6,1345.4 984,1354C975.6,1362.2 945.1,1367.5 939,1359C947.5,1347.2 952.2,1329.1 960,1318L955,1318C949.1,1335.4 940.3,1352.3 933,1366C925,1381.5 916.2,1395.7 909,1411C901.4,1422.9 888.4,1428.9 880,1440L879,1443Z" stroke="#cad4d4" stroke-width="0.75" stroke-linecap="round" fill="#cad4d4" stroke-linejoin="round"/>
<path d="M0,0M955,1443L1008,1443C1020.7,1439.5 1030.7,1430.4 1038,1423C1037.1,1416.3 1032.1,1409.7 1029,1407C1022.1,1405.7 1017,1395.8 1011,1398C1014,1402.7 1005,1406.8 1008,1416C1023.1,1449.9 979.9,1436.2 967,1440C963.5,1439.9 960.3,1435.6 960,1434C957.7,1433.6 957.4,1440.8 955,1443Z" stroke="#0f525c" stroke-width="0.75" stroke-linecap="round" fill="#0f525c" stroke-linejoin="round"/>
<path d="M0,0M1008,1443L1033,1443C1038.3,1440.5 1045,1428.8 1038,1423C1030.7,1430.4 1020.7,1439.5 1008,1443Z" stroke="#4a91a3" stroke-width="0.75" stroke-linecap="round" fill="#4a91a3" stroke-linejoin="round"/>
<path d="M0,0M1033,1443L1095,1443L1156,1443C1158.7,1419.2 1168.5,1403 1179,1387C1190.4,1372.9 1207.4,1363.9 1222,1353C1239,1343.6 1256.2,1334.7 1269,1321C1282.9,1312.8 1289.2,1282.7 1288,1270C1273.8,1263.2 1260.1,1254.9 1245,1248C1231.8,1239.2 1216.5,1232.5 1203,1224C1187.4,1217.6 1173.4,1209.6 1159,1201C1144.8,1194.8 1130,1185.9 1116,1180C1101.3,1173.2 1091.5,1161 1078,1152C1072,1137.2 1045,1140.4 1044,1122C1039.5,1104.5 1035.2,1086.8 1032,1068C1029.4,1049.3 1018.1,1036.8 1014,1021C1005.5,1040.5 1018.3,1058.3 1017,1078C1029.7,1097 1022,1124.3 1018,1146C1016.8,1167.7 1011,1198.3 1012,1213C1011.9,1239.9 994.7,1249.7 991,1273C987.6,1299.1 974.7,1306.3 960,1318C952.2,1329.1 947.5,1347.2 939,1359C945.1,1367.5 975.6,1362.2 984,1354C996.6,1345.4 1024.1,1348.5 1017,1374C999.1,1392.3 1016.7,1396.5 1029,1407C1032.1,1409.7 1037.1,1416.3 1038,1423C1045,1428.8 1038.3,1440.5 1033,1443Z" stroke="#b4c7c7" stroke-width="0.75" stroke-linecap="round" fill="#b4c7c7" stroke-linejoin="round"/>
<path d="M0,0M1156,1443L1228,1443L1299,1443L1369,1443L1440,1443L1440,1386L1440,1329C1410.6,1323.4 1388.5,1310.5 1363,1300C1337.4,1291.6 1311,1283 1288,1270C1289.2,1282.7 1282.9,1312.8 1269,1321C1256.2,1334.7 1239,1343.6 1222,1353C1207.4,1363.9 1190.4,1372.9 1179,1387C1168.5,1403 1158.7,1419.2 1156,1443Z" stroke="#c9d4d4" stroke-width="0.75" stroke-linecap="round" fill="#c9d4d4" stroke-linejoin="round"/>
<path d="M0,0M429,1440C449.3,1437 468.9,1443.4 478,1434C469.5,1419.2 466.6,1392.5 454,1389C436.7,1394.7 430.9,1416.5 423,1434C421,1437.4 426.9,1438.5 429,1440Z" stroke="#093e40" stroke-width="0.75" stroke-linecap="round" fill="#093e40" stroke-linejoin="round"/>
<path d="M0,0M880,1440C888.4,1428.9 901.4,1422.9 909,1411L900,1411C895.1,1403.4 879.5,1406 880,1392C882.4,1416.1 880.1,1425.7 880,1440Z" stroke="#166a7b" stroke-width="0.75" stroke-linecap="round" fill="#166a7b" stroke-linejoin="round"/>
<path d="M0,0M967,1440C979.9,1436.2 1023.1,1449.9 1008,1416C1005,1406.8 1014,1402.7 1011,1398C982.7,1376.8 967.6,1413.3 960,1434C960.3,1435.6 963.5,1439.9 967,1440Z" stroke="#042119" stroke-width="0.75" stroke-linecap="round" fill="#042119" stroke-linejoin="round"/>
<path d="M0,0M1056,1438C1059.2,1439.5 1056.7,1431.5 1057,1432L1057,1423L1054,1423C1054,1429.1 1054.6,1437.1 1056,1438Z" stroke="#71a0a9" stroke-width="0.75" stroke-linecap="round" fill="#71a0a9" stroke-linejoin="round"/>
<path d="M0,0M555,1434L556,1434C554.1,1423.4 570,1424.4 567,1417C559.8,1418.3 559.3,1425.8 552,1426C550.3,1429.1 555.7,1430.1 555,1434Z" stroke="#6a9ea8" stroke-width="0.75" stroke-linecap="round" fill="#6a9ea8" stroke-linejoin="round"/>
<path d="M0,0M1053,1432C1056.2,1432.6 1053.6,1423.4 1054,1423C1054.2,1420.2 1055.6,1411.8 1053,1413L1053,1432Z" stroke="#619aa6" stroke-width="0.75" stroke-linecap="round" fill="#619aa6" stroke-linejoin="round"/>
<path d="M0,0M1057,1432C1062.6,1430.6 1059.8,1420.8 1060,1414C1057.7,1415.3 1057.1,1421.7 1057,1423L1057,1432Z" stroke="#72a0a9" stroke-width="0.75" stroke-linecap="round" fill="#72a0a9" stroke-linejoin="round"/>
<path d="M0,0M552,1426C559.3,1425.8 559.8,1418.3 567,1417C573,1401.4 590.6,1386.3 589,1359C589.3,1340.6 599.6,1322.6 603,1315C592.8,1318.5 593.9,1307.4 606,1311C590.9,1288.9 556.5,1311.7 559,1335C557.1,1362.6 549.5,1385 526,1392L525,1390C531.4,1405.1 543.9,1413.6 552,1426Z" stroke="#5292a3" stroke-width="0.75" stroke-linecap="round" fill="#5292a3" stroke-linejoin="round"/>
<path d="M0,0M1054,1423L1057,1423C1057.1,1421.7 1057.7,1415.3 1060,1414C1061.1,1399.9 1064,1384.7 1068,1375L1066,1375C1064.1,1373 1059.6,1372.5 1059,1374C1053.1,1383.1 1055.7,1400.7 1053,1413C1055.6,1411.8 1054.2,1420.2 1054,1423Z" stroke="#1a7285" stroke-width="0.75" stroke-linecap="round" fill="#1a7285" stroke-linejoin="round"/>
<path d="M0,0M900,1411L909,1411C916.2,1395.7 925,1381.5 933,1366C940.3,1352.3 949.1,1335.4 955,1318C959.3,1308.3 962.5,1297.5 969,1290C970.9,1284.5 968.6,1285.1 969,1278C964.1,1285.2 961.9,1298.4 957,1303C953.3,1316 946.3,1328.1 943,1339C938.1,1351.3 930.9,1364.2 925,1374C917.6,1385.1 915.9,1402.4 903,1408C896.7,1400.8 881.9,1401.6 886,1383L882,1383C882.5,1385.6 881.9,1390.6 880,1389L880,1392C879.5,1406 895.1,1403.4 900,1411Z" stroke="#0d4c56" stroke-width="0.75" stroke-linecap="round" fill="#0d4c56" stroke-linejoin="round"/>
<path d="M0,0M903,1408C915.9,1402.4 917.6,1385.1 925,1374L924,1374C916.2,1368.8 905.2,1366.8 898,1360C895.5,1368.6 891.8,1379.3 886,1383C881.9,1401.6 896.7,1400.8 903,1408Z" stroke="#135f6f" stroke-width="0.75" stroke-linecap="round" fill="#135f6f" stroke-linejoin="round"/>
<path d="M0,0M526,1392C549.5,1385 557.1,1362.6 559,1335C556.5,1311.7 590.9,1288.9 606,1311C627.4,1312.1 639.7,1326.4 657,1333C672.5,1343 690.8,1349.7 712,1353C724.8,1348 746,1347.3 762,1344C775.8,1340.5 793.9,1336.7 814,1338C832.4,1337.5 847.1,1344.7 856,1354C865.7,1362.6 877.3,1372.9 880,1389C879.1,1375.9 882.9,1366.8 882,1383L886,1383C891.8,1379.3 895.5,1368.6 898,1360C904.3,1345.3 909.5,1329.5 916,1315L915,1315C899.9,1297.6 888.9,1275.6 874,1257C856.8,1234.6 818.1,1253.3 804,1263C781.3,1273.3 764.5,1289.5 726,1284C693.7,1283.8 662.7,1280.5 649,1263C632.6,1246.9 620,1226.5 607,1206C598.8,1182.2 569.1,1177.6 547,1168C523.7,1159.3 505.8,1144.2 511,1105C514.7,1100.7 515.8,1090.1 519,1087C530,1066.1 550.6,1071.5 553,1095C547.5,1078 541.3,1061.2 531,1048C534.4,1032 509.4,1035.6 520,1006C521.3,1002.3 518.9,994.9 522,993C511.7,983.7 513.7,959.6 522,948C521.1,921.6 546.5,939.8 552,946C564.8,953.7 575.1,963.4 595,963C610,958.2 618.4,944.7 634,943C633,933 634.4,924.8 637,918C629.1,919.8 627.5,904.7 637,906L637,904L631,904C629.7,896.1 611.8,871.5 630,871L630,870C618.6,868.7 609.2,872.8 600,871C595.9,873.5 586.4,873.6 583,874L562,895C566.6,900.8 566.4,909.4 558,907C557.8,904.3 552.1,900.1 555,898C553.2,893.5 549.6,899.9 544,900L544,898C534,904.6 548.1,919.2 537,919C529.5,911.1 532.6,883.6 534,873L534,871L532,871C533.3,867.3 530.9,859.9 534,858C530.5,832.2 545.4,832.8 555,823C536.6,813.2 561.1,786.8 577,798C597.4,803 604.1,793.3 619,783C620.1,779.5 627.2,779.1 628,778C627.2,773.6 632.1,771.4 633,771C635.2,769.1 640.2,766.6 639,763C637.9,760.5 632.9,758 633,756L631,756C625.1,752.5 632.6,745.1 639,745C654.6,745.9 665.5,751 676,756C680.4,753.5 676.2,746.8 676,745C648.6,741 621.9,733.3 621,703C598.6,690.9 588.4,743.1 567,729C544.6,736.9 544.7,755.7 517,754C521.6,769.2 505.4,783.6 493,790C478.9,797.2 467.7,809.8 459,820C450.4,833.2 446,852.6 439,865C432.6,879.9 418.3,889.4 409,900C405.1,883.1 397.8,866.6 394,850C389,835 385.4,817.6 379,802C382.7,817.6 387,834.2 391,846C393.7,861.8 400.2,873.3 403,888C408,901.5 414,913.5 418,927C423.9,939.6 428.9,952.6 429,970C432.2,973.3 429.7,981.8 430,987C426.5,1002.1 432.8,1020.8 429,1038C425.9,1051.2 421.1,1067.3 418,1083L418,1087C421.7,1091.3 419.1,1100.9 420,1107C417,1121.9 426.3,1167.3 424,1131L424,1125C425.3,1120.7 422.8,1109.7 426,1110L426,1086C424.9,1075.5 438,1071.6 436,1084C437.4,1108.9 440.2,1133.8 444,1153C447.9,1175 453.4,1197.1 459,1215C467.3,1234.7 472.3,1257.7 481,1276C484.6,1296.9 500.8,1321.5 490,1333C503.7,1348.9 514,1371.1 525,1390L526,1392Z" stroke="#37859a" stroke-width="0.75" stroke-linecap="round" fill="#37859a" stroke-linejoin="round"/>
<path d="M0,0M880,1389C883.7,1390 881.2,1382 882,1383C882.9,1366.8 879.1,1375.9 880,1389Z" stroke="#277e93" stroke-width="0.75" stroke-linecap="round" fill="#277e93" stroke-linejoin="round"/>
<path d="M0,0M1066,1375L1068,1375C1076.6,1354.1 1084.8,1332.3 1089,1306C1092,1284.4 1096,1242.8 1086,1227C1067.7,1234.6 1082.6,1280.9 1077,1303C1074,1329.9 1063.1,1350.5 1059,1374C1059.6,1372.5 1064.1,1373 1066,1375Z" stroke="#4a91a3" stroke-width="0.75" stroke-linecap="round" fill="#4a91a3" stroke-linejoin="round"/>
<path d="M0,0M924,1374L925,1374C930.9,1364.2 938.1,1351.3 943,1339L940,1339C910.8,1336.8 930.7,1315.1 934,1299C928.3,1298 927.8,1306 924,1305L924,1302C920.4,1305.4 919.2,1311.2 916,1315C909.5,1329.5 904.3,1345.3 898,1360C905.2,1366.8 916.2,1368.8 924,1374Z" stroke="#0d4c55" stroke-width="0.75" stroke-linecap="round" fill="#0d4c55" stroke-linejoin="round"/>
<path d="M0,0M940,1339L943,1339C946.3,1328.1 953.3,1316 957,1303C951.7,1299.6 941.4,1297.5 937,1294C935,1294.1 934,1298.7 934,1299C930.7,1315.1 910.8,1336.8 940,1339Z" stroke="#062c2a" stroke-width="0.75" stroke-linecap="round" fill="#062c2a" stroke-linejoin="round"/>
<path d="M0,0M490,1333C500.8,1321.5 484.6,1296.9 481,1276C472.3,1257.7 467.3,1234.7 459,1215C453.8,1237.3 477,1261.3 465,1278C466.5,1291.5 475.5,1297.5 477,1311C481.5,1318.5 483.7,1328.3 490,1333Z" stroke="#125b6a" stroke-width="0.75" stroke-linecap="round" fill="#125b6a" stroke-linejoin="round"/>
<path d="M0,0M955,1318L960,1318C974.7,1306.3 987.6,1299.1 991,1273C994.7,1249.7 1011.9,1239.9 1012,1213C1011,1198.3 1016.8,1167.7 1018,1146C1022,1124.3 1029.7,1097 1017,1078L1017,1113C1014,1129.3 1013.8,1151 1009,1164C1007.1,1180.6 1003.9,1196.4 999,1210C994.7,1226.9 988.4,1241.8 991,1255C987.1,1270.1 979.7,1281.7 969,1290C962.5,1297.5 959.3,1308.3 955,1318Z" stroke="#71a0a9" stroke-width="0.75" stroke-linecap="round" fill="#71a0a9" stroke-linejoin="round"/>
<path d="M0,0M915,1315L916,1315C919.2,1311.2 920.4,1305.4 924,1302C928.9,1293.7 934.1,1282.7 939,1276C939.6,1272.1 940.6,1268.1 943,1266C950.2,1253.7 956.2,1240.6 963,1228C968.1,1214.3 974.7,1199 979,1186C984.2,1171.9 989.2,1155.1 993,1141C994.8,1128.1 998,1113.1 1000,1102C999.2,1095 1002.8,1089.1 1003,1086C980.5,1095.1 966.8,1065.4 960,1045C954.4,1028.1 927.2,1000.4 909,1023C902.7,1038.2 904,1044.5 897,1059C891,1070.4 883.7,1081.5 877,1096L879,1096C908,1102.3 890.4,1146.1 873,1149C855.4,1161.3 837.6,1173.6 817,1183C798.4,1194.4 783.2,1209.2 766,1222C749.8,1235.8 735.4,1251.4 705,1251C686.5,1246.2 671.1,1235.9 658,1227C638.5,1228.8 631.8,1207 618,1200C604.4,1190.2 590.5,1178.5 579,1168C557.8,1162.9 573.9,1127 583,1123L576,1116L574,1116C568.8,1107.7 554.3,1108.1 553,1095C550.6,1071.5 530,1066.1 519,1087C515.8,1090.1 514.7,1100.7 511,1105C505.8,1144.2 523.7,1159.3 547,1168C569.1,1177.6 598.8,1182.2 607,1206C620,1226.5 632.6,1246.9 649,1263C662.7,1280.5 693.7,1283.8 726,1284C764.5,1289.5 781.3,1273.3 804,1263C818.1,1253.3 856.8,1234.6 874,1257C888.9,1275.6 899.9,1297.6 915,1315Z" stroke="#1b758a" stroke-width="0.75" stroke-linecap="round" fill="#1b758a" stroke-linejoin="round"/>
<path d="M0,0M471,1311L477,1311C475.5,1297.5 466.5,1291.5 465,1278L463,1278C461.1,1269.4 455.4,1264.1 453,1255L450,1255C437.2,1247.3 439.8,1223.7 429,1213C426.5,1231.4 432.9,1255.6 441,1269C446.2,1287.8 459.5,1298.5 471,1311Z" stroke="#7da7ac" stroke-width="0.75" stroke-linecap="round" fill="#7da7ac" stroke-linejoin="round"/>
<path d="M0,0M924,1305C927.8,1306 928.3,1298 934,1299C933.4,1295.8 937.4,1294.2 937,1294C945.9,1272.5 955.4,1249.5 963,1228C956.2,1240.6 950.2,1253.7 943,1266C944.3,1270 945.9,1276.5 939,1276C934.1,1282.7 928.9,1293.7 924,1302L924,1305Z" stroke="#093839" stroke-width="0.75" stroke-linecap="round" fill="#093839" stroke-linejoin="round"/>
<path d="M0,0M957,1303C961.9,1298.4 964.1,1285.2 969,1278C976.2,1256.2 984.6,1235.6 990,1212C996.5,1190.1 1002.4,1165.5 1005,1141C1003.1,1142.3 1003.4,1148.5 1000,1146C998,1141.1 995.5,1146.4 993,1141C989.2,1155.1 984.2,1171.9 979,1186C974.7,1199 968.1,1214.3 963,1228C955.4,1249.5 945.9,1272.5 937,1294C941.4,1297.5 951.7,1299.6 957,1303Z" stroke="#031c12" stroke-width="0.75" stroke-linecap="round" fill="#031c12" stroke-linejoin="round"/>
<path d="M0,0M969,1290C979.7,1281.7 987.1,1270.1 991,1255C988.4,1241.8 994.7,1226.9 999,1210C1003.9,1196.4 1007.1,1180.6 1009,1164C1013.8,1151 1014,1129.3 1017,1113L1015,1113L1015,1101L1014,1101L1011,1099C1011.3,1105.9 1011.2,1115.4 1008,1116C1008.5,1125.6 1006.4,1136 1005,1141C1002.4,1165.5 996.5,1190.1 990,1212C984.6,1235.6 976.2,1256.2 969,1278C968.6,1285.1 970.9,1284.5 969,1290Z" stroke="#1b758a" stroke-width="0.75" stroke-linecap="round" fill="#1b758a" stroke-linejoin="round"/>
<path d="M0,0M240,1284C264.7,1279.8 268,1250.2 274,1231C257.3,1239.5 241.1,1256.2 240,1284Z" stroke="#9bb8b9" stroke-width="0.75" stroke-linecap="round" fill="#9bb8b9" stroke-linejoin="round"/>
<path d="M0,0M463,1278L465,1278C477,1261.3 453.8,1237.3 459,1215C453.4,1197.1 447.9,1175 444,1153C440.2,1133.8 437.4,1108.9 436,1084C434,1085.6 428,1086.7 426,1086L426,1110C425.2,1114.3 427.7,1125.3 424,1125L424,1131C426.8,1134.9 426.8,1148.1 424,1152C425,1157.4 427,1166.9 427,1174C437.3,1182.7 437.3,1200.7 442,1213C445.7,1227.5 450.7,1242.6 453,1255C455.4,1264.1 461.1,1269.4 463,1278Z" stroke="#052922" stroke-width="0.75" stroke-linecap="round" fill="#052922" stroke-linejoin="round"/>
<path d="M0,0M939,1276C945.9,1276.5 944.3,1270 943,1266C940.6,1268.1 939.6,1272.1 939,1276Z" stroke="#0d4c55" stroke-width="0.75" stroke-linecap="round" fill="#0d4c55" stroke-linejoin="round"/>
<path d="M0,0M450,1255L453,1255C450.7,1242.6 445.7,1227.5 442,1213C437.3,1200.7 437.3,1182.7 427,1174C421.1,1182.1 427.8,1202.2 429,1213C439.8,1223.7 437.2,1247.3 450,1255Z" stroke="#217b90" stroke-width="0.75" stroke-linecap="round" fill="#217b90" stroke-linejoin="round"/>
<path d="M0,0M705,1251C735.4,1251.4 749.8,1235.8 766,1222C783.2,1209.2 798.4,1194.4 817,1183C837.6,1173.6 855.4,1161.3 873,1149C890.4,1146.1 908,1102.3 879,1096C862.5,1108 859.7,1138.3 831,1138C819.1,1136.1 832.8,1111 819,1110C814.8,1112 806.7,1113.3 802,1113C785.7,1102.4 774.6,1083.9 756,1077C730.8,1077 720.1,1055.8 706,1048C702.2,1061.2 693.8,1084.4 684,1081C682,1065.3 669.5,1089.7 652,1081C632,1075.7 641,1111.1 630,1117C612.9,1107.2 610.6,1124.9 598,1132C592.3,1130.7 589.1,1125.9 583,1123C573.9,1127 557.8,1162.9 579,1168C590.5,1178.5 604.4,1190.2 618,1200C631.8,1207 638.5,1228.8 658,1227C671.1,1235.9 686.5,1246.2 705,1251Z" stroke="#13606f" stroke-width="0.75" stroke-linecap="round" fill="#13606f" stroke-linejoin="round"/>
<path d="M0,0M423,1152L424,1152C426.8,1148.1 426.8,1134.9 424,1131C426.3,1167.3 417,1121.9 420,1107C419.1,1100.9 421.7,1091.3 418,1087L418,1119C418.7,1128.9 419,1143.9 423,1152Z" stroke="#2d8297" stroke-width="0.75" stroke-linecap="round" fill="#2d8297" stroke-linejoin="round"/>
<path d="M0,0M750,1149C755.9,1148.7 760.1,1139.8 766,1144C792.7,1151.2 781.9,1114.3 766,1116C745.2,1118.3 710,1101.6 709,1102C694.1,1106.8 643.4,1127.6 684,1141C691.1,1142.4 696.3,1145.2 705,1144C721.8,1152.6 738,1132.3 750,1149Z" stroke="#093e3f" stroke-width="0.75" stroke-linecap="round" fill="#093e3f" stroke-linejoin="round"/>
<path d="M0,0M1000,1146C1003.4,1148.5 1003.1,1142.3 1005,1141C1006.4,1136 1008.5,1125.6 1008,1116C1007.7,1109.3 1010.8,1099.2 1000,1102C998,1113.1 994.8,1128.1 993,1141C995.5,1146.4 998,1141.1 1000,1146Z" stroke="#062d2a" stroke-width="0.75" stroke-linecap="round" fill="#062d2a" stroke-linejoin="round"/>
<path d="M0,0M831,1138C859.7,1138.3 862.5,1108 879,1096L877,1096C849.9,1089.6 835,1068.2 835,1035C841.7,1006.4 772.1,999.3 784,1026C795.8,1035 804.2,1049.5 813,1059C822.1,1072 820.5,1089.6 819,1110C832.8,1111 819.1,1136.1 831,1138Z" stroke="#3b8a9e" stroke-width="0.75" stroke-linecap="round" fill="#3b8a9e" stroke-linejoin="round"/>
<path d="M0,0M598,1132C610.6,1124.9 612.9,1107.2 630,1117C641,1111.1 632,1075.7 652,1081C669.5,1089.7 682,1065.3 684,1081C693.8,1084.4 702.2,1061.2 706,1048C702.1,1029.1 727.9,1018.9 738,1006C728.5,1020 701.8,1016.3 685,1023C667.9,1028.4 655.4,1038.9 639,1045C613.4,1042.9 616.3,1068.8 607,1083C601.1,1097.1 579.4,1105.2 576,1116L583,1123C589.1,1125.9 592.3,1130.7 598,1132Z" stroke="#3a899e" stroke-width="0.75" stroke-linecap="round" fill="#3a899e" stroke-linejoin="round"/>
<path d="M0,0M424,1125C427.7,1125.3 425.2,1114.3 426,1110C422.8,1109.7 425.3,1120.7 424,1125Z" stroke="#0c4850" stroke-width="0.75" stroke-linecap="round" fill="#0c4850" stroke-linejoin="round"/>
<path d="M0,0M415,1119L418,1119L418,1087L418,1083C409.2,1089.4 409.7,1109 415,1119Z" stroke="#85aaaf" stroke-width="0.75" stroke-linecap="round" fill="#85aaaf" stroke-linejoin="round"/>
<path d="M0,0M574,1116L576,1116C579.4,1105.2 601.1,1097.1 607,1083C616.3,1068.8 613.4,1042.9 639,1045C655.4,1038.9 667.9,1028.4 685,1023C701.8,1016.3 728.5,1020 738,1006C747.4,1001.8 756.1,1006.4 763,999C768.5,997.6 765.6,1007.5 768,1006C774.2,1012.3 777.2,1021.3 784,1026C772.1,999.3 841.7,1006.4 835,1035C835,1068.2 849.9,1089.6 877,1096C883.7,1081.5 891,1070.4 897,1059C904,1044.5 902.7,1038.2 909,1023C905.5,1003.2 920.6,967.6 895,955C872,947 845.5,941.5 820,934C818,937.1 814.4,942.1 810,940C804.3,942.8 797.5,944 789,943C767.3,945.2 767.5,972.2 744,967C734.8,963.7 722.5,963 717,955C705.7,952.3 704.1,962.2 699,963C694.3,954.5 681,951.6 681,940C680,943.1 671.6,941.7 670,942C675.1,945 667.7,947.5 666,946L666,942C658,943 654.7,948.7 643,946C642.4,944 633.8,945.5 634,943C618.4,944.7 610,958.2 595,963C575.1,963.4 564.8,953.7 552,946C546.5,939.8 521.1,921.6 522,948C513.7,959.6 511.7,983.7 522,993C521.2,997.2 523.6,1004.6 520,1006C509.4,1035.6 534.4,1032 531,1048C541.3,1061.2 547.5,1078 553,1095C554.3,1108.1 568.8,1107.7 574,1116Z" stroke="#5d97a4" stroke-width="0.75" stroke-linecap="round" fill="#5d97a4" stroke-linejoin="round"/>
<path d="M0,0M1008,1116C1011.2,1115.4 1011.3,1105.9 1011,1099C1013.2,1087.5 1006.2,1073.4 1003,1086C1002.8,1089.1 999.2,1095 1000,1102C1010.8,1099.2 1007.7,1109.3 1008,1116Z" stroke="#13606f" stroke-width="0.75" stroke-linecap="round" fill="#13606f" stroke-linejoin="round"/>
<path d="M0,0M802,1113C806.7,1113.3 814.8,1112 819,1110C820.5,1089.6 822.1,1072 813,1059C804.2,1049.5 795.8,1035 784,1026C777.2,1021.3 774.2,1012.3 768,1006L765,1006C763.1,1005.8 763.4,999.5 763,999C756.1,1006.4 747.4,1001.8 738,1006C727.9,1018.9 702.1,1029.1 706,1048C720.1,1055.8 730.8,1077 756,1077C774.6,1083.9 785.7,1102.4 802,1113Z" stroke="#217b90" stroke-width="0.75" stroke-linecap="round" fill="#217b90" stroke-linejoin="round"/>
<path d="M0,0M1015,1113L1017,1113L1017,1078C1013.8,1083.3 1016.4,1093.9 1015,1101L1015,1113Z" stroke="#277e93" stroke-width="0.75" stroke-linecap="round" fill="#277e93" stroke-linejoin="round"/>
<path d="M0,0M1014,1101L1015,1101C1016.4,1093.9 1013.8,1083.3 1017,1078C1018.3,1058.3 1005.5,1040.5 1014,1021C1016.8,1005.9 1019.2,985.5 1024,970C1028.5,953.5 1036.7,940.7 1042,925C1050.7,912.7 1055.3,896.3 1062,882C1066.5,865.5 1071.3,849.3 1075,832C1068.7,836.7 1072.2,851.2 1065,855C1054.2,834.3 1054.6,800.6 1030,795C1001.9,789.4 971.6,805 945,795C912.3,800.3 903.4,780.4 888,763C872.1,748.4 853.1,736.4 840,718L838,718C837.9,712.9 842.8,712.8 844,709C840.2,701.7 827.7,698.9 825,691C810.3,695.8 799.7,704.2 789,712C777.5,719.2 768.9,731.6 759,738C763.5,740.5 762.1,748.9 768,750C796.7,732.8 827.7,760.7 792,771C791.7,774.4 795.3,777.3 795,778C821.4,767.8 827.5,797.9 852,798C873,808.9 890.3,810.7 900,835C917.9,848.3 909.3,852.7 906,874C915.1,874.4 916.7,894.5 906,889C904.6,914.5 907.9,941.3 901,951C897.9,932.6 876.7,931.8 867,919C874.5,905.3 880.2,890.2 867,882C861.7,881.2 856.1,877.2 852,877L835,877L835,876L831,876L813,876L813,874L805,874L793,874C790.6,880.9 800.8,910.4 781,904C806.4,910.2 830,901.8 820,934C845.5,941.5 872,947 895,955C920.6,967.6 905.5,1003.2 909,1023C927.2,1000.4 954.4,1028.1 960,1045C966.8,1065.4 980.5,1095.1 1003,1086C1006.2,1073.4 1013.2,1087.5 1011,1099L1014,1101Z" stroke="#37859a" stroke-width="0.75" stroke-linecap="round" fill="#37859a" stroke-linejoin="round"/>
<path d="M0,0M426,1086C428,1086.7 434,1085.6 436,1084C438,1071.6 424.9,1075.5 426,1086Z" stroke="#0f525c" stroke-width="0.75" stroke-linecap="round" fill="#0f525c" stroke-linejoin="round"/>
<path d="M0,0M520,1006C523.6,1004.6 521.2,997.2 522,993C518.9,994.9 521.3,1002.3 520,1006Z" stroke="#3b8a9e" stroke-width="0.75" stroke-linecap="round" fill="#3b8a9e" stroke-linejoin="round"/>
<path d="M0,0M765,1006L768,1006C765.6,1007.5 768.5,997.6 763,999C763.4,999.5 763.1,1005.8 765,1006Z" stroke="#2d8297" stroke-width="0.75" stroke-linecap="round" fill="#2d8297" stroke-linejoin="round"/>
<path d="M0,0M429,987L430,987C429.7,981.8 432.2,973.3 429,970L429,979L429,987Z" stroke="#77a4aa" stroke-width="0.75" stroke-linecap="round" fill="#77a4aa" stroke-linejoin="round"/>
<path d="M0,0M744,967C767.5,972.2 767.3,945.2 789,943C797.5,944 804.3,942.8 810,940C804.7,923.3 774.6,946.7 768,939C770,944.5 757.8,942.1 757,940C732.9,940.8 763.2,956.7 741,957C736.6,954.2 725.4,951.4 721,952C721.2,954.3 716.6,955.3 717,955C722.5,963 734.8,963.7 744,967Z" stroke="#2e8397" stroke-width="0.75" stroke-linecap="round" fill="#2e8397" stroke-linejoin="round"/>
<path d="M0,0M699,963C704.1,962.2 705.7,952.3 717,955C718.2,954.5 722.6,953.5 721,952C711.6,935.6 697,936.8 681,940C681,951.6 694.3,954.5 699,963Z" stroke="#217a8f" stroke-width="0.75" stroke-linecap="round" fill="#217a8f" stroke-linejoin="round"/>
<path d="M0,0M741,957C763.2,956.7 732.9,940.8 757,940C757.8,942.1 770,944.5 768,939C774.6,946.7 804.7,923.3 810,940C814.4,942.1 818,937.1 820,934C830,901.8 806.4,910.2 781,904L750,904C728.2,901.3 699.3,905.2 678,901L673,903C690.1,909.7 658.5,907.1 651,907C649.1,904.4 641.7,906.8 637,906C627.5,904.7 629.1,919.8 637,918C661,922.6 669.5,915.6 670,942C671.6,941.7 680,943.1 681,940C697,936.8 711.6,935.6 721,952C725.4,951.4 736.6,954.2 741,957Z" stroke="#125c6a" stroke-width="0.75" stroke-linecap="round" fill="#125c6a" stroke-linejoin="round"/>
<path d="M0,0M901,951C907.9,941.3 904.6,914.5 906,889C905.4,887.5 902.1,884.7 901,885C895.7,884.4 890.7,887.8 886,886C881,884 873.2,883.8 867,882C880.2,890.2 874.5,905.3 867,919C876.7,931.8 897.9,932.6 901,951Z" stroke="#125c6a" stroke-width="0.75" stroke-linecap="round" fill="#125c6a" stroke-linejoin="round"/>
<path d="M0,0M643,946C654.7,948.7 658,943 666,942L670,942C669.5,915.6 661,922.6 637,918C634.4,924.8 633,933 634,943C633.8,945.5 642.4,944 643,946Z" stroke="#217a90" stroke-width="0.75" stroke-linecap="round" fill="#217a90" stroke-linejoin="round"/>
<path d="M0,0M666,946C667.7,947.5 675.1,945 670,942L666,942L666,946Z" stroke="#217a8f" stroke-width="0.75" stroke-linecap="round" fill="#217a8f" stroke-linejoin="round"/>
<path d="M0,0M537,919C548.1,919.2 534,904.6 544,898C545.7,896.1 552.4,895.8 550,892L547,892C538.5,890.5 543.9,874.1 534,873C532.6,883.6 529.5,911.1 537,919Z" stroke="#0d4c56" stroke-width="0.75" stroke-linecap="round" fill="#0d4c56" stroke-linejoin="round"/>
<path d="M0,0M558,907C566.4,909.4 566.6,900.8 562,895C559.1,895.2 556.2,898.8 555,898C552.1,900.1 557.8,904.3 558,907Z" stroke="#186d80" stroke-width="0.75" stroke-linecap="round" fill="#186d80" stroke-linejoin="round"/>
<path d="M0,0M651,907C658.5,907.1 690.1,909.7 673,903L666,903C659.1,906.1 646.6,903.6 637,904L637,906C641.7,906.8 649.1,904.4 651,907Z" stroke="#1c768a" stroke-width="0.75" stroke-linecap="round" fill="#1c768a" stroke-linejoin="round"/>
<path d="M0,0M631,904L637,904C646.6,903.6 659.1,906.1 666,903L663,903L663,901C662,881.1 664.7,863.3 630,871C611.8,871.5 629.7,896.1 631,904Z" stroke="#4a91a3" stroke-width="0.75" stroke-linecap="round" fill="#4a91a3" stroke-linejoin="round"/>
<path d="M0,0M750,904L781,904C800.8,910.4 790.6,880.9 793,874L787,874L787,873L784,873L751,873C749.4,868.9 734.8,874.1 735,870L697,870L694,868C681,871.3 660,869.2 646,870L630,870L630,871C664.7,863.3 662,881.1 663,901L678,901C699.3,905.2 728.2,901.3 750,904Z" stroke="#619aa6" stroke-width="0.75" stroke-linecap="round" fill="#619aa6" stroke-linejoin="round"/>
<path d="M0,0M663,903L666,903L673,903L678,901L663,901L663,903Z" stroke="#277e93" stroke-width="0.75" stroke-linecap="round" fill="#277e93" stroke-linejoin="round"/>
<path d="M0,0M409,900C418.3,889.4 432.6,879.9 439,865C446,852.6 450.4,833.2 459,820C467.7,809.8 478.9,797.2 493,790C505.4,783.6 521.6,769.2 517,754L513,756C501.5,755.3 497.8,743.8 492,739C493.1,753.1 459,744.2 451,735C436.9,726.6 427.9,712.6 415,702C405.5,689.1 393.4,678.1 385,663C377.6,648.6 364.3,637.1 364,616L361,616C357,616 356,612 357,606C335,601.6 321.7,586.4 327,556C320.5,566.9 328.9,592.4 316,597C310.7,580.8 322.1,547.4 304,543C303.5,549.2 305.3,562.4 304,573C307.2,587.5 305.2,609.5 306,624C306,645 309.9,662.1 312,681C315.7,696.7 318.4,717.8 322,735C327.5,751 321.3,778.2 334,786C338.5,800.3 367.5,798.9 379,802C385.4,817.6 389,835 394,850C397.8,866.6 405.1,883.1 409,900Z" stroke="#5292a3" stroke-width="0.75" stroke-linecap="round" fill="#5292a3" stroke-linejoin="round"/>
<path d="M0,0M544,900C549.6,899.9 553.2,893.5 555,898C556.2,898.8 559.1,895.2 562,895L583,874C568,876 563.6,888.6 550,892C552.4,895.8 545.7,896.1 544,898L544,900Z" stroke="#0d4c56" stroke-width="0.75" stroke-linecap="round" fill="#0d4c56" stroke-linejoin="round"/>
<path d="M0,0M547,892L550,892C563.6,888.6 568,876 583,874C586.4,873.6 595.9,873.5 600,871L597,871L601,870C599.7,858.7 594.8,847.3 586,844C582.7,843.3 579.3,846 579,846C578.4,840.5 576.3,833 574,831C556.7,859 574,807.6 555,823C545.4,832.8 530.5,832.2 534,858L534,871L534,873C543.9,874.1 538.5,890.5 547,892Z" stroke="#062c2a" stroke-width="0.75" stroke-linecap="round" fill="#062c2a" stroke-linejoin="round"/>
<path d="M0,0M906,889C916.7,894.5 915.1,874.4 906,874C899.1,874.5 900.7,881 901,885C902.1,884.7 905.4,887.5 906,889Z" stroke="#1a7285" stroke-width="0.75" stroke-linecap="round" fill="#1a7285" stroke-linejoin="round"/>
<path d="M0,0M886,886C890.7,887.8 895.7,884.4 901,885C900.7,881 899.1,874.5 906,874C909.3,852.7 917.9,848.3 900,835C872.8,840.7 837.6,840 843,876C846,876.1 853.5,875.2 852,877C856.1,877.2 861.7,881.2 867,882C873.2,883.8 881,884 886,886Z" stroke="#073330" stroke-width="0.75" stroke-linecap="round" fill="#073330" stroke-linejoin="round"/>
<path d="M0,0M835,877L852,877C853.5,875.2 846,876.1 843,876L835,876L835,877Z" stroke="#093839" stroke-width="0.75" stroke-linecap="round" fill="#093839" stroke-linejoin="round"/>
<path d="M0,0M813,876L831,876C828.1,872.8 815.9,875.4 813,874L813,876Z" stroke="#0a4348" stroke-width="0.75" stroke-linecap="round" fill="#0a4348" stroke-linejoin="round"/>
<path d="M0,0M831,876L835,876L843,876C837.6,840 872.8,840.7 900,835C890.3,810.7 873,808.9 852,798C827.5,797.9 821.4,767.8 795,778C788.1,783 782.4,784.8 774,783C803.7,783.6 793,837.4 772,838C767.2,846.4 784.4,860.6 772,864C764.1,867.7 744.1,863.1 738,867C738.2,870.4 749.1,866.5 747,870C760.3,869.8 776.9,869.5 784,873L787,873C792.7,873.9 804.8,871.3 805,874L813,874C815.9,875.4 828.1,872.8 831,876Z" stroke="#093e3f" stroke-width="0.75" stroke-linecap="round" fill="#093e3f" stroke-linejoin="round"/>
<path d="M0,0M787,874L793,874L805,874C804.8,871.3 792.7,873.9 787,873L787,874Z" stroke="#0b4449" stroke-width="0.75" stroke-linecap="round" fill="#0b4449" stroke-linejoin="round"/>
<path d="M0,0M751,873L784,873C776.9,869.5 760.3,869.8 747,870L735,870C734.8,874.1 749.4,868.9 751,873Z" stroke="#135f6f" stroke-width="0.75" stroke-linecap="round" fill="#135f6f" stroke-linejoin="round"/>
<path d="M0,0M532,871L534,871L534,858C530.9,859.9 533.3,867.3 532,871Z" stroke="#186d80" stroke-width="0.75" stroke-linecap="round" fill="#186d80" stroke-linejoin="round"/>
<path d="M0,0M597,871L600,871C609.2,872.8 618.6,868.7 630,870L646,870L646,868L637,868C624.2,867.3 611.4,869.8 601,870L597,871Z" stroke="#093e40" stroke-width="0.75" stroke-linecap="round" fill="#093e40" stroke-linejoin="round"/>
<path d="M0,0M601,870C611.4,869.8 624.2,867.3 637,868C634.9,850.8 647.8,837.3 661,834C645.8,816 671.8,803.6 672,784C679.8,761.3 631,774.5 637,754L633,756C632.9,758 637.9,760.5 639,763C647.8,766.8 640.7,776.9 636,777C636.7,780.8 629.4,780 628,780C630.5,783.4 629,786.8 627,787C615.7,790.8 608.4,833.2 604,811C604.2,802.1 599.2,807.7 598,810C591,815.9 584.4,827.2 586,844C594.8,847.3 599.7,858.7 601,870Z" stroke="#093e40" stroke-width="0.75" stroke-linecap="round" fill="#093e40" stroke-linejoin="round"/>
<path d="M0,0M646,870C660,869.2 681,871.3 694,868L672,868L646,868L646,870Z" stroke="#1a7285" stroke-width="0.75" stroke-linecap="round" fill="#1a7285" stroke-linejoin="round"/>
<path d="M0,0M697,870L735,870L747,870C749.1,866.5 738.2,870.4 738,867C744.3,861.1 764.1,865.7 772,864C784.4,860.6 767.2,846.4 772,838C758.4,836 744.5,829.2 726,826C720.1,828.3 702.7,828.9 718,829C755.3,830.8 744.9,860.5 709,852C702.3,850.2 693.9,849.6 685,849C670.5,847.5 680.8,867.3 672,868L694,868L697,870Z" stroke="#13606f" stroke-width="0.75" stroke-linecap="round" fill="#13606f" stroke-linejoin="round"/>
<path d="M0,0M637,868L646,868L672,868C680.8,867.3 670.5,847.5 685,849C685.3,841.4 683.9,839.4 691,834L691,831C683.4,831 682.8,841.9 676,841C672.8,836.2 667.8,826 661,834C647.8,837.3 634.9,850.8 637,868Z" stroke="#0f525c" stroke-width="0.75" stroke-linecap="round" fill="#0f525c" stroke-linejoin="round"/>
<path d="M0,0M738,867C744.1,863.1 764.1,867.7 772,864C764.1,865.7 744.3,861.1 738,867Z" stroke="#0e4d56" stroke-width="0.75" stroke-linecap="round" fill="#0e4d56" stroke-linejoin="round"/>
<path d="M0,0M1065,855C1072.2,851.2 1068.7,836.7 1075,832C1083.4,818.4 1077.9,790.9 1090,781C1073.2,753 1128.2,774.1 1107,790L1110,793C1138,797.3 1153.6,780.9 1156,756C1160.1,730.6 1163,704.5 1165,678L1165,658C1166.8,645 1162.7,632 1164,616L1162,616C1163.3,605.2 1161.1,587.6 1164,580C1162.4,563.5 1168.2,548.2 1165,534C1164.8,535.9 1158.5,535.6 1158,535C1154.9,541.4 1158.2,553.7 1152,556C1150.9,548.6 1148.1,542.4 1147,534C1140.8,522.2 1152.2,496.7 1168,507C1179.6,464.3 1133.9,475.3 1116,484C1110.5,490.2 1100.9,494.9 1090,493C1071,486 1065.8,464.2 1059,444C1053.6,423 1049.9,398.2 1038,385C1016.7,373.4 1011.8,409.8 1003,421C995.6,440 982.3,455.2 966,463C977.6,469.9 989.1,476.4 1000,483C1012.3,489.2 1020.5,499 1026,511C1031.6,522 1032.2,545.7 1027,558C1021.4,569.9 1015,581.5 1003,588C1024.7,590.2 1032.4,608.1 1035,627C1034,649 1023.6,661.6 1015,676C1006.5,690.5 997.2,704.2 988,718C979.9,732.9 969.3,745.3 943,742C949,739.9 951,730.4 952,726L952,717C947.2,734.7 939.6,750.1 922,756C910,748.5 891.9,746.6 888,730C873.3,725.2 860,718.5 846,712C843.7,713.7 840.1,717.2 840,718C853.1,736.4 872.1,748.4 888,763C903.4,780.4 912.3,800.3 945,795C971.6,805 1001.9,789.4 1030,795C1054.6,800.6 1054.2,834.3 1065,855Z" stroke="#4a91a3" stroke-width="0.75" stroke-linecap="round" fill="#4a91a3" stroke-linejoin="round"/>
<path d="M0,0M709,852C744.9,860.5 755.3,830.8 718,829C718.6,832.7 709.4,830.1 709,831L708,829C706,834.3 697.9,827.8 697,831C695.6,831.7 693.2,835.3 691,834C683.9,839.4 685.3,841.4 685,849C693.9,849.6 702.3,850.2 709,852Z" stroke="#438ca0" stroke-width="0.75" stroke-linecap="round" fill="#438ca0" stroke-linejoin="round"/>
<path d="M0,0M579,846C579.3,846 582.7,843.3 586,844C584.4,827.2 591,815.9 598,810C599.2,807.7 604.2,802.1 604,811C608.4,833.2 615.7,790.8 627,787L624,787C623.4,785.5 620.1,782.7 619,783C604.1,793.3 597.4,803 577,798C561.1,786.8 536.6,813.2 555,823C574,807.6 556.7,859 574,831C576.3,833 578.4,840.5 579,846Z" stroke="#16697b" stroke-width="0.75" stroke-linecap="round" fill="#16697b" stroke-linejoin="round"/>
<path d="M0,0M676,841C682.8,841.9 683.4,831 691,831C692.7,828.7 696.2,825.1 697,825C699.7,817 706.8,821.9 708,826L726,826C744.5,829.2 758.4,836 772,838C793,837.4 803.7,783.6 774,783C768.9,786.9 761.1,788.1 751,787C755.7,761.8 730.9,788.5 724,777L720,777C703.4,772.3 687.8,764.1 676,756C665.5,751 654.6,745.9 639,745C642.7,747.7 638.9,754.9 637,754C631,774.5 679.8,761.3 672,784C671.8,803.6 645.8,816 661,834C667.8,826 672.8,836.2 676,841Z" stroke="#072d2a" stroke-width="0.75" stroke-linecap="round" fill="#072d2a" stroke-linejoin="round"/>
<path d="M0,0M691,834C693.2,835.3 695.6,831.7 697,831L697,825C696.2,825.1 692.7,828.7 691,831L691,834Z" stroke="#093e3f" stroke-width="0.75" stroke-linecap="round" fill="#093e3f" stroke-linejoin="round"/>
<path d="M0,0M697,831C697.9,827.8 706,834.3 708,829L708,826C706.8,821.9 699.7,817 697,825L697,831Z" stroke="#093e3f" stroke-width="0.75" stroke-linecap="round" fill="#093e3f" stroke-linejoin="round"/>
<path d="M0,0M709,831C709.4,830.1 718.6,832.7 718,829C702.7,828.9 720.1,828.3 726,826L708,826L708,829L709,831Z" stroke="#0d4c55" stroke-width="0.75" stroke-linecap="round" fill="#0d4c55" stroke-linejoin="round"/>
<path d="M0,0M1105,793L1110,793L1107,790L1104,790C1100.7,788.8 1100.6,783.9 1095,784C1094.1,789.2 1102.9,790 1105,793Z" stroke="#37869a" stroke-width="0.75" stroke-linecap="round" fill="#37869a" stroke-linejoin="round"/>
<path d="M0,0M1104,790L1107,790C1128.2,774.1 1073.2,753 1090,781C1090.8,783.3 1095.4,784.3 1095,784C1100.6,783.9 1100.7,788.8 1104,790Z" stroke="#37859a" stroke-width="0.75" stroke-linecap="round" fill="#37859a" stroke-linejoin="round"/>
<path d="M0,0M624,787L627,787C629,786.8 630.5,783.4 628,780L628,778C627.2,779.1 620.1,779.5 619,783C620.1,782.7 623.4,785.5 624,787Z" stroke="#186d80" stroke-width="0.75" stroke-linecap="round" fill="#186d80" stroke-linejoin="round"/>
<path d="M0,0M751,787C761.1,788.1 768.9,786.9 774,783C782.4,784.8 788.1,783 795,778C795.3,777.3 791.7,774.4 792,771C792,750.1 765.2,765.6 763,753C756.1,756.8 748.3,763.3 738,762C725.5,758.6 731.4,777 724,777C730.9,788.5 755.7,761.8 751,787Z" stroke="#0f525c" stroke-width="0.75" stroke-linecap="round" fill="#0f525c" stroke-linejoin="round"/>
<path d="M0,0M628,780C629.4,780 636.7,780.8 636,777C640.8,773.7 631.2,773.5 633,771C632.1,771.4 627.2,773.6 628,778L628,780Z" stroke="#196e80" stroke-width="0.75" stroke-linecap="round" fill="#196e80" stroke-linejoin="round"/>
<path d="M0,0M636,777C640.7,776.9 647.8,766.8 639,763C640.2,766.6 635.2,769.1 633,771C631.2,773.5 640.8,773.7 636,777Z" stroke="#196e80" stroke-width="0.75" stroke-linecap="round" fill="#196e80" stroke-linejoin="round"/>
<path d="M0,0M720,777L724,777C731.4,777 725.5,758.6 738,762C729.4,762.5 727.6,752.8 723,751C717.1,750.6 713.8,752.3 709,753C697.7,751.7 685.7,747.4 676,745C676.2,746.8 680.4,753.5 676,756C687.8,764.1 703.4,772.3 720,777Z" stroke="#16697b" stroke-width="0.75" stroke-linecap="round" fill="#16697b" stroke-linejoin="round"/>
<path d="M0,0M792,771C827.7,760.7 796.7,732.8 768,750C767.7,751.8 763.1,752.8 763,753C765.2,765.6 792,750.1 792,771Z" stroke="#073330" stroke-width="0.75" stroke-linecap="round" fill="#073330" stroke-linejoin="round"/>
<path d="M0,0M738,762C748.3,763.3 756.1,756.8 763,753C764.7,752 769.1,751 768,750C762.1,748.9 763.5,740.5 759,738C747.5,742.7 732.6,746.9 723,751C727.6,752.8 729.4,762.5 738,762Z" stroke="#217a8f" stroke-width="0.75" stroke-linecap="round" fill="#217a8f" stroke-linejoin="round"/>
<path d="M0,0M513,756L517,754C544.7,755.7 544.6,736.9 567,729C582.6,714.2 601.8,700.9 607,678L606,678C604.6,670.6 607.5,662.5 601,660C576.8,652.2 552.5,642.1 517,646C491,630.6 462.3,635.2 469,676L468,675C482.5,691.4 489.4,717.3 492,739C497.8,743.8 501.5,755.3 513,756Z" stroke="#96b3b7" stroke-width="0.75" stroke-linecap="round" fill="#96b3b7" stroke-linejoin="round"/>
<path d="M0,0M631,756L633,756L637,754C638.9,754.9 642.7,747.7 639,745C632.6,745.1 625.1,752.5 631,756Z" stroke="#0e4d56" stroke-width="0.75" stroke-linecap="round" fill="#0e4d56" stroke-linejoin="round"/>
<path d="M0,0M922,756C939.6,750.1 947.2,734.7 952,717C955,712.4 956.3,703.1 961,703C970,688.3 982.7,672.7 991,661C1004.3,641.6 1014.4,599.3 982,592C976.1,606.1 971.9,621.9 960,630C957.4,636.4 948.6,636.6 940,637C945.6,635.6 942.8,625.8 943,619C918,619.4 900.5,625 879,618C858.8,614.8 841,607 819,607C816.4,630.2 806.3,677.6 825,691C827.7,698.9 840.2,701.7 844,709L846,712C860,718.5 873.3,725.2 888,730C891.9,746.6 910,748.5 922,756Z" stroke="#8aadb2" stroke-width="0.75" stroke-linecap="round" fill="#8aadb2" stroke-linejoin="round"/>
<path d="M0,0M709,753C713.8,752.3 717.1,750.6 723,751C732.6,746.9 747.5,742.7 759,738C768.9,731.6 777.5,719.2 789,712C799.7,704.2 810.3,695.8 825,691C806.3,677.6 816.4,630.2 819,607L817,607L804,607C781.5,598.8 746.9,627.4 747,598C738,632.5 744.9,649.8 751,681C758.6,716.6 751.1,740.2 715,736C676.5,736.9 686.7,710 691,676C693.2,642.3 683.2,618 684,586C678.1,587.9 660.9,588.2 652,589C620.4,591.1 606.4,572.8 589,561L586,561C584.8,559.6 581.2,556.6 580,556C574.2,571.6 555.9,577 534,574L526,567C516.8,569.3 510.5,575 502,579C493.8,577.5 484.9,573.1 481,568L480,568L478,567C473.8,570.4 465.7,573.8 460,574C451.5,583.5 431.7,581.7 414,582C430.1,574.2 426.9,563.3 421,546C422.6,528.8 426.7,512 435,504C441.3,492.1 448.8,478.6 454,468C462.8,458 466.2,440.5 484,442C481.9,418.9 479.4,390.9 484,367C485.3,344.1 487.7,324.6 478,301C472.4,280.6 452.6,273.4 423,276C396.8,276.2 376.9,284.8 358,291C354.3,312.4 350.6,338.2 351,366L351,420L351,430C351.1,442.4 350,455.5 354,463C355.9,466.6 357.4,470.1 357,475C368.4,501.8 344.2,485.6 331,483C314.2,476.7 295.1,484.7 300,507C303.3,506.8 299.8,516.9 303,514C304.9,492 336.1,525.3 330,531C332.1,542.2 325.7,548.3 327,556C321.7,586.4 335,601.6 357,606C363,572 374,591.6 364,616C364.3,637.1 377.6,648.6 385,663C393.4,678.1 405.5,689.1 415,702C427.9,712.6 436.9,726.6 451,735C459,744.2 493.1,753.1 492,739C489.4,717.3 482.5,691.4 468,675C454.7,666.9 439.2,653.5 451,636C466.2,624.5 489.7,646.4 498,625C498.8,605.3 531.5,617 544,609C558.3,598.7 591,603 562,613C580.2,623.1 604.5,632.8 603,657C608.4,659.7 607.6,672 607,678C601.8,700.9 582.6,714.2 567,729C588.4,743.1 598.6,690.9 621,703C621.9,733.3 648.6,741 676,745C685.7,747.4 697.7,751.7 709,753Z" stroke="#699da7" stroke-width="0.75" stroke-linecap="round" fill="#699da7" stroke-linejoin="round"/>
<path d="M0,0M943,742C969.3,745.3 979.9,732.9 988,718C997.2,704.2 1006.5,690.5 1015,676C1023.6,661.6 1034,649 1035,627C1032.4,608.1 1024.7,590.2 1003,588L1000,588L1000,583L999,583C1000.8,589.4 989,585.1 988,586L988,583L987,583C988.7,589.3 981.9,590 982,592C1014.4,599.3 1004.3,641.6 991,661C985.8,677.9 967.4,691.5 960,711L960,708C958.2,714.3 957.5,725.2 952,726C951,730.4 949,739.9 943,742Z" stroke="#619aa6" stroke-width="0.75" stroke-linecap="round" fill="#619aa6" stroke-linejoin="round"/>
<path d="M0,0M715,736C751.1,740.2 758.6,716.6 751,681C744.9,649.8 738,632.5 747,598C746.1,582.4 748.7,562.8 745,549L745,511C722.7,498.1 692.8,516.9 676,516C683.3,535.2 684.7,559.8 684,586C683.2,618 693.2,642.3 691,676C686.7,710 676.5,736.9 715,736Z" stroke="#96b4b7" stroke-width="0.75" stroke-linecap="round" fill="#96b4b7" stroke-linejoin="round"/>
<path d="M0,0M952,726C957.5,725.2 958.2,714.3 960,708L961,703C956.3,703.1 955,712.4 952,717L952,726Z" stroke="#7da7ac" stroke-width="0.75" stroke-linecap="round" fill="#7da7ac" stroke-linejoin="round"/>
<path d="M0,0M838,718L840,718C840.1,717.2 843.7,713.7 846,712L844,709C842.8,712.8 837.9,712.9 838,718Z" stroke="#5292a3" stroke-width="0.75" stroke-linecap="round" fill="#5292a3" stroke-linejoin="round"/>
<path d="M0,0M960,711C967.4,691.5 985.8,677.9 991,661C982.7,672.7 970,688.3 961,703L960,708L960,711Z" stroke="#78a4ab" stroke-width="0.75" stroke-linecap="round" fill="#78a4ab" stroke-linejoin="round"/>
<path d="M0,0M1117,705C1129.9,691.8 1165.8,692.4 1149,655C1140.9,633.6 1132.7,611.8 1122,592C1127.1,604.4 1119.5,612.5 1113,615C1120.1,628.2 1129.6,641.5 1129,660C1124.1,673.1 1112.9,685.7 1117,705Z" stroke="#217a90" stroke-width="0.75" stroke-linecap="round" fill="#217a90" stroke-linejoin="round"/>
<path d="M0,0M606,678L607,678C607.6,672 608.4,659.7 603,657L601,660C607.5,662.5 604.6,670.6 606,678Z" stroke="#84aaaf" stroke-width="0.75" stroke-linecap="round" fill="#84aaaf" stroke-linejoin="round"/>
<path d="M0,0M1165,678C1167.8,677.2 1167.8,661.6 1165,658L1165,678Z" stroke="#cdd8d7" stroke-width="0.75" stroke-linecap="round" fill="#cdd8d7" stroke-linejoin="round"/>
<path d="M0,0M469,676C462.3,635.2 491,630.6 517,646C552.5,642.1 576.8,652.2 601,660L603,657C604.5,632.8 580.2,623.1 562,613C544.7,621.1 521,625 499,627L498,625C489.7,646.4 466.2,624.5 451,636C439.2,653.5 454.7,666.9 468,675L469,676Z" stroke="#7da7ac" stroke-width="0.75" stroke-linecap="round" fill="#7da7ac" stroke-linejoin="round"/>
<path d="M0,0M940,637C948.6,636.6 957.4,636.4 960,630C957.5,631.1 951.5,632.2 949,631C946,629 950,619 943,619C942.8,625.8 945.6,635.6 940,637Z" stroke="#619aa6" stroke-width="0.75" stroke-linecap="round" fill="#619aa6" stroke-linejoin="round"/>
<path d="M0,0M949,631C951.5,632.2 957.5,631.1 960,630C971.9,621.9 976.1,606.1 982,592C981.9,590 988.7,589.3 987,583L981,583C970.7,568.4 942.6,568.9 934,553C913.7,520.2 909.1,558.1 894,568C898.1,585.6 896.3,607.6 876,603C849,597.6 826.2,585.9 820,561C812.9,559.7 801.1,561.8 792,561L790,556C786.5,562.5 774.8,560.8 765,561C761.1,557.9 756.4,555.6 756,549L745,549C748.7,562.8 746.1,582.4 747,598C746.9,627.4 781.5,598.8 804,607C805.1,605.2 818.7,605.2 817,607L819,607C841,607 858.8,614.8 879,618C900.5,625 918,619.4 943,619C950,619 946,629 949,631Z" stroke="#3a899e" stroke-width="0.75" stroke-linecap="round" fill="#3a899e" stroke-linejoin="round"/>
<path d="M0,0M499,627C521,625 544.7,621.1 562,613C591,603 558.3,598.7 544,609C531.5,617 498.8,605.3 498,625L499,627Z" stroke="#37859a" stroke-width="0.75" stroke-linecap="round" fill="#37859a" stroke-linejoin="round"/>
<path d="M0,0M304,624L306,624C305.2,609.5 307.2,587.5 304,573L304,624Z" stroke="#c0cecd" stroke-width="0.75" stroke-linecap="round" fill="#c0cecd" stroke-linejoin="round"/>
<path d="M0,0M361,616L364,616C374,591.6 363,572 357,606C356,612 357,616 361,616Z" stroke="#1a7385" stroke-width="0.75" stroke-linecap="round" fill="#1a7385" stroke-linejoin="round"/>
<path d="M0,0M1162,616L1164,616L1164,580C1161.1,587.6 1163.3,605.2 1162,616Z" stroke="#91b0b5" stroke-width="0.75" stroke-linecap="round" fill="#91b0b5" stroke-linejoin="round"/>
<path d="M0,0M1113,615C1119.5,612.5 1127.1,604.4 1122,592C1113.2,566.7 1098.2,610.9 1113,615Z" stroke="#0f525c" stroke-width="0.75" stroke-linecap="round" fill="#0f525c" stroke-linejoin="round"/>
<path d="M0,0M804,607L817,607C818.7,605.2 805.1,605.2 804,607Z" stroke="#5d97a5" stroke-width="0.75" stroke-linecap="round" fill="#5d97a5" stroke-linejoin="round"/>
<path d="M0,0M876,603C896.3,607.6 898.1,585.6 894,568C888.3,570.8 879.4,569.9 871,570C858.8,564.7 848.4,557.1 844,543C841.7,542.4 839.7,545.8 838,544L838,541C835.9,542.5 834.6,548.2 831,546L829,547C831.1,552.7 827.5,556.1 825,555C826.1,559.2 818.8,558.5 820,561C826.2,585.9 849,597.6 876,603Z" stroke="#5292a3" stroke-width="0.75" stroke-linecap="round" fill="#5292a3" stroke-linejoin="round"/>
<path d="M0,0M316,597C328.9,592.4 320.5,566.9 327,556C325.7,548.3 332.1,542.2 330,531C326.3,539.2 317.4,535.1 310,537C310,527.8 310.1,525.4 303,529C303.8,533.7 301.4,541.1 304,543C322.1,547.4 310.7,580.8 316,597Z" stroke="#2d8297" stroke-width="0.75" stroke-linecap="round" fill="#2d8297" stroke-linejoin="round"/>
<path d="M0,0M652,589C660.9,588.2 678.1,587.9 684,586C684.7,559.8 683.3,535.2 676,516C672.6,515.7 668.7,518.8 666,517C665.9,514 663.1,509.8 661,510L661,513C670.2,519.3 667,530.9 658,532C658,539.1 646.5,545.2 634,544L633,546C634.3,553.2 637,562.8 627,559L627,550C620.8,551.3 616.1,553.6 609,553C604.5,554 608.3,562.8 601,561C600.9,558.5 596.4,556.5 597,555C595.9,558 591.2,560.8 589,561C606.4,572.8 620.4,591.1 652,589Z" stroke="#4a90a2" stroke-width="0.75" stroke-linecap="round" fill="#4a90a2" stroke-linejoin="round"/>
<path d="M0,0M1000,588L1003,588C1015,581.5 1021.4,569.9 1027,558C1032.2,545.7 1031.6,522 1026,511C1020.5,499 1012.3,489.2 1000,483C989.1,476.4 977.6,469.9 966,463C961.6,461.8 954.4,459.4 952,457C916.1,436.8 914.2,473.4 876,463C843.9,465.9 813.5,471.8 789,480C784.8,482.7 788.9,488.3 792,486C820.6,478.1 857.6,477.5 880,490C884.6,489.9 889.5,494.8 886,496C887.8,503 884.4,508 885,511C896,519.5 914.9,519.6 927,526C941.9,530.6 953.6,537.9 966,544C974.2,548.4 983.9,554 988,559C1000.2,560.5 999,576.7 1000,583L1000,588Z" stroke="#37859a" stroke-width="0.75" stroke-linecap="round" fill="#37859a" stroke-linejoin="round"/>
<path d="M0,0M988,586C989,585.1 1000.8,589.4 999,583L988,583L988,586Z" stroke="#217a8f" stroke-width="0.75" stroke-linecap="round" fill="#217a8f" stroke-linejoin="round"/>
<path d="M0,0M981,583L987,583L988,583L999,583L1000,583C999,576.7 1000.2,560.5 988,559C990.4,565.5 982.9,565.5 981,565L978,562C963.5,563 948.8,559 934,553C942.6,568.9 970.7,568.4 981,583Z" stroke="#186d80" stroke-width="0.75" stroke-linecap="round" fill="#186d80" stroke-linejoin="round"/>
<path d="M0,0M414,582C431.7,581.7 451.5,583.5 460,574L456,574C454.1,566.8 457.5,562.7 447,562C452,544.1 472,538.5 483,528C492.5,515.4 547.4,514.8 529,499C528.7,501.8 521.2,500.9 520,501C520.8,489.5 514,465.7 525,460L525,457C511.7,452.5 493,450.3 484,442C466.2,440.5 462.8,458 454,468C448.8,478.6 441.3,492.1 435,504C426.7,512 422.6,528.8 421,546C426.9,563.3 430.1,574.2 414,582Z" stroke="#277f93" stroke-width="0.75" stroke-linecap="round" fill="#277f93" stroke-linejoin="round"/>
<path d="M0,0M502,579C510.5,575 516.8,569.3 526,567C516.1,562.4 522.5,541 514,534C503.2,540.7 494.2,549.7 487,561C490.3,567.9 481.1,566.2 481,568C484.9,573.1 493.8,577.5 502,579Z" stroke="#438da0" stroke-width="0.75" stroke-linecap="round" fill="#438da0" stroke-linejoin="round"/>
<path d="M0,0M456,574L460,574C465.7,573.8 473.8,570.4 478,567C477.8,561.3 482,560.5 487,561C494.2,549.7 503.2,540.7 514,534C513.9,517.6 541,519.3 547,519C544,502 546.1,479 556,469C555.9,460.4 540,457.5 535,459C537.7,464.3 533.1,466.3 531,465C531.5,476.8 527.8,490.7 529,499C547.4,514.8 492.5,515.4 483,528C472,538.5 452,544.1 447,562C457.5,562.7 454.1,566.8 456,574Z" stroke="#0c4850" stroke-width="0.75" stroke-linecap="round" fill="#0c4850" stroke-linejoin="round"/>
<path d="M0,0M534,574C555.9,577 574.2,571.6 580,556C580.2,552.6 583.3,548.7 582,546C580.1,545.3 580.4,539 580,538C576.2,525.5 556,525.8 547,519C541,519.3 513.9,517.6 514,534C522.5,541 516.1,562.4 526,567L534,574Z" stroke="#052922" stroke-width="0.75" stroke-linecap="round" fill="#052922" stroke-linejoin="round"/>
<path d="M0,0M871,570C879.4,569.9 888.3,570.8 894,568C909.1,558.1 913.7,520.2 934,553C948.8,559 963.5,563 978,562C980.4,561.8 983.3,558.2 982,556C976,553.9 969.9,547.5 966,544C953.6,537.9 941.9,530.6 927,526C914.9,519.6 896,519.5 885,511C878.9,527.8 854.4,530 844,537L844,543C848.4,557.1 858.8,564.7 871,570Z" stroke="#062d2a" stroke-width="0.75" stroke-linecap="round" fill="#062d2a" stroke-linejoin="round"/>
<path d="M0,0M480,568L481,568C481.1,566.2 490.3,567.9 487,561C482,560.5 477.8,561.3 478,567L480,568Z" stroke="#1a7285" stroke-width="0.75" stroke-linecap="round" fill="#1a7285" stroke-linejoin="round"/>
<path d="M0,0M981,565C982.9,565.5 990.4,565.5 988,559L985,559L982,556C983.3,558.2 980.4,561.8 978,562L981,565Z" stroke="#0a4348" stroke-width="0.75" stroke-linecap="round" fill="#0a4348" stroke-linejoin="round"/>
<path d="M0,0M586,561L589,561C589.4,556.8 594.4,554.3 595,553C594.8,544.4 586.7,544.7 582,546C583.3,548.7 580.2,552.6 580,556C581.2,556.6 584.8,559.6 586,561Z" stroke="#2d8297" stroke-width="0.75" stroke-linecap="round" fill="#2d8297" stroke-linejoin="round"/>
<path d="M0,0M589,561C591.2,560.8 595.9,558 597,555L595,553C594.4,554.3 589.4,556.8 589,561Z" stroke="#37869a" stroke-width="0.75" stroke-linecap="round" fill="#37869a" stroke-linejoin="round"/>
<path d="M0,0M601,561C608.3,562.8 604.5,554 609,553L604,553C595.7,549.8 592.1,530.7 580,538C580.4,539 580.1,545.3 582,546C586.7,544.7 594.8,544.4 595,553L597,555C596.4,556.5 600.9,558.5 601,561Z" stroke="#125c6a" stroke-width="0.75" stroke-linecap="round" fill="#125c6a" stroke-linejoin="round"/>
<path d="M0,0M765,561C774.8,560.8 786.5,562.5 790,556C792.7,553.5 798.2,550.5 798,547C788.6,552.9 767.1,542.6 774,525C778.5,510.5 774.3,487.3 792,486C788.9,488.3 784.8,482.7 789,480C767.7,477 760.2,490.4 759,505C758.5,520.2 756.5,536.3 756,549C756.4,555.6 761.1,557.9 765,561Z" stroke="#217a90" stroke-width="0.75" stroke-linecap="round" fill="#217a90" stroke-linejoin="round"/>
<path d="M0,0M792,561C801.1,561.8 812.9,559.7 820,561C818.8,558.5 826.1,559.2 825,555L820,556C819.7,552.1 825.8,551.1 825,549C819.6,549.8 816.4,556 810,553C804.7,552.8 803.7,547.8 798,547C798.2,550.5 792.7,553.5 790,556L792,561Z" stroke="#105864" stroke-width="0.75" stroke-linecap="round" fill="#105864" stroke-linejoin="round"/>
<path d="M0,0M627,559C637,562.8 634.3,553.2 633,546L628,546L627,550L627,559Z" stroke="#146475" stroke-width="0.75" stroke-linecap="round" fill="#146475" stroke-linejoin="round"/>
<path d="M0,0M985,559L988,559C983.9,554 974.2,548.4 966,544C969.9,547.5 976,553.9 982,556L985,559Z" stroke="#277e93" stroke-width="0.75" stroke-linecap="round" fill="#277e93" stroke-linejoin="round"/>
<path d="M0,0M820,556L825,555C827.5,556.1 831.1,552.7 829,547L825,549C825.8,551.1 819.7,552.1 820,556Z" stroke="#2e8397" stroke-width="0.75" stroke-linecap="round" fill="#2e8397" stroke-linejoin="round"/>
<path d="M0,0M1152,556C1158.2,553.7 1154.9,541.4 1158,535C1155.9,530.8 1151.9,533.2 1147,534C1148.1,542.4 1150.9,548.6 1152,556Z" stroke="#1a7285" stroke-width="0.75" stroke-linecap="round" fill="#1a7285" stroke-linejoin="round"/>
<path d="M0,0M604,553L609,553C616.1,553.6 620.8,551.3 627,550L628,546L627,546C627.6,541.4 632.4,539.7 634,544C646.5,545.2 658,539.1 658,532C660.2,523.8 649,528 649,520L646,520C634.7,509 615.4,502.6 606,490C593.7,479.4 577.9,469.6 556,469C546.1,479 544,502 547,519C556,525.8 576.2,525.5 580,538C592.1,530.7 595.7,549.8 604,553Z" stroke="#083839" stroke-width="0.75" stroke-linecap="round" fill="#083839" stroke-linejoin="round"/>
<path d="M0,0M810,553C816.4,556 819.6,549.8 825,549L829,547L831,546C830.8,540.7 836.3,537.7 838,537C840.4,533.8 842.8,538.1 844,537C854.4,530 878.9,527.8 885,511C884.4,508 887.8,503 886,496L885,496C884.4,494 879.9,492 880,490C857.6,477.5 820.6,478.1 792,486C774.3,487.3 778.5,510.5 774,525C767.1,542.6 788.6,552.9 798,547C803.7,547.8 804.7,552.8 810,553Z" stroke="#093839" stroke-width="0.75" stroke-linecap="round" fill="#093839" stroke-linejoin="round"/>
<path d="M0,0M745,549L756,549C756.5,536.3 758.5,520.2 759,505C755.1,504 742.7,504.1 745,511L745,549Z" stroke="#5d97a5" stroke-width="0.75" stroke-linecap="round" fill="#5d97a5" stroke-linejoin="round"/>
<path d="M0,0M627,546L628,546L633,546L634,544C632.4,539.7 627.6,541.4 627,546Z" stroke="#135f6f" stroke-width="0.75" stroke-linecap="round" fill="#135f6f" stroke-linejoin="round"/>
<path d="M0,0M831,546C834.6,548.2 835.9,542.5 838,541L838,537C836.3,537.7 830.8,540.7 831,546Z" stroke="#277e93" stroke-width="0.75" stroke-linecap="round" fill="#277e93" stroke-linejoin="round"/>
<path d="M0,0M838,544C841.3,545.1 843.3,541.7 844,543L844,537C842.8,538.1 840.4,533.8 838,537L838,541L838,544Z" stroke="#277e93" stroke-width="0.75" stroke-linecap="round" fill="#277e93" stroke-linejoin="round"/>
<path d="M0,0M310,537C317.4,535.1 326.3,539.2 330,531C336.1,525.3 304.9,492 303,514L301,519C302.6,519.2 303.7,525.2 303,529C310.1,525.4 310,527.8 310,537Z" stroke="#105864" stroke-width="0.75" stroke-linecap="round" fill="#105864" stroke-linejoin="round"/>
<path d="M0,0M1158,535C1158.5,535.6 1164.8,535.9 1165,534C1167.2,525.7 1168.5,517 1168,507C1152.2,496.7 1140.8,522.2 1147,534C1151.9,533.2 1155.9,530.8 1158,535Z" stroke="#125c6a" stroke-width="0.75" stroke-linecap="round" fill="#125c6a" stroke-linejoin="round"/>
<path d="M0,0M658,532C667,530.9 670.2,519.3 661,513C654.8,512.4 653.9,521.1 649,520C649,528 660.2,523.8 658,532Z" stroke="#37869a" stroke-width="0.75" stroke-linecap="round" fill="#37869a" stroke-linejoin="round"/>
<path d="M0,0M646,520L649,520C653.9,521.1 654.8,512.4 661,513L661,510C654.9,495.6 643.5,486 630,478C617.8,470.4 601.7,463.7 589,457C576,458.3 569.2,452 561,457C558.4,453 546.2,454.6 543,453C539.5,454.3 537.5,450.9 537,451C535,454.4 533.5,457.8 535,459C540,457.5 555.9,460.4 556,469C577.9,469.6 593.7,479.4 606,490C615.4,502.6 634.7,509 646,520Z" stroke="#196e80" stroke-width="0.75" stroke-linecap="round" fill="#196e80" stroke-linejoin="round"/>
<path d="M0,0M301,519L303,514C299.8,516.9 303.3,506.8 300,507C299.6,509.3 300,516.4 301,519Z" stroke="#619aa6" stroke-width="0.75" stroke-linecap="round" fill="#619aa6" stroke-linejoin="round"/>
<path d="M0,0M666,517C668.7,518.8 672.6,515.7 676,516C692.8,516.9 722.7,498.1 745,511C742.7,504.1 755.1,504 759,505C760.2,490.4 767.7,477 789,480C813.5,471.8 843.9,465.9 876,463C914.2,473.4 916.1,436.8 952,457C964.8,438.3 966.6,406.7 967,378C967.7,346.7 972.3,318 978,294C983.4,267.9 994,245.1 1012,234C1037.1,223.7 1063.5,236.8 1086,243C1080.6,223.4 1071.1,207.9 1062,192C1052.8,177.7 1041.4,161.5 1027,150C1015.9,138.1 1001,125.4 988,112C974.7,102.8 959.6,90.3 943,81C929.2,71.8 910.7,62.7 892,55C877.9,46.6 856.3,40.6 837,34C818.2,29.7 794.2,26.2 772,22C751.9,21.1 723.8,16.8 700,21C679.1,23.1 656.1,27.8 637,34C617.8,38.3 598.2,46.3 582,55C565.2,62.2 547.8,72.4 531,81C517.2,90.7 499.7,100.8 486,112C472.2,122.2 456.5,134.1 444,147C433,159.5 418.9,173 409,189C399,202 387.6,218.3 379,235C372.1,251.6 364.5,271.6 358,291C376.9,284.8 396.8,276.2 423,276C452.6,273.4 472.4,280.6 478,301C487.7,324.6 485.3,344.1 484,367C479.4,390.9 481.9,418.9 484,442C493,450.3 511.7,452.5 525,457C524.4,454.7 527.8,452.7 526,451C525.4,445.2 535.9,449.2 535,451L537,451C537.7,452.9 542.7,453.5 543,453C534.8,431.2 522.6,413.4 525,381C526.8,353.4 531.7,326.8 532,300C535.5,273 532.3,239.8 538,216C542.3,190.4 554.2,170.8 567,156C583.2,142.2 601.1,130.1 627,126C651.7,121.3 681.7,119.8 705,115C728.5,110.2 766.2,111.7 786,117C808.9,123.5 831.3,132.6 847,144C865,156.5 880.7,170.8 886,195C894,217 898.5,243.9 903,267C908.5,291.5 910,320 909,351C906.2,377.7 902.1,405 892,423C887.9,446.8 848.9,445.6 828,436C804.5,432.5 767.8,432.4 744,435C716.1,436.5 687.6,439.5 658,438C625.1,434 598.8,439.2 589,457C601.7,463.7 617.8,470.4 630,478C643.5,486 654.9,495.6 661,510C663.1,509.8 665.9,514 666,517Z" stroke="#7da7ac" stroke-width="0.75" stroke-linecap="round" fill="#7da7ac" stroke-linejoin="round"/>
<path d="M0,0M520,501C521.2,500.9 528.7,501.8 529,499C527.8,490.7 531.5,476.8 531,465C530.4,462.5 524,462.3 525,460C514,465.7 520.8,489.5 520,501Z" stroke="#146475" stroke-width="0.75" stroke-linecap="round" fill="#146475" stroke-linejoin="round"/>
<path d="M0,0M885,496L886,496C889.5,494.8 884.6,489.9 880,490C879.9,492 884.4,494 885,496Z" stroke="#0c4850" stroke-width="0.75" stroke-linecap="round" fill="#0c4850" stroke-linejoin="round"/>
<path d="M0,0M1090,493C1100.9,494.9 1110.5,490.2 1116,484C1117,470.1 1125.2,447.7 1122,423C1118.6,402.4 1116.7,380.3 1113,360C1109.8,339.2 1106.1,318.9 1102,298C1097.1,279.9 1094.5,258.5 1086,243C1063.5,236.8 1037.1,223.7 1012,234C994,245.1 983.4,267.9 978,294C972.3,318 967.7,346.7 967,378C966.6,406.7 964.8,438.3 952,457C954.4,459.4 961.6,461.8 966,463C982.3,455.2 995.6,440 1003,421C1011.8,409.8 1016.7,373.4 1038,385C1049.9,398.2 1053.6,423 1059,444C1065.8,464.2 1071,486 1090,493Z" stroke="#619aa6" stroke-width="0.75" stroke-linecap="round" fill="#619aa6" stroke-linejoin="round"/>
<path d="M0,0M355,475L357,475C357.4,470.1 355.9,466.6 354,463C352.8,466.6 355.4,471.5 355,475Z" stroke="#72a0a9" stroke-width="0.75" stroke-linecap="round" fill="#72a0a9" stroke-linejoin="round"/>
<path d="M0,0M531,465C533.1,466.3 537.7,464.3 535,459C533.5,457.8 535,454.4 537,451L535,451L526,451C527.1,454.3 523.7,456.3 525,457L525,460C524,462.3 530.4,462.5 531,465Z" stroke="#2d8297" stroke-width="0.75" stroke-linecap="round" fill="#2d8297" stroke-linejoin="round"/>
<path d="M0,0M561,457C569.2,452 576,458.3 589,457C598.8,439.2 625.1,434 658,438C687.6,439.5 716.1,436.5 744,435C767.8,432.4 804.5,432.5 828,436C848.9,445.6 887.9,446.8 892,423C902.1,405 906.2,377.7 909,351C910,320 908.5,291.5 903,267C898.5,243.9 894,217 886,195C880.7,170.8 865,156.5 847,144C831.3,132.6 808.9,123.5 786,117C766.2,111.7 728.5,110.2 705,115C681.7,119.8 651.7,121.3 627,126C601.1,130.1 583.2,142.2 567,156C554.2,170.8 542.3,190.4 538,216C532.3,239.8 535.5,273 532,300C531.7,326.8 526.8,353.4 525,381C522.6,413.4 534.8,431.2 543,453C546.2,454.6 558.4,453 561,457Z" stroke="#91b0b5" stroke-width="0.75" stroke-linecap="round" fill="#91b0b5" stroke-linejoin="round"/>
<path d="M0,0M526,451L535,451C535.9,449.2 525.4,445.2 526,451Z" stroke="#3a899e" stroke-width="0.75" stroke-linecap="round" fill="#3a899e" stroke-linejoin="round"/>
<path d="M0,0M349,430L351,430L351,420L349,420L349,430Z" stroke="#000000" stroke-width="0.75" stroke-linecap="round" fill="#000000" stroke-linejoin="round"/>
<path d="M0,0M625,430C648.8,428.8 664.9,419.9 684,414C703.1,408.8 725.9,404.9 748,405C770.2,407.7 798.4,406.1 820,406C841.8,403.5 860.2,395.2 865,378C875.9,364.1 876.8,338.3 876,315C874.8,291.8 868.4,271.6 862,255C854.4,238.8 845.8,220.7 832,211C821.5,198.1 803.4,189.6 787,183C771.1,174.4 751,169.5 729,166C707.4,162.8 678.2,165.5 660,168C639.2,171.6 620.6,179.6 607,189C594.9,200.8 580.3,212.8 574,229C565.9,245.2 561.2,267.2 559,288C556.2,309.1 554.2,333.7 555,357C553.4,377.9 557.5,403.8 571,411C583.5,423.3 607,426.5 625,430Z" stroke="#a0bbbc" stroke-width="0.75" stroke-linecap="round" fill="#a0bbbc" stroke-linejoin="round"/>
<path d="M0,0M349,420L351,420L351,366C348.3,379.6 350.2,402.5 349,420Z" stroke="#b5c7c7" stroke-width="0.75" stroke-linecap="round" fill="#b5c7c7" stroke-linejoin="round"/>
</g>
<g id="layer1" opacity="0.8">
<path d="M0,0M420,1443C435.5,1430 440.9,1407 454,1398C462.9,1406.9 470.5,1452.7 480,1435C467.5,1424 470.4,1381.9 448,1390C434.4,1403.4 426,1422 420,1443M562,1443C569.8,1434.5 550.9,1419.7 547,1411C541,1400 529.8,1393.2 525,1380C520.9,1365.8 512.7,1353.1 507,1342C498.8,1332.7 491.7,1321.8 486,1309C483.1,1294.1 473.9,1282.4 471,1269C466.1,1255.9 461.5,1242.5 460,1225C457.8,1210.2 452.4,1197.6 448,1183C443.8,1170.2 441.6,1154.4 439,1138C437.2,1122.6 438.7,1100.1 435,1087C433.2,1069.7 430.8,1057 435,1039C438.9,1024 432.6,1007.1 435,988C435.4,970.1 435.4,952.1 430,939C423.6,927.7 421.1,909.2 414,900C408.1,887.9 404.7,873.3 400,859C396.2,845.8 392,832 388,817C388,794.1 376.7,789.7 382,817C385.7,832.6 391.5,847.7 394,861C399.2,874.3 402.3,889.2 408,901C415.5,912.3 418.6,930.1 424,940C430.9,952.1 428.8,972.2 429,990C427.6,1008.2 433.1,1028.2 430,1041C425.4,1053.9 420.8,1067.3 420,1084C425.2,1073.7 429.3,1061.6 426,1093C424.2,1107.9 423.6,1130.4 426,1144C425.8,1163 432.6,1177.1 436,1189C442.5,1201.5 444.4,1217.6 447,1233C449.7,1248.3 456.7,1259.3 462,1272C467.1,1284.9 474.9,1295.1 478,1309C480.1,1326.2 492.9,1334.3 499,1344C506.6,1354.9 514.4,1365.1 517,1380C521.6,1393.9 534.2,1399.3 540,1411C547.5,1422 556.7,1430.8 562,1443M870,1443C886.5,1436.1 899.5,1423.4 909,1411C916.4,1395.9 923.5,1380 931,1365C943.7,1354.2 945.8,1333.3 954,1318C960.6,1302.2 970.7,1289.2 972,1267C978.6,1250.7 986.4,1232.9 990,1215C993.9,1195.9 999.2,1178.2 1003,1159C1005.1,1138.1 1009.2,1119.2 1011,1098C1008,1067.4 1003.1,1060.7 1002,1095C997.6,1113.9 995.3,1137.3 990,1153C986.4,1172.9 980.8,1190.3 973,1206C965.9,1221.4 957.8,1236.3 951,1252C946,1270.5 937.1,1284.6 931,1302C923.8,1316.8 917.8,1355.9 936,1326C948,1313.8 932.1,1356.3 925,1360C916.7,1374.7 912.4,1393.4 903,1407C896.5,1423.4 877,1427 870,1443M957,1443C973.9,1428.2 975.5,1420.6 973,1440C991.1,1441.7 1008.9,1438.6 1023,1432C1045.6,1417.1 998.9,1427.9 1003,1432C1018.5,1414.7 992,1402 1000,1402C1018.4,1404.9 1029.1,1417 1035,1429C1047.5,1426.4 1029.3,1402.1 1018,1401C1012.1,1389.5 978.7,1387.7 976,1402C968.7,1414.7 961.4,1427.4 957,1443M1056,1443C1060.4,1425 1058.5,1398.4 1063,1383C1067.7,1364.9 1078.3,1350.7 1083,1335C1087.8,1317.5 1091.2,1296.2 1092,1276C1092.4,1253.8 1092.8,1228.6 1078,1222C1071.7,1216.2 1081.4,1258.4 1080,1270C1081.4,1294.2 1077.4,1315 1074,1332C1067.5,1347.9 1060.2,1365.2 1056,1381C1054.1,1399.8 1049.9,1427.8 1056,1443M432,1441C443.9,1434.9 481.1,1444.8 456,1429C437.6,1412.7 442,1428.5 432,1441M463,1432C468.1,1428.9 460.1,1416.1 457,1422C448.8,1426.8 466.1,1427.1 463,1432M1432,1333C1435.6,1328 1394.8,1318.6 1381,1309C1362.9,1298.7 1337,1293.2 1317,1285C1296.6,1276.5 1275.9,1265.7 1258,1255C1237.7,1246.9 1221.3,1231.8 1200,1225C1181.1,1215 1161.3,1203.3 1143,1194C1123.2,1184.3 1100.5,1175.6 1087,1161C1080.3,1138.8 1044,1143.6 1042,1117C1035.7,1094.9 1032.3,1066.8 1024,1047C1019.8,1054.1 1034.7,1089.4 1036,1110C1032.1,1143.8 1068.1,1139.3 1077,1158C1091.7,1172.7 1111.1,1184.8 1131,1192C1150.7,1202.3 1171.4,1213 1188,1224C1210.3,1231.1 1229.2,1243.7 1246,1254C1267.3,1262.6 1285.2,1276.2 1305,1284C1324.1,1294.4 1351.8,1298.1 1371,1306C1389.3,1317.6 1412.9,1325.5 1432,1333M15,1332C37.6,1327.6 58.8,1321.8 79,1315C101.5,1310.5 122.3,1304.3 141,1296C159.8,1287.8 174.4,1275.4 187,1261C203.3,1250.3 218.5,1238.5 234,1227C253.3,1219.3 271.6,1210.6 289,1201C306.4,1191.4 325.9,1183.9 336,1167C346.9,1150.9 349.6,1126.6 357,1107C364.5,1087.5 377,1073 385,1054C374,1070 363.3,1086.3 355,1105C346.6,1123.6 344.7,1148.7 334,1165C323.2,1181.2 304.6,1189.6 286,1198C269.1,1208.1 249.4,1215.4 232,1225C214.9,1234.9 202.4,1249.4 184,1258C171.2,1272.2 157.9,1285.9 138,1293C120.7,1302.7 98.6,1307.6 78,1314C56.6,1319.6 35,1325 15,1332M1203,1276C1194.2,1263.3 1174.5,1243.9 1156,1234C1139.9,1220.1 1103.9,1225.1 1083,1215C1091.6,1228.5 1134.8,1224.3 1152,1234C1171.2,1246.3 1187.5,1261 1203,1276M981,1275C987.1,1268.9 990,1256.6 993,1249C985.1,1253.7 981.3,1265.2 981,1275M255,1273C263.1,1261.6 271.3,1249.8 276,1234C267.3,1245.8 259,1257.5 255,1273M432,1242C429.3,1222 440.4,1198.4 427,1185C428.5,1191 428.3,1228.6 432,1242M718,1171C713.8,1149.5 750.6,1138.5 733,1128C720,1135.9 680.8,1130.7 685,1143C682.9,1146.5 676.8,1150 676,1153C666.3,1180.7 677.8,1155.2 685,1147C705.9,1132.3 732.8,1147.8 718,1171M738,1164C759.5,1160.5 770.7,1146.7 780,1131C762,1138 758.9,1159.9 738,1164M771,1161C783.1,1143.1 795.3,1125.3 816,1116C830,1109 830.4,1049.2 822,1063C826.4,1092.5 800.7,1111.7 813,1114C788.9,1119.9 778.6,1141 771,1161M739,1158C764.6,1151.3 757.1,1119.3 786,1123C788.7,1120.8 803.3,1119.8 798,1116C777,1132.8 761.7,1104.3 777,1096C741.4,1097.5 797.9,1147.4 759,1114C765.1,1115.3 728.2,1115.3 718,1096C713.5,1057.4 737.5,1123.6 754,1102C755.5,1096.4 761.1,1091.4 766,1092C801.9,1092.4 753,1084.2 756,1071C754,1066.4 749.2,1055.3 750,1066C761.4,1090.6 765.2,1083.3 750,1098C746.1,1107 744,1095.2 738,1096C715.7,1079.9 727.5,1080.3 741,1093C746.1,1075.2 750,1041.6 745,1023C734.3,984.6 753.4,1052.3 741,1063L741,1086C739.4,1077.5 720.9,1073 723,1069C732.7,1052.3 688.7,1017.3 709,1048C720,1062.8 721.5,1108 696,1107C692.1,1116.1 627.9,1128 663,1128C690.6,1128.5 705.7,1109.3 735,1116C774.8,1106.8 743.7,1144.4 739,1158M1009,1152C1012.4,1141.3 1016.4,1122.9 1014,1113C1008.6,1117.2 1009.7,1140.6 1009,1152M612,1146C649.3,1143.9 625.4,1142.2 607,1140C593.9,1134.3 581.7,1124.7 573,1116C559.4,1110.3 546.7,1101.1 547,1083C534.9,1069 543.1,1053.6 552,1044C570.9,1020.5 546.5,1036.2 544,1050C530.8,1061 544.7,1083.6 546,1095C548.7,1111.6 568.7,1113.4 576,1123C583.8,1135 601.9,1138.7 612,1146M841,1141C861.4,1139.1 868.3,1121.3 876,1108C888,1102.6 896.2,1075.6 885,1063C887.2,1069.2 886.8,1102.5 871,1105C863.3,1119.3 855.9,1133.9 841,1141M625,1129C640.2,1122.9 645.8,1104.7 649,1089C658.6,1060.6 645,1055.5 640,1083C639.8,1099 633,1129.9 622,1120C600.2,1101.5 611.9,1120.4 625,1129M637,1129C650.8,1121.5 662.9,1109.8 679,1107C694.1,1110.4 697.7,1057.5 687,1087C680.3,1106.6 662.6,1113.8 681,1090C684.3,1082.7 692.1,1035.4 681,1060C673.8,1073.2 671.4,1098.2 664,1105C662.7,1079.9 660.9,1074.1 658,1057C641.9,1037.3 666.7,1069.1 657,1086C658.8,1108.8 645,1116 637,1129M714,1129C727.2,1130.2 751.3,1119 721,1122C697.6,1120 695,1122.7 714,1129M787,1111C784,1104.7 809,1058.4 811,1078C819.1,1076.1 818.2,1024.7 831,1012C822.8,971.8 828.9,1037.2 814,1050C808.5,1071.3 779.7,1091.3 787,1111M627,1105C638,1081.7 618.4,1069 621,1045C631.6,1016.1 615.9,1007.5 618,1044C619.2,1057.3 615,1083.1 612,1095C617.1,1059.8 628.6,1079.1 627,1105M684,1104C704.9,1102.6 713.5,1086.4 712,1065C707.1,1081.9 699.8,1099.4 684,1104M694,1093C698.2,1083.5 705.4,1068.4 705,1060C700,1065.1 694.8,1082.2 694,1093M838,1093C844.1,1075.5 836.7,1046.7 837,1027C829.2,1046 836.4,1071.1 838,1093M780,1086C798.5,1073.9 818.9,1039.3 789,1072C762.1,1092.6 802.4,1048.5 807,1041C809.3,1035.3 808.4,1026.4 808,1018C796.6,980 801.5,1021.8 805,1032C799.3,1049.4 761.7,1063.8 780,1086M1015,1080C1007.5,1056.9 1010.9,1017.4 1018,994C1021.4,963.9 1034.2,941.4 1045,921C1057.1,899.2 1063.8,870.5 1072,847C1083.7,829.4 1079.2,773.6 1089,781C1103.7,805.2 1148.6,794.7 1153,772C1160.3,745.9 1160.9,711.1 1165,684C1168.3,654.1 1161,620.8 1162,589C1161.4,556 1169.8,526.4 1170,499C1175.1,450 1116.8,495.3 1116,480C1126.6,455.7 1123.7,418.4 1117,393C1115.9,361.1 1107.1,334.6 1104,306C1098.5,278 1092.7,248.5 1081,228C1071.8,204.2 1058.5,182.2 1044,165C1028.7,146.8 1008,132.2 993,115C974.8,100.2 954.1,85.6 933,75C911.4,63.6 890.5,51.5 865,43C842.3,33.2 811.6,28.5 784,24C754.3,19 722.7,17.1 693,21C662.7,24.2 637.3,34.1 612,40C589.6,51.5 564.4,61.7 544,73C523.5,86 501.6,99.4 483,112C464.8,127.8 444.3,142.6 432,162C413,176.5 402.9,201.7 387,217C374.4,238.4 367.9,267.3 358,289C353.3,317.8 349.5,349.4 349,381C350.6,416.1 350.1,446 355,472C373.9,518.1 313.6,458 303,490C293.2,517.2 309.3,548.2 306,579C305.6,612.8 304.9,648.9 312,673C314.4,703 323.8,733.2 324,759C322.7,788.7 351.6,809.5 379,795C404.8,777.5 330,812 333,775C331,744 323.8,715.9 319,688C314.5,660 307.9,631.3 310,597C310.3,567.5 306.6,502.3 316,562L316,588C317.4,635.7 323.4,575.4 324,562C341.8,533.8 322,503.6 310,511C307.8,518.6 304,500.8 304,498C314,474 343.7,496.6 360,496C362.8,476.9 353.4,438.8 354,411C352,375.6 356.2,344.3 358,315C361.9,285 374.9,262.5 382,238C392.3,214.8 411.3,198.5 423,178C439.1,161.2 454,140.7 472,127C491.7,113.2 511.2,97.4 532,87C551.8,72.8 576.7,62.4 598,52C621.3,41.9 650.1,35.3 675,28C703.3,24 740.2,22 768,27C796.5,31.5 826.8,34.2 850,43C875.5,52 900.9,61.9 921,73C943.3,84.7 964.3,99.1 981,114C999.5,129 1017.5,146.3 1033,162C1050.3,178.7 1063.2,201.1 1074,222C1085.2,244.2 1092.9,271.9 1098,298C1100.4,329.6 1109.5,355.8 1111,385C1116.3,414.5 1122.6,446.7 1113,472C1100,522.1 1161.8,454.5 1164,495C1164.2,523 1155.7,554.2 1158,586C1155.5,620.5 1161.8,654.8 1159,682C1155.1,711.6 1154.5,746.3 1147,771C1135.8,800.1 1092.7,783.7 1083,771C1076.9,793.2 1072.8,827.2 1065,850C1056.6,875.6 1049.5,903.8 1038,924C1024.5,944 1015.1,969.9 1011,997C1005.9,1023.7 999.7,1061.3 1015,1080M666,1077C676.4,1066.9 672,1045.1 655,1045C654.7,1045.7 676.3,1059.6 666,1077M762,1072C766.3,1071.7 765.7,1042.4 763,1053C757,1045.5 761,1066.5 762,1072M847,1066C853.6,1065.9 848.3,1050.4 846,1051C840.8,1051.2 847.7,1065.1 847,1066M550,1060C567,1051 570.7,1028.7 585,1017C589.1,995.1 607.8,987.8 615,969C602.1,982.1 586.9,992.9 583,1015C571.9,1029.9 559.5,1043.6 550,1060M636,1059C640.9,1045.6 647.6,1031.4 660,1027C636.3,1022 641.6,1048.3 636,1059M726,1048C724.6,1042.5 712.9,1033.6 711,1026C710,1034.4 719.4,1045.7 726,1048M732,1045C735.6,1037.8 724.1,1031.1 724,1024C719.7,1033.3 732.8,1038.5 732,1045M859,1045C863.5,1036.5 856,1028.3 856,1018C852.8,1027.1 858.2,1037.6 859,1045M756,1041C764.3,1029.7 768.5,1009.2 765,990C759.1,1003.6 764.8,1027 756,1041M397,1039C402.4,1032.2 413.5,1028.1 414,1018C407.6,1024.3 402.5,1034.4 397,1039M781,1039C798.4,1039.1 805.3,1022 790,1032C773.4,1021.8 770.7,1026.7 781,1039M843,1035C844.6,1028.5 846.6,1010.7 841,1006C838.8,1014.1 843,1025.8 843,1035M525,1032C533,1014.8 576.9,1027 574,1005C565.2,1022.9 530.4,1009.9 525,1032M583,1032C599,1029.2 598.6,1007.9 603,996C593.1,1004.4 593.1,1025.3 583,1032M514,1030C522.5,1027.4 520.3,1010.8 520,1002C513.5,1006.2 517.5,1024.4 514,1030M753,1027C758.8,1020.9 753.6,998.8 744,1003C741.8,1001.8 756.3,1015.1 753,1027M813,1027C815.6,1023.5 820.6,1011.7 816,1009C810.3,1001.4 814.2,1022.2 813,1027M634,1026C640,1020.5 635.4,1004.9 639,997C631.2,1000.7 635.8,1016.3 634,1026M793,1023C799.8,1016.5 792.5,999.4 790,994C787.7,997.6 793.8,1016 793,1023M912,1021C905.4,992.5 938.1,973.2 907,951C900.3,929.1 898.7,883.9 891,897C893,901.7 894.6,910.6 886,903C873.9,899.9 900.8,931.9 900,945C919.9,968.9 905.8,994.4 912,1021M694,1020C704.9,1016.2 713.9,1008 718,1000C711.2,1007.4 698.9,1012.2 694,1020M858,1017C868.4,994.9 851.5,975.1 849,955C843.1,971.9 859.6,995.1 858,1017M873,1009C895.2,1016.9 866.4,981.1 864,966C848.7,945.6 872.8,999.1 873,1009M673,1006C681,982.5 699,967.2 708,946C696.5,966.4 677,980.3 673,1006M541,1005C548.7,1002.1 550.6,990.5 553,985C547.3,989.5 544.8,1000.3 541,1005M556,1002C565.7,983.2 577.4,966.9 589,951C573.3,962.8 562.3,979.8 556,1002M888,1000C890.9,990.5 880.2,983.6 880,972C876.5,983.1 885.9,991.3 888,1000M720,997C721.9,988.5 710.6,982.2 709,972C705.7,982.9 717,989.2 720,997M531,996C542.4,988.4 543.1,970.1 555,963C562.7,952.5 570.6,939.4 571,924C562.6,934.1 560.1,950.6 552,961C544.4,972.1 535.7,984.4 531,996M850,996C848.3,989.7 841,975.5 837,969C835.3,979.2 846.2,989.8 850,996M897,996C905.7,977.3 888.7,954.6 882,939C881.5,950.6 893.1,977.1 897,996M576,990C583.2,984 590.5,975.1 594,967C587.4,974.1 578.5,981.4 576,990M531,984C540.1,965.2 536.7,927.9 555,918C532.8,926.5 529.2,960.7 531,984M508,979C514.5,971.5 514.8,957.8 520,949C510.8,953.8 509.7,966.7 508,979M546,979C568.1,966.6 581.4,944.9 600,928C578.6,942.1 564.6,963.1 546,979M822,979C826.6,977 810.5,970 805,970C801.4,972.6 819.9,977.2 822,979M765,973C758.2,955 736.3,944.1 729,922C730.3,934.6 800,947.2 766,934C744.8,936.5 723.7,894.1 723,927C730.8,948.6 752.9,957.9 765,973M735,966C746.6,963.2 726.5,957.4 724,957C715.5,957.2 735.7,962.9 735,966M694,958C702.5,941.1 677.8,942.5 673,952C667.7,958.5 694.2,939.8 694,958M730,954C727,948.2 713.4,922.9 705,912C711.8,914.5 710.1,955.2 730,954M918,949C919.8,934.4 917.8,923.3 918,907C912.6,917.7 915.2,939.4 918,949M663,948C669.7,945.7 674.3,941.3 681,939C703.8,945.2 714.5,902.3 693,930C699.9,903.8 682.7,940.1 663,948M511,946C528.3,922.4 542.5,916.5 550,894C589.4,866.1 511.9,939.3 558,900C566.7,875.3 593.9,867.1 627,868C659.9,869.1 697.3,867.1 726,870C757.4,872.1 793.8,871 822,874C854.3,858.1 890.9,910.1 888,873C889.9,826.3 892.9,888.5 900,895C914.6,955.7 898.4,871.7 907,870C911.5,840.7 884.5,810.6 879,813C880.1,820 888.7,823 888,829C899.3,830.7 904.9,889.5 898,861C896.3,856.9 888.8,847.9 886,850C886.5,848.3 886,838.6 885,835C875.7,808.5 886.2,868.6 873,858C883.6,820.1 865.8,797.5 838,795C831.8,793.6 827.3,786.6 825,783C816.1,766.7 767.2,787 808,787C811.1,793 809.7,805.9 810,811C814.6,857.2 811.1,796 814,789C822.5,812.9 850.5,815.8 855,843C859.1,856.8 850.1,855.3 850,846C843.1,806.2 840.6,827.3 847,853C842.3,852 832.6,817.9 820,804C801.6,779.1 847.8,868.8 820,835C797.9,857.7 869.8,857.8 861,868C825.2,866.2 803,862.2 771,864C736.7,864.8 704.2,862 673,861C606.3,867.5 671.5,846.5 697,856C726,856.1 770.8,862.9 781,843C782.1,835.5 787.4,829.2 790,826C805.2,799.5 766.9,775.5 778,789C778,810.1 786.5,864.4 748,850C716.5,857.5 683.3,843.2 655,852C633.2,860.2 592.3,866.8 576,858C569.1,858 581.4,852.2 579,847C582.7,814.7 576.3,805.1 568,840C564.5,864.2 535.4,900.9 556,862C521.2,882.4 557.6,824.8 562,816C549.1,828.1 527,844.9 529,874C543.3,904.7 519.3,925.6 511,946M637,945C653.2,948.8 681.1,933.1 655,940C643.1,943.1 612.7,933.3 637,945M796,943C818.5,941.7 815.8,936.5 820,916C818.9,899.1 787.2,911.8 772,907C773.1,917.4 798.3,914.9 813,912C822,922.9 807.5,940.3 796,943M642,937C670.3,937.3 682,918.6 699,909C723.2,912.2 755.8,906 766,924C776.4,950.1 829.3,922 804,921C771.8,934 766.5,904 747,904C719.4,906.5 684.9,897.4 672,909C658.8,909.3 593.1,897.5 621,907C634.8,925.5 664,924.4 681,912C687.2,915.2 648.3,936.7 642,937M882,928C887.9,920.9 875.1,920.6 871,918C869.3,921.9 877.5,926.8 882,928M939,886C932.1,874.5 916.5,862.7 912,844C909.2,866.3 927.2,875.6 939,886M936,861C948.2,862.3 930.8,852.7 931,847C921.4,844.2 932.4,860.1 936,861M544,859C569.3,856.9 560,818.1 574,807C556,815.9 560.2,849.7 544,859M598,855C617.8,856 623.5,840.8 622,823C622.4,805.4 628.8,793.8 637,784C654.7,764.3 628.4,780.5 625,790C621.5,817.1 612.3,786.3 610,814C608.7,823.6 613.7,849.8 607,840C602.1,807.5 598.2,873.2 597,832C587.2,822.6 601.7,791.5 588,817C587.2,834.7 581.1,855.3 598,855M781,855C797,854 807.5,842.6 807,829C798,833 794.5,851.5 781,855M622,849C639.7,845.2 644.3,828.8 655,819C667.9,793.5 659.7,837.2 646,837C624.1,856.9 659.5,839 663,829C675.1,811.9 651.8,793.6 664,780C668.1,769 645.1,794.3 651,811C640.7,833.2 633.6,834.6 645,808C654.6,778.7 639.3,777 639,802C639.4,823.9 628.3,833.8 622,849M867,847C857.9,832.2 850.9,812.6 835,805C834.5,795 789.4,773.2 816,781C826,795.9 842.9,805.6 859,811C881.6,839.4 853.6,812.8 867,847M790,844C802.8,834.5 815.1,773.2 778,783C805.3,785.9 801.5,823.2 790,844M679,841C695.2,817.8 724,824.1 745,840C752.4,841.7 740.1,832.2 738,829C736.3,832.5 787,842.9 772,811C772.6,806.2 779.1,793.6 772,790C774.6,771.3 740.4,815.2 744,796C735.6,785.2 743.8,809.7 739,807C726.8,772.4 720.9,830 702,819C706.2,814.2 712.1,811.1 714,804C750.5,782 705.4,800 703,807C716.1,785.1 752,784.7 774,774C801.4,772.4 839.1,740.3 789,745C780.1,745.6 774.6,749.1 768,751C740.9,765.3 742.8,774.2 771,759C778,757 788.5,758.5 795,756C826,744.8 781.4,774.2 768,769C744.9,782.5 703.8,780.3 687,765C682.8,750.6 605.5,736.1 649,753C668.2,781.7 591.8,713.2 631,754L645,768C679.8,761 675.4,786.7 672,796C670,780.8 666.7,798.3 672,802C677.7,821.5 665.3,835.7 684,819C724.9,806.3 655.1,755.3 697,783C719.1,814.8 660.3,828.5 679,841M910,835C910.6,832.7 901.2,816.2 900,808C897.8,813.5 902.1,835 910,835M543,828C549.2,823.2 546.5,809.5 550,802C540.3,803.3 547.3,821.3 543,828M600,828C599.1,798.4 626.3,784.9 631,771C618.3,785.7 591.6,802 600,828M627,822C633.4,815.4 637.6,806.6 636,792C635.4,804.4 629.1,811.1 627,822M1099,775C1100.2,768.8 1092.7,759.6 1092,750C1090.7,757.4 1091.4,773.3 1099,775M829,712C830.3,704.4 819.2,694.7 816,688C815.2,696.6 826.3,706.3 829,712M1119,708C1134.4,703.7 1119.2,689.2 1125,678C1115.2,679.9 1113.8,699.8 1119,708M1126,676C1142.3,667.7 1134.4,640.8 1128,628C1115.1,616.9 1116.9,594.5 1114,577C1104.2,594.4 1105.7,615.7 1120,624C1127.2,636.1 1136.8,662.8 1126,676M352,627C370.8,623.1 368.6,591.7 366,571C361.4,585.8 363.5,615.3 352,627M492,625C518.9,627.4 539.3,622.8 558,616C571.6,615.4 604.4,591.8 586,595C570,604 553.4,612.4 531,615C526.7,617.1 516.5,617.1 514,615C485.8,615.1 491.8,618 492,625M889,621C910.9,623.1 927.7,618.1 945,618C929.5,614.5 911.7,613.3 898,607C882.5,604.5 865,603 849,600C829.8,602.5 869.9,608.6 879,609C893.9,610.6 927.5,619.3 892,615C874.8,613.7 860,609.5 846,604C816.7,599.7 818.7,606.1 843,610C857.8,614.7 874,617.5 889,621M529,600C543.4,597.9 557.5,596 567,589C554,592.5 541.1,595.6 529,600M891,598C899.4,600 931.8,597.1 913,594C908.6,597 871.6,593.7 891,598M750,592C757.2,588.8 749.5,577.4 750,571C745.6,572.5 751.2,585.9 750,592M526,591C547.8,592.7 587.7,573.2 544,585C522.9,584.6 476.9,585.2 526,591M885,588C894.4,589.3 902.8,586.2 909,586C952.3,573.8 897.2,582.7 883,580C875.4,580.5 865.6,578.8 861,577C821.2,568.2 873.9,589.1 885,588M1005,588C1029.5,588 997.8,579.9 993,580C972.1,579.9 1000.2,586.3 1005,588M406,582C441.2,582.7 469.5,577 487,561C493.9,543.5 537.7,507.4 519,552C517,585.5 571.9,579.6 580,559C584.6,554.8 584.6,542.5 580,540C566.8,508.8 598.1,546.5 601,555C604.9,556.5 616.2,551.2 621,552C654.9,573.5 635.1,544 612,544C594.4,528.6 573.1,514.6 537,519C512.2,523 477.9,536.5 478,553C471.8,580.2 426.5,570.3 406,582M873,571C901,576.6 913.8,555.3 909,535C918.7,535.2 936.3,556.5 951,561C963.2,552.6 986.3,573.4 1008,562C1024,553.7 971.1,568.1 969,549C957,535.6 936.4,528.6 919,522C900,516.1 875.5,513 856,508C829.8,507.2 809.6,514.6 792,520C769,543.2 801.1,501.5 817,508C838.6,505.7 875.9,494.4 829,499C809,504.3 785.6,508.6 774,520C752.9,562.8 814.3,527.1 784,547C761.9,578.5 795.1,542.5 802,537C791.4,530.5 831.2,527.8 841,517C864.1,508.2 884.6,518.3 901,525C894.5,521.4 858.2,516.7 849,531C835.2,546.5 857.9,569.5 873,571M555,568C525.3,582.7 517.3,520.2 535,553C562.2,554.6 586.8,548.9 555,568M1152,567C1152.6,545.5 1165.3,510.4 1159,501C1137.1,512.9 1151.3,542.9 1152,567M601,564C610.2,563.5 644.8,560.8 627,558C613.8,566.2 594.4,554.1 601,564M885,564C853.5,564 852.9,541.3 886,552C912,527.1 902.2,558.9 885,564M445,562C477.3,560.8 474.7,522.9 505,522C527.9,513.1 563.6,504.5 586,517C604.6,539.9 645.8,510.6 657,538C679.6,575.8 651.7,506.9 634,511C623.6,502.5 558.3,480.4 598,504C604.6,506 611.9,510.3 616,511C631,524.6 587.7,503.9 576,504C541.9,503.4 516.9,513.7 493,522C472.2,527.2 451.6,560.8 445,562M787,562C823.4,543.3 779,567.1 805,561C826.4,560.9 824.7,538.2 841,534C871.7,517.7 828.8,526.9 823,535C811.7,544.7 791.7,545.7 787,562M321,550C318.1,547.1 312.8,527.7 319,528C332.4,530.4 319.1,541.3 321,550M571,549C556.6,519.9 547.6,535.5 529,541C538.4,517.6 573.9,528.3 571,549M636,544C668.7,543.9 643,538.1 633,532C606.5,528.6 621.4,542.4 636,544M948,544C937.5,542 929.9,536.6 922,531C932,534.5 941.3,538.2 948,544M856,541C851,532.8 873.5,527.9 879,523C880.9,529.3 863.4,538.4 856,541M900,540C891.5,538.4 882,534.5 882,526C889.3,529.3 898.9,533.1 900,540M462,505C472,500.2 485.6,495.8 493,490C478,490.2 467.5,497.8 462,505M504,502C524.3,498.8 548.7,499.2 565,492C539.7,490.2 518.4,492.9 504,502M886,498C924.9,497.2 859.5,490.3 858,483C838.4,473.9 812.3,480.5 795,486C754.7,491.5 815.2,499.5 823,489C847.1,484.3 871.4,490 886,498M606,493C599.4,474.1 561.4,471.4 544,469C534.9,458.8 466.8,447 513,463C546.2,471.1 543.1,482.1 573,489C581.4,491 589.9,489.9 579,486C550.2,472.4 603.5,487.7 606,493M721,490C720.9,482.9 719.6,465.7 717,456C713.1,468.1 717.7,481.9 721,490M942,483C945,472.5 925.6,463.3 913,462C916.4,466.5 936.1,475.5 942,483M969,477C969.4,472.7 955.5,460 949,456C949.1,460.3 963,473 969,477M948,469C951.8,467.7 939.2,457.2 934,457C930.4,459.6 947.3,465.8 948,469M553,466C584.2,465.8 546,455.5 538,456C512.9,450.1 550,464.1 553,466Z" fill="#2c0515"/>
</g>
</svg>
