<?xml version="1.0" encoding="UTF-8"?>
<svg width="155px" height="41px" viewBox="0 0 155 41" version="1.1" xmlns="http://www.w3.org/2000/svg" xmlns:xlink="http://www.w3.org/1999/xlink">
    <!-- Generator: Sketch 53.2 (72643) - https://sketchapp.com -->
    <title>08-Uniris-Logo-Blue-Left-RGB</title>
    <desc>Created with Sketch.</desc>
    <g id="Page-1" stroke="none" stroke-width="1" fill="none" fill-rule="evenodd">
        <g id="08-Uniris-Logo-Blue-Left-RGB" fill="#00A4DB" fill-rule="nonzero">
            <g id="Group">
                <path d="M10.7776793,5.81632944 C11.2167828,5.72997136 12.5766937,5.4791549 14.3095765,5.49630627 C17.1509927,5.52438123 19.3521449,6.25561899 20.7009805,6.71540427 C22.2599502,7.24694465 25.7146864,8.59679671 29.2087189,11.6297297 C30.5272661,12.7742522 31.5104485,13.8625159 32.1788647,14.6699441 C32.4907389,14.0501673 32.7587067,13.4144045 32.9764574,12.7775536 C33.2626989,11.9404041 33.4737723,11.0750307 33.6036645,10.2056429 L33.8091029,8.83090849 C32.9768697,8.03012613 31.8581658,7.04210475 30.4505174,6.02383229 C29.7808642,5.53943095 27.6499381,4.03833198 24.9237768,2.82782968 C22.7621042,1.86784319 17.7329363,-0.365432691 11.2651215,0.433625936 C6.46485124,1.02671651 3.09050597,3.01611955 2.31122726,3.4915157 C1.74305625,3.83810775 1.19188488,4.21085918 0.672991835,4.59955936 L0.316080354,4.86692584 L0.263011356,5.30974587 C0.185924714,5.95196262 0.138636804,6.61579752 0.122347317,7.28244712 C0.0692439419,9.47665571 0.343476735,12.8684902 1.95134938,16.5658221 C2.41537239,17.633258 2.97183523,18.6827924 3.60530736,19.685076 C3.7807609,19.9628364 4.13264438,20.4963668 4.65473001,21.1827963 C4.60094805,20.7942822 4.55399799,20.4055047 4.51504236,20.0220959 C4.28655705,17.7796258 4.28802021,15.4894527 4.51935741,13.2152712 C4.71076255,11.333727 5.02905629,9.82249757 5.25742706,8.86840096 C5.36119994,8.43485241 5.45742506,8.07197088 5.53001055,7.80813487 C6.14926051,7.44352676 6.93416568,7.03534732 7.87463858,6.66484932 C8.4522299,6.43730312 9.46539705,6.07416102 10.7776793,5.81632944 Z" id="Path"></path>
                <path d="M25.7873463,32.2641691 C24.06212,33.0392445 22.5942729,33.5192191 21.6537599,33.7984455 C21.2264821,33.9254114 20.8640873,34.0235149 20.599315,34.0926414 C19.9738315,33.7385847 19.2279564,33.2628478 18.4368178,32.6336535 C17.9510248,32.2472067 17.1299014,31.5514686 16.2504576,30.5438563 C15.9561815,30.2066875 15.0589793,29.1544874 14.2073814,27.6451678 C12.8109944,25.1703498 12.3436299,22.8984161 12.0674443,21.5004142 C11.7482859,19.8846244 11.1899505,16.2178041 12.069546,11.6754771 C12.4014263,9.96124603 12.8523152,8.56572094 13.2173328,7.58313991 C12.52475,7.62288581 11.8400872,7.70871708 11.1797026,7.8385348 C10.3116291,8.0092581 9.45665242,8.25920983 8.63883039,8.58129461 L7.34546043,9.09073007 C7.06807514,10.2119479 6.77177466,11.6747642 6.59380426,13.4029597 C6.50913553,14.225134 6.27457136,16.8210281 6.58930025,19.7871939 C6.83880244,22.1392179 7.41928288,27.6113175 11.3452118,32.8130871 C14.2589872,36.6737521 17.6690268,38.6013072 18.4703303,39.0384177 C19.0545646,39.3572039 19.6530239,39.6481357 20.2490035,39.9031154 L20.6590957,40.078569 L21.0691535,39.9031154 C21.6638561,39.648737 22.2623898,39.3578396 22.8478611,39.0385724 C24.7746316,37.9874202 27.5749532,36.0540526 29.9730568,32.8129382 C30.6653819,31.8773845 31.2960766,30.8706313 31.8474341,29.8209509 C32.000107,29.530128 32.2863485,28.9585782 32.6196919,28.1632763 C32.3101829,28.4041054 31.9969917,28.6391965 31.6844418,28.8646037 C29.8566394,30.1836778 27.8724534,31.3274873 25.7873463,32.2641691 Z" id="Path"></path>
                <path d="M41.1965226,7.25895343 C41.1804993,6.59365538 41.1332085,5.92985767 41.0560475,5.2862121 L41.0029785,4.84335484 L40.6459553,4.57602845 C40.1282993,4.18819011 39.5770563,3.81532703 39.0078717,3.46787024 C37.1341702,2.32481377 34.0597303,0.866309712 30.0537512,0.410169444 C28.8972915,0.278249995 27.7102456,0.235466092 26.525416,0.282828462 C26.197175,0.295999785 25.5591273,0.333944685 24.7036954,0.442894448 C25.0669549,0.590464844 25.4271678,0.744188552 25.7786762,0.90219011 C27.8349609,1.82558606 29.8175721,2.9720213 31.6714537,4.30944935 C33.2051632,5.41595539 34.3548311,6.44717298 35.0669303,7.12204321 C35.3904754,7.4287032 35.656645,7.69340395 35.8487975,7.88818783 C35.8549536,8.60685269 35.8159207,9.49069173 35.6665865,10.4904212 C35.5748625,11.1043798 35.3828589,12.1633345 34.9499861,13.4287783 C34.8050786,13.8521964 34.3424443,15.1553218 33.4611221,16.6474872 C32.0160557,19.0941615 30.2822336,20.6348546 29.2095836,21.5730712 C27.9698811,22.6573206 25.0735233,24.9743661 20.6998924,26.4837602 C19.0493876,27.0533915 17.6153163,27.3606499 16.5819226,27.5358801 C16.96274,28.1157965 17.3793262,28.6657682 17.8218828,29.1727612 C18.4037921,29.8392246 19.0477383,30.4546463 19.7356653,31.0019494 L20.8234795,31.8672483 C21.9332154,31.546893 23.3481023,31.0720208 24.9338328,30.3620633 C25.6881891,30.024402 28.0536507,28.9294925 30.4650803,27.1738633 C32.3772134,25.7817914 36.8259381,22.5430049 39.3677867,16.542254 C41.2542817,12.0884985 41.2186275,8.17146587 41.1965226,7.25895343 Z" id="Path"></path>
            </g>
            <g id="Group" transform="translate(52.917676, 11.634383)">
                <path d="M11.6640696,9.7692023 C11.6640696,12.3966989 10.2552988,14.4553087 7.30297433,14.4553087 C4.35066134,14.4553087 2.88847792,12.3966989 2.88847792,9.7692023 L2.88847792,0.397745462 L0.206829973,0.397745462 L0.206829973,9.7692023 C0.206829973,13.994736 2.88847792,17.0280813 7.30297433,17.0280813 C11.7720401,17.0280813 14.3452709,13.994736 14.3452709,9.7692023 L14.3452709,0.397745462 L11.6640696,0.397745462 L11.6640696,9.7692023 L11.6640696,9.7692023 Z" id="Path"></path>
                <polygon id="Path" points="34.6695571 11.1235584 23.429547 0.397745462 22.7253963 0.397745462 22.7253963 16.6490277 25.4067923 16.6490277 25.4067923 5.76085809 36.6469971 16.6490277 37.351205 16.6490277 37.351205 0.397745462 34.6695571 0.397745462"></polygon>
                <rect id="Rectangle" x="45.8911502" y="0.397745462" width="2.68138737" height="16.2512808"></rect>
                <path d="M67.3192395,10.9339915 C69.3774026,10.121501 70.70458,8.44209658 70.70458,5.89596727 C70.70458,2.37510246 68.2125304,0.397745462 64.122524,0.397745462 L57.0807543,0.397745462 L57.0807543,16.6490277 L59.7624137,16.6490277 L59.7624137,11.5025777 L64.3939449,11.5025777 L68.3754197,16.6490277 L71.3548312,16.6490277 L71.3548312,16.269934 L67.3192395,11.0963854 L67.3192395,10.9339915 Z M64.2041175,9.17341161 L59.7624136,9.17341161 L59.7624136,2.7813692 L64.0417207,2.7813692 C66.4252729,2.7813692 67.9423922,3.8646794 67.9423922,6.00431577 C67.9423922,8.1712769 66.4522913,9.17341161 64.2041175,9.17341161 Z" id="Shape"></path>
                <rect id="Rectangle" x="78.5973892" y="0.397745462" width="2.68112466" height="16.2512808"></rect>
                <path d="M96.123948,7.03366074 C93.1716579,6.22109291 92.2235399,5.67971698 92.2235399,4.56889589 C92.2235399,3.2688114 93.4696506,2.53749637 95.5009098,2.53749637 C98.34484,2.53749637 100.024356,3.86467944 100.024356,3.86467944 L101.486751,1.67088604 C101.486751,1.67088604 99.6990357,0.0458620605 95.5009098,0.0458620605 C91.5194351,0.0458620605 89.2984286,1.83327995 89.2984286,4.67724731 C89.2984286,7.22315042 91.1130481,8.44209665 94.932401,9.52563305 C98.0468473,10.4193792 98.8866626,11.0424174 98.8866626,12.2883849 C98.8866626,13.5883606 97.8847139,14.5364499 95.4736967,14.5364499 C92.5755351,14.5364499 90.6256059,12.9653911 90.6256059,12.9653911 L89.1629815,14.996679 C89.1629815,14.996679 91.2215913,17.0280814 95.5279969,17.0280814 C99.9161106,17.0280814 101.866189,14.8615755 101.866189,12.098858 C101.866189,9.57967551 100.241053,8.14406663 96.123948,7.03366074 Z" id="Path"></path>
            </g>
        </g>
    </g>
</svg>