<?xml version='1.0' encoding='utf-8'?>
<!-- Generator: imaengine 6.0   -->
<svg viewBox="0,0,1440,1443" xmlns:xlink="http://www.w3.org/1999/xlink" xmlns="http://www.w3.org/2000/svg" width="1440" height="1443" version="1.1">
<defs/>
<g id="layer0">
<path d="M0,0M0,1443L75,1443L148,1443C149,1440.3 141.6,1442.3 144,1440L142,1440C143.1,1436.8 134.4,1439.4 135,1438C117.6,1438.4 96,1440.7 73,1440L7,1440C0.5,1429.7 4.3,1402 3,1381L3,1317C4.2,1298 0.5,1273.4 6,1263L0,1263L0,1353L0,1443Z" stroke="#217a90" stroke-width="0.75" stroke-linecap="round" fill="#217a90" stroke-linejoin="round"/>
<path d="M0,0M148,1443L174,1443C183.6,1437 216.1,1441.9 232,1440L297,1440C295.2,1429.6 286.1,1413.3 274,1410C266.1,1403.7 255.3,1396.9 244,1389C233.3,1381.9 221.9,1372.4 213,1365C200.7,1361.1 196,1341.1 181,1348C164.5,1344 146.3,1347.7 133,1347C118.2,1344.3 106.2,1338.3 91,1335C78.1,1330.1 59.5,1327.8 46,1324C30.5,1322.9 12.3,1320.8 3,1317L3,1381C4.3,1402 0.5,1429.7 7,1440L73,1440C96,1440.7 117.6,1438.4 135,1438C133.8,1421.5 126.4,1407.9 124,1393C120.9,1373 144.7,1374 156,1377C169.5,1376 165.4,1402.1 169,1414C178.3,1435 166.7,1446.5 144,1440C143.5,1442.7 150.9,1440.7 148,1443Z" stroke="#0e4d56" stroke-width="0.75" stroke-linecap="round" fill="#0e4d56" stroke-linejoin="round"/>
<path d="M0,0M174,1443L237,1443L300,1443L363,1443L424,1443C411,1434.2 379.5,1440.9 361,1438C338.2,1437.2 320.5,1441.5 297,1440L232,1440C216.1,1441.9 183.6,1437 174,1443Z" stroke="#217a90" stroke-width="0.75" stroke-linecap="round" fill="#217a90" stroke-linejoin="round"/>
<path d="M0,0M424,1443L529,1443L633,1443L631,1440L531,1440L430,1440C416.4,1433.8 423.9,1403.4 415,1393C414.3,1374.4 397.4,1368.5 388,1359L387,1359C374.2,1345.7 347.7,1347.1 337,1324C321.5,1310.5 304.3,1297.7 279,1293C254.5,1287.5 227.5,1284.5 207,1275C186.4,1265.6 166.6,1255.4 156,1236C142.2,1209.8 189.8,1214.6 205,1204C227.5,1196.5 250.3,1189.3 273,1182C294.5,1173.5 316.8,1165.8 333,1152C352.6,1142.2 365.4,1123.5 381,1111C387.7,1100 398.9,1090.2 406,1081C418.7,1077 425.1,1061.1 435,1059C435.3,1057.7 439.7,1049.3 430,1051C421.8,1069.2 403.1,1079.1 391,1092C381.8,1108.7 364.1,1119.6 354,1134C339.5,1145.9 321,1156 306,1165C286.9,1172.8 265.3,1179.8 246,1185C227,1192.4 204.7,1198.6 187,1206C167.7,1212.6 144.1,1217.6 127,1225C105.2,1229.6 86.3,1239.2 66,1243C46.6,1250.5 25.5,1258 6,1263C0.5,1273.4 4.2,1298 3,1317C12.3,1320.8 30.5,1322.9 46,1324C59.5,1327.8 78.1,1330.1 91,1335C106.2,1338.3 118.2,1344.3 133,1347C146.3,1347.7 164.5,1344 181,1348C196,1341.1 200.7,1361.1 213,1365C221.9,1372.4 233.3,1381.9 244,1389C255.3,1396.9 266.1,1403.7 274,1410C286.1,1413.3 295.2,1429.6 297,1440C320.5,1441.5 338.2,1437.2 361,1438C379.5,1440.9 411,1434.2 424,1443Z" stroke="#093839" stroke-width="0.75" stroke-linecap="round" fill="#093839" stroke-linejoin="round"/>
<path d="M0,0M633,1443L643,1443C635.5,1427 628.7,1409.8 621,1393L619,1393L616,1392C620,1407.3 641.6,1427.2 631,1440L633,1443Z" stroke="#031c12" stroke-width="0.75" stroke-linecap="round" fill="#031c12" stroke-linejoin="round"/>
<path d="M0,0M643,1443L703,1443C703.6,1440.9 707.6,1439.4 706,1438C688.8,1440 703.6,1423.5 705,1420C716.4,1407.9 729.1,1396.6 742,1386C754,1373.5 771.1,1366.6 777,1348C755.4,1352.6 741.7,1373.3 721,1381C717.2,1354.9 679.4,1376.5 666,1357C649.2,1346.3 642,1325.5 631,1308C666.3,1320.6 614.7,1261.7 661,1281C692.7,1284.8 687.5,1254.8 687,1240C691.1,1223.6 693.7,1205.2 712,1203C724.1,1197.2 746.4,1186.4 760,1197C771.4,1189.1 765.4,1163.2 777,1170C784.8,1160.8 800.1,1159.1 811,1153C807.7,1152.3 805.5,1156.2 804,1155L801,1152C785.9,1162.3 763.7,1167.7 745,1173C722.9,1175.8 702.5,1183 687,1191C659.1,1188.5 659.9,1216.9 643,1224C630.3,1236.2 617.4,1250.9 606,1263C624.2,1281.6 612.1,1296.2 622,1321C615.5,1338.7 640,1352.4 651,1363C673.5,1377.9 630.7,1385.7 621,1393C628.7,1409.8 635.5,1427 643,1443Z" stroke="#277e93" stroke-width="0.75" stroke-linecap="round" fill="#277e93" stroke-linejoin="round"/>
<path d="M0,0M703,1443L781,1443L859,1443L937,1443L1015,1443C1016.3,1438.6 1020.3,1434.1 1018,1429C1017.5,1446.5 990.8,1437.8 975,1440L958,1440L930,1440L930,1438L904,1438C900.6,1441.7 887.4,1439.1 883,1440L825,1440L768,1440L742,1440L712,1440C713.5,1436.8 705.5,1439.3 706,1438C706.4,1440.6 702.4,1442.1 703,1443Z" stroke="#125c6a" stroke-width="0.75" stroke-linecap="round" fill="#125c6a" stroke-linejoin="round"/>
<path d="M0,0M1015,1443L1113,1443L1209,1443L1306,1443L1402,1443C1402,1440.3 1409.4,1442.3 1407,1440L1308,1440C1271.8,1439 1250.6,1437.1 1219,1440C1205.6,1433.6 1225.3,1397.9 1216,1381C1214.2,1359.8 1205,1345 1198,1327C1193.5,1308.5 1183.7,1294.3 1177,1276C1161.6,1264 1166.8,1243.6 1150,1237C1134.6,1229.4 1119.6,1220.4 1105,1210C1090.3,1201.7 1078.1,1189.8 1066,1177C1054.2,1165.8 1044,1152 1033,1138C1002.7,1118.8 1032.5,1141.1 1029,1164C1028.9,1170.3 1028.6,1180.1 1030,1182L1030,1188C1033.7,1191.8 1031.1,1201.4 1032,1207C1035.2,1228.3 1031.8,1255.7 1035,1276C1036.9,1303.9 1040.7,1331.7 1030,1353L1029,1351C1023.8,1375.7 1022.4,1405.8 1018,1429C1020.3,1434.1 1016.3,1438.6 1015,1443Z" stroke="#217a90" stroke-width="0.75" stroke-linecap="round" fill="#217a90" stroke-linejoin="round"/>
<path d="M0,0M1402,1443L1440,1443L1440,1360C1431.2,1354.6 1441,1391 1437,1407C1438.7,1429.7 1437.3,1449.3 1407,1440C1407.5,1442.7 1400.1,1440.7 1402,1443Z" stroke="#37869a" stroke-width="0.75" stroke-linecap="round" fill="#37869a" stroke-linejoin="round"/>
<path d="M0,0M142,1440L144,1440C166.7,1446.5 178.3,1435 169,1414C165.4,1402.1 169.5,1376 156,1377C144.7,1374 120.9,1373 124,1393C126.4,1407.9 133.8,1421.5 135,1438C134.4,1439.4 143.1,1436.8 142,1440Z" stroke="#02170b" stroke-width="0.75" stroke-linecap="round" fill="#02170b" stroke-linejoin="round"/>
<path d="M0,0M430,1440L531,1440L631,1440C641.6,1427.2 620,1407.3 616,1392C610.9,1369.9 585.3,1356.6 568,1341C552.6,1335.1 523,1291.4 555,1291C568.2,1279.7 578.4,1264.9 585,1246C584.4,1244 579.9,1242 580,1240C571.5,1231.5 562.5,1222.5 553,1213C544.5,1205.3 535.5,1194.3 526,1188C517.8,1178.7 508.8,1169.7 499,1161C492,1151.3 482.3,1140.9 474,1134C466.2,1122.6 452.9,1113.9 447,1102C438.9,1092.9 434.6,1070.5 435,1059C425.1,1061.1 418.7,1077 406,1081C398.9,1090.2 387.7,1100 381,1111C385.2,1122.8 390.4,1139.5 391,1162C387.5,1183.8 391.4,1209.9 391,1230C393.1,1251.8 394.9,1275.7 394,1297C394.5,1314.5 394.4,1345.3 388,1359C397.4,1368.5 414.3,1374.4 415,1393C423.9,1403.4 416.4,1433.8 430,1440Z" stroke="#021104" stroke-width="0.75" stroke-linecap="round" fill="#021104" stroke-linejoin="round"/>
<path d="M0,0M712,1440L742,1440C743.2,1430.8 734.5,1411.2 736,1402C724.5,1406.8 718.3,1419.6 705,1420C703.6,1423.5 688.8,1440 706,1438C709.1,1438 714.1,1438.6 712,1440Z" stroke="#062d2a" stroke-width="0.75" stroke-linecap="round" fill="#062d2a" stroke-linejoin="round"/>
<path d="M0,0M742,1440L768,1440C784.3,1437.3 805.2,1439.2 823,1438L879,1438C875.6,1416.8 900.9,1413.1 919,1411C947.3,1408.8 959.6,1415.5 958,1438C963.7,1439.3 972.2,1436.8 975,1440C990.8,1437.8 1017.5,1446.5 1018,1429C1022.4,1405.8 1023.8,1375.7 1029,1351C1028.1,1340.6 1031.9,1334.4 1030,1323L1030,1228L1029,1228C1029.8,1213.3 1027.7,1195.2 1030,1182C1028.6,1180.1 1028.9,1170.3 1029,1164C1028.4,1146.4 1017.9,1135.9 1012,1125C1000.2,1114.9 985.7,1104.7 973,1096C959,1088.7 941.4,1081.5 937,1065L934,1065C935.4,1078.3 957.2,1088.4 954,1093C937.4,1095.8 958.1,1117 957,1129C960.6,1144.9 967.7,1156.8 969,1174C974.7,1187.1 978.6,1204.1 982,1216C985,1233 987.3,1249.7 990,1266C994,1281 994,1300 999,1314C999.9,1333.5 1003.2,1346.2 997,1360C992.9,1375.7 991.8,1393.1 972,1387C954.1,1382.5 932.6,1382.8 922,1375C906.4,1370.6 891,1365 873,1362C851.2,1365.9 869.8,1325.7 868,1317C873.7,1301.2 881,1287.4 888,1273C896.2,1260.4 902.5,1242.9 910,1231C915.4,1215.4 918.2,1197.2 922,1180C924.1,1160.8 931.9,1144.8 933,1126L933,1110C941.7,1084.8 908.5,1101.9 919,1080C916.1,1080.2 920,1091.1 916,1089C913.5,1107 908.9,1123.4 904,1140C899.4,1155.9 893.2,1170.7 886,1185C883.4,1199.9 876.4,1210.9 870,1222C865.6,1235.4 856.8,1246.6 852,1257C850.8,1272.6 837.7,1285.1 831,1299C821.7,1311.7 812,1324 802,1336C792.9,1348.9 782.1,1360.1 772,1372C760.1,1382.1 748.9,1392.9 736,1402C734.5,1411.2 743.2,1430.8 742,1440Z" stroke="#02170b" stroke-width="0.75" stroke-linecap="round" fill="#02170b" stroke-linejoin="round"/>
<path d="M0,0M768,1440L825,1440L883,1440L883,1438L879,1438L823,1438C805.2,1439.2 784.3,1437.3 768,1440Z" stroke="#093e3f" stroke-width="0.75" stroke-linecap="round" fill="#093e3f" stroke-linejoin="round"/>
<path d="M0,0M883,1440C887.4,1439.1 900.6,1441.7 904,1438L883,1438L883,1440Z" stroke="#062d2a" stroke-width="0.75" stroke-linecap="round" fill="#062d2a" stroke-linejoin="round"/>
<path d="M0,0M930,1440L958,1440L958,1438L930,1438L930,1440Z" stroke="#073330" stroke-width="0.75" stroke-linecap="round" fill="#073330" stroke-linejoin="round"/>
<path d="M0,0M958,1440L975,1440C972.2,1436.8 963.7,1439.3 958,1438L958,1440Z" stroke="#073330" stroke-width="0.75" stroke-linecap="round" fill="#073330" stroke-linejoin="round"/>
<path d="M0,0M1219,1440C1250.6,1437.1 1271.8,1439 1308,1440L1407,1440C1437.3,1449.3 1438.7,1429.7 1437,1407C1441,1391 1431.2,1354.6 1440,1360L1440,1357L1438,1357L1435,1357C1419.7,1351 1402.6,1343.3 1389,1336C1373.5,1329.7 1356.4,1322 1342,1315C1326.8,1308.9 1309.1,1301.9 1294,1296C1278.9,1289.2 1260.7,1282.7 1246,1276C1229.8,1270.9 1212.5,1263.4 1197,1258C1181.6,1251.6 1165.1,1243.4 1152,1236C1137.9,1227.7 1121.9,1219.1 1110,1210C1096.8,1201.4 1082.2,1191.3 1072,1180C1061,1172 1055.2,1157.8 1044,1149C1035.4,1135.3 1028,1128.4 1012,1125C1017.9,1135.9 1028.4,1146.4 1029,1164C1032.5,1141.1 1002.7,1118.8 1033,1138C1044,1152 1054.2,1165.8 1066,1177C1078.1,1189.8 1090.3,1201.7 1105,1210C1119.6,1220.4 1134.6,1229.4 1150,1237C1166.8,1243.6 1161.6,1264 1177,1276C1183.7,1294.3 1193.5,1308.5 1198,1327C1205,1345 1214.2,1359.8 1216,1381C1225.3,1397.9 1205.6,1433.6 1219,1440Z" stroke="#125b6a" stroke-width="0.75" stroke-linecap="round" fill="#125b6a" stroke-linejoin="round"/>
<path d="M0,0M879,1438L883,1438L904,1438L930,1438L958,1438C959.6,1415.5 947.3,1408.8 919,1411C900.9,1413.1 875.6,1416.8 879,1438Z" stroke="#062c2a" stroke-width="0.75" stroke-linecap="round" fill="#062c2a" stroke-linejoin="round"/>
<path d="M0,0M705,1420C718.3,1419.6 724.5,1406.8 736,1402C748.9,1392.9 760.1,1382.1 772,1372C782.1,1360.1 792.9,1348.9 802,1336C812,1324 821.7,1311.7 831,1299C837.7,1285.1 850.8,1272.6 852,1257C842.7,1266.7 835.7,1278.7 828,1290C818.1,1299.1 811.9,1311.9 801,1320C795.9,1332.2 782.2,1338.4 777,1348C771.1,1366.6 754,1373.5 742,1386C729.1,1396.6 716.4,1407.9 705,1420Z" stroke="#0f525c" stroke-width="0.75" stroke-linecap="round" fill="#0f525c" stroke-linejoin="round"/>
<path d="M0,0M619,1393L621,1393C630.7,1385.7 673.5,1377.9 651,1363C640,1352.4 615.5,1338.7 622,1321C609.2,1320.5 599.9,1335.4 579,1333C571.7,1318.8 564.4,1304.1 555,1291C523,1291.4 552.6,1335.1 568,1341C585.3,1356.6 610.9,1369.9 616,1392L619,1393Z" stroke="#0c4950" stroke-width="0.75" stroke-linecap="round" fill="#0c4950" stroke-linejoin="round"/>
<path d="M0,0M972,1387C991.8,1393.1 992.9,1375.7 997,1360C1003.2,1346.2 999.9,1333.5 999,1314C994,1300 994,1281 990,1266C987.3,1249.7 985,1233 982,1216C978.6,1204.1 974.7,1187.1 969,1174C967.7,1156.8 960.6,1144.9 957,1129C958.1,1117 937.4,1095.8 954,1093C957.2,1088.4 935.4,1078.3 934,1065C928.6,1064.1 916.5,1067.7 919,1080C908.5,1101.9 941.7,1084.8 933,1110L933,1126C931.9,1144.8 924.1,1160.8 922,1180C918.2,1197.2 915.4,1215.4 910,1231C902.5,1242.9 896.2,1260.4 888,1273C881,1287.4 873.7,1301.2 868,1317C869.8,1325.7 851.2,1365.9 873,1362C891,1365 906.4,1370.6 922,1375C932.6,1382.8 954.1,1382.5 972,1387Z" stroke="#093e3f" stroke-width="0.75" stroke-linecap="round" fill="#093e3f" stroke-linejoin="round"/>
<path d="M0,0M721,1381C741.7,1373.3 755.4,1352.6 777,1348C782.2,1338.4 795.9,1332.2 801,1320C801.8,1315.6 795.7,1314.6 796,1312C784.1,1310.3 769.8,1324 759,1330C746,1337.5 733.6,1345.1 718,1350C719.2,1353.8 711.9,1353 711,1353C713.1,1345.7 703.9,1342.7 709,1336C702.6,1321.4 692.2,1309.7 687,1293C669.7,1268.4 716.8,1294.2 706,1263L705,1263C702,1257.2 687.7,1251.1 687,1240C687.5,1254.8 692.7,1284.8 661,1281C614.7,1261.7 666.3,1320.6 631,1308C642,1325.5 649.2,1346.3 666,1357C679.4,1376.5 717.2,1354.9 721,1381Z" stroke="#6a9ea8" stroke-width="0.75" stroke-linecap="round" fill="#6a9ea8" stroke-linejoin="round"/>
<path d="M0,0M387,1359L388,1359C394.4,1345.3 394.5,1314.5 394,1297C394.9,1275.7 393.1,1251.8 391,1230C391.4,1209.9 387.5,1183.8 391,1162C390.4,1139.5 385.2,1122.8 381,1111C365.4,1123.5 352.6,1142.2 333,1152C316.8,1165.8 294.5,1173.5 273,1182C250.3,1189.3 227.5,1196.5 205,1204C189.8,1214.6 142.2,1209.8 156,1236C166.6,1255.4 186.4,1265.6 207,1275C227.5,1284.5 254.5,1287.5 279,1293C304.3,1297.7 321.5,1310.5 337,1324C347.7,1347.1 374.2,1345.7 387,1359Z" stroke="#042119" stroke-width="0.75" stroke-linecap="round" fill="#042119" stroke-linejoin="round"/>
<path d="M0,0M1435,1357L1438,1357C1425.1,1347.9 1407.3,1342.7 1392,1335C1377.3,1327.3 1359.4,1320.5 1345,1314C1329.3,1307.8 1313.2,1299.2 1297,1294C1282.1,1287.5 1264.2,1280.7 1249,1275C1232.3,1269.2 1216.9,1261.6 1200,1255C1183.5,1249.7 1168,1240.4 1153,1234C1139.5,1226.2 1124.5,1216.4 1111,1209C1098.4,1199.7 1084.6,1188.8 1072,1180C1082.2,1191.3 1096.8,1201.4 1110,1210C1121.9,1219.1 1137.9,1227.7 1152,1236C1165.1,1243.4 1181.6,1251.6 1197,1258C1212.5,1263.4 1229.8,1270.9 1246,1276C1260.7,1282.7 1278.9,1289.2 1294,1296C1309.1,1301.9 1326.8,1308.9 1342,1315C1356.4,1322 1373.5,1329.7 1389,1336C1402.6,1343.3 1419.7,1351 1435,1357Z" stroke="#f6f8f7" stroke-width="0.75" stroke-linecap="round" fill="#f6f8f7" stroke-linejoin="round"/>
<path d="M0,0M711,1353C711.9,1353 719.2,1353.8 718,1350L714,1350C712.4,1345.6 710.9,1341.1 709,1336C703.9,1342.7 713.1,1345.7 711,1353Z" stroke="#85aaaf" stroke-width="0.75" stroke-linecap="round" fill="#85aaaf" stroke-linejoin="round"/>
<path d="M0,0M1030,1353C1040.7,1331.7 1036.9,1303.9 1035,1276C1030.9,1278.6 1036.1,1293.2 1032,1293C1031.1,1302.2 1033.5,1318.1 1030,1323C1031.9,1334.4 1028.1,1340.6 1029,1351L1030,1353Z" stroke="#115864" stroke-width="0.75" stroke-linecap="round" fill="#115864" stroke-linejoin="round"/>
<path d="M0,0M714,1350L718,1350C733.6,1345.1 746,1337.5 759,1330C769.8,1324 784.1,1310.3 796,1312C804.1,1301.9 813.6,1290.4 820,1281C828.6,1271.1 834.4,1258.9 843,1249C849.1,1237.6 855.6,1226.1 864,1216C872.1,1206.6 873.5,1190 886,1185C893.2,1170.7 899.4,1155.9 904,1140C908.9,1123.4 913.5,1107 916,1089C914.7,1077.3 899.2,1094.6 897,1098C885.6,1110 873.1,1123.1 858,1129C844.5,1139.4 827.2,1147.8 811,1153C800.1,1159.1 784.8,1160.8 777,1170C777.4,1182.6 773.2,1193.7 765,1195C763,1214.5 754,1226.6 742,1236C733,1247.5 718,1253.5 706,1263C716.8,1294.2 669.7,1268.4 687,1293C692.2,1309.7 702.6,1321.4 709,1336C710.9,1341.1 712.4,1345.6 714,1350Z" stroke="#a0babc" stroke-width="0.75" stroke-linecap="round" fill="#a0babc" stroke-linejoin="round"/>
<path d="M0,0M579,1333C599.9,1335.4 609.2,1320.5 622,1321C612.1,1296.2 624.2,1281.6 606,1263L604,1263C599.5,1258.9 594.5,1251.4 589,1249L588,1249L585,1246C578.4,1264.9 568.2,1279.7 555,1291C564.4,1304.1 571.7,1318.8 579,1333Z" stroke="#073330" stroke-width="0.75" stroke-linecap="round" fill="#073330" stroke-linejoin="round"/>
<path d="M0,0M1030,1323C1033.5,1318.1 1031.1,1302.2 1032,1293L1032,1207C1031.1,1201.4 1033.7,1191.8 1030,1188L1030,1228L1030,1323Z" stroke="#093e40" stroke-width="0.75" stroke-linecap="round" fill="#093e40" stroke-linejoin="round"/>
<path d="M0,0M801,1320C811.9,1311.9 818.1,1299.1 828,1290C835.7,1278.7 842.7,1266.7 852,1257C856.8,1246.6 865.6,1235.4 870,1222C876.4,1210.9 883.4,1199.9 886,1185C873.5,1190 872.1,1206.6 864,1216C855.6,1226.1 849.1,1237.6 843,1249C834.4,1258.9 828.6,1271.1 820,1281C813.6,1290.4 804.1,1301.9 796,1312C795.7,1314.6 801.8,1315.6 801,1320Z" stroke="#619aa6" stroke-width="0.75" stroke-linecap="round" fill="#619aa6" stroke-linejoin="round"/>
<path d="M0,0M1032,1293C1036.1,1293.2 1030.9,1278.6 1035,1276C1031.8,1255.7 1035.2,1228.3 1032,1207L1032,1293Z" stroke="#105864" stroke-width="0.75" stroke-linecap="round" fill="#105864" stroke-linejoin="round"/>
<path d="M0,0M0,1263L6,1263C25.5,1258 46.6,1250.5 66,1243C86.3,1239.2 105.2,1229.6 127,1225C144.1,1217.6 167.7,1212.6 187,1206C204.7,1198.6 227,1192.4 246,1185C265.3,1179.8 286.9,1172.8 306,1165C321,1156 339.5,1145.9 354,1134C364.1,1119.6 381.8,1108.7 391,1092C403.1,1079.1 421.8,1069.2 430,1051C429.4,1045.3 433.4,1040.7 433,1038C425.9,1057.4 412.3,1070.8 397,1083C384.2,1095.3 371.9,1112.5 357,1125C344.7,1138.3 325.6,1148.7 309,1159C294.3,1170.4 267,1172.6 247,1180C229.1,1189.1 207.8,1194.8 187,1201C167.9,1207.4 147.1,1216.2 124,1221C107.3,1229.4 82.4,1233.9 63,1242C44.1,1248.6 20.3,1254.4 0,1261L0,1263Z" stroke="#f6f8f7" stroke-width="0.75" stroke-linecap="round" fill="#f6f8f7" stroke-linejoin="round"/>
<path d="M0,0M604,1263L606,1263C617.4,1250.9 630.3,1236.2 643,1224C659.9,1216.9 659.1,1188.5 687,1191C702.5,1183 722.9,1175.8 745,1173C763.7,1167.7 785.9,1162.3 801,1152C798,1147 798.8,1138.2 793,1135C783.8,1117.4 765.2,1134.2 759,1126C754.3,1123.2 751.3,1118.2 745,1116C724.7,1127.1 724.2,1105.2 715,1089L712,1087C706,1087 700.6,1087.6 696,1089C663.8,1085.2 712.9,1087 702,1083C686.8,1080.2 675.3,1085.9 676,1090C666.4,1077.6 649.3,1071.7 642,1056C630.7,1044.9 624.3,1026.6 615,1015C614.5,997.1 610.7,981.9 600,969C582.3,964.4 581.1,940.8 573,928C565.4,913.7 554.8,899.7 544,889C529.5,882.2 521.8,865.1 511,855C502.5,841.7 494.5,824.9 489,810C482.7,794 469.7,782.2 457,774C457.7,789.3 438.9,803.6 424,804L424,793C421.1,815.8 434.8,847.9 415,858C424.6,872.9 426.5,895 430,915C427.6,941.9 451.1,942.4 453,964C455.9,966.6 456.9,970.6 457,975L460,978C477.5,965 490.6,974.2 493,991C497.4,1007.6 501.3,1023.7 513,1032C520.8,1044.1 527.9,1057.1 543,1062C554.9,1070.1 566.7,1078.3 582,1083C596.2,1083.8 613.4,1081.6 625,1084C637.4,1091.6 646.4,1101.6 654,1113C654,1132.2 676.7,1123.6 687,1132C710.7,1133.4 704.8,1155.7 679,1146C661.7,1146.4 645.4,1151.1 630,1152C604.4,1150.6 589.5,1138.5 574,1126C556,1118.6 550.2,1095.8 529,1092C515,1080.1 512.9,1053.7 499,1042C490.4,1025.2 478.9,1008.1 468,994C473.8,1007.7 483.2,1017.3 489,1030C497.4,1040.4 504.1,1054.6 511,1063C516.9,1080.9 498.8,1088.9 498,1102C491.6,1114.4 487.8,1131.5 474,1134C482.3,1140.9 492,1151.3 499,1161C508.8,1169.7 517.8,1178.7 526,1188C535.5,1194.3 544.5,1205.3 553,1213C562.5,1222.5 571.5,1231.5 580,1240C585.8,1241.2 588.8,1244.2 589,1249C594.5,1251.4 599.5,1258.9 604,1263Z" stroke="#13606f" stroke-width="0.75" stroke-linecap="round" fill="#13606f" stroke-linejoin="round"/>
<path d="M0,0M705,1263L706,1263C718,1253.5 733,1247.5 742,1236C754,1226.6 763,1214.5 765,1195L760,1197C746.4,1186.4 724.1,1197.2 712,1203C693.7,1205.2 691.1,1223.6 687,1240C687.7,1251.1 702,1257.2 705,1263Z" stroke="#8aadb2" stroke-width="0.75" stroke-linecap="round" fill="#8aadb2" stroke-linejoin="round"/>
<path d="M0,0M588,1249L589,1249C588.8,1244.2 585.8,1241.2 580,1240C579.9,1242 584.4,1244 585,1246L588,1249Z" stroke="#156576" stroke-width="0.75" stroke-linecap="round" fill="#156576" stroke-linejoin="round"/>
<path d="M0,0M1029,1228L1030,1228L1030,1188L1030,1182C1027.7,1195.2 1029.8,1213.3 1029,1228Z" stroke="#073330" stroke-width="0.75" stroke-linecap="round" fill="#073330" stroke-linejoin="round"/>
<path d="M0,0M760,1197L765,1195C773.2,1193.7 777.4,1182.6 777,1170C765.4,1163.2 771.4,1189.1 760,1197Z" stroke="#4a91a3" stroke-width="0.75" stroke-linecap="round" fill="#4a91a3" stroke-linejoin="round"/>
<path d="M0,0M804,1155C805.5,1156.2 807.7,1152.3 811,1153C827.2,1147.8 844.5,1139.4 858,1129C873.1,1123.1 885.6,1110 897,1098L894,1098C888.1,1094.5 897.8,1091 889,1087C881.8,1087.8 883.2,1097.2 874,1096C879.8,1061.1 850.5,1081.7 828,1081C805.9,1077.2 798.1,1056.4 786,1044C760.8,1019.4 801,1013.8 822,1015C832.7,1003.4 863.8,996 855,975L853,975C840.6,971 823.2,971.8 808,966C792.9,962.6 777,959.5 757,960C747.8,963.3 738.8,967.3 726,967C707.8,966.4 691.8,955.9 700,934L670,934L670,933C669.8,935.4 661.4,933.6 663,936C662.5,942.2 667.5,964.6 675,972C682.2,982.1 691.9,992.3 688,1011C685.2,1049.3 711.8,1057.7 715,1089C724.2,1105.2 724.7,1127.1 745,1116C751.3,1118.2 754.3,1123.2 759,1126C765.2,1134.2 783.8,1117.4 793,1135C798.8,1138.2 798,1147 801,1152L804,1155Z" stroke="#3b8a9e" stroke-width="0.75" stroke-linecap="round" fill="#3b8a9e" stroke-linejoin="round"/>
<path d="M0,0M630,1152C645.4,1151.1 661.7,1146.4 679,1146C704.8,1155.7 710.7,1133.4 687,1132C676.7,1123.6 654,1132.2 654,1113C646.4,1101.6 637.4,1091.6 625,1084L582,1084L582,1083C566.7,1078.3 554.9,1070.1 543,1062C527.9,1057.1 520.8,1044.1 513,1032C501.3,1023.7 497.4,1007.6 493,991C490.6,974.2 477.5,965 460,978C462.7,983.8 466.5,988 468,994C478.9,1008.1 490.4,1025.2 499,1042C512.9,1053.7 515,1080.1 529,1092C550.2,1095.8 556,1118.6 574,1126C589.5,1138.5 604.4,1150.6 630,1152Z" stroke="#093e3f" stroke-width="0.75" stroke-linecap="round" fill="#093e3f" stroke-linejoin="round"/>
<path d="M0,0M474,1134C487.8,1131.5 491.6,1114.4 498,1102C498.8,1088.9 516.9,1080.9 511,1063C504.1,1054.6 497.4,1040.4 489,1030C483.2,1017.3 473.8,1007.7 468,994C466.5,988 462.7,983.8 460,978L457,975L456,976C456.2,971.3 452.8,969.7 453,964C451.1,942.4 427.6,941.9 430,915C426.5,895 424.6,872.9 415,858L414,858L414,861C424,876.6 423.5,906.6 429,928C430.6,954.9 434.3,979.2 433,1008C438.8,1010.9 436.3,1028.4 435,1033L433,1036L433,1038C433.4,1040.7 429.4,1045.3 430,1051C439.7,1049.3 435.3,1057.7 435,1059C434.6,1070.5 438.9,1092.9 447,1102C452.9,1113.9 466.2,1122.6 474,1134Z" stroke="#1a7285" stroke-width="0.75" stroke-linecap="round" fill="#1a7285" stroke-linejoin="round"/>
<path d="M0,0M894,1098L897,1098C899.2,1094.6 914.7,1077.3 916,1089C920,1091.1 916.1,1080.2 919,1080C916.5,1067.7 928.6,1064.1 934,1065L937,1065L937,1056L934,1056C932.3,1053.5 935.1,1051.5 933,1050C922.9,1055.3 914.6,1055.1 907,1062C900.1,1068.8 894,1079.8 889,1087C897.8,1091 888.1,1094.5 894,1098Z" stroke="#1c768a" stroke-width="0.75" stroke-linecap="round" fill="#1c768a" stroke-linejoin="round"/>
<path d="M0,0M874,1096C883.2,1097.2 881.8,1087.8 889,1087C894,1079.8 900.1,1068.8 907,1062L904,1062C919.8,1045.5 905.7,1020.1 901,1000C894.3,980.7 891.9,956.1 876,945C894.2,960.1 869.3,970.5 855,975C863.8,996 832.7,1003.4 822,1015C801,1013.8 760.8,1019.4 786,1044C798.1,1056.4 805.9,1077.2 828,1081C850.5,1081.7 879.8,1061.1 874,1096Z" stroke="#85aaaf" stroke-width="0.75" stroke-linecap="round" fill="#85aaaf" stroke-linejoin="round"/>
<path d="M0,0M676,1090C675.3,1085.9 686.8,1080.2 702,1083C676.1,1073.3 708.9,1077.2 712,1087L715,1089C711.8,1057.7 685.2,1049.3 688,1011C691.9,992.3 682.2,982.1 675,972C667.5,964.6 662.5,942.2 663,936C658.6,935.7 654,938.6 652,939C647.7,939.3 639.2,945.9 631,948C626.1,933.6 599.6,909.4 613,886L610,886C597.9,881.1 587.1,873.9 579,864C564.6,860.4 566,841 565,823C570.4,800.6 557.8,795.2 555,780C548.7,769 544.6,753.1 541,741C537.7,726.8 537,709.5 535,693C535.3,675.5 541.2,661.5 546,651C555.2,636.1 540.8,627.6 568,628C579.4,622.2 586.3,609 594,601C584.8,585.1 619.7,580.7 634,577C643,576.3 639,579.3 640,586C645.7,617.2 613.5,580.8 616,601C620.8,606 628.6,610.5 622,615C624.2,616.9 631.6,616.5 631,618C636.9,624.4 647,613.8 648,618C659.2,611.2 659.4,565.7 676,595C685.5,596.3 689.1,611.4 696,607C689.6,602 697.5,595 699,588C687.9,574.1 668.8,568.2 649,562L639,562L639,561L624,561C603.5,564.1 619.3,555.5 625,555C620.5,538 655.1,538.1 667,543C683.9,549.5 698.6,552.1 712,556C733.5,563.9 749.2,578.7 750,604C752,609.5 753.3,615.2 753,622C767.5,652.8 728.4,638.3 714,643C713.7,635.8 711.7,629.8 708,625C718.3,644.6 711.5,659.5 699,670C694.6,695.5 694,736.6 702,747C695.7,759.7 687.6,770.6 681,783C680.1,790.4 702.6,797.9 705,808C710.8,825.9 753.5,783 748,817C784.2,823.9 763.1,842.5 753,855L756,856C765.3,852.1 775.9,857.4 780,862C813.2,850.8 775.8,813.2 793,807C791.5,804.9 788.6,800.3 787,799C789.5,805.7 784.6,808.2 781,807C778.4,802 773.4,795.5 772,790C773.5,789.3 774.5,784.9 775,786C770.3,771.2 770.7,750.8 771,730C769.9,712.3 767.7,692.6 766,676L765,676C765.5,672.9 763.7,663.6 766,664C769.6,642.4 763.2,621.5 760,601C753.8,584.9 749,564 741,550L739,550C741.2,545.7 735.8,544.6 736,543L735,543C723.6,535.4 709.9,530.1 696,525C685,518.4 666.7,513.2 654,513L625,513L625,511C624.8,512.9 619.8,513.5 619,513C614.4,507.1 599.9,510.6 595,504C592.6,500.7 588.6,508.7 580,505C563.2,502.9 562.2,465.2 565,444C568.8,419.9 576.7,398.3 585,381C591,359.6 601.2,340.2 601,315C612,298.5 602.5,262 630,262C630.4,259.5 621.5,262.3 624,259L622,259C601.4,259.7 579.5,261.6 562,264C563.8,287.8 552.9,309.5 544,325C537.1,345.5 523.8,361.7 517,381C508.2,399.1 498.7,419.1 489,435C473,446.9 467.2,468.6 468,489C464.2,498.2 461.2,508.2 456,516C456.6,518.8 453.2,520.8 454,522C453.8,524.4 452.9,530 451,529C442,551 440.3,580.3 436,607C436.5,611.1 434.8,616.4 433,616L432,615C433.2,618.8 430.5,622.2 430,622C428,640 426.5,658.5 427,679C430.2,688 431.4,701.1 433,708C444,727.5 451.1,750.4 457,774C469.7,782.2 482.7,794 489,810C494.5,824.9 502.5,841.7 511,855C521.8,865.1 529.5,882.2 544,889C554.8,899.7 565.4,913.7 573,928C581.1,940.8 582.3,964.4 600,969C610.7,981.9 614.5,997.1 615,1015C624.3,1026.6 630.7,1044.9 642,1056C649.3,1071.7 666.4,1077.6 676,1090Z" stroke="#217a90" stroke-width="0.75" stroke-linecap="round" fill="#217a90" stroke-linejoin="round"/>
<path d="M0,0M696,1089C700.6,1087.6 706,1087 712,1087C708.9,1077.2 676.1,1073.3 702,1083C712.9,1087 663.8,1085.2 696,1089Z" stroke="#1a7285" stroke-width="0.75" stroke-linecap="round" fill="#1a7285" stroke-linejoin="round"/>
<path d="M0,0M582,1084L625,1084C613.4,1081.6 596.2,1083.8 582,1083L582,1084Z" stroke="#0e4d56" stroke-width="0.75" stroke-linecap="round" fill="#0e4d56" stroke-linejoin="round"/>
<path d="M0,0M904,1062L907,1062C914.6,1055.1 922.9,1055.3 933,1050L937,1050C943.1,1039.3 950.1,1025.3 957,1014C965.1,1005.8 967.5,987.3 973,975C977,962.2 982.3,946.6 984,930C986.8,913.8 989.9,897.9 990,879C991.8,826.7 971.4,884.1 966,895C961.1,913.6 952.4,927.9 937,936C930,932.5 924.1,927.4 919,921L916,922C916.4,912.5 909.3,906.1 910,897C909.8,892.7 908.1,889.4 909,883C907.1,884.2 904.7,887.8 903,886C900.6,878.1 908,879.5 907,873C899.3,851.7 867.9,865.3 862,838C859.3,834.7 855.7,831.3 849,831C823.4,826.9 874.3,805 844,805C850.6,817.9 836.5,817.7 828,817C825.2,812.1 829.7,809.7 823,810C808.3,817.1 803,810.3 793,807C775.8,813.2 813.2,850.8 780,862C784.7,869.1 763.2,903.9 768,930L784,930C809.5,927.6 841.3,929.8 865,933L870,931C856.7,902.9 912.6,936.5 877,939L876,937L873,939C872.9,941.7 875.2,945.4 876,945C891.9,956.1 894.3,980.7 901,1000C905.7,1020.1 919.8,1045.5 904,1062Z" stroke="#5392a3" stroke-width="0.75" stroke-linecap="round" fill="#5392a3" stroke-linejoin="round"/>
<path d="M0,0M934,1056L937,1056L937,1050L933,1050C935.1,1051.5 932.3,1053.5 934,1056Z" stroke="#3b8a9e" stroke-width="0.75" stroke-linecap="round" fill="#3b8a9e" stroke-linejoin="round"/>
<path d="M0,0M432,1036L433,1036L435,1033L433,1029L433,1024C430.7,1023.6 432.5,1032.9 432,1036Z" stroke="#f6f7f7" stroke-width="0.75" stroke-linecap="round" fill="#f6f7f7" stroke-linejoin="round"/>
<path d="M0,0M435,1033C436.3,1028.4 438.8,1010.9 433,1008L433,1011C435.8,1013.9 435.8,1026.1 433,1029L435,1033Z" stroke="#5d97a5" stroke-width="0.75" stroke-linecap="round" fill="#5d97a5" stroke-linejoin="round"/>
<path d="M0,0M433,1029C435.8,1026.1 435.8,1013.9 433,1011L433,1024L433,1029Z" stroke="#a1bbbd" stroke-width="0.75" stroke-linecap="round" fill="#a1bbbd" stroke-linejoin="round"/>
<path d="M0,0M456,976L457,975C456.9,970.6 455.9,966.6 453,964C452.8,969.7 456.2,971.3 456,976Z" stroke="#156475" stroke-width="0.75" stroke-linecap="round" fill="#156475" stroke-linejoin="round"/>
<path d="M0,0M853,975L855,975C869.3,970.5 894.2,960.1 876,945C875.2,945.4 872.9,941.7 873,939L871,939C869.7,937.2 865.1,934.8 865,933C841.3,929.8 809.5,927.6 784,930C757.4,923.8 747.3,940.1 757,960C777,959.5 792.9,962.6 808,966C823.2,971.8 840.6,971 853,975Z" stroke="#a5bdbf" stroke-width="0.75" stroke-linecap="round" fill="#a5bdbf" stroke-linejoin="round"/>
<path d="M0,0M726,967C738.8,967.3 747.8,963.3 757,960C747.3,940.1 757.4,923.8 784,930L768,930C756,930.2 739.7,929.1 732,931L730,931C723.6,934.6 711.1,932.1 702,933L700,934C691.8,955.9 707.8,966.4 726,967Z" stroke="#5d97a5" stroke-width="0.75" stroke-linecap="round" fill="#5d97a5" stroke-linejoin="round"/>
<path d="M0,0M631,948C639.2,945.9 647.7,939.3 652,939C626.8,910.5 693.3,903 691,930C701.8,932.9 720.2,930.7 730,931L732,931C731.6,914 717.4,901.8 714,883C728.1,874.6 741.1,864.6 756,856L753,855C732,865.5 716.5,883.4 693,889C682.4,880 671.3,864.5 681,847C691.6,837.1 693.9,818.4 705,808C702.6,797.9 680.1,790.4 681,783C687.6,770.6 695.7,759.7 702,747C690.8,761.2 680.2,778.2 672,793C661.6,808.5 656,830.5 645,843C631,854 623.5,871.5 613,886C599.6,909.4 626.1,933.6 631,948Z" stroke="#186d80" stroke-width="0.75" stroke-linecap="round" fill="#186d80" stroke-linejoin="round"/>
<path d="M0,0M652,939C654,938.6 658.6,935.7 663,936C661.4,933.6 669.8,935.4 670,933L678,933C680.6,930.5 688.2,929.5 691,930C693.3,903 626.8,910.5 652,939Z" stroke="#0d4c55" stroke-width="0.75" stroke-linecap="round" fill="#0d4c55" stroke-linejoin="round"/>
<path d="M0,0M871,939L873,939L876,937C874.8,935.2 871.3,931.6 870,931L865,933C865.1,934.8 869.7,937.2 871,939Z" stroke="#4a90a2" stroke-width="0.75" stroke-linecap="round" fill="#4a90a2" stroke-linejoin="round"/>
<path d="M0,0M877,939C912.6,936.5 856.7,902.9 870,931C871.3,931.6 874.8,935.2 876,937L877,939Z" stroke="#186d80" stroke-width="0.75" stroke-linecap="round" fill="#186d80" stroke-linejoin="round"/>
<path d="M0,0M937,936C952.4,927.9 961.1,913.6 966,895L960,895C944.2,888.4 920.4,891 915,879C913,880.1 908.2,881.9 909,883C908.1,889.4 909.8,892.7 910,897C913.2,905.3 918,911.5 919,921C924.1,927.4 930,932.5 937,936Z" stroke="#8aadb2" stroke-width="0.75" stroke-linecap="round" fill="#8aadb2" stroke-linejoin="round"/>
<path d="M0,0M670,934L700,934L702,933L678,933L670,933L670,934Z" stroke="#37859a" stroke-width="0.75" stroke-linecap="round" fill="#37859a" stroke-linejoin="round"/>
<path d="M0,0M678,933L702,933C711.1,932.1 723.6,934.6 730,931C720.2,930.7 701.8,932.9 691,930C688.2,929.5 680.6,930.5 678,933Z" stroke="#1b758a" stroke-width="0.75" stroke-linecap="round" fill="#1b758a" stroke-linejoin="round"/>
<path d="M0,0M732,931C739.7,929.1 756,930.2 768,930C763.2,903.9 784.7,869.1 780,862C775.9,857.4 765.3,852.1 756,856C741.1,864.6 728.1,874.6 714,883C717.4,901.8 731.6,914 732,931Z" stroke="#37859a" stroke-width="0.75" stroke-linecap="round" fill="#37859a" stroke-linejoin="round"/>
<path d="M0,0M916,922L919,921C918,911.5 913.2,905.3 910,897C909.3,906.1 916.4,912.5 916,922Z" stroke="#77a3aa" stroke-width="0.75" stroke-linecap="round" fill="#77a3aa" stroke-linejoin="round"/>
<path d="M0,0M960,895L966,895C971.4,884.1 991.8,826.7 990,879C992.3,859.3 993.7,838.7 993,816C989.5,792 1002.1,780 1012,768C1027.3,760.8 1022.1,733.6 1023,712C1021.4,692.3 1027.6,668.8 1023,648C1020.8,651 1021.8,660.5 1017,658C1017.5,661.1 1016.9,666.1 1015,664L1009,664C1010,658 1009.4,652.6 1008,648C985.8,647.9 972.1,636.8 948,640C929.7,644.6 911.7,651.3 895,655C868.5,647.5 850.9,630.1 834,612L832,612C829.7,609.6 827.7,603.2 826,601C816.7,598.6 818.1,582.1 820,571C819.6,566.5 821.7,561.1 823,561C804.7,551.3 764.9,544.8 786,510C810.2,507.3 830.9,528.8 844,543C847.9,542.3 850.8,537.7 853,538C865.5,528.2 885.9,523.8 898,516L897,516C887,494.5 872.3,475.8 862,456C851.5,435.6 835,418.7 820,403C805,390.1 796.6,357.7 804,331C810.5,307 822.5,288 832,267L826,267C800.2,275.2 758.8,270.1 759,303C744.1,322.6 741.5,356.3 735,382C729.3,411.3 709.1,427.4 712,463C717.7,487.7 736.3,515.9 733,535C733.6,537.6 737.6,539.1 736,540C738.2,543.3 743.1,543.4 742,549C751.7,558.1 755.7,575 760,586C762.6,602.4 768.2,614.8 768,633C771.2,647.8 770.7,666.3 775,679C780.2,692.8 784.5,706.5 787,721C795.5,708.5 809.9,701.9 820,691C832.5,683.8 862.3,686.9 874,690C885.9,699.6 906.6,699.9 928,699C944.8,701.6 957.1,715.8 954,732C954.1,753.1 945.5,765.5 937,778C931.4,789.9 907.1,797.1 892,789C878.2,784.8 863,772.1 844,778C828.8,778.5 819.8,788.2 802,792C801.9,790 795.9,789.9 796,789C794.8,793.3 788.8,793.3 787,798L787,799C788.6,800.3 791.5,804.9 793,807C803,810.3 808.3,817.1 823,810C829.5,807.9 839.3,806.2 844,805C874.3,805 823.4,826.9 849,831C855.7,831.3 859.3,834.7 862,838C867.9,865.3 899.3,851.7 907,873C909.6,875 914.2,877.9 915,879C920.4,891 944.2,888.4 960,895Z" stroke="#acc1c2" stroke-width="0.75" stroke-linecap="round" fill="#acc1c2" stroke-linejoin="round"/>
<path d="M0,0M693,889C716.5,883.4 732,865.5 753,855C763.1,842.5 784.2,823.9 748,817C753.5,783 710.8,825.9 705,808C693.9,818.4 691.6,837.1 681,847C671.3,864.5 682.4,880 693,889Z" stroke="#105763" stroke-width="0.75" stroke-linecap="round" fill="#105763" stroke-linejoin="round"/>
<path d="M0,0M610,886L613,886C623.5,871.5 631,854 645,843C641.5,841.7 639.5,845.1 639,844C619.7,833.8 602.6,820.9 591,802C580.5,780.1 594,743.1 580,726C581.3,718.1 577.6,711.2 579,705C570.3,674 610.7,689.6 610,669C615.4,666.8 617.6,658.5 621,657C636.3,635.9 618.7,623 631,618C631.6,616.5 624.2,616.9 622,615L621,615C616.3,612.7 612.8,609.2 610,604L609,604L607,601L598,601L594,601C586.3,609 579.4,622.2 568,628C540.8,627.6 555.2,636.1 546,651C541.2,661.5 535.3,675.5 535,693C537,709.5 537.7,726.8 541,741C544.6,753.1 548.7,769 555,780C557.8,795.2 570.4,800.6 565,823C566,841 564.6,860.4 579,864C587.1,873.9 597.9,881.1 610,886Z" stroke="#4a91a3" stroke-width="0.75" stroke-linecap="round" fill="#4a91a3" stroke-linejoin="round"/>
<path d="M0,0M903,886C904.7,887.8 907.1,884.2 909,883C908.2,881.9 913,880.1 915,879C914.2,877.9 909.6,875 907,873C908,879.5 900.6,878.1 903,886Z" stroke="#72a1a9" stroke-width="0.75" stroke-linecap="round" fill="#72a1a9" stroke-linejoin="round"/>
<path d="M0,0M405,862C407.7,860.5 410.6,863.5 414,861L414,858C413,860.6 404.6,859.2 403,859C398,857.6 387.8,853.4 385,855C391.2,858.2 399.3,859.3 405,862Z" stroke="#217b90" stroke-width="0.75" stroke-linecap="round" fill="#217b90" stroke-linejoin="round"/>
<path d="M0,0M403,859C404.6,859.2 413,860.6 414,858L415,858C434.8,847.9 421.1,815.8 424,793C421.4,767.2 423,734.1 415,714C413.6,701.7 410.3,687.8 406,679C402,663.7 394.5,648.3 387,637L385,637C380.6,635.3 378.4,627 375,625L372,625C369.8,622.5 364.3,619.5 364,616C361.1,612.8 358.9,604.4 354,604L349,604C347.6,601.5 343.3,599 346,597C337.2,586.8 321.5,583.3 307,582C304.5,601 295.7,614.2 294,634C301.2,633.3 293.6,646.9 298,648C311.1,655.9 316.4,710.6 301,718L297,717C298.9,731.4 306.5,744.8 312,757C319.5,769 325.5,782 333,793C341.6,803.9 348,816.5 355,828C364.1,838.4 372.9,848.6 385,855C387.8,853.4 398,857.6 403,859Z" stroke="#1b758a" stroke-width="0.75" stroke-linecap="round" fill="#1b758a" stroke-linejoin="round"/>
<path d="M0,0M639,844C639.7,843.1 644.7,842.5 645,843C656,830.5 661.6,808.5 672,793C680.2,778.2 690.8,761.2 702,747C694,736.6 694.6,695.5 699,670L697,670C694.4,648.6 691.6,626.4 684,609L678,609L676,606C672.3,616.8 662.3,621.8 652,627C653.1,622.3 646.3,621.6 648,618C647,613.8 636.9,624.4 631,618C618.7,623 636.3,635.9 621,657C617.6,658.5 615.4,666.8 610,669C610.7,689.6 570.3,674 579,705C577.6,711.2 581.3,718.1 580,726C594,743.1 580.5,780.1 591,802C602.6,820.9 619.7,833.8 639,844Z" stroke="#77a3aa" stroke-width="0.75" stroke-linecap="round" fill="#77a3aa" stroke-linejoin="round"/>
<path d="M0,0M828,817C836.5,817.7 850.6,817.9 844,805C839.3,806.2 829.5,807.9 823,810C829.7,809.7 825.2,812.1 828,817Z" stroke="#217b90" stroke-width="0.75" stroke-linecap="round" fill="#217b90" stroke-linejoin="round"/>
<path d="M0,0M781,807C784.6,808.2 789.5,805.7 787,799L787,798L786,798C786.7,794.1 781.3,793.1 783,790L781,790L780,789L777,792L772,790C773.4,795.5 778.4,802 781,807Z" stroke="#619aa6" stroke-width="0.75" stroke-linecap="round" fill="#619aa6" stroke-linejoin="round"/>
<path d="M0,0M424,804C438.9,803.6 457.7,789.3 457,774C451.1,750.4 444,727.5 433,708C425.8,710 422.9,708.7 415,714C423,734.1 421.4,767.2 424,793L424,804Z" stroke="#0d4c55" stroke-width="0.75" stroke-linecap="round" fill="#0d4c55" stroke-linejoin="round"/>
<path d="M0,0M786,798L787,798C788.8,793.3 794.8,793.3 796,789L793,786C790.8,788.3 782.6,785.1 783,790C781.3,793.1 786.7,794.1 786,798Z" stroke="#96b4b7" stroke-width="0.75" stroke-linecap="round" fill="#96b4b7" stroke-linejoin="round"/>
<path d="M0,0M777,792L780,789C782.4,784.4 775,786.4 775,786C773.7,786.3 772.7,790.9 772,790L777,792Z" stroke="#72a0a9" stroke-width="0.75" stroke-linecap="round" fill="#72a0a9" stroke-linejoin="round"/>
<path d="M0,0M802,792C819.8,788.2 828.8,778.5 844,778C863,772.1 878.2,784.8 892,789C907.1,797.1 931.4,789.9 937,778C945.5,765.5 954.1,753.1 954,732C957.1,715.8 944.8,701.6 928,699C906.6,699.9 885.9,699.6 874,690C862.3,686.9 832.5,683.8 820,691C809.9,701.9 795.5,708.5 787,721C789.4,746.8 793.9,762.5 793,786L796,789C795.9,789.9 801.9,790 802,792Z" stroke="#c0cecd" stroke-width="0.75" stroke-linecap="round" fill="#c0cecd" stroke-linejoin="round"/>
<path d="M0,0M781,790L783,790C782.6,785.1 790.8,788.3 793,786C793.9,762.5 789.4,746.8 787,721C784.5,706.5 780.2,692.8 775,679C770.7,666.3 771.2,647.8 768,633C768.2,614.8 762.6,602.4 760,586C755.7,575 751.7,558.1 742,549L741,550C749,564 753.8,584.9 760,601C763.2,621.5 769.6,642.4 766,664C770.8,667.6 764.5,671.1 766,676C767.7,692.6 769.9,712.3 771,730C770.7,750.8 770.3,771.2 775,786C779.5,784.2 781,788.2 780,789L781,790Z" stroke="#7da7ac" stroke-width="0.75" stroke-linecap="round" fill="#7da7ac" stroke-linejoin="round"/>
<path d="M0,0M390,784C410.4,774.5 376.6,747.9 373,732C368.8,729.6 368.6,719.2 369,714C379.9,702.9 378.9,661 360,685C347.8,697.8 323.4,719.8 340,744C365.8,748.7 369.6,774.9 390,784Z" stroke="#0c4850" stroke-width="0.75" stroke-linecap="round" fill="#0c4850" stroke-linejoin="round"/>
<path d="M0,0M301,718C316.4,710.6 311.1,655.9 298,648C295.4,650.1 299.4,662.5 292,658L292,670C295.8,678.1 298.2,699.1 294,703C295,705.4 296,712.8 297,717L301,718Z" stroke="#115864" stroke-width="0.75" stroke-linecap="round" fill="#115864" stroke-linejoin="round"/>
<path d="M0,0M415,714C422.9,708.7 425.8,710 433,708C431.4,701.1 430.2,688 427,679C420.1,679.2 413.2,682.8 408,682L406,679C410.3,687.8 413.6,701.7 415,714Z" stroke="#093e3f" stroke-width="0.75" stroke-linecap="round" fill="#093e3f" stroke-linejoin="round"/>
<path d="M0,0M294,703C298.2,699.1 295.8,678.1 292,670L292,675L292,676C294.8,678.6 294.8,693.2 292,693L292,699L294,703Z" stroke="#1a7285" stroke-width="0.75" stroke-linecap="round" fill="#1a7285" stroke-linejoin="round"/>
<path d="M0,0M291,699L292,699L292,693L292,676L292,675C290.1,673.4 291.9,681.8 289,682C292.7,684.5 290.2,695.5 291,697L291,699Z" stroke="#91b0b4" stroke-width="0.75" stroke-linecap="round" fill="#91b0b4" stroke-linejoin="round"/>
<path d="M0,0M289,697L291,697C290.2,695.5 292.7,684.5 289,682L289,697Z" stroke="#c0cecd" stroke-width="0.75" stroke-linecap="round" fill="#c0cecd" stroke-linejoin="round"/>
<path d="M0,0M292,693C294.8,693.2 294.8,678.6 292,676L292,693Z" stroke="#4a91a3" stroke-width="0.75" stroke-linecap="round" fill="#4a91a3" stroke-linejoin="round"/>
<path d="M0,0M408,682C413.2,682.8 420.1,679.2 427,679C426.5,658.5 428,640 430,622C423.9,630.9 405.3,627.3 393,630C389.6,619.5 386.2,624.9 381,628C382.7,631.8 387.6,631.9 387,637C394.5,648.3 402,663.7 406,679L408,682Z" stroke="#052922" stroke-width="0.75" stroke-linecap="round" fill="#052922" stroke-linejoin="round"/>
<path d="M0,0M765,676L766,676C764.5,671.1 770.8,667.6 766,664C763.7,663.6 765.5,672.9 765,676Z" stroke="#5292a3" stroke-width="0.75" stroke-linecap="round" fill="#5292a3" stroke-linejoin="round"/>
<path d="M0,0M697,670L699,670C711.5,659.5 718.3,644.6 708,625C706.1,618.2 703.2,605.2 696,607C689.1,611.4 685.5,596.3 676,595L678,600C678.7,606.5 683.7,600.6 684,609C691.6,626.4 694.4,648.6 697,670Z" stroke="#3a899e" stroke-width="0.75" stroke-linecap="round" fill="#3a899e" stroke-linejoin="round"/>
<path d="M0,0M1009,664L1015,664C1016.4,659.3 1013.8,647.2 1017,646C1014,637.5 1017,622.5 1014,613C1013.3,615.4 1007,615.1 1006,615C1005.7,626.9 1007,640 1008,648C1009.4,652.6 1010,658 1009,664Z" stroke="#5d97a4" stroke-width="0.75" stroke-linecap="round" fill="#5d97a4" stroke-linejoin="round"/>
<path d="M0,0M1015,664C1018.7,665.5 1016.2,657.5 1017,658L1017,646C1013.8,647.2 1016.4,659.3 1015,664Z" stroke="#619aa6" stroke-width="0.75" stroke-linecap="round" fill="#619aa6" stroke-linejoin="round"/>
<path d="M0,0M292,658C299.4,662.5 295.4,650.1 298,648C293.6,646.9 301.2,633.3 294,634C295.3,641.7 292.2,650.1 292,658Z" stroke="#1a7285" stroke-width="0.75" stroke-linecap="round" fill="#1a7285" stroke-linejoin="round"/>
<path d="M0,0M1017,658C1021.8,660.5 1020.8,651 1023,648C1019.9,631.1 1025.1,605.9 1015,595C1015.2,598.8 1016.6,607.2 1014,606L1014,613C1017,622.5 1014,637.5 1017,646L1017,658Z" stroke="#96b3b7" stroke-width="0.75" stroke-linecap="round" fill="#96b3b7" stroke-linejoin="round"/>
<path d="M0,0M895,655C911.7,651.3 929.7,644.6 948,640C972.1,636.8 985.8,647.9 1008,648C1007,640 1005.7,626.9 1006,615C1007.7,604.8 1003.8,599.7 1005,589L1003,589C1004.8,568.8 1005.1,533.3 1006,510C999.1,502.3 973.7,518.6 960,519C922.5,517.7 971.5,479.5 955,451C950.6,422.9 937.7,400.5 933,373C926.5,346.5 917.5,320.2 904,301C903.1,294.8 897.8,288.5 895,285C871.7,256.4 909.7,276.5 922,282C917.6,279.8 917.6,274.3 922,274C910.8,266.9 892.3,263.5 883,255L880,255C870,251.3 858,246.2 847,244L850,247C855,248.3 846.2,250.6 847,250C851.4,253.6 858.6,253.4 864,255C874.2,249 880.1,262.5 868,261L867,259C865.8,261.4 859.4,261.6 861,264C880.3,275.7 894.6,292.4 906,312C917.7,330.8 924.6,356.3 930,379C935.6,404.9 945.4,426.1 951,451C952.2,476.8 950.4,512.7 925,514C938,523.3 960.3,524.8 963,541C977.5,544.9 983.7,578.9 964,580C966,589.7 984.7,606.4 972,612C968.3,604.6 961.8,596.7 958,591C955.4,595 948.8,599 948,603C983.1,623.3 952.6,635.4 934,612C912,577.7 920.8,642.6 886,628C866.9,621 845.6,623.4 834,606L834,612C850.9,630.1 868.5,647.5 895,655Z" stroke="#91b0b4" stroke-width="0.75" stroke-linecap="round" fill="#91b0b4" stroke-linejoin="round"/>
<path d="M0,0M714,643C728.4,638.3 767.5,652.8 753,622C753.3,615.2 752,609.5 750,604C749.2,578.7 733.5,563.9 712,556C698.8,569.6 737.2,595 717,604C711,599.4 705,591 699,588C697.5,595 689.6,602 696,607C703.2,605.2 706.1,618.2 708,625C711.7,629.8 713.7,635.8 714,643Z" stroke="#13606f" stroke-width="0.75" stroke-linecap="round" fill="#13606f" stroke-linejoin="round"/>
<path d="M0,0M385,637L387,637C387.6,631.9 382.7,631.8 381,628C379.8,626.2 376.3,622.6 375,622L375,625C378.4,627 380.6,635.3 385,637Z" stroke="#052922" stroke-width="0.75" stroke-linecap="round" fill="#052922" stroke-linejoin="round"/>
<path d="M0,0M393,630C405.3,627.3 423.9,630.9 430,622C430.5,622.2 433.2,618.8 432,615C431.4,608.4 434.8,605.8 433,598C436.2,573.1 439.4,534.2 451,529C452.9,530 453.8,524.4 454,522L451,522C450.4,514.9 454.4,512.9 454,507C436.6,505.8 456.9,486 460,480C465.9,473.9 461,466.6 456,465C441.9,450.8 456.9,415.2 450,397C434.2,384.1 453.7,360.9 459,346C467.4,332.9 474,317.5 484,306C491.6,291.7 503.2,279.6 516,273C517.4,259.7 535.1,253.7 546,246C559,238.5 578.6,237.8 595,240C618.3,243.8 617.3,223.8 628,216C640,208.5 652.2,201.7 672,202C693.6,207.1 710.4,196 694,180C687.6,168.6 677.5,157.8 666,153C651,149 637.5,143.5 622,139C611.1,131.9 594.7,129.3 574,130C559.1,134.1 546.9,140.9 529,142C511.4,146.1 495.2,141 483,136C476.9,142.4 472,149.5 462,151C458.5,147 453.3,144.2 447,142C435.3,162.8 401.1,160.6 385,177C366.6,190.1 348.9,204.4 336,223C336.2,229.7 330.7,230.2 328,234C320.6,244.4 304.8,251.5 298,265C301.8,268.6 299.6,281 298,282C297.3,289.1 301.2,296.7 300,306L301,309C300.2,317.5 304.6,325.1 300,327C300.7,345 296.6,362.8 292,378C290.1,391.4 281.5,409.4 286,427C293,428.3 290.9,438 289,442C307.8,445.1 290,477.4 285,481C287.5,497.4 287.7,520 292,535C294.3,552.1 300.8,568.4 307,582C321.5,583.3 337.2,586.8 346,597C351.3,597.2 353.8,599.7 354,604C358.9,604.4 361.1,612.8 364,616C368,612.8 372.7,622.7 375,622C376.3,622.6 379.8,626.2 381,628C386.2,624.9 389.6,619.5 393,630Z" stroke="#03170b" stroke-width="0.75" stroke-linecap="round" fill="#03170b" stroke-linejoin="round"/>
<path d="M0,0M886,628C920.8,642.6 912,577.7 934,612C952.6,635.4 983.1,623.3 948,603L943,603C934.2,593 918,587.4 904,583C901.7,583.4 895.4,583.1 897,585C900.6,594.8 896.9,596.3 895,597C897.3,604.6 898,612.3 889,610C888.9,608 884.4,606 885,604L883,604C872.8,599.8 855.5,600.9 879,586L877,586C876.1,579.9 875.2,572.8 874,565L868,565C869,556.8 859.8,550.1 862,546C863.6,539.8 854.6,540.2 853,538C850.8,537.7 847.9,542.3 844,543L825,562C825.8,567.4 821.2,570.3 820,571C818.1,582.1 816.7,598.6 826,601C830,601.6 834.2,604.4 834,606C845.6,623.4 866.9,621 886,628Z" stroke="#277e93" stroke-width="0.75" stroke-linecap="round" fill="#277e93" stroke-linejoin="round"/>
<path d="M0,0M652,627C662.3,621.8 672.3,616.8 676,606C677.9,605.3 678.5,600.3 678,600L676,595C659.4,565.7 659.2,611.2 648,618C646.3,621.6 653.1,622.3 652,627Z" stroke="#b0c4c5" stroke-width="0.75" stroke-linecap="round" fill="#b0c4c5" stroke-linejoin="round"/>
<path d="M0,0M372,625L375,625L375,622C372.7,622.7 368,612.8 364,616C364.3,619.5 369.8,622.5 372,625Z" stroke="#0f525c" stroke-width="0.75" stroke-linecap="round" fill="#0f525c" stroke-linejoin="round"/>
<path d="M0,0M433,616C434.8,616.4 436.5,611.1 436,607L435,607C434.9,604.5 435.8,597 433,598C434.8,605.8 431.4,608.4 432,615L433,616Z" stroke="#0d4c56" stroke-width="0.75" stroke-linecap="round" fill="#0d4c56" stroke-linejoin="round"/>
<path d="M0,0M621,615L622,615C628.6,610.5 620.8,606 616,601C614.6,602.2 612.2,605.8 610,604C612.8,609.2 616.3,612.7 621,615Z" stroke="#146475" stroke-width="0.75" stroke-linecap="round" fill="#146475" stroke-linejoin="round"/>
<path d="M0,0M1006,615C1007,615.1 1013.3,615.4 1014,613L1014,606C1014.3,597.5 1009.7,585.5 1015,582C1017.7,580.1 1020.7,572.9 1018,568C1012.1,569.6 1014.4,568.9 1008,570C1006.2,575.3 1005.1,584.7 1005,589C1003.8,599.7 1007.7,604.8 1006,615Z" stroke="#1b758a" stroke-width="0.75" stroke-linecap="round" fill="#1b758a" stroke-linejoin="round"/>
<path d="M0,0M832,612L834,612L834,606C834.2,604.4 830,601.6 826,601C827.7,603.2 829.7,609.6 832,612Z" stroke="#91b0b5" stroke-width="0.75" stroke-linecap="round" fill="#91b0b5" stroke-linejoin="round"/>
<path d="M0,0M972,612C984.7,606.4 966,589.7 964,580L961,580C953.2,568.5 942.9,555.9 928,552L927,552C921.6,551.6 927.1,562.1 921,561L894,561L891,562C894.6,563 903.9,561.2 903,564C933.2,561.2 950.5,573.5 958,591C961.8,596.7 968.3,604.6 972,612Z" stroke="#1b758a" stroke-width="0.75" stroke-linecap="round" fill="#1b758a" stroke-linejoin="round"/>
<path d="M0,0M889,610C898,612.3 897.3,604.6 895,597C889.6,597.1 883.2,596.7 885,604C884.4,606 888.9,608 889,610Z" stroke="#093e40" stroke-width="0.75" stroke-linecap="round" fill="#093e40" stroke-linejoin="round"/>
<path d="M0,0M678,609L684,609C683.7,600.6 678.7,606.5 678,600C679.3,603.5 675.9,605.5 676,606L678,609Z" stroke="#5d97a5" stroke-width="0.75" stroke-linecap="round" fill="#5d97a5" stroke-linejoin="round"/>
<path d="M0,0M435,607L436,607C440.3,580.3 442,551 451,529C439.4,534.2 436.2,573.1 433,598C435.8,597 434.9,604.5 435,607Z" stroke="#0d4c56" stroke-width="0.75" stroke-linecap="round" fill="#0d4c56" stroke-linejoin="round"/>
<path d="M0,0M1014,606C1016.6,607.2 1015.2,598.8 1015,595C1014.6,590.9 1017.6,586.4 1015,582C1009.7,585.5 1014.3,597.5 1014,606Z" stroke="#85aaaf" stroke-width="0.75" stroke-linecap="round" fill="#85aaaf" stroke-linejoin="round"/>
<path d="M0,0M349,604L354,604C353.8,599.7 351.3,597.2 346,597C343.3,599 347.6,601.5 349,604Z" stroke="#0f525c" stroke-width="0.75" stroke-linecap="round" fill="#0f525c" stroke-linejoin="round"/>
<path d="M0,0M609,604L610,604C612.2,605.8 614.6,602.2 616,601C613.5,580.8 645.7,617.2 640,586C639,579.3 643,576.3 634,577C619.7,580.7 584.8,585.1 594,601L598,601C599.8,597.6 606.2,597.6 607,601L609,604Z" stroke="#0f525c" stroke-width="0.75" stroke-linecap="round" fill="#0f525c" stroke-linejoin="round"/>
<path d="M0,0M717,604C737.2,595 698.8,569.6 712,556C698.6,552.1 683.9,549.5 667,543C655.1,538.1 620.5,538 625,555C635.8,554.8 645.8,558.2 649,562C668.8,568.2 687.9,574.1 699,588C705,591 711,599.4 717,604Z" stroke="#0a4348" stroke-width="0.75" stroke-linecap="round" fill="#0a4348" stroke-linejoin="round"/>
<path d="M0,0M883,604L885,604C883.2,596.7 889.6,597.1 895,597C896.9,596.3 900.6,594.8 897,585C894.4,583.2 882.2,586.7 879,586C855.5,600.9 872.8,599.8 883,604Z" stroke="#156576" stroke-width="0.75" stroke-linecap="round" fill="#156576" stroke-linejoin="round"/>
<path d="M0,0M943,603L948,603C948.8,599 955.4,595 958,591C950.5,573.5 933.2,561.2 903,564C904.3,573.4 899.9,578.5 904,583C918,587.4 934.2,593 943,603Z" stroke="#9ab7b9" stroke-width="0.75" stroke-linecap="round" fill="#9ab7b9" stroke-linejoin="round"/>
<path d="M0,0M598,601L607,601C606.2,597.6 599.8,597.6 598,601Z" stroke="#3a899e" stroke-width="0.75" stroke-linecap="round" fill="#3a899e" stroke-linejoin="round"/>
<path d="M0,0M900,600C908.2,603.8 909.7,592.8 904,594C897.6,588.6 902,599.6 900,600Z" stroke="#699da7" stroke-width="0.75" stroke-linecap="round" fill="#699da7" stroke-linejoin="round"/>
<path d="M0,0M1003,589L1005,589C1005.1,584.7 1006.2,575.3 1008,570C1007.8,552.4 1011.5,529 1011,508L1009,508C1010.3,492 1008.3,470 1011,457L1011,453C1006.3,447.1 1004.3,458.6 1005,460C1005.5,476.5 1009.7,494.3 1006,510C1005.1,533.3 1004.8,568.8 1003,589Z" stroke="#37859a" stroke-width="0.75" stroke-linecap="round" fill="#37859a" stroke-linejoin="round"/>
<path d="M0,0M877,586L879,586C882.2,586.7 894.4,583.2 897,585C895.4,583.1 901.7,583.4 904,583C899.9,578.5 904.3,573.4 903,564C903.9,561.2 894.6,563 891,562C886.5,561.1 883.7,564.8 882,564C878.2,562.8 876,566.7 874,565C875.2,572.8 876.1,579.9 877,586Z" stroke="#5292a3" stroke-width="0.75" stroke-linecap="round" fill="#5292a3" stroke-linejoin="round"/>
<path d="M0,0M961,580L964,580C983.7,578.9 977.5,544.9 963,541C960.3,524.8 938,523.3 925,514C916,514.1 903.9,514.5 898,516C885.9,523.8 865.5,528.2 853,538C854.6,540.2 863.6,539.8 862,546C877,541.5 887.2,532.7 901,528C920.3,524.9 935.2,538.7 928,552C942.9,555.9 953.2,568.5 961,580Z" stroke="#5392a3" stroke-width="0.75" stroke-linecap="round" fill="#5392a3" stroke-linejoin="round"/>
<path d="M0,0M820,571C821.2,570.3 825.8,567.4 825,562L823,561C821.7,561.1 819.6,566.5 820,571Z" stroke="#84aaaf" stroke-width="0.75" stroke-linecap="round" fill="#84aaaf" stroke-linejoin="round"/>
<path d="M0,0M1008,570C1014.4,568.9 1012.1,569.6 1018,568C1027.2,554.7 1031.8,532.6 1036,513C1041.7,493.2 1042,468.5 1045,447L1042,447C1043.4,440.9 1040.8,431.3 1044,427L1045,424L1045,423C1048.3,412 1047.6,397.6 1044,388L1042,388C1041.3,385.1 1038.7,372.3 1044,373C1045.8,351.7 1039,338.5 1032,325C1015.5,308.1 1044.5,298.9 1035,283C1020.7,276.7 998.9,275.2 1017,256C1017,236.5 1004.3,229.2 996,217L994,217C994.6,214 990.5,208.3 994,205L993,204C960.8,213.1 955.7,181.5 931,180C902.1,168.4 888.2,191.8 888,217C906,213.7 932.7,219 930,240C927.6,247 926.5,250.5 933,250C952.8,256.2 944.1,267.9 943,279L954,289C964.6,301.9 972.6,316.9 981,331C998,336.8 1015.6,344 1014,366C1019.1,381.2 1018.7,396.6 1008,411C1011.2,413.8 1008.7,422.3 1009,427C1012.6,433.4 1010.1,444.9 1011,453L1011,457L1011,466C1013.1,475.7 1013.1,493.3 1011,502L1011,508C1011.5,529 1007.8,552.4 1008,570Z" stroke="#093839" stroke-width="0.75" stroke-linecap="round" fill="#093839" stroke-linejoin="round"/>
<path d="M0,0M868,565L874,565C876,566.7 878.2,562.8 882,564C852.5,540.8 916.3,540 927,552L928,552C935.2,538.7 920.3,524.9 901,528C887.2,532.7 877,541.5 862,546C859.8,550.1 869,556.8 868,565Z" stroke="#1b758a" stroke-width="0.75" stroke-linecap="round" fill="#1b758a" stroke-linejoin="round"/>
<path d="M0,0M882,564C883.7,564.8 886.5,561.1 891,562L894,561C900.2,556 914.3,558.1 921,561C927.1,562.1 921.6,551.6 927,552C916.3,540 852.5,540.8 882,564Z" stroke="#125b6a" stroke-width="0.75" stroke-linecap="round" fill="#125b6a" stroke-linejoin="round"/>
<path d="M0,0M639,562L649,562C645.8,558.2 635.8,554.8 625,555C619.3,555.5 603.5,564.1 624,561C622.8,553 635.8,560.1 639,561L639,562Z" stroke="#125c6a" stroke-width="0.75" stroke-linecap="round" fill="#125c6a" stroke-linejoin="round"/>
<path d="M0,0M825,562L844,543C830.9,528.8 810.2,507.3 786,510C764.9,544.8 804.7,551.3 823,561L825,562Z" stroke="#85aaaf" stroke-width="0.75" stroke-linecap="round" fill="#85aaaf" stroke-linejoin="round"/>
<path d="M0,0M624,561L639,561C635.8,560.1 622.8,553 624,561Z" stroke="#146475" stroke-width="0.75" stroke-linecap="round" fill="#146475" stroke-linejoin="round"/>
<path d="M0,0M894,561L921,561C914.3,558.1 900.2,556 894,561Z" stroke="#166a7b" stroke-width="0.75" stroke-linecap="round" fill="#166a7b" stroke-linejoin="round"/>
<path d="M0,0M739,550L741,550L742,549C743.1,543.4 738.2,543.3 736,540L736,543C735.8,544.6 741.2,545.7 739,550Z" stroke="#699da7" stroke-width="0.75" stroke-linecap="round" fill="#699da7" stroke-linejoin="round"/>
<path d="M0,0M735,543L736,543L736,540C736.4,537.9 732.4,536.4 733,535L732,535C724.3,509.2 678.4,521.1 670,495C660.1,473.7 655.9,434.6 666,409C675.7,385.2 682.7,358.2 690,331C703.3,312 703.4,274.1 726,268C725.2,261.3 709.6,268.9 706,264L696,264C690.7,261.9 676.3,261.9 675,262C669.6,276.1 662.1,301.5 655,316C650.2,336.6 646.7,360.7 642,379C635.1,398 634.1,424.5 628,442C626.5,464.3 621.9,487.9 625,511C633.9,512.4 652.1,510 654,513C666.7,513.2 685,518.4 696,525C709.9,530.1 723.6,535.4 735,543Z" stroke="#72a1a9" stroke-width="0.75" stroke-linecap="round" fill="#72a1a9" stroke-linejoin="round"/>
<path d="M0,0M732,535L733,535C736.3,515.9 717.7,487.7 712,463C709.1,427.4 729.3,411.3 735,382C741.5,356.3 744.1,322.6 759,303C758.8,270.1 800.2,275.2 826,267L826,255C810.5,258 793,259.5 777,262C759.6,264.1 744.6,268.1 726,268C703.4,274.1 703.3,312 690,331C682.7,358.2 675.7,385.2 666,409C655.9,434.6 660.1,473.7 670,495C678.4,521.1 724.3,509.2 732,535Z" stroke="#91b0b5" stroke-width="0.75" stroke-linecap="round" fill="#91b0b5" stroke-linejoin="round"/>
<path d="M0,0M451,522L454,522C453.9,519.2 457.3,517.2 456,516C455.9,513 456.8,505.5 454,507C454.4,512.9 450.4,514.9 451,522Z" stroke="#105763" stroke-width="0.75" stroke-linecap="round" fill="#105763" stroke-linejoin="round"/>
<path d="M0,0M960,519C973.7,518.6 999.1,502.3 1006,510C1009.7,494.3 1005.5,476.5 1005,460C1003.6,422.9 1001.6,475.7 991,475C982.5,489.2 976.6,497.2 967,508C976.6,489 983,484.3 990,462C1001.9,442.2 988.6,417.5 981,406C972.5,390.6 963.5,373 960,354C952.7,336.9 955.8,307.2 945,295L942,295C939.1,290.3 930.1,287.8 928,283L925,283L922,282C909.7,276.5 871.7,256.4 895,285C897.8,288.5 903.1,294.8 904,301C917.5,320.2 926.5,346.5 933,373C937.7,400.5 950.6,422.9 955,451C971.5,479.5 922.5,517.7 960,519Z" stroke="#b1c4c5" stroke-width="0.75" stroke-linecap="round" fill="#b1c4c5" stroke-linejoin="round"/>
<path d="M0,0M456,516C461.2,508.2 464.2,498.2 468,489C465.8,486 460.3,483 460,480C456.9,486 436.6,505.8 454,507C456.8,505.5 455.9,513 456,516Z" stroke="#125c6a" stroke-width="0.75" stroke-linecap="round" fill="#125c6a" stroke-linejoin="round"/>
<path d="M0,0M897,516L898,516C903.9,514.5 916,514.1 925,514C950.4,512.7 952.2,476.8 951,451C945.4,426.1 935.6,404.9 930,379C924.6,356.3 917.7,330.8 906,312C894.6,292.4 880.3,275.7 861,264C850.1,263.2 838.1,264.7 832,267C822.5,288 810.5,307 804,331C796.6,357.7 805,390.1 820,403C835,418.7 851.5,435.6 862,456C872.3,475.8 887,494.5 897,516Z" stroke="#c0cecd" stroke-width="0.75" stroke-linecap="round" fill="#c0cecd" stroke-linejoin="round"/>
<path d="M0,0M619,513C623,514.3 625,510.9 625,511C621.9,487.9 626.5,464.3 628,442C634.1,424.5 635.1,398 642,379C646.7,360.7 650.2,336.6 655,316C662.1,301.5 669.6,276.1 675,262L645,262C643.2,285 636.1,304.6 631,322C628.2,343.2 624,363 619,382C616.2,403.6 609.5,423.6 606,442C599.8,460.3 597.5,482 595,504C599.9,510.6 614.4,507.1 619,513Z" stroke="#5d97a4" stroke-width="0.75" stroke-linecap="round" fill="#5d97a4" stroke-linejoin="round"/>
<path d="M0,0M625,513L654,513C652.1,510 633.9,512.4 625,511L625,513Z" stroke="#699da7" stroke-width="0.75" stroke-linecap="round" fill="#699da7" stroke-linejoin="round"/>
<path d="M0,0M967,508C976.6,497.2 982.5,489.2 991,475C1001.6,475.7 1003.6,422.9 1005,460C1004.3,458.6 1006.3,447.1 1011,453C1010.1,444.9 1012.6,433.4 1009,427L1005,427C1000.4,423.1 1005,413 1008,414L1006,414C1002.8,399.7 1001.4,383.1 996,370C991.8,356.7 986.8,343.7 981,331C972.6,316.9 964.6,301.9 954,289L954,292C952.3,294.4 946.7,295.8 945,295C955.8,307.2 952.7,336.9 960,354C963.5,373 972.5,390.6 981,406C988.6,417.5 1001.9,442.2 990,462C983,484.3 976.6,489 967,508Z" stroke="#8aadb2" stroke-width="0.75" stroke-linecap="round" fill="#8aadb2" stroke-linejoin="round"/>
<path d="M0,0M1009,508L1011,508L1011,502L1011,466L1011,457C1008.3,470 1010.3,492 1009,508Z" stroke="#186d80" stroke-width="0.75" stroke-linecap="round" fill="#186d80" stroke-linejoin="round"/>
<path d="M0,0M580,505C588.6,508.7 592.6,500.7 595,504C597.5,482 599.8,460.3 606,442C609.5,423.6 616.2,403.6 619,382C624,363 628.2,343.2 631,322C636.1,304.6 643.2,285 645,262L630,262C602.5,262 612,298.5 601,315C601.2,340.2 591,359.6 585,381C576.7,398.3 568.8,419.9 565,444C562.2,465.2 563.2,502.9 580,505Z" stroke="#3a899e" stroke-width="0.75" stroke-linecap="round" fill="#3a899e" stroke-linejoin="round"/>
<path d="M0,0M1011,502C1013.1,493.3 1013.1,475.7 1011,466L1011,502Z" stroke="#125c6a" stroke-width="0.75" stroke-linecap="round" fill="#125c6a" stroke-linejoin="round"/>
<path d="M0,0M468,489C467.2,468.6 473,446.9 489,435C498.7,419.1 508.2,399.1 517,381C523.8,361.7 537.1,345.5 544,325C552.9,309.5 563.8,287.8 562,264C544.6,264.3 526,266.7 516,273C503.2,279.6 491.6,291.7 484,306C474,317.5 467.4,332.9 459,346C478.2,353.2 468.1,383.6 469,403C470.2,427.6 469.2,452.2 463,468C465.9,462.5 455.8,466 456,465C461,466.6 465.9,473.9 460,480C460.3,483 465.8,486 468,489Z" stroke="#156475" stroke-width="0.75" stroke-linecap="round" fill="#156475" stroke-linejoin="round"/>
<path d="M0,0M285,481C290,477.4 307.8,445.1 289,442C290.9,438 293,428.3 286,427C287,438.1 285.3,451.6 283,462C286.8,465.1 284.6,477.5 283,478L285,481Z" stroke="#0d4c56" stroke-width="0.75" stroke-linecap="round" fill="#0d4c56" stroke-linejoin="round"/>
<path d="M0,0M282,478L283,478C284.6,477.5 286.8,465.1 283,462C280.3,464.8 282.8,473.3 282,478Z" stroke="#acc1c2" stroke-width="0.75" stroke-linecap="round" fill="#acc1c2" stroke-linejoin="round"/>
<path d="M0,0M463,468C469.2,452.2 470.2,427.6 469,403C468.1,383.6 478.2,353.2 459,346C453.7,360.9 434.2,384.1 450,397C456.9,415.2 441.9,450.8 456,465C455.8,466 465.9,462.5 463,468Z" stroke="#0c4850" stroke-width="0.75" stroke-linecap="round" fill="#0c4850" stroke-linejoin="round"/>
<path d="M0,0M1042,447L1045,447L1045,439L1044,439L1044,427C1040.8,431.3 1043.4,440.9 1042,447Z" stroke="#196e80" stroke-width="0.75" stroke-linecap="round" fill="#196e80" stroke-linejoin="round"/>
<path d="M0,0M1044,439L1045,439L1045,424L1044,427L1044,439Z" stroke="#5d97a4" stroke-width="0.75" stroke-linecap="round" fill="#5d97a4" stroke-linejoin="round"/>
<path d="M0,0M1045,439C1047.8,439.7 1047.8,425.1 1045,423L1045,424L1045,439Z" stroke="#9bb7b9" stroke-width="0.75" stroke-linecap="round" fill="#9bb7b9" stroke-linejoin="round"/>
<path d="M0,0M1005,427L1009,427C1008.7,422.3 1011.2,413.8 1008,411L1008,414C1005,413 1000.4,423.1 1005,427Z" stroke="#0f525c" stroke-width="0.75" stroke-linecap="round" fill="#0f525c" stroke-linejoin="round"/>
<path d="M0,0M996,415C1000.9,395.6 991,373.9 985,357C978.3,339.2 970.7,321.8 958,309C963.2,323.7 962,348.1 970,366C975.4,386.1 986,400.5 996,415Z" stroke="#acc1c2" stroke-width="0.75" stroke-linecap="round" fill="#acc1c2" stroke-linejoin="round"/>
<path d="M0,0M1006,414L1008,414L1008,411C1018.7,396.6 1019.1,381.2 1014,366C1015.6,344 998,336.8 981,331C986.8,343.7 991.8,356.7 996,370C1001.4,383.1 1002.8,399.7 1006,414Z" stroke="#0d4c56" stroke-width="0.75" stroke-linecap="round" fill="#0d4c56" stroke-linejoin="round"/>
<path d="M0,0M1042,388L1044,388C1045.9,383.5 1045.9,378.5 1044,373C1038.7,372.3 1041.3,385.1 1042,388Z" stroke="#72a1a9" stroke-width="0.75" stroke-linecap="round" fill="#72a1a9" stroke-linejoin="round"/>
<path d="M0,0M298,327L300,327C300.9,321.8 298.3,309.7 301,309L300,306C296.8,307.7 299.4,320.8 298,327Z" stroke="#acc1c2" stroke-width="0.75" stroke-linecap="round" fill="#acc1c2" stroke-linejoin="round"/>
<path d="M0,0M300,327C304.6,325.1 300.2,317.5 301,309C298.3,309.7 300.9,321.8 300,327Z" stroke="#619aa6" stroke-width="0.75" stroke-linecap="round" fill="#619aa6" stroke-linejoin="round"/>
<path d="M0,0M942,295L945,295C946.7,295.8 952.3,294.4 954,292L951,292C951.3,284.1 939.7,284.2 939,279C935.9,274.4 930.8,280.4 930,280L928,283C930.1,287.8 939.1,290.3 942,295Z" stroke="#619aa6" stroke-width="0.75" stroke-linecap="round" fill="#619aa6" stroke-linejoin="round"/>
<path d="M0,0M951,292L954,292L954,289L943,279L940,279L939,279C939.7,284.2 951.3,284.1 951,292Z" stroke="#125b6a" stroke-width="0.75" stroke-linecap="round" fill="#125b6a" stroke-linejoin="round"/>
<path d="M0,0M925,283L928,283L930,280L928,277C927.8,275.5 923.2,274.2 922,274C917.6,274.3 917.6,279.8 922,282L925,283Z" stroke="#5292a3" stroke-width="0.75" stroke-linecap="round" fill="#5292a3" stroke-linejoin="round"/>
<path d="M0,0M297,282L298,282C299.6,281 301.8,268.6 298,265C295.3,268.3 297.8,276.8 297,282Z" stroke="#619aa6" stroke-width="0.75" stroke-linecap="round" fill="#619aa6" stroke-linejoin="round"/>
<path d="M0,0M930,280C930.8,280.4 935.9,274.4 939,279L940,279C937,273.8 930.8,275.1 928,277L930,280Z" stroke="#105864" stroke-width="0.75" stroke-linecap="round" fill="#105864" stroke-linejoin="round"/>
<path d="M0,0M940,279L943,279C944.1,267.9 952.8,256.2 933,250C926.5,250.5 927.6,247 930,240C932.7,219 906,213.7 888,217C870.7,229.5 900.9,237.6 883,255C892.3,263.5 910.8,266.9 922,274C923.2,274.2 927.8,275.5 928,277C930.8,275.1 937,273.8 940,279Z" stroke="#0f525c" stroke-width="0.75" stroke-linecap="round" fill="#0f525c" stroke-linejoin="round"/>
<path d="M0,0M516,273C526,266.7 544.6,264.3 562,264C579.5,261.6 601.4,259.7 622,259L625,258C635,257.2 637.1,252.3 639,247C628.7,240.8 607.6,244.9 595,240C578.6,237.8 559,238.5 546,246C535.1,253.7 517.4,259.7 516,273Z" stroke="#093e40" stroke-width="0.75" stroke-linecap="round" fill="#093e40" stroke-linejoin="round"/>
<path d="M0,0M726,268C744.6,268.1 759.6,264.1 777,262C793,259.5 810.5,258 826,255C829.9,253.1 833.1,244.2 838,249C839.5,245.9 849.5,248.4 850,247L847,244C834.1,241.7 822.2,230.5 805,235C781.8,238.8 765.5,249.5 736,247C725.6,251.9 699,243.3 706,264C709.6,268.9 725.2,261.3 726,268Z" stroke="#277e93" stroke-width="0.75" stroke-linecap="round" fill="#277e93" stroke-linejoin="round"/>
<path d="M0,0M826,267L832,267C838.1,264.7 850.1,263.2 861,264C859.4,261.6 865.8,261.4 867,259C856.6,260.7 868.5,254 864,255C858.6,253.4 851.4,253.6 847,250C847.6,247.3 838.4,249.9 838,249C833.1,244.2 829.9,253.1 826,255L826,267Z" stroke="#72a1a9" stroke-width="0.75" stroke-linecap="round" fill="#72a1a9" stroke-linejoin="round"/>
<path d="M0,0M696,264L706,264C699,243.3 725.6,251.9 736,247L726,247C725.2,240.3 709.6,247.9 706,243C683.1,235.4 669.4,252.9 639,247C637.1,252.3 635,257.2 625,258C636,257.4 632.5,260.8 624,259C621.5,262.3 630.4,259.5 630,262L645,262L675,262C676.3,261.9 690.7,261.9 696,264Z" stroke="#135f6f" stroke-width="0.75" stroke-linecap="round" fill="#135f6f" stroke-linejoin="round"/>
<path d="M0,0M868,261C880.1,262.5 874.2,249 864,255C868.5,254 856.6,260.7 867,259L868,261Z" stroke="#619aa6" stroke-width="0.75" stroke-linecap="round" fill="#619aa6" stroke-linejoin="round"/>
<path d="M0,0M622,259L624,259C632.5,260.8 636,257.4 625,258L622,259Z" stroke="#000000" stroke-width="0.75" stroke-linecap="round" fill="#000000" stroke-linejoin="round"/>
<path d="M0,0M880,255L883,255C900.9,237.6 870.7,229.5 888,217C888.2,191.8 902.1,168.4 931,180C955.7,181.5 960.8,213.1 993,204C993.3,199.2 997.9,195.2 997,192C991.8,167.7 977.3,148.2 978,120C987.2,97.9 946.7,83.1 948,99C956.3,98.1 951.8,113.6 943,109C917,112 933.9,71.1 906,75C899.7,73.3 896.6,68.4 892,64C862.1,62.9 852.6,40.4 823,37L820,37C818.6,35.3 810.7,35.7 811,33C785.3,11.8 782.9,50 753,45C736.5,33.5 726.2,15.8 700,13C697.3,24.1 693.4,24.3 690,33C675.1,42.9 698.9,55.8 694,73C695.7,93 687.6,105.8 670,105C651.4,96.6 625.1,67.8 628,55C621.7,54.6 612.8,57.2 606,58C604.1,61.6 596.7,59.2 592,60C589.1,88.7 566.8,105.6 538,105C504.7,80.2 496.6,119.5 483,136C495.2,141 511.4,146.1 529,142C546.9,140.9 559.1,134.1 574,130C594.7,129.3 611.1,131.9 622,139C637.5,143.5 651,149 666,153C677.5,157.8 687.6,168.6 694,180C710.4,196 693.6,207.1 672,202C652.2,201.7 640,208.5 628,216C617.3,223.8 618.3,243.8 595,240C607.6,244.9 628.7,240.8 639,247C669.4,252.9 683.1,235.4 706,243C712.1,228.4 750.9,239.6 759,234C773.6,234.3 798.5,216.9 805,235C822.2,230.5 834.1,241.7 847,244C858,246.2 870,251.3 880,255Z" stroke="#052922" stroke-width="0.75" stroke-linecap="round" fill="#052922" stroke-linejoin="round"/>
<path d="M0,0M847,250C846.2,250.6 855,248.3 850,247C849.5,248.4 839.5,245.9 838,249C838.4,249.9 847.6,247.3 847,250Z" stroke="#277e93" stroke-width="0.75" stroke-linecap="round" fill="#277e93" stroke-linejoin="round"/>
<path d="M0,0M726,247L736,247C765.5,249.5 781.8,238.8 805,235C798.5,216.9 773.6,234.3 759,234C750.9,239.6 712.1,228.4 706,243C709.6,247.9 725.2,240.3 726,247Z" stroke="#0c4850" stroke-width="0.75" stroke-linecap="round" fill="#0c4850" stroke-linejoin="round"/>
<path d="M0,0M328,234C330.7,230.2 336.2,229.7 336,223C329.9,224.7 325.8,228.2 328,234Z" stroke="#f6f8f7" stroke-width="0.75" stroke-linecap="round" fill="#f6f8f7" stroke-linejoin="round"/>
<path d="M0,0M994,217L996,217C997.5,217.1 997.9,210 997,205L994,205C990.5,208.3 994.6,214 994,217Z" stroke="#4a91a2" stroke-width="0.75" stroke-linecap="round" fill="#4a91a2" stroke-linejoin="round"/>
<path d="M0,0M994,205L997,205C997.1,204.8 1006,207.6 1003,202L999,202L999,193L997,192C997.9,195.2 993.3,199.2 993,204L994,205Z" stroke="#217a8f" stroke-width="0.75" stroke-linecap="round" fill="#217a8f" stroke-linejoin="round"/>
<path d="M0,0M999,202L1003,202C1004.7,199.4 1000.8,195.8 999,193L999,202Z" stroke="#1c768a" stroke-width="0.75" stroke-linecap="round" fill="#1c768a" stroke-linejoin="round"/>
<path d="M0,0M868,165C878,167.5 876.1,158.6 883,159C906.6,143 876.8,145 870,133C862.1,117.9 844.8,108.7 825,103C786,98.4 807.3,129.2 810,145C834.9,141.9 843.6,163.9 868,165Z" stroke="#0c4950" stroke-width="0.75" stroke-linecap="round" fill="#0c4950" stroke-linejoin="round"/>
<path d="M0,0M462,151C472,149.5 476.9,142.4 483,136C496.6,119.5 504.7,80.2 538,105C566.8,105.6 589.1,88.7 592,60L592,58L588,57L582,57C578.7,54.3 571.1,55.9 568,52C556.7,58.9 541.5,55.4 522,55C520.3,56.9 516.7,59.9 516,60C515.9,63 516.8,70.5 514,69C514,83.8 505.8,95.6 493,100C495.4,109.4 487.7,108.7 483,111L483,109C470.4,119.9 453.4,125.9 447,142C453.3,144.2 458.5,147 462,151Z" stroke="#093e40" stroke-width="0.75" stroke-linecap="round" fill="#093e40" stroke-linejoin="round"/>
<path d="M0,0M910,141C917.8,139.4 926.6,127.1 922,123C917.6,122.4 907.7,133.9 910,141Z" stroke="#093e40" stroke-width="0.75" stroke-linecap="round" fill="#093e40" stroke-linejoin="round"/>
<path d="M0,0M483,111C487.7,108.7 495.4,109.4 493,100C490,100.8 486.5,106.9 483,109L483,111Z" stroke="#125b6a" stroke-width="0.75" stroke-linecap="round" fill="#125b6a" stroke-linejoin="round"/>
<path d="M0,0M670,105C687.6,105.8 695.7,93 694,73C698.9,55.8 675.1,42.9 690,33L688,33C689.2,29.2 681.9,30 681,30C681.9,34.7 673.1,35.5 670,39C670.3,43.8 667.8,46.3 663,46C656.1,51.7 641.7,54.5 628,55C625.1,67.8 651.4,96.6 670,105Z" stroke="#093839" stroke-width="0.75" stroke-linecap="round" fill="#093839" stroke-linejoin="round"/>
<path d="M0,0M514,69C516.8,70.5 515.9,63 516,60C516.4,57.5 511.8,56.5 511,57C511.3,62.2 514.7,63.8 514,69Z" stroke="#5292a3" stroke-width="0.75" stroke-linecap="round" fill="#5292a3" stroke-linejoin="round"/>
<path d="M0,0M516,60C516.7,59.9 520.3,56.9 522,55C520.2,50.6 506.6,49.7 511,57C514.7,55.9 516.3,59.9 516,60Z" stroke="#4a91a3" stroke-width="0.75" stroke-linecap="round" fill="#4a91a3" stroke-linejoin="round"/>
<path d="M0,0M592,60C596.7,59.2 604.1,61.6 606,58C604.1,56.6 596.7,56.6 592,58L592,60Z" stroke="#37859a" stroke-width="0.75" stroke-linecap="round" fill="#37859a" stroke-linejoin="round"/>
<path d="M0,0M582,57L588,57C584.1,52.9 576.3,52.7 568,52C571.1,55.9 578.7,54.3 582,57Z" stroke="#f6f8f7" stroke-width="0.75" stroke-linecap="round" fill="#f6f8f7" stroke-linejoin="round"/>
<path d="M0,0M663,46C667.8,46.3 670.3,43.8 670,39C665.7,39.2 663.2,41.7 663,46Z" stroke="#093e40" stroke-width="0.75" stroke-linecap="round" fill="#093e40" stroke-linejoin="round"/>
<path d="M0,0M820,37L823,37C826.4,32.5 815,29.2 811,33C810.7,35.7 818.6,35.3 820,37Z" stroke="#f6f7f7" stroke-width="0.75" stroke-linecap="round" fill="#f6f7f7" stroke-linejoin="round"/>
<path d="M0,0M688,33L690,33C693.4,24.3 697.3,24.1 700,13C698.2,11 689.6,9 684,7C686.4,14 678.9,13.9 676,13C679.7,18.1 684.5,23.2 681,30C681.9,30 689.2,29.2 688,33Z" stroke="#0f525c" stroke-width="0.75" stroke-linecap="round" fill="#0f525c" stroke-linejoin="round"/>
<path d="M0,0M676,13C678.9,13.9 686.4,14 684,7C681.9,3.5 667.2,8.3 676,13Z" stroke="#217a90" stroke-width="0.75" stroke-linecap="round" fill="#217a90" stroke-linejoin="round"/>
</g>
<g id="layer1" opacity="0.8">
<path d="M0,0M634,1443C651.5,1439.5 625.3,1416.4 627,1402C618.7,1388.8 609.8,1375.7 598,1365C584.9,1356.6 574.3,1345.2 561,1336C548.2,1328 540.7,1311.7 537,1296C545.7,1269.3 564,1294.7 567,1308C570.9,1326.1 582.8,1336.2 594,1347C604.3,1356 617.1,1372.3 625,1375C611.8,1367.9 607.6,1348.3 600,1336C583.2,1310 602.9,1315 607,1338C619.6,1347.9 633.9,1355.6 643,1368C661.1,1384 679.3,1374.2 651,1363C638.3,1354.9 626.5,1342.9 618,1332C610.1,1334 606,1324.6 594,1308C578.9,1293.8 596.1,1259.7 598,1297C616.3,1326.8 603.1,1297.3 601,1282C600.7,1252.5 624.7,1316.8 619,1284C611.6,1269.9 597,1262.5 588,1249C577,1238.5 566,1227.5 555,1216C544.3,1205.2 535.7,1191.8 523,1182C514.4,1169.7 497.4,1163 490,1150C476.6,1142.4 467.5,1129.5 457,1117C448.3,1104.7 437.4,1093.6 435,1074C434.2,1056 445.7,1043.5 442,1018C441.6,998.1 438.4,977.5 439,957C438.5,945.8 431,904 436,912C442,928.5 444.5,948 451,963C458.3,978.2 466.4,992.1 475,1005C484.3,1017.5 494,1031.6 501,1044C508.8,1058.2 519.6,1069.4 525,1086C537.1,1095.2 555,1101.1 559,1116C569.3,1128.2 585,1134.5 597,1144C612.6,1152.6 637,1147.2 654,1149C670,1142.4 695.2,1143.4 709,1150C725.9,1156.1 729,1175 753,1173C767.7,1165.7 784.2,1160.2 802,1156C818.2,1150.9 835.5,1144.4 847,1137C859.1,1126.6 875,1120.5 886,1110C897.9,1099.4 908.9,1088.4 913,1071C914.7,1049.1 920,1030.9 909,1015C896.6,996.1 914.6,1042.4 910,1048C905.7,1065.7 900.5,1082.5 889,1093C881.5,1107.5 869.1,1117.1 853,1123C843.1,1131.8 823,1144.2 813,1140C802.9,1123.5 817.7,1159.5 801,1147C790.1,1126.9 788,1125.5 793,1149C773.5,1147.7 755.3,1164.9 750,1147C738.9,1168.3 727.6,1138.4 708,1141C691.8,1136.4 679.2,1125.2 660,1125C650.7,1113.6 643.9,1094.9 630,1092C640.1,1106 639.6,1131 619,1108C615.8,1100.1 562.6,1106 591,1110C609.1,1110 637.6,1123.8 613,1125C612.6,1135 649.8,1129.9 648,1132C646.3,1146.2 611.4,1140.9 600,1135C573.2,1122.4 580.2,1124.1 597,1123C579.6,1119.6 568.4,1107 559,1096C555,1090.8 518.7,1066.4 546,1077C562.3,1082.7 571.1,1095.9 589,1099C599.8,1096.3 563.2,1088.7 562,1075C549.2,1067.5 531.6,1061.3 525,1048C515.1,1036.4 504.4,1025.1 495,1012C487,999.2 472.8,989.6 466,976C457.1,963.9 451.7,947.3 447,930C442.2,915.2 439.5,889.1 430,885C427.5,866 423.1,848.4 396,853C381.1,846.4 366.6,838.9 361,822C354.4,807.1 342.1,797.4 334,783C322.7,767.4 325.6,756.3 318,741C310.9,726.1 308.6,706.4 309,684C309,662.3 303.7,643.1 309,624C320.4,584.1 298.5,642.2 301,628C303.3,609.2 316,596.1 318,583C308.4,555.2 328.8,595.4 343,591C355.4,601.1 362.5,616 375,625C390.9,631.6 395,649.5 402,664C406.5,681.4 413.7,697.9 417,714C422.1,730.9 423.5,751.5 424,772C425.6,795.1 419.5,815.4 427,832C431.3,872.7 440.8,831.9 432,816C427.4,803.3 436.1,774.8 429,760C424.8,720.6 441,782.2 442,768C438.8,750.3 443,728.8 433,714C431.9,693.6 422.9,680.5 426,655C429.4,637.5 435.4,619.8 436,601C437,580 436,556.9 444,543C449.5,526.5 457.7,512.7 462,495C451.7,506.7 441.9,518.9 435,534C433.5,516.4 446.2,501.7 453,490C463.2,478.7 467.8,461.3 468,439C460.3,408.3 471.3,473.1 454,468C450.4,473.6 451.4,474 448,469C448.3,432.8 444.3,483.7 442,474C444.4,459.8 447.1,435.2 450,420C456.9,398 452.5,374.6 444,402C430.3,390 449.3,368.8 450,355C451.7,345 477.1,321.1 465,322C458.1,336.9 444,346.6 439,361C426,367.2 446.5,334.7 453,330C464,319 475,308 486,297C492.9,281.9 509.9,276.9 519,264C533.2,256.8 540,239.9 559,240C582.7,232.6 596.6,245.8 618,244C626.7,248.8 637.7,254.6 663,247C679.7,238 695.2,240.9 717,244C762.1,245.3 723.5,238.2 706,238C689.4,233.6 668.6,232.4 657,222C645,212 641.5,193.5 640,172C639.5,150.1 635.7,129.1 649,118C655.8,103.5 659.7,83.6 669,73C682.7,57.4 649,82.7 648,91C643.2,104 603.5,109.3 625,91C636.5,92.7 665.5,62.7 645,72C631.6,79.9 610,82.1 604,96C594.7,98.5 576,129 573,112C579.4,96.9 595.9,91.4 606,79C604.5,64.5 580.4,89.7 573,94C561.7,104.5 548.9,115.5 552,138C550.5,176.9 541.2,155.6 544,130C545.8,109.8 555.9,97.9 565,85C594.5,71.3 562.8,70.2 555,87C546.8,96.9 537.5,120 532,123C536.5,105 547.3,93.8 553,78C548.1,77.8 532,65.5 538,96C531.1,110.6 528.2,129.7 519,142C519.2,126.6 529.1,109.1 532,94C534.9,56.4 528,86.9 523,103C520.9,111.4 504.4,152 507,127C510.8,111 526.2,99.3 523,81C515.3,48.5 557.7,75.6 567,63C587.7,64 604.4,71.8 619,70C632.1,61.1 656.9,63.9 670,55C688.5,54.3 692,26.9 706,31C724.7,34.6 725.6,57.5 742,60C760.1,58.8 720,47 766,54C784.2,57.5 801.9,26.2 802,51C789.2,59.7 768.3,60.8 750,64C730.4,60 725.6,84 712,88C704.9,95 679.7,125 697,97C699.4,89.4 737.4,70.4 715,73C702.5,82.5 690.9,92.9 682,106C672.1,117.4 663,132.1 663,151C657.5,166.3 669.3,198.7 666,199C653.6,189.9 658.7,162.8 655,144C658.3,124.8 667.6,112.1 678,100C684.9,86 701.6,79 711,69C740,56.4 718.7,52.1 703,67C693.7,79.7 675.7,83.7 669,99C660,112 653.8,127.8 645,141C649.4,157.3 644.8,181 652,195C655.5,214 670.3,221.2 687,226C702.6,232.9 720.7,236.8 742,237C766.7,239.2 783.2,233.7 795,223C806.2,213.4 810.5,193.9 810,174C801.5,151.1 825.7,165.4 832,148C841,147.5 861,106.5 846,126C836.2,138.2 823.7,147.7 808,154C791.4,161.7 806.4,192 798,205C778.2,230.9 801.5,191.3 793,177C786.2,159.3 801.9,143.8 804,129C827.1,106.3 801,119.4 795,135C790.4,158.9 779.3,168.4 780,136C779.5,114.1 794.1,106.6 808,99C813.6,89.7 865.8,90.6 837,97C820.1,102.6 800.2,104.7 792,118C792.3,120.4 814.6,101.6 828,102C861.6,99.3 854.7,107.6 829,112C832.9,109.3 862.5,113.2 873,117C899.7,126.5 856.3,125.7 853,139C849.9,141 896.8,122.4 885,136C859.4,144.5 862.5,156 888,142C914.6,147.1 907.1,117.6 933,121C955,124.3 974.4,99.7 940,111C916.7,113.4 934.4,72 909,78C895,70 889.7,53.3 864,57C851.4,47.6 841.8,35.2 817,37C805.2,28.2 784.7,17.6 778,40C762.3,52.6 737.6,41.6 733,30C723.9,17.6 704.8,14.7 688,9C646,4.4 683.2,9.9 681,28C668.6,38.1 662.3,53.8 640,54C618.7,52.4 602.5,64.8 585,57C567.2,48.1 546.5,63.1 528,54C514.6,48.1 467,51.8 507,57C523.8,67.1 508.4,94.7 498,99C485,107.3 474,120.1 460,126C445.8,133.3 446.9,156.4 426,157C409.6,163.1 393.2,168.7 381,178C369.7,189.2 356.3,197.8 346,210C338.2,223 327.7,236.3 318,246C303.4,252.3 291.9,266.6 298,289C303.4,304.8 301.7,334.2 300,349C296.6,368.1 290.4,383.9 286,402C283.8,422.5 291.3,440.6 283,457C281.4,481.6 290.4,494.6 288,519C290.9,538.1 295.3,555.7 303,570C317.3,586.6 300.2,601.8 295,616C292.7,635 291.9,658 292,678C287.1,699 297.1,716.1 301,732C306.2,749.3 315.2,762.3 322,777C330.9,790.6 340.1,803.4 349,816C356.7,830.2 365.4,845.2 378,852C386.7,865.3 421.7,852.3 420,876C424,894 426.3,913.7 429,933C432.5,951.5 433.8,972.2 435,993C433.3,1015.1 440.3,1037.4 430,1050C426.1,1067.6 409.2,1072.7 399,1084C388,1095.5 378.4,1107.9 369,1120C354.6,1128.1 347.4,1142.9 333,1150C318.9,1157.7 305.3,1167.9 289,1171C272.3,1176.3 256,1182 240,1188C224.2,1194.2 207.5,1199.5 190,1204C173.3,1209.3 157,1215 141,1221C125,1226.3 106.4,1231.5 91,1236C75.4,1241.9 58.9,1247.4 42,1252C30.1,1259.9 -0.4,1258.5 1,1272C38,1265.2 -11.5,1273.5 3,1300C1.8,1323.7 5.6,1343.4 3,1362C6.1,1384.1 3,1400.4 3,1422C-0.1,1450.2 28.8,1435.5 49,1438C73.5,1438 90,1441 112,1438C132.5,1434.7 159.9,1446.7 169,1434C173,1419.9 167.6,1394.7 163,1380C163.7,1370.3 177.7,1335.7 163,1366C153.8,1360.5 138.9,1381.5 126,1386C119.2,1402.2 137,1430.4 133,1428C119.9,1417.8 117.1,1439.9 88,1434L22,1434C-1.3,1435.8 13.8,1398.7 9,1381L9,1317C11.9,1297.2 2.6,1272.4 24,1269C40.3,1263.3 57.9,1258.9 73,1252C89.6,1247.7 107.5,1239.7 129,1245C149.5,1237.2 169,1244.8 177,1255C190.8,1258.8 211.3,1274 219,1270C229.9,1280.5 212.4,1302.2 210,1315C209.3,1333.1 183.5,1342.1 193,1350C203.8,1361 218.2,1370.4 229,1378C241.2,1388.8 253.4,1398.6 267,1407C291.8,1429.3 275.5,1398.2 262,1395C253,1382.5 237.7,1375.8 228,1363C211.6,1358.5 202.5,1340 214,1324C221.8,1309.8 226.6,1292.6 235,1279C240.9,1264.2 255,1239.7 249,1269C248,1295.6 285,1268.2 288,1287C305.7,1288 321.6,1307.5 325,1302C352.4,1311.5 347.3,1306.4 348,1294C367.4,1299.2 365.6,1308.4 351,1324C359.8,1316.5 373.3,1304.5 384,1294C380,1289.2 383,1229.9 388,1267C393.1,1294.1 381,1304 369,1314C369.8,1327 339.9,1346.4 352,1345C362.7,1345.2 363.7,1375.1 390,1368C412.7,1360.3 414.7,1387.1 420,1399C421.6,1419.9 419.8,1443.7 445,1440C462.9,1438.1 487.4,1441.3 507,1440L573,1440C592.8,1441.5 620.9,1437.2 634,1443M238,1440C258.8,1436.3 276.5,1441.1 297,1438C313.4,1438.4 337.7,1439.6 352,1438C371,1439.3 391.9,1439.2 408,1438C428.2,1431.5 383.6,1434.1 372,1434L309,1434L247,1434C228,1434.8 202.7,1432.4 187,1435C189.8,1442 227.6,1435.8 238,1440M709,1440C741.3,1441.9 772.9,1435.3 801,1440C833.8,1439.5 859.6,1438.9 886,1438C914.1,1439.9 943.1,1437.8 972,1440C1011.4,1448.4 1026.7,1432.7 1021,1396C1023.3,1390.3 1024.4,1383.4 1024,1375C1024.7,1338.8 1036,1366.1 1032,1327C1034.1,1304.4 1032.5,1274.2 1032,1243C1026.4,1215.4 1035.6,1181.2 1029,1156C1004.8,1119.4 1027.1,1131.1 1042,1155C1053.3,1175.6 1071.1,1191.3 1087,1204C1104.4,1218.6 1127.3,1226.7 1143,1242C1163.1,1252.9 1184.1,1262.9 1207,1270C1229.1,1279.9 1253.3,1286.8 1275,1296C1297.7,1304.3 1318.2,1314.8 1341,1323C1361.3,1333.7 1383.4,1342.6 1404,1353C1430.5,1372.1 1457.2,1362.7 1414,1348C1392.7,1339.3 1372.1,1328.9 1350,1320C1328.2,1310.3 1305.5,1299.6 1284,1291C1261.3,1283.3 1239.5,1274 1216,1266C1193.7,1257.8 1172.9,1247.6 1152,1237C1133.5,1225 1113.4,1214.1 1095,1201C1076.5,1188.5 1060.6,1171.1 1048,1153C1038.3,1132.7 1015,1125 999,1110C983.3,1094.7 954.9,1092.1 942,1074C926.6,1050.1 950.3,1026.8 958,1009C967.2,986.8 977.9,964 984,940C986.7,912.2 991.7,886.2 991,855C996.7,828.9 982.8,790.1 1003,777C1024.7,768.1 1025.3,734.3 1021,705C1020.1,695.6 1023.8,691.3 1023,682C1025.6,640 1017.3,689.5 1018,705C1023.4,740.9 1015.3,763.9 997,777C979.4,789.9 991.7,833.2 984,856C981.2,884.7 980.7,915.2 975,940C965.8,962.7 962.6,993 949,1009C941.6,1028.2 919.6,1050.3 933,1077C941.9,1099.1 957.5,1114.5 960,1143C966.6,1167.4 977.7,1187.3 982,1213C988.1,1239.4 990,1270.9 996,1294C1007.6,1323 997.8,1350.8 966,1348C950.8,1357 897.4,1357.2 906,1360C933.6,1368.2 958,1353.5 982,1350C1025.4,1328.3 978.4,1368.1 960,1365C953.4,1366.4 946.3,1367.3 939,1368C908.3,1369.6 962.4,1376.2 972,1377C982.9,1381.3 974.4,1371.4 966,1374C945.1,1366.2 1001,1359.4 996,1362C999.5,1398.5 957.8,1386.2 934,1381C910.4,1374.6 892.6,1361.4 861,1362C835.3,1367.3 825.6,1388.6 802,1396C797.1,1399.1 792.2,1402.2 787,1405C753.8,1408.4 795.4,1428.2 766,1411C774.7,1406.3 800.4,1387.7 817,1378C836,1365.5 846.1,1342.2 852,1318C876.5,1276.9 855.9,1324.9 850,1344C818.2,1373.7 906,1345.4 879,1345C871.1,1343.8 861.4,1347.2 859,1347C863.8,1345.3 863.4,1338.9 867,1336C875.7,1311.4 858.6,1352.4 867,1318C877.4,1297.4 890,1276.6 898,1255C912,1240.8 918.2,1217.3 919,1186C923.4,1161.1 943.2,1145.4 934,1111C935.8,1086.1 914.6,1040.5 916,1093C911.3,1119.8 904.7,1146.5 897,1168C888.3,1190.8 878.9,1212.4 868,1233C858,1253.5 846.6,1273.1 834,1291C824.6,1313.1 806.6,1326.1 795,1345C784.6,1367.8 763.4,1374.5 745,1386C738.2,1398.5 696.1,1417.8 711,1423C757.2,1406.5 736.8,1428.2 706,1434C697.1,1432.6 692.8,1436.3 684,1435C638.2,1437.2 697.9,1439.5 709,1440M1126,1440C1138.8,1438.2 1204,1438.7 1156,1435C1131.1,1436.7 1110.9,1432 1087,1435C1072.5,1433.8 1008.6,1436.6 1056,1438C1079.4,1439.1 1105,1437.5 1126,1440M1207,1440C1233.9,1437 1267.6,1439.2 1294,1438C1324.2,1436.6 1353.8,1443 1380,1438C1405.8,1435.6 1445.7,1453 1437,1413C1453.4,1384.1 1410.7,1345.5 1431,1374C1425.8,1391.9 1446.4,1449.1 1405,1434C1373.7,1433.6 1348.4,1436.2 1320,1434C1291.8,1434.5 1256.5,1433.8 1234,1434C1211.2,1432.8 1153.6,1437.9 1207,1440M898,1434C884.3,1429.3 824.4,1434.3 870,1428C886.8,1430.6 945.4,1426.6 898,1434M799,1432C790.7,1431.7 766.1,1434.1 768,1431C778.8,1429.9 792.1,1426 799,1432M949,1432C927.7,1432.3 913.7,1424.3 891,1425C851.5,1425.9 888.2,1409.4 907,1414C917.3,1410.4 961.4,1404.4 949,1420C955.8,1424.9 952.3,1425.9 948,1423C916.2,1426.5 979.6,1429.9 949,1432M1102,1419C1102.5,1408.1 1083.6,1396.1 1075,1387C1064.3,1377.7 1055.6,1365.4 1042,1357C1045.2,1365.7 1062.3,1379.5 1071,1387C1081.5,1398 1092,1408.5 1102,1419M1222,1390C1222.1,1365.7 1210.5,1344.4 1203,1323C1191.4,1304.6 1190.6,1275.4 1171,1264C1178.9,1282.3 1190,1304.1 1198,1324C1206.4,1346.6 1214.7,1368.3 1222,1390M571,1377C564.6,1373.8 560.5,1364.4 556,1360C565.4,1361.7 570.8,1369.8 571,1377M811,1375C800.7,1377.8 795.2,1372.3 808,1372C824.6,1365.2 829.6,1344.5 838,1332C848.6,1327.1 827.3,1374.6 811,1375M901,1351C927.2,1342.7 973.4,1352.6 979,1326C965.3,1321.7 976.2,1327.5 976,1333C956.3,1342.1 936.6,1317.8 915,1330C870.2,1356.8 945.2,1318.7 958,1339C936.2,1342.9 880.3,1342.5 901,1351M541,1326C528.7,1316.8 518.6,1304.8 502,1299C480.3,1304.8 486.7,1247.9 493,1287C493.5,1266.1 504,1265 513,1288C519.8,1303.7 536.9,1308.6 541,1326M895,1320C917.2,1318 952.4,1324.9 960,1312C940.1,1316.3 908.4,1312.9 895,1320M693,1318C691.4,1306.9 678.7,1292.1 679,1278C672.3,1292.7 687,1307.9 693,1318M882,1308C894.9,1305.5 913,1302.6 927,1306C945.5,1307 960.7,1304.2 972,1297C956,1299.8 939.1,1303.8 921,1302C906.9,1298 891,1301.7 882,1308M987,1299C986.2,1282 982.6,1240.5 978,1237C971.7,1260 984.3,1272.5 987,1299M937,1294C949.2,1294.2 959.2,1292.2 966,1287C955.2,1288.2 942.3,1287.3 937,1294M534,1288C513.9,1279.8 567.5,1236.3 559,1270C555.8,1276.9 561.9,1291 556,1287C534,1294.1 539.6,1252.9 534,1288M949,1255C963.6,1265.6 975.5,1235.5 961,1242C955,1251.7 929.2,1241.7 949,1255M940,1236C948,1235.4 944.7,1220.6 946,1216C942.5,1220.5 940.1,1229.7 940,1236M958,1216C954.8,1203.1 955.8,1165 952,1147C945.2,1167.5 946.2,1203.6 958,1216M508,1215C506.5,1213.1 504.6,1193 511,1200C516.7,1207.3 510.9,1207.8 508,1215M969,1210C973,1201.6 967.2,1191.5 966,1183C963.1,1191.3 966.3,1203.9 969,1210M765,1144C772.4,1141.8 754.9,1129.3 754,1123C747.4,1125.9 764.1,1139.3 765,1144M673,1111C688.5,1117.9 705.8,1086.1 690,1101C682.5,1109.7 643.7,1100.2 673,1111M621,1072C627.3,1068.6 636.2,1064.2 639,1059C629.5,1059.6 624.1,1067.7 621,1072M679,1056C689.7,1059.6 705.4,1044.7 693,1050C683.8,1052.8 664.9,1047.9 679,1056M546,1054C557.1,1058.5 581.1,1046.6 567,1050C559.4,1055.3 528.7,1046.2 546,1054M576,1047C589.3,1043.1 607.4,1041.1 618,1036C598.8,1034.5 585.7,1041.4 576,1047M573,1036C583.3,1033.8 592.4,1029.9 595,1020C586.5,1024 581.6,1032.1 573,1036M769,1017C780.9,1016.9 803.5,1018.8 802,1012C792.3,1016.3 775.6,1009.2 769,1017M585,1011C597.4,1007.2 600.8,991.6 606,982C597.4,990.2 592,1003.8 585,1011M631,1008C641,1010.7 657.3,993.6 645,999C643.2,1006.8 612.9,1003.9 631,1008M951,999C957.2,993 960.5,981.1 960,970C956.8,979.4 952.1,990.1 951,999M489,994C489.5,989.1 492.1,970.6 481,972C475.8,982.6 487.3,987 489,994M511,975C524.9,974.2 532.3,964.5 535,955C529.4,963.6 518.4,969.8 511,975M472,969C483.9,964.1 494.6,955.8 502,949C488.7,952 478,960.3 472,969M888,955C889.8,934.3 886.6,914.5 850,919C825.9,919.4 804.2,924.4 775,922C749.5,920 716.8,922.3 693,919C668.2,906 647.7,913.5 639,934C613.2,968.8 653.3,932.2 667,931C693.1,929.1 722.6,930.6 750,930C780,931.6 803.4,924.5 832,927C862.3,925.2 877.4,938.1 888,955M786,874C782.2,861 800,856.4 789,838C777.5,839.3 782.5,865.9 786,874M487,861C492.5,853.6 497.6,840.3 493,828C488.6,830.8 491.3,852.4 487,861M730,844C783.5,859.5 771.4,803 730,823C727.3,825.9 708.2,826.2 717,829C724.3,828.3 731.2,831 735,831C766.3,822.9 741.7,841.2 730,844M807,820C827.9,822 855.8,814.4 852,807C833.3,801.9 811,818 807,820M708,819C722.4,814.5 783,807.1 735,807C715.2,827.5 675.6,785.8 708,819M669,805C682,789.5 694.7,773.2 703,753C688.9,767.4 677.1,784.6 669,805M772,804C773.6,798 768.4,787.3 768,778C763.1,788.3 769.3,798 772,804M349,793C350,780.5 338.7,769.8 330,762C332.9,771.7 342.6,783.9 349,793M867,792C869.8,778.6 862.1,763 855,757C854.8,768.4 865.8,780.5 867,792M396,787C406.7,780.9 390.2,758.7 384,751C377.5,739.6 363.9,728.4 369,709C377.7,700 380.9,667 360,682C349.7,689.7 362.4,714.3 360,730C359.6,740.1 342.8,742.3 339,721C327.8,731.6 340.2,752.8 357,751C381.3,750.3 371.5,772.5 384,781C391.7,784.6 382.7,754.8 396,787M448,787C451.2,770.1 450.4,747.1 445,733C442.4,751.3 446.3,771.2 448,787M424,706C418.5,696.3 414.6,681.1 415,666C420.3,677.4 420.7,696.1 424,706M1011,678C1020.1,666.2 1014.4,649.8 1015,631C1013.9,617.2 1012.7,594 1014,583C1024.4,558.9 1032.8,532.3 1038,502C1041.8,472.3 1046.9,444.8 1045,414C1036.5,388.2 1051.2,352.3 1035,328C1021.9,318.8 1026.6,302.9 1036,294C1045.6,279.2 1017.4,279 1009,274C1033,260.9 1002.8,226.8 996,207C998.2,187.3 1002.1,218.3 1002,210C1004.7,186.3 988.1,173.6 982,154C977.6,124.4 986,81 939,93C925.8,94.6 961.1,99.8 964,106C968.1,113.7 971.8,148.6 966,145C962.6,140.5 961.6,129.8 964,123C971.4,114.8 936.4,137.1 927,142C923.2,159.7 865.5,192.6 921,175C931.9,151.6 974.4,148.7 957,193C960.8,206.2 972.2,172.2 964,165C975.5,166.1 976.1,191.3 970,199L957,213C951.5,213.6 945.2,216.9 942,217C922.8,236.9 961.6,204.7 948,234C936.7,240.9 862.2,240.3 888,219C891.8,215.6 902.4,212.2 900,207C858,215.5 888.6,190.8 913,202C945.4,206.3 910.2,195.9 901,193C878.9,184.8 943.2,188.7 918,184C884.2,178.5 865.9,214.1 853,210L867,196C893.6,178.4 875.8,176.8 892,165C913.4,127.1 850.2,192.6 858,169C847.8,153.4 855.4,196.9 847,201C842.4,215.9 843.1,225.1 843,204C846.8,198.8 846,189 849,183C845.3,148.6 838.8,231 829,199C830.4,191.4 822.1,185.6 826,178C830.4,176.3 831.5,167.8 831,163C827.4,187.6 825.2,145.9 819,180C829.2,212.4 805.3,227.2 780,237C754.9,247.7 791.3,238.5 798,234C815.6,237.7 815.1,208.1 829,219C831.6,224.9 839.4,232.1 829,234C801.4,225.1 848.3,248.9 858,250C875.1,252.7 924,282.7 918,265C939.3,270.1 955.9,293.6 969,313C975.7,324.8 981.5,337 987,349C992.9,360.9 997.4,376.3 1000,388C1005.3,418.7 1011.7,447.3 1011,483C1010.5,517.5 1005.9,547.9 1006,583C1003.2,612.5 1009.6,645.2 1011,678M357,666C368.1,666.4 345.6,654.6 351,658C336,664.5 350.7,664.1 357,666M364,666C363.3,659 358.4,645.4 354,637C352.3,647.4 355.6,662.6 364,666M1020,654C1022,642.7 1022,623.3 1020,612C1017.6,623.7 1018.1,642.5 1020,654M717,643C726,629.8 709.7,607.8 700,601C702.6,605.2 714.3,630.3 717,643M892,643C905.6,642.9 902.2,638.3 894,639C878.7,637.3 882,642 892,643M969,631C961.6,615.8 942.3,595.3 921,588C896,577.8 855.9,581.8 864,618C879.4,637.3 929.7,630.6 916,597C931.4,599 944.3,628 969,631M894,622C874.1,625 860.1,592.5 888,592C915.1,580.7 913.7,622.6 894,622M853,621C857.6,616.5 841.1,608.5 838,604C836.1,607.3 849.4,618.4 853,621M628,619C653.1,631.9 669.1,580.7 652,595C656.4,625.2 601,608.7 624,594C664.9,609.6 604.2,566.7 649,583C676,575.1 680.4,618.1 693,603C683.9,586.1 667.9,576.1 642,576C615.9,575.9 599.8,585.8 585,597C555.6,606.9 567,624.4 589,604C611.4,576.4 604.7,617.6 628,619M978,618C976.1,595.7 959.5,569.1 939,559C925.4,544.2 871.4,537.6 870,558C844.8,582 910.7,543.1 928,564C957.2,569.8 960.6,602.7 978,618M724,613C725.9,591.7 714.7,572.1 703,561C686.9,552.3 670.6,541 648,540C626,543.4 605.4,550.4 592,561C577,570.5 566.9,585.4 553,597C538.3,619.4 576.3,585.1 579,579C591.8,566.4 608,555 633,556C653.5,561.4 673.1,569.4 688,577C705.2,584 711.4,607.6 724,613M825,600C823.4,595.9 822,578 823,568C815.5,575.9 816.4,593.9 825,600M849,555C856.1,553 866.1,550.5 870,547C859.8,546.4 852,551.1 849,555M1021,537C1015.9,527.8 1019.8,466 1026,490C1024.7,501.2 1028.3,502.3 1029,495C1030.7,499 1023.5,526.3 1021,537M781,531C787.6,524.1 786.2,509.7 787,498C784.1,507.6 781.3,517.8 781,531M292,472C285.9,461.1 295.1,445.9 295,433C301.2,443.3 293.1,460.4 292,472M1018,424C1008.7,409.3 1008.9,384.1 1002,366C995.9,347.8 988.9,328.1 981,313C970,299.5 960.2,284.3 946,273C937.9,257.3 910,258.5 892,253C853.3,239.7 898.2,248.1 919,247C937.3,254 954.4,263.6 967,273C1004.4,291.5 946.8,250.4 967,256C1002.9,280.4 966.9,244.6 969,247C977.4,226.8 983.6,234.3 991,231C975.8,196.1 999.2,240 1005,246C1000.5,267 1002.7,280.7 1012,292C1020.5,303.2 1007.3,323.5 1000,291C994.6,291.6 998.3,326.2 1009,336C1020.7,338.2 1034.1,391.5 1018,361C1002.4,335.5 999.4,340.1 1012,366C1029.1,383 1013.2,402 1018,424M432,357C428.6,333.6 446.7,323.5 456,309C469.4,298 479.4,281.4 490,270C488.2,287.7 469.4,297.1 459,310C450.1,326 437.1,339.6 432,357M697,264C708.4,263.5 728.8,258.4 706,259C695.9,259.7 680.1,257.5 697,264M909,244C901.4,245.9 881.9,241.7 895,241C904.6,241.2 922.6,241.3 909,244M352,225C355.4,211.1 371.7,201.8 384,193C396.7,184.9 422.3,186.7 435,180C430.5,192.3 412.9,200.3 393,201C377,206.3 366.1,219.2 352,225M738,225C725,215 721.7,195.3 717,177C714.1,155.4 704.7,144.9 712,121C718,104 725.6,88.6 735,75C738,72 741,69 744,66C776.7,62.4 746,70.4 748,84C740.4,98.9 732.9,114.4 732,136C721.3,178.3 726.3,112.4 724,117C711.7,133.1 720.2,153.2 724,171C731.1,186.7 731.4,211.2 738,225M631,202C624.6,193.2 613.6,181.1 616,166C619.2,176.3 626.2,191.3 631,202M934,198C943.7,197.2 948.7,192.2 949,183C945.8,189.3 938,191.5 934,198M699,193C692,167.7 697.7,135.2 708,118C708.6,139.5 696.5,163.3 699,193M886,181C906.2,166.7 919.8,144 934,126C911.8,137.7 900.2,162.5 886,181M402,178C408.2,165 457.3,168.3 457,139C462.9,164.6 424.7,172.2 402,178M760,171C752.3,168.6 761.7,148.9 760,142C766.1,145.8 760.1,162.8 760,171M741,168C735.2,146.4 736.5,112.7 748,100C746.6,81.3 777,58.3 778,67C764.3,77.9 757.6,104.4 754,118C765.1,102.7 781.7,90.7 795,79C838.4,56.7 792.4,84.9 804,88C821.4,92 772.6,101.4 771,115C768.8,116.8 761.2,126.4 768,127C777.4,119.7 773,175.6 763,141C755.9,106.1 744,156.8 741,168M456,162C454.6,158.3 468.4,137.5 474,130C487.6,124.8 490.3,105.7 505,103C509.9,110.3 488.2,123.1 484,132C478.3,145.1 464,152.6 456,162M912,120C908.5,124.4 914.6,103.4 912,97C918,102.8 917.3,117.5 912,120M664,88C674.9,77.6 692,70.9 702,61C687.8,68.6 669.2,73.8 664,88M712,57C733.3,54.6 710.4,38.7 708,42C688.8,50.1 700.1,52.6 712,57Z" fill="#2c0515"/>
</g>
</svg>
