<svg xmlns="http://www.w3.org/2000/svg" viewBox="0 0 332.47 137.36"><defs><style>.a,.b,.c{fill:none;}.b{stroke:#fff;}.c{stroke:#e11e1c;stroke-opacity:0;}.d{fill:#64c4ef;}.e{fill:#58c0e4;}.f{fill:#3bbced;}.g{fill:#0096cc;}.h{fill:#3dbced;}.i{fill:#03779b;}.j{fill:#06a2db;}.k{isolation:isolate;}.l{fill:#fff;}.m{fill:#015c7a;fill-rule:evenodd;}.n{fill:#4b4a4a;}</style></defs><title>splitfr</title><path class="a" d="M240.71,100.77C240.71,54.52,203,17,156.5,17" transform="translate(-19.39 -16.57)"/><path class="a" d="M188.67,152.53a51.9,51.9,0,0,0,52.05-51.76" transform="translate(-19.39 -16.57)"/><path class="a" d="M156.5,120.53a32.09,32.09,0,0,0,32.17,32" transform="translate(-19.39 -16.57)"/><path class="a" d="M156.5,120.53a19.82,19.82,0,0,1,19.87-19.76" transform="translate(-19.39 -16.57)"/><path class="a" d="M188.67,113a12.17,12.17,0,0,0-3.6-8.65,12.31,12.31,0,0,0-8.7-3.59" transform="translate(-19.39 -16.57)"/><path class="a" d="M188.67,113a7.5,7.5,0,0,1-2.21,5.32,7.6,7.6,0,0,1-5.35,2.2" transform="translate(-19.39 -16.57)"/><path class="b" d="M176.37,115.83a4.71,4.71,0,0,0,4.73,4.7" transform="translate(-19.39 -16.57)"/><path class="b" d="M176.37,115.83a2.83,2.83,0,0,1,2.84-2.82" transform="translate(-19.39 -16.57)"/><path class="c" d="M179.35,115.83V113" transform="translate(-19.39 -16.57)"/><path class="c" d="M181.1,117.66h-4.73" transform="translate(-19.39 -16.57)"/><path class="c" d="M179.21,115h1.89" transform="translate(-19.39 -16.57)"/><path class="c" d="M180.3,114.89v.94" transform="translate(-19.39 -16.57)"/><path class="b" d="M181.24,113v7.52" transform="translate(-19.39 -16.57)"/><path class="a" d="M176.37,113.14h12.3" transform="translate(-19.39 -16.57)"/><path class="a" d="M176.51,120.53V100.77" transform="translate(-19.39 -16.57)"/><path class="a" d="M188.67,120.67H156.5" transform="translate(-19.39 -16.57)"/><path class="a" d="M188.81,100.77v51.76" transform="translate(-19.39 -16.57)"/><path class="a" d="M156.5,100.86h84.26" transform="translate(-19.39 -16.57)"/><path class="a" d="M156.64,152.53V17" transform="translate(-19.39 -16.57)"/><path class="c" d="M181.1,114.89a1.88,1.88,0,0,0-1.89-1.88" transform="translate(-19.39 -16.57)"/><path class="c" d="M181.11,114.89a.91.91,0,0,1-.28.66,1,1,0,0,1-.67.28" transform="translate(-19.39 -16.57)"/><path class="c" d="M179.21,114.89a.91.91,0,0,0,.28.66,1,1,0,0,0,.67.28" transform="translate(-19.39 -16.57)"/><path class="d" d="M157.57,58.23V16.66l2.56.1a84.08,84.08,0,0,1,34.54,8.76A80.69,80.69,0,0,1,216.6,41.31a82.69,82.69,0,0,1,24.32,55.11l.14,3.41H199.32l-41.75,0Z" transform="translate(-19.39 -16.57)"/><path class="e" d="M189.61,126.6l0-25.58H241v1.41a52.19,52.19,0,0,1-2.63,14.51,51.64,51.64,0,0,1-20,26.3,52.33,52.33,0,0,1-26.52,8.81l-2.24.14Z" transform="translate(-19.39 -16.57)"/><path class="f" d="M181.42,116.64v-3.49h6.81l-.13,1a7.3,7.3,0,0,1-5.79,5.88l-.89.14Z" transform="translate(-19.39 -16.57)"/><path class="g" d="M186.21,152a34.17,34.17,0,0,1-14.46-4.8c-8.45-5.38-14.11-14.75-14.66-24.26l-.13-2.23,15.72,0,15.71,0v31.37l-.71,0-1.47-.11Z" transform="translate(-19.39 -16.57)"/><path class="h" d="M157,119.23c0-3.88,2.29-9,5.52-12.21s8.71-5.79,12.82-5.79h.84l0,9.54,0,9.53H157Z" transform="translate(-19.39 -16.57)"/><path class="i" d="M176.63,107v-5.73h.61c2.23,0,5.49,1.52,7.47,3.48a11.87,11.87,0,0,1,3.46,7.31v.71l-5.78,0-5.77,0Z" transform="translate(-19.39 -16.57)"/><path class="j" d="M154.82,16.57Q94.93,17,58.92,55.62T19.39,153.86l67.54.07h67.89l0-68Q154.36,63.11,154.82,16.57Z" transform="translate(-19.39 -16.57)"/><g class="k"><g class="k"><path class="l" d="M198.44,109.44c0,1.41-1.06,2.28-2.74,2.28h-1.27v1.74H193v-6.3h2.73C197.38,107.16,198.44,108,198.44,109.44Zm-1.48,0c0-.69-.45-1.09-1.34-1.09h-1.19v2.18h1.19C196.51,110.53,197,110.13,197,109.44Z" transform="translate(-19.39 -16.57)"/><path class="l" d="M199,111a2.67,2.67,0,1,1,2.67,2.49A2.5,2.5,0,0,1,199,111Zm3.9,0a1.24,1.24,0,1,0-1.23,1.34A1.22,1.22,0,0,0,202.9,111Z" transform="translate(-19.39 -16.57)"/><path class="l" d="M204.9,111a2.67,2.67,0,1,1,2.66,2.49A2.49,2.49,0,0,1,204.9,111Zm3.89,0a1.24,1.24,0,1,0-1.23,1.34A1.22,1.22,0,0,0,208.79,111Z" transform="translate(-19.39 -16.57)"/><path class="l" d="M211.15,106.78h1.41v6.68h-1.41Z" transform="translate(-19.39 -16.57)"/></g><g class="k"><path class="l" d="M197,124.46l-1.22-1.76h-1.34v1.76H193v-6.3h2.73c1.68,0,2.74.87,2.74,2.28a2,2,0,0,1-1.3,2l1.41,2Zm-1.37-5.11h-1.19v2.19h1.19c.89,0,1.34-.41,1.34-1.1S196.51,119.35,195.62,119.35Z" transform="translate(-19.39 -16.57)"/><path class="l" d="M204.2,122.43h-3.66a1.29,1.29,0,0,0,1.39,1,1.65,1.65,0,0,0,1.21-.47l.75.81a2.55,2.55,0,0,1-2,.78,2.51,2.51,0,0,1-2.76-2.49,2.47,2.47,0,0,1,2.58-2.5,2.4,2.4,0,0,1,2.52,2.52C204.23,122.16,204.21,122.32,204.2,122.43Zm-3.68-.82h2.39a1.21,1.21,0,0,0-2.39,0ZM202,119h-1.1l1.22-1.29h1.51Z" transform="translate(-19.39 -16.57)"/><path class="l" d="M204.7,124l.47-1a3.27,3.27,0,0,0,1.68.47c.65,0,.89-.17.89-.44,0-.79-2.93,0-2.93-1.92,0-.92.83-1.57,2.25-1.57a4,4,0,0,1,1.86.43l-.47,1a2.77,2.77,0,0,0-1.39-.36c-.63,0-.9.19-.9.45,0,.82,2.92,0,2.92,1.93,0,.9-.84,1.54-2.29,1.54A4.12,4.12,0,0,1,204.7,124Z" transform="translate(-19.39 -16.57)"/><path class="l" d="M214.66,122.43H211a1.29,1.29,0,0,0,1.38,1,1.66,1.66,0,0,0,1.22-.47l.75.81a2.55,2.55,0,0,1-2,.78,2.51,2.51,0,0,1-2.77-2.49,2.47,2.47,0,0,1,2.59-2.5,2.4,2.4,0,0,1,2.52,2.52C214.69,122.16,214.67,122.32,214.66,122.43Zm-3.68-.82h2.39a1.21,1.21,0,0,0-2.39,0Z" transform="translate(-19.39 -16.57)"/><path class="l" d="M219.77,121.7v2.76h-1.31v-.6a1.6,1.6,0,0,1-1.48.67c-1.13,0-1.81-.63-1.81-1.47s.61-1.45,2.08-1.45h1.12c0-.6-.36-1-1.12-1a2.31,2.31,0,0,0-1.39.45l-.51-1a3.72,3.72,0,0,1,2.09-.59C218.92,119.54,219.77,120.23,219.77,121.7Zm-1.4,1.23v-.5h-1c-.66,0-.87.25-.87.57s.3.59.79.59A1,1,0,0,0,218.37,122.93Z" transform="translate(-19.39 -16.57)"/><path class="l" d="M225.92,119.62v4.84h-1.33v-.58a2.07,2.07,0,0,1-3.58-1.53v-2.73h1.41v2.53c0,.81.36,1.17,1,1.17s1.12-.42,1.12-1.31v-2.39Z" transform="translate(-19.39 -16.57)"/></g><g class="k"><path class="l" d="M195,129.16v6.3h-1.45v-5.13h-1.26v-1.17Z" transform="translate(-19.39 -16.57)"/><path class="l" d="M201.87,134.14h-1v1.32h-1.43v-1.32H196v-1l3-4h1.53L197.78,133h1.69v-1.18h1.38V133h1Z" transform="translate(-19.39 -16.57)"/><path class="l" d="M202.44,134.65a.87.87,0,1,1,.87.88A.86.86,0,0,1,202.44,134.65Z" transform="translate(-19.39 -16.57)"/><path class="l" d="M209.93,133.47a2.17,2.17,0,0,1-2.39,2.1c-1.74,0-2.82-1.09-2.82-3.13a3.07,3.07,0,0,1,3.22-3.39,3.39,3.39,0,0,1,1.75.43l-.54,1.07a2.09,2.09,0,0,0-1.18-.31,1.68,1.68,0,0,0-1.77,1.83,2.13,2.13,0,0,1,1.56-.56A2,2,0,0,1,209.93,133.47Zm-1.42.07a.94.94,0,0,0-1.07-.94,1,1,0,0,0-1.09.94c0,.54.41.94,1.11.94A.94.94,0,0,0,208.51,133.54Z" transform="translate(-19.39 -16.57)"/><path class="l" d="M210.17,130.82a1.57,1.57,0,1,1,1.57,1.74A1.57,1.57,0,0,1,210.17,130.82Zm2.22,0c0-.67-.26-1-.65-1s-.66.34-.66,1,.27,1,.66,1S212.39,131.5,212.39,130.82Zm3.1-1.66h1.07l-4.3,6.3h-1.07Zm-1,4.63a1.57,1.57,0,1,1,1.56,1.74A1.56,1.56,0,0,1,214.45,133.79Zm2.22,0c0-.66-.26-1-.66-1s-.66.33-.66,1,.27,1,.66,1S216.67,134.46,216.67,133.79Z" transform="translate(-19.39 -16.57)"/></g></g><path class="m" d="M181.17,113.16c-3,.19-4.53,1.31-4.53,3.38s1.51,3.28,4.53,3.66Z" transform="translate(-19.39 -16.57)"/><g class="k"><g class="k"><path class="l" d="M166.61,77.24v1.45h-5.82V77.54l3-2.81c.68-.65.8-1,.8-1.42,0-.6-.42-1-1.23-1a1.89,1.89,0,0,0-1.6.77l-1.3-.84a3.59,3.59,0,0,1,3.06-1.43c1.72,0,2.86.88,2.86,2.28a3.08,3.08,0,0,1-1.28,2.43l-1.78,1.67Z" transform="translate(-19.39 -16.57)"/><path class="l" d="M173,76.34c0,1.3-1,2.49-3.19,2.49A5.29,5.29,0,0,1,166.9,78l.7-1.36a3.72,3.72,0,0,0,2.2.69c.89,0,1.44-.36,1.44-1s-.43-1-1.44-1H169V74.22l1.59-1.8h-3.28V71h5.39v1.16l-1.74,2A2.19,2.19,0,0,1,173,76.34Z" transform="translate(-19.39 -16.57)"/><path class="l" d="M173.8,77.7a1.07,1.07,0,0,1,2.13,0,1.07,1.07,0,1,1-2.13,0Z" transform="translate(-19.39 -16.57)"/><path class="l" d="M183,76.26A2.65,2.65,0,0,1,180,78.83c-2.13,0-3.45-1.34-3.45-3.82,0-2.66,1.61-4.15,3.93-4.15a4.17,4.17,0,0,1,2.15.53L182,72.7a2.53,2.53,0,0,0-1.45-.39,2,2,0,0,0-2.16,2.24,2.56,2.56,0,0,1,1.9-.69A2.44,2.44,0,0,1,183,76.26Zm-1.72.09a1.16,1.16,0,0,0-1.31-1.15,1.2,1.2,0,0,0-1.34,1.15c0,.66.5,1.14,1.36,1.14A1.15,1.15,0,0,0,181.23,76.35Z" transform="translate(-19.39 -16.57)"/><path class="l" d="M183.25,73a1.92,1.92,0,1,1,1.91,2.12A1.92,1.92,0,0,1,183.25,73ZM186,73c0-.83-.32-1.22-.81-1.22s-.8.4-.8,1.22.33,1.22.8,1.22S186,73.85,186,73Zm3.78-2h1.31l-5.26,7.7h-1.31Zm-1.27,5.67a1.92,1.92,0,1,1,1.91,2.12A1.92,1.92,0,0,1,188.48,76.66Zm2.71,0c0-.82-.32-1.22-.8-1.22s-.81.39-.81,1.22.34,1.22.81,1.22S191.19,77.47,191.19,76.66Z" transform="translate(-19.39 -16.57)"/></g><g class="k"><path class="l" d="M166.24,92.69l-1.48-2.14h-1.64v2.14h-1.78V85h3.33c2.06,0,3.34,1.07,3.34,2.8a2.51,2.51,0,0,1-1.58,2.43l1.73,2.47Zm-1.67-6.25h-1.45v2.69h1.45c1.09,0,1.64-.51,1.64-1.34S165.66,86.44,164.57,86.44Z" transform="translate(-19.39 -16.57)"/><path class="l" d="M175.07,90.22h-4.48a1.57,1.57,0,0,0,1.69,1.19,2,2,0,0,0,1.49-.58l.91,1a3.45,3.45,0,0,1-5.82-2.09,3,3,0,0,1,3.16-3,2.93,2.93,0,0,1,3.08,3.07C175.1,89.89,175.08,90.08,175.07,90.22Zm-4.5-1h2.91a1.47,1.47,0,0,0-2.91,0Zm1.76-3.2H171l1.49-1.59h1.85Z" transform="translate(-19.39 -16.57)"/><path class="l" d="M181.31,89.32v3.37h-1.6V92a2,2,0,0,1-1.81.82c-1.38,0-2.21-.77-2.21-1.79s.74-1.77,2.54-1.77h1.37c0-.74-.44-1.17-1.37-1.17a2.85,2.85,0,0,0-1.7.55l-.62-1.2a4.57,4.57,0,0,1,2.55-.71C180.27,86.69,181.31,87.52,181.31,89.32Zm-1.71,1.5v-.6h-1.18c-.8,0-1.06.29-1.06.69s.37.72,1,.72A1.28,1.28,0,0,0,179.6,90.82Z" transform="translate(-19.39 -16.57)"/><path class="l" d="M182.86,84.53h1.72v8.16h-1.72Z" transform="translate(-19.39 -16.57)"/><path class="l" d="M186,85A1,1,0,0,1,187,84a1,1,0,0,1,1.07.92A1.07,1.07,0,0,1,186,85Zm.21,1.78h1.72v5.92h-1.72Z" transform="translate(-19.39 -16.57)"/><path class="l" d="M188.91,92.14l.57-1.23a4.09,4.09,0,0,0,2.06.57c.79,0,1.09-.21,1.09-.54,0-1-3.57,0-3.57-2.34,0-1.12,1-1.91,2.74-1.91a4.85,4.85,0,0,1,2.27.51l-.57,1.22a3.4,3.4,0,0,0-1.7-.44c-.77,0-1.1.25-1.1.56,0,1,3.57,0,3.57,2.36,0,1.1-1,1.88-2.79,1.88A5,5,0,0,1,188.91,92.14Z" transform="translate(-19.39 -16.57)"/><path class="l" d="M200.56,89.32v3.37H199V92a2,2,0,0,1-1.81.82c-1.38,0-2.21-.77-2.21-1.79s.74-1.77,2.54-1.77h1.37c0-.74-.44-1.17-1.37-1.17a2.83,2.83,0,0,0-1.7.55l-.62-1.2a4.57,4.57,0,0,1,2.55-.71C199.52,86.69,200.56,87.52,200.56,89.32Zm-1.71,1.5v-.6h-1.18c-.8,0-1.06.29-1.06.69s.37.72,1,.72A1.28,1.28,0,0,0,198.85,90.82Z" transform="translate(-19.39 -16.57)"/><path class="l" d="M205.93,92.41a2.48,2.48,0,0,1-1.4.37,2,2,0,0,1-2.21-2.12V88.23h-.91V86.91h.91V85.46H204v1.45h1.47v1.32H204v2.41a.69.69,0,0,0,.74.78,1.18,1.18,0,0,0,.69-.22Z" transform="translate(-19.39 -16.57)"/><path class="l" d="M206.69,85a1,1,0,0,1,1.07-.95,1,1,0,0,1,1.06.92,1.07,1.07,0,0,1-2.13,0Zm.21,1.78h1.71v5.92H206.9Z" transform="translate(-19.39 -16.57)"/><path class="l" d="M209.77,89.73a3.26,3.26,0,1,1,3.25,3A3,3,0,0,1,209.77,89.73Zm4.76,0A1.52,1.52,0,1,0,213,91.37,1.5,1.5,0,0,0,214.53,89.73Z" transform="translate(-19.39 -16.57)"/><path class="l" d="M223.46,89.3v3.39h-1.71V89.57c0-1-.44-1.4-1.2-1.4s-1.42.51-1.42,1.6v2.92h-1.72V86.77h1.64v.7a2.6,2.6,0,0,1,2-.78A2.31,2.31,0,0,1,223.46,89.3Z" transform="translate(-19.39 -16.57)"/><path class="l" d="M224.44,92.14l.57-1.23a4.09,4.09,0,0,0,2.06.57c.79,0,1.09-.21,1.09-.54,0-1-3.57,0-3.57-2.34,0-1.12,1-1.91,2.74-1.91a4.85,4.85,0,0,1,2.27.51L229,88.42a3.4,3.4,0,0,0-1.7-.44c-.77,0-1.1.25-1.1.56,0,1,3.57,0,3.57,2.36,0,1.1-1,1.88-2.79,1.88A5,5,0,0,1,224.44,92.14Z" transform="translate(-19.39 -16.57)"/></g></g><g class="k"><g class="k"><path class="l" d="M108.9,96.6c0,2-1.55,3.85-4.93,3.85a8.13,8.13,0,0,1-4.54-1.28l1.07-2.11a5.78,5.78,0,0,0,3.4,1.07c1.38,0,2.23-.56,2.23-1.53s-.67-1.46-2.23-1.46h-1.26V93.32l2.45-2.77H100V88.34h8.33v1.79l-2.68,3.06C107.81,93.53,108.9,94.85,108.9,96.6Z" transform="translate(-19.39 -16.57)"/><path class="l" d="M120.13,96.79c0,2.24-2,3.66-5,3.66s-5-1.42-5-3.66a3,3,0,0,1,1.81-2.8,2.75,2.75,0,0,1-1.38-2.45c0-2.09,1.87-3.4,4.57-3.4s4.61,1.31,4.61,3.4A2.78,2.78,0,0,1,118.32,94,3,3,0,0,1,120.13,96.79Zm-2.78-.08c0-1.06-.87-1.7-2.25-1.7s-2.21.64-2.21,1.7.85,1.71,2.21,1.71S117.35,97.76,117.35,96.71Zm-4.08-5c0,.9.71,1.46,1.83,1.46s1.87-.56,1.87-1.46-.75-1.5-1.87-1.5S113.27,90.72,113.27,91.66Z" transform="translate(-19.39 -16.57)"/><path class="l" d="M121.48,98.71a1.65,1.65,0,0,1,3.3,0,1.65,1.65,0,1,1-3.3,0Z" transform="translate(-19.39 -16.57)"/><path class="l" d="M135.08,98v2.24h-9V98.46l4.59-4.34c1.06-1,1.25-1.61,1.25-2.19,0-.94-.65-1.48-1.91-1.48a2.89,2.89,0,0,0-2.46,1.19l-2-1.29a5.51,5.51,0,0,1,4.73-2.21c2.65,0,4.42,1.36,4.42,3.52,0,1.15-.33,2.21-2,3.75L130,98Z" transform="translate(-19.39 -16.57)"/><path class="l" d="M136.18,91.49a3,3,0,0,1,3-3.28c1.73,0,2.94,1.25,2.94,3.28s-1.21,3.28-2.94,3.28A3,3,0,0,1,136.18,91.49Zm4.2,0c0-1.28-.49-1.89-1.24-1.89s-1.24.63-1.24,1.89.51,1.88,1.24,1.88S140.38,92.76,140.38,91.49Zm5.85-3.15h2l-8.12,11.9h-2Zm-2,8.76a3,3,0,1,1,2.94,3.28A3,3,0,0,1,144.27,97.1Zm4.19,0c0-1.26-.5-1.89-1.25-1.89S146,95.82,146,97.1s.51,1.88,1.24,1.88S148.46,98.35,148.46,97.1Z" transform="translate(-19.39 -16.57)"/></g><g class="k"><path class="l" d="M75.1,108.34,70,120.24H67.23l-5.13-11.9h3l3.62,8.5,3.67-8.5Z" transform="translate(-19.39 -16.57)"/><path class="l" d="M84.13,116.42H77.21a2.44,2.44,0,0,0,2.62,1.83,3.11,3.11,0,0,0,2.29-.88l1.41,1.53a4.78,4.78,0,0,1-3.77,1.48c-3.16,0-5.22-2-5.22-4.71A4.65,4.65,0,0,1,79.42,111a4.52,4.52,0,0,1,4.76,4.74C84.18,115.91,84.15,116.2,84.13,116.42Zm-6.95-1.55h4.5a2.28,2.28,0,0,0-4.5,0Z" transform="translate(-19.39 -16.57)"/><path class="l" d="M95.3,115v5.23H92.65v-4.83c0-1.48-.68-2.16-1.86-2.16s-2.19.79-2.19,2.47v4.52H86V111.1h2.53v1.07a4,4,0,0,1,3-1.21C93.67,111,95.3,112.22,95.3,115Z" transform="translate(-19.39 -16.57)"/><path class="l" d="M103.59,119.8a3.78,3.78,0,0,1-2.16.58c-2.15,0-3.41-1.11-3.41-3.28v-3.76H96.61v-2H98v-2.23h2.65v2.23H103v2h-2.28v3.72a1.07,1.07,0,0,0,1.14,1.21,1.8,1.8,0,0,0,1.07-.34Z" transform="translate(-19.39 -16.57)"/><path class="l" d="M113.71,116.42h-6.92a2.43,2.43,0,0,0,2.62,1.83,3.11,3.11,0,0,0,2.29-.88l1.41,1.53a4.78,4.78,0,0,1-3.77,1.48c-3.16,0-5.22-2-5.22-4.71A4.65,4.65,0,0,1,109,111a4.52,4.52,0,0,1,4.76,4.74C113.76,115.91,113.73,116.2,113.71,116.42Zm-6.95-1.55h4.5a2.28,2.28,0,0,0-4.5,0Z" transform="translate(-19.39 -16.57)"/><path class="l" d="M129.65,107.63v12.61h-2.53v-1a3.5,3.5,0,0,1-2.85,1.19,4.71,4.71,0,0,1,0-9.42,3.49,3.49,0,0,1,2.73,1.11v-4.44Zm-2.6,8a2.34,2.34,0,1,0-2.33,2.53A2.32,2.32,0,0,0,127.05,115.67Z" transform="translate(-19.39 -16.57)"/><path class="l" d="M141,116.42h-6.92a2.44,2.44,0,0,0,2.62,1.83,3.09,3.09,0,0,0,2.29-.88l1.42,1.53a4.81,4.81,0,0,1-3.78,1.48c-3.16,0-5.22-2-5.22-4.71A4.65,4.65,0,0,1,136.3,111a4.52,4.52,0,0,1,4.76,4.74C141.06,115.91,141,116.2,141,116.42Zm-6.95-1.55h4.5a2.28,2.28,0,0,0-4.5,0Z" transform="translate(-19.39 -16.57)"/><path class="l" d="M142,119.39l.88-1.9a6.35,6.35,0,0,0,3.18.88c1.22,0,1.68-.32,1.68-.83,0-1.5-5.52,0-5.52-3.62,0-1.74,1.56-3,4.23-3a7.53,7.53,0,0,1,3.52.8l-.89,1.89a5.24,5.24,0,0,0-2.63-.68c-1.19,0-1.7.37-1.7.85,0,1.56,5.52.05,5.52,3.65,0,1.7-1.58,2.91-4.31,2.91A7.85,7.85,0,0,1,142,119.39Z" transform="translate(-19.39 -16.57)"/></g><g class="k"><path class="l" d="M46.66,138.71l1.53-1.83a2.74,2.74,0,0,0,2.21,1.3c1.11,0,1.68-.66,1.68-2v-5.66H47.9v-2.21h6.92v7.72c0,2.94-1.48,4.39-4.28,4.39A4.81,4.81,0,0,1,46.66,138.71Z" transform="translate(-19.39 -16.57)"/><path class="l" d="M66.26,136.42H59.34A2.44,2.44,0,0,0,62,138.25a3.09,3.09,0,0,0,2.29-.88l1.42,1.53a4.8,4.8,0,0,1-3.78,1.48c-3.16,0-5.22-2-5.22-4.71A4.65,4.65,0,0,1,61.55,131a4.52,4.52,0,0,1,4.76,4.74C66.31,135.91,66.28,136.2,66.26,136.42Zm-7-1.55h4.5a2.28,2.28,0,0,0-4.5,0Z" transform="translate(-19.39 -16.57)"/><path class="l" d="M74,139.8a3.78,3.78,0,0,1-2.16.58c-2.16,0-3.42-1.11-3.42-3.28v-3.76H67v-2H68.4v-2.23h2.66v2.23h2.27v2H71.06v3.72a1.07,1.07,0,0,0,1.13,1.21,1.8,1.8,0,0,0,1.08-.34Z" transform="translate(-19.39 -16.57)"/><path class="l" d="M74.51,135.67a5,5,0,1,1,5,4.71A4.71,4.71,0,0,1,74.51,135.67Zm7.36,0a2.35,2.35,0,1,0-2.33,2.53A2.31,2.31,0,0,0,81.87,135.67Z" transform="translate(-19.39 -16.57)"/><path class="l" d="M95.67,135v5.23H93v-4.83c0-1.48-.68-2.16-1.85-2.16S89,134,89,135.72v4.52H86.32V131.1h2.53v1.07a4,4,0,0,1,3-1.21C94,131,95.67,132.22,95.67,135Z" transform="translate(-19.39 -16.57)"/><path class="l" d="M97.18,139.39l.89-1.9a6.32,6.32,0,0,0,3.18.88c1.22,0,1.68-.32,1.68-.83,0-1.5-5.52,0-5.52-3.62,0-1.74,1.56-3,4.23-3a7.53,7.53,0,0,1,3.52.8l-.89,1.89a5.24,5.24,0,0,0-2.63-.68c-1.19,0-1.7.37-1.7.85,0,1.56,5.52.05,5.52,3.65,0,1.7-1.58,2.91-4.31,2.91A7.89,7.89,0,0,1,97.18,139.39Z" transform="translate(-19.39 -16.57)"/><path class="l" d="M112,135v-6.67h2.75v6.56c0,2.26,1,3.2,2.66,3.2s2.65-.94,2.65-3.2v-6.56h2.72V135c0,3.5-2,5.44-5.39,5.44S112,138.51,112,135Z" transform="translate(-19.39 -16.57)"/><path class="l" d="M124.74,134.29a6.55,6.55,0,0,1,11.36-4l-1.77,1.63a3.83,3.83,0,0,0-3-1.4,3.81,3.81,0,0,0,0,7.62,3.8,3.8,0,0,0,3-1.41l1.77,1.63a6.54,6.54,0,0,1-11.36-4Z" transform="translate(-19.39 -16.57)"/><path class="l" d="M137,134.29a6.16,6.16,0,0,1,6.51-6.15c3.74,0,6.51,2.6,6.51,6.15a6.52,6.52,0,0,1-13,0Zm10.23,0a3.73,3.73,0,1,0-3.72,3.81A3.63,3.63,0,0,0,147.18,134.29Z" transform="translate(-19.39 -16.57)"/></g></g><g class="k"><g class="k"><path class="n" d="M254.43,129.39c0,1.06-.82,2-2.61,2a4.4,4.4,0,0,1-2.41-.68l.57-1.12a3,3,0,0,0,1.8.57c.73,0,1.18-.29,1.18-.81s-.35-.77-1.18-.77h-.66v-1l1.29-1.46h-2.68V125h4.41V126l-1.42,1.62A1.79,1.79,0,0,1,254.43,129.39Z" transform="translate(-19.39 -16.57)"/><path class="n" d="M255.06,130.51a.87.87,0,0,1,1.74,0,.87.87,0,1,1-1.74,0Z" transform="translate(-19.39 -16.57)"/><path class="n" d="M263.23,130h-1v1.32h-1.43V130h-3.39v-1l3-4h1.53l-2.76,3.79h1.7v-1.18h1.38v1.18h1Z" transform="translate(-19.39 -16.57)"/><path class="n" d="M263.28,126.68a1.57,1.57,0,1,1,1.57,1.74A1.57,1.57,0,0,1,263.28,126.68Zm2.23,0c0-.67-.26-1-.66-1s-.66.34-.66,1,.27,1,.66,1S265.51,127.36,265.51,126.68ZM268.6,125h1.07l-4.3,6.3H264.3Zm-1,4.63a1.57,1.57,0,1,1,1.56,1.74A1.56,1.56,0,0,1,267.57,129.65Zm2.21,0c0-.66-.26-1-.65-1s-.66.33-.66,1,.27,1,.66,1S269.78,130.32,269.78,129.65Z" transform="translate(-19.39 -16.57)"/></g><g class="k"><path class="n" d="M283.28,125v6.3h-.64v-5l-2.47,4.24h-.32l-2.47-4.21v5h-.64V125h.55l2.73,4.67,2.71-4.67Z" transform="translate(-19.39 -16.57)"/><path class="n" d="M288.28,127a1.79,1.79,0,0,1,.49,1.37v2.94h-.61v-.74a1.48,1.48,0,0,1-.63.58,2.35,2.35,0,0,1-1,.2,2,2,0,0,1-1.26-.37,1.25,1.25,0,0,1-.47-1,1.23,1.23,0,0,1,.44-1,2.16,2.16,0,0,1,1.39-.36h1.5v-.29a1.19,1.19,0,0,0-.34-.93,1.38,1.38,0,0,0-1-.32,2.72,2.72,0,0,0-.86.14,2.24,2.24,0,0,0-.71.41l-.29-.47a2.66,2.66,0,0,1,.86-.48,3.4,3.4,0,0,1,1.06-.16A2,2,0,0,1,288.28,127Zm-.72,3.6a1.45,1.45,0,0,0,.57-.71v-.78h-1.48c-.81,0-1.22.28-1.22.85a.78.78,0,0,0,.32.65,1.42,1.42,0,0,0,.88.24A1.66,1.66,0,0,0,287.56,130.61Z" transform="translate(-19.39 -16.57)"/><path class="n" d="M291.79,126.79a2.32,2.32,0,0,1,1.1-.24v.62h-.15a1.49,1.49,0,0,0-1.17.46,1.84,1.84,0,0,0-.42,1.29v2.41h-.64v-4.74h.61v.93A1.51,1.51,0,0,1,291.79,126.79Z" transform="translate(-19.39 -16.57)"/><path class="n" d="M295.8,128.94l-1.11,1v1.35h-.64v-6.68h.64v4.53l2.82-2.59h.79l-2,1.94,2.21,2.8h-.78Z" transform="translate(-19.39 -16.57)"/><path class="n" d="M303.39,129.15h-4a1.63,1.63,0,0,0,.57,1.19,1.88,1.88,0,0,0,1.29.46,2.17,2.17,0,0,0,.81-.16,1.84,1.84,0,0,0,.64-.46l.36.41a2.11,2.11,0,0,1-.79.58,2.68,2.68,0,0,1-1,.19,2.62,2.62,0,0,1-1.29-.31,2.21,2.21,0,0,1-.88-.86,2.43,2.43,0,0,1-.31-1.24,2.56,2.56,0,0,1,.3-1.24,2.21,2.21,0,0,1,.83-.86,2.47,2.47,0,0,1,2.36,0,2.19,2.19,0,0,1,.82.86,2.5,2.5,0,0,1,.3,1.24ZM300,127.53a1.76,1.76,0,0,0-.52,1.14h3.36a1.77,1.77,0,0,0-.53-1.14,1.77,1.77,0,0,0-2.31,0Z" transform="translate(-19.39 -16.57)"/><path class="n" d="M307.19,131a1.18,1.18,0,0,1-.44.25,2,2,0,0,1-.55.08,1.39,1.39,0,0,1-1-.36,1.37,1.37,0,0,1-.36-1v-2.87H304v-.54h.85v-1h.64v1h1.44v.54h-1.44V130a.88.88,0,0,0,.21.64.79.79,0,0,0,.61.22,1.21,1.21,0,0,0,.38-.06.92.92,0,0,0,.32-.18Z" transform="translate(-19.39 -16.57)"/><path class="n" d="M308.35,125.41a.43.43,0,0,1-.14-.32.43.43,0,0,1,.14-.31.45.45,0,0,1,.33-.14.44.44,0,0,1,.33.13.43.43,0,0,1,.14.31.47.47,0,0,1-.8.33Zm0,1.17H309v4.74h-.63Z" transform="translate(-19.39 -16.57)"/><path class="n" d="M314.61,127.07a2,2,0,0,1,.52,1.5v2.75h-.64v-2.68a1.56,1.56,0,0,0-.37-1.13,1.36,1.36,0,0,0-1.05-.39,1.64,1.64,0,0,0-1.21.46,1.69,1.69,0,0,0-.44,1.25v2.49h-.64v-4.74h.61v.88a1.73,1.73,0,0,1,.72-.67,2.32,2.32,0,0,1,1.08-.24A1.94,1.94,0,0,1,314.61,127.07Z" transform="translate(-19.39 -16.57)"/><path class="n" d="M321.27,126.58v4.16a2.08,2.08,0,0,1-2.37,2.37,4.18,4.18,0,0,1-1.24-.19,2.46,2.46,0,0,1-1-.54l.32-.49a2.35,2.35,0,0,0,.83.48,3,3,0,0,0,1,.17,1.8,1.8,0,0,0,1.32-.42,1.77,1.77,0,0,0,.42-1.3v-.6a1.9,1.9,0,0,1-.78.68,2.33,2.33,0,0,1-1.06.24,2.55,2.55,0,0,1-1.21-.29,2.19,2.19,0,0,1-.86-.82,2.28,2.28,0,0,1-.31-1.2,2.21,2.21,0,0,1,.31-1.18,2.14,2.14,0,0,1,.85-.81,2.66,2.66,0,0,1,2.31,0,2,2,0,0,1,.78.7v-.91Zm-1.49,3.77a1.59,1.59,0,0,0,.64-.62,1.86,1.86,0,0,0,0-1.79,1.57,1.57,0,0,0-.64-.61,1.88,1.88,0,0,0-.93-.22,2,2,0,0,0-.92.21,1.57,1.57,0,0,0-.64.61,1.72,1.72,0,0,0-.23.9,1.68,1.68,0,0,0,.23.9,1.53,1.53,0,0,0,.64.62,1.87,1.87,0,0,0,.92.22A1.93,1.93,0,0,0,319.78,130.35Z" transform="translate(-19.39 -16.57)"/></g></g><g class="k"><g class="k"><path class="n" d="M246.48,145.5v1.19h-4.76v-.94l2.43-2.3c.56-.53.66-.85.66-1.16,0-.49-.34-.78-1-.78a1.54,1.54,0,0,0-1.31.63l-1.06-.69a2.94,2.94,0,0,1,2.51-1.17c1.4,0,2.34.72,2.34,1.87a2.54,2.54,0,0,1-1.06,2l-1.45,1.36Z" transform="translate(-19.39 -16.57)"/><path class="n" d="M247.13,145.88a.88.88,0,0,1,1.75,0,.88.88,0,1,1-1.75,0Z" transform="translate(-19.39 -16.57)"/><path class="n" d="M254.33,145.5v1.19h-4.76v-.94l2.43-2.3c.56-.53.66-.85.66-1.16,0-.49-.35-.78-1-.78a1.54,1.54,0,0,0-1.31.63l-1.06-.69a2.93,2.93,0,0,1,2.5-1.17c1.41,0,2.34.72,2.34,1.87a2.52,2.52,0,0,1-1.05,2l-1.45,1.36Z" transform="translate(-19.39 -16.57)"/><path class="n" d="M254.91,142.06a1.57,1.57,0,1,1,3.13,0,1.57,1.57,0,1,1-3.13,0Zm2.23,0c0-.68-.26-1-.66-1s-.66.33-.66,1,.27,1,.66,1S257.14,142.73,257.14,142.06Zm3.09-1.67h1.08l-4.31,6.3h-1.07Zm-1,4.64a1.57,1.57,0,1,1,1.56,1.74A1.57,1.57,0,0,1,259.2,145Zm2.21,0c0-.67-.26-1-.65-1s-.66.32-.66,1,.27,1,.66,1S261.41,145.69,261.41,145Z" transform="translate(-19.39 -16.57)"/></g><g class="k"><path class="n" d="M269,141v2.47h3.26V144H269v2.67h-.66v-6.3h4.32V141Z" transform="translate(-19.39 -16.57)"/><path class="n" d="M274.39,146.43a2.29,2.29,0,0,1-.86-.86,2.58,2.58,0,0,1,0-2.49,2.2,2.2,0,0,1,.86-.85,2.62,2.62,0,0,1,2.47,0,2.26,2.26,0,0,1,.86.85,2.66,2.66,0,0,1,0,2.49,2.36,2.36,0,0,1-.86.86,2.62,2.62,0,0,1-2.47,0Zm2.14-.49a1.62,1.62,0,0,0,.62-.65,2,2,0,0,0,.23-1,2.07,2.07,0,0,0-.23-1,1.62,1.62,0,0,0-.62-.65,1.9,1.9,0,0,0-1.81,0,1.58,1.58,0,0,0-.63.65,2.07,2.07,0,0,0-.23,1,2,2,0,0,0,.23,1,1.58,1.58,0,0,0,.63.65,1.9,1.9,0,0,0,1.81,0Z" transform="translate(-19.39 -16.57)"/><path class="n" d="M283.16,142.44a2,2,0,0,1,.53,1.51v2.74h-.64V144a1.53,1.53,0,0,0-.37-1.12,1.39,1.39,0,0,0-1.05-.39,1.61,1.61,0,0,0-1.21.45,1.74,1.74,0,0,0-.45,1.26v2.48h-.64V142h.61v.87a1.82,1.82,0,0,1,.73-.67,2.31,2.31,0,0,1,1.07-.24A2,2,0,0,1,283.16,142.44Z" transform="translate(-19.39 -16.57)"/><path class="n" d="M289.76,140v6.67h-.61v-.93a2,2,0,0,1-.76.73,2.45,2.45,0,0,1-2.27-.06,2.24,2.24,0,0,1-.85-.85,2.6,2.6,0,0,1-.3-1.25,2.54,2.54,0,0,1,.3-1.25,2.26,2.26,0,0,1,.85-.86,2.43,2.43,0,0,1,1.2-.3,2.21,2.21,0,0,1,1,.24,1.89,1.89,0,0,1,.76.7V140Zm-1.49,5.92a1.58,1.58,0,0,0,.63-.65,1.9,1.9,0,0,0,.23-1,2,2,0,0,0-.23-1,1.58,1.58,0,0,0-.63-.65,1.76,1.76,0,0,0-.89-.23,1.84,1.84,0,0,0-.91.23,1.71,1.71,0,0,0-.63.65,2.07,2.07,0,0,0-.23,1,2,2,0,0,0,.23,1,1.71,1.71,0,0,0,.63.65,1.84,1.84,0,0,0,.91.23A1.76,1.76,0,0,0,288.27,145.94Z" transform="translate(-19.39 -16.57)"/><path class="n" d="M294.62,142.39a1.78,1.78,0,0,1,.5,1.37v2.93h-.62V146a1.46,1.46,0,0,1-.63.57,2.19,2.19,0,0,1-1,.21,2,2,0,0,1-1.26-.38,1.19,1.19,0,0,1-.47-1,1.21,1.21,0,0,1,.43-1A2.14,2.14,0,0,1,293,144h1.51v-.29a1.23,1.23,0,0,0-.34-.93,1.45,1.45,0,0,0-1-.32,2.57,2.57,0,0,0-.87.15,2.36,2.36,0,0,0-.71.41l-.29-.48a2.59,2.59,0,0,1,.87-.47,3.36,3.36,0,0,1,1.06-.17A2,2,0,0,1,294.62,142.39Zm-.72,3.6a1.54,1.54,0,0,0,.58-.72v-.77H293c-.81,0-1.21.28-1.21.84a.78.78,0,0,0,.31.66,1.44,1.44,0,0,0,.88.23A1.74,1.74,0,0,0,293.9,146Z" transform="translate(-19.39 -16.57)"/><path class="n" d="M299.35,146.41a1.21,1.21,0,0,1-.45.24,1.71,1.71,0,0,1-.55.09,1.25,1.25,0,0,1-1.39-1.38V142.5h-.84V142H297v-1h.64v1H299v.54H297.6v2.83a.9.9,0,0,0,.21.64.8.8,0,0,0,.61.22,1.06,1.06,0,0,0,.7-.24Z" transform="translate(-19.39 -16.57)"/><path class="n" d="M300.5,140.79a.45.45,0,0,1,.33-.77.47.47,0,0,1,.34.13.44.44,0,0,1,.13.31.49.49,0,0,1-.13.33.47.47,0,0,1-.34.13A.44.44,0,0,1,300.5,140.79Zm0,1.17h.64v4.73h-.64Z" transform="translate(-19.39 -16.57)"/><path class="n" d="M303.63,146.43a2.36,2.36,0,0,1-.86-.86,2.58,2.58,0,0,1,0-2.49,2.26,2.26,0,0,1,.86-.85,2.62,2.62,0,0,1,2.47,0,2.26,2.26,0,0,1,.86.85,2.66,2.66,0,0,1,0,2.49,2.36,2.36,0,0,1-.86.86,2.62,2.62,0,0,1-2.47,0Zm2.14-.49a1.56,1.56,0,0,0,.62-.65,2,2,0,0,0,.23-1,2.07,2.07,0,0,0-.23-1,1.56,1.56,0,0,0-.62-.65,1.9,1.9,0,0,0-1.81,0,1.58,1.58,0,0,0-.63.65,2.07,2.07,0,0,0-.23,1,2,2,0,0,0,.23,1,1.58,1.58,0,0,0,.63.65,1.9,1.9,0,0,0,1.81,0Z" transform="translate(-19.39 -16.57)"/><path class="n" d="M312.4,142.44a2,2,0,0,1,.53,1.51v2.74h-.64V144a1.53,1.53,0,0,0-.37-1.12,1.39,1.39,0,0,0-1.05-.39,1.61,1.61,0,0,0-1.21.45,1.74,1.74,0,0,0-.45,1.26v2.48h-.64V142h.61v.87a1.82,1.82,0,0,1,.73-.67,2.31,2.31,0,0,1,1.07-.24A2,2,0,0,1,312.4,142.44Z" transform="translate(-19.39 -16.57)"/></g></g><g class="k"><g class="k"><path class="n" d="M256.21,63.52v6.3h-1.46V64.69h-1.26V63.52Z" transform="translate(-19.39 -16.57)"/><path class="n" d="M263.07,68.5h-1v1.32h-1.43V68.5h-3.39v-1l3-4h1.53L259,67.31h1.69V66.13h1.38v1.18h1Z" transform="translate(-19.39 -16.57)"/><path class="n" d="M263.64,69a.87.87,0,1,1,.87.88A.86.86,0,0,1,263.64,69Z" transform="translate(-19.39 -16.57)"/><path class="n" d="M271.13,67.83a2.17,2.17,0,0,1-2.39,2.1c-1.74,0-2.82-1.09-2.82-3.13a3.07,3.07,0,0,1,3.22-3.39,3.39,3.39,0,0,1,1.75.43l-.54,1.07a2.09,2.09,0,0,0-1.18-.31,1.68,1.68,0,0,0-1.77,1.83,2.13,2.13,0,0,1,1.56-.56A2,2,0,0,1,271.13,67.83Zm-1.42.07a.94.94,0,0,0-1.07-.94,1,1,0,0,0-1.09.94c0,.54.41.94,1.11.94A.94.94,0,0,0,269.71,67.9Z" transform="translate(-19.39 -16.57)"/><path class="n" d="M271.37,65.18a1.57,1.57,0,1,1,1.57,1.74A1.57,1.57,0,0,1,271.37,65.18Zm2.22,0c0-.67-.26-1-.65-1s-.66.34-.66,1,.27,1,.66,1S273.59,65.86,273.59,65.18Zm3.1-1.66h1.07l-4.3,6.3h-1.07Zm-1,4.63a1.57,1.57,0,1,1,1.56,1.74A1.56,1.56,0,0,1,275.65,68.15Zm2.22,0c0-.66-.26-1-.66-1s-.65.33-.65,1,.27,1,.65,1S277.87,68.82,277.87,68.15Z" transform="translate(-19.39 -16.57)"/></g><g class="k"><path class="n" d="M290,69.82l-1.44-2a4.24,4.24,0,0,1-.51,0H286.4v2h-.67v-6.3h2.36a2.81,2.81,0,0,1,1.89.58,1.94,1.94,0,0,1,.69,1.58,2.06,2.06,0,0,1-.38,1.25,2.11,2.11,0,0,1-1.06.73l1.53,2.16Zm-.54-3a1.43,1.43,0,0,0,.5-1.16,1.46,1.46,0,0,0-.5-1.18,2.2,2.2,0,0,0-1.43-.4H286.4v3.15h1.67A2.14,2.14,0,0,0,289.5,66.84Z" transform="translate(-19.39 -16.57)"/><path class="n" d="M296.23,67.65h-4a1.66,1.66,0,0,0,.56,1.19,1.88,1.88,0,0,0,1.3.46,2.17,2.17,0,0,0,.81-.16,1.84,1.84,0,0,0,.64-.46l.36.41a2.11,2.11,0,0,1-.79.58,2.68,2.68,0,0,1-1,.19,2.62,2.62,0,0,1-1.29-.31,2.21,2.21,0,0,1-.88-.86,2.43,2.43,0,0,1-.31-1.24,2.56,2.56,0,0,1,.3-1.24,2.21,2.21,0,0,1,.83-.86,2.47,2.47,0,0,1,2.36,0,2.19,2.19,0,0,1,.82.86,2.5,2.5,0,0,1,.3,1.24ZM292.79,66a1.71,1.71,0,0,0-.52,1.14h3.35A1.71,1.71,0,0,0,295.1,66a1.63,1.63,0,0,0-1.16-.43A1.61,1.61,0,0,0,292.79,66Zm1.8-2.8h.85L294,64.35h-.63Z" transform="translate(-19.39 -16.57)"/><path class="n" d="M297.71,69.7a2.38,2.38,0,0,1-.83-.42l.29-.51a2.41,2.41,0,0,0,.75.39,2.92,2.92,0,0,0,.93.15,1.71,1.71,0,0,0,1-.21.63.63,0,0,0,.31-.57.5.5,0,0,0-.17-.41,1,1,0,0,0-.43-.22,6.42,6.42,0,0,0-.69-.15,8.15,8.15,0,0,1-.93-.22,1.46,1.46,0,0,1-.6-.38,1.09,1.09,0,0,1-.25-.75,1.16,1.16,0,0,1,.5-1,2.24,2.24,0,0,1,1.38-.38,3.56,3.56,0,0,1,.91.12,2.56,2.56,0,0,1,.76.32l-.28.51a2.37,2.37,0,0,0-1.39-.4,1.68,1.68,0,0,0-.93.21.7.7,0,0,0-.31.57.55.55,0,0,0,.18.43,1,1,0,0,0,.44.24c.17,0,.41.1.72.16a6.78,6.78,0,0,1,.91.22,1.35,1.35,0,0,1,.58.36,1,1,0,0,1,.24.72,1.15,1.15,0,0,1-.51,1,2.51,2.51,0,0,1-1.44.36A3.66,3.66,0,0,1,297.71,69.7Z" transform="translate(-19.39 -16.57)"/><path class="n" d="M306.06,67.65h-4a1.71,1.71,0,0,0,.57,1.19,1.86,1.86,0,0,0,1.3.46,2.17,2.17,0,0,0,.81-.16,1.94,1.94,0,0,0,.64-.46l.36.41a2.19,2.19,0,0,1-.79.58,2.71,2.71,0,0,1-1,.19,2.57,2.57,0,0,1-1.29-.31,2.14,2.14,0,0,1-.88-.86,2.44,2.44,0,0,1-.32-1.24,2.56,2.56,0,0,1,.31-1.24,2.19,2.19,0,0,1,.82-.86,2.39,2.39,0,0,1,1.19-.3,2.33,2.33,0,0,1,1.18.3,2.26,2.26,0,0,1,.82.86,2.61,2.61,0,0,1,.29,1.24ZM302.63,66a1.77,1.77,0,0,0-.53,1.14h3.36a1.72,1.72,0,0,0-.53-1.14,1.75,1.75,0,0,0-2.3,0Z" transform="translate(-19.39 -16.57)"/><path class="n" d="M308.66,65.29a2.32,2.32,0,0,1,1.1-.24v.62h-.15a1.49,1.49,0,0,0-1.17.46,1.84,1.84,0,0,0-.42,1.29v2.41h-.64V65.08H308V66A1.51,1.51,0,0,1,308.66,65.29Z" transform="translate(-19.39 -16.57)"/><path class="n" d="M315.1,65.08,313,69.82h-.65l-2.1-4.74h.67l1.77,4,1.79-4Z" transform="translate(-19.39 -16.57)"/><path class="n" d="M320,67.65h-4a1.66,1.66,0,0,0,.56,1.19,1.88,1.88,0,0,0,1.3.46,2.17,2.17,0,0,0,.81-.16,1.84,1.84,0,0,0,.64-.46l.36.41a2.11,2.11,0,0,1-.79.58,2.68,2.68,0,0,1-1,.19,2.62,2.62,0,0,1-1.29-.31,2.21,2.21,0,0,1-.88-.86,2.43,2.43,0,0,1-.31-1.24,2.56,2.56,0,0,1,.3-1.24,2.21,2.21,0,0,1,.83-.86,2.47,2.47,0,0,1,2.36,0,2.19,2.19,0,0,1,.82.86,2.5,2.5,0,0,1,.3,1.24ZM316.55,66a1.71,1.71,0,0,0-.52,1.14h3.35a1.71,1.71,0,0,0-.52-1.14,1.77,1.77,0,0,0-2.31,0Z" transform="translate(-19.39 -16.57)"/><path class="n" d="M324.94,65.29a2.32,2.32,0,0,1,1.1-.24v.62h-.15a1.49,1.49,0,0,0-1.17.46,1.84,1.84,0,0,0-.42,1.29v2.41h-.64V65.08h.61V66A1.51,1.51,0,0,1,324.94,65.29Z" transform="translate(-19.39 -16.57)"/><path class="n" d="M331.27,67.65h-4a1.71,1.71,0,0,0,.57,1.19,1.85,1.85,0,0,0,1.3.46,2.17,2.17,0,0,0,.81-.16,1.9,1.9,0,0,0,.63-.46l.36.41a2.16,2.16,0,0,1-.78.58,2.71,2.71,0,0,1-1,.19,2.57,2.57,0,0,1-1.29-.31,2.14,2.14,0,0,1-.88-.86,2.44,2.44,0,0,1-.32-1.24,2.56,2.56,0,0,1,.3-1.24,2.29,2.29,0,0,1,.83-.86,2.49,2.49,0,0,1,2.37,0,2.17,2.17,0,0,1,.81.86,2.5,2.5,0,0,1,.3,1.24ZM327.84,66a1.72,1.72,0,0,0-.53,1.14h3.36a1.72,1.72,0,0,0-.53-1.14,1.75,1.75,0,0,0-2.3,0Zm1.79-2.8h.86L329,64.35h-.63Z" transform="translate(-19.39 -16.57)"/><path class="n" d="M332.75,69.7a2.33,2.33,0,0,1-.82-.42l.29-.51a2.35,2.35,0,0,0,.74.39,3,3,0,0,0,.94.15,1.75,1.75,0,0,0,1-.21.63.63,0,0,0,.31-.57.53.53,0,0,0-.17-.41,1.17,1.17,0,0,0-.43-.22c-.18-.05-.41-.1-.7-.15a8.44,8.44,0,0,1-.92-.22,1.34,1.34,0,0,1-.6-.38,1,1,0,0,1-.25-.75,1.16,1.16,0,0,1,.5-1,2.21,2.21,0,0,1,1.37-.38,3.63,3.63,0,0,1,.92.12,2.56,2.56,0,0,1,.76.32l-.28.51a2.4,2.4,0,0,0-1.4-.4,1.65,1.65,0,0,0-.92.21.67.67,0,0,0-.31.57.55.55,0,0,0,.18.43,1,1,0,0,0,.43.24c.18,0,.42.1.72.16a6.42,6.42,0,0,1,.91.22,1.39,1.39,0,0,1,.59.36,1,1,0,0,1,.24.72,1.13,1.13,0,0,1-.52,1,2.46,2.46,0,0,1-1.43.36A3.68,3.68,0,0,1,332.75,69.7Z" transform="translate(-19.39 -16.57)"/><path class="n" d="M341.11,67.65h-4a1.67,1.67,0,0,0,.57,1.19,1.84,1.84,0,0,0,1.29.46,2.09,2.09,0,0,0,.81-.16,1.84,1.84,0,0,0,.64-.46l.36.41a2.11,2.11,0,0,1-.79.58,2.68,2.68,0,0,1-1,.19,2.62,2.62,0,0,1-1.29-.31,2.18,2.18,0,0,1-.87-.86,2.44,2.44,0,0,1-.32-1.24,2.56,2.56,0,0,1,.3-1.24,2.21,2.21,0,0,1,.83-.86,2.35,2.35,0,0,1,1.18-.3,2.33,2.33,0,0,1,1.18.3,2.19,2.19,0,0,1,.82.86,2.5,2.5,0,0,1,.3,1.24ZM337.68,66a1.72,1.72,0,0,0-.53,1.14h3.36A1.77,1.77,0,0,0,340,66a1.75,1.75,0,0,0-2.3,0Z" transform="translate(-19.39 -16.57)"/><path class="n" d="M345.37,65.51a1.8,1.8,0,0,1,.49,1.38v2.93h-.61v-.74a1.45,1.45,0,0,1-.64.58,2.16,2.16,0,0,1-1,.2,2,2,0,0,1-1.26-.37,1.25,1.25,0,0,1-.47-1,1.19,1.19,0,0,1,.44-1,2.1,2.1,0,0,1,1.39-.37h1.5v-.29a1.19,1.19,0,0,0-.34-.93,1.38,1.38,0,0,0-1-.32,2.47,2.47,0,0,0-.86.15,2,2,0,0,0-.71.4l-.29-.47a2.47,2.47,0,0,1,.86-.47,3.14,3.14,0,0,1,1.06-.17A2,2,0,0,1,345.37,65.51Zm-.72,3.6a1.45,1.45,0,0,0,.57-.71v-.78h-1.48c-.81,0-1.22.28-1.22.85a.78.78,0,0,0,.32.65,1.42,1.42,0,0,0,.88.24A1.66,1.66,0,0,0,344.65,69.11Z" transform="translate(-19.39 -16.57)"/><path class="n" d="M351.86,65.08v4.74h-.61V69a1.8,1.8,0,0,1-.69.68,2.18,2.18,0,0,1-1,.23,1.83,1.83,0,0,1-2-2V65.08h.64v2.69a1.6,1.6,0,0,0,.37,1.13,1.39,1.39,0,0,0,1.05.39,1.53,1.53,0,0,0,1.18-.46,1.74,1.74,0,0,0,.44-1.26V65.08Z" transform="translate(-19.39 -16.57)"/></g></g><g class="k"><g class="k"><path class="n" d="M242.05,37.24c0,1.19-1.06,1.94-2.66,1.94s-2.65-.75-2.65-1.94a1.59,1.59,0,0,1,.95-1.48,1.46,1.46,0,0,1-.73-1.3c0-1.11,1-1.8,2.43-1.8s2.43.69,2.43,1.8a1.48,1.48,0,0,1-.73,1.3A1.59,1.59,0,0,1,242.05,37.24Zm-1.48,0c0-.56-.46-.9-1.18-.9s-1.18.34-1.18.9.46.91,1.18.91S240.57,37.75,240.57,37.2Zm-2.16-2.68c0,.48.38.78,1,.78s1-.3,1-.78-.4-.79-1-.79S238.41,34,238.41,34.52Z" transform="translate(-19.39 -16.57)"/><path class="n" d="M242.76,38.26a.88.88,0,0,1,1.75,0,.88.88,0,1,1-1.75,0Z" transform="translate(-19.39 -16.57)"/><path class="n" d="M250,37.88v1.19H245.2v-1l2.43-2.29c.56-.53.66-.86.66-1.16,0-.5-.35-.79-1-.79a1.56,1.56,0,0,0-1.31.63l-1.06-.68a2.93,2.93,0,0,1,2.5-1.17c1.41,0,2.34.72,2.34,1.86a2.52,2.52,0,0,1-1.05,2l-1.45,1.37Z" transform="translate(-19.39 -16.57)"/><path class="n" d="M250.54,34.43a1.57,1.57,0,1,1,3.13,0,1.57,1.57,0,1,1-3.13,0Zm2.23,0c0-.67-.26-1-.66-1s-.66.34-.66,1,.27,1,.66,1S252.77,35.11,252.77,34.43Zm3.09-1.66h1.08l-4.31,6.3h-1.07Zm-1,4.63a1.57,1.57,0,1,1,1.56,1.74A1.56,1.56,0,0,1,254.83,37.4Zm2.21,0c0-.66-.26-1-.65-1s-.66.33-.66,1,.27,1,.66,1S257,38.07,257,37.4Z" transform="translate(-19.39 -16.57)"/></g><g class="k"><path class="n" d="M269.3,32.77l-2.79,6.3h-.66l-2.79-6.3h.72l2.41,5.47,2.43-5.47Z" transform="translate(-19.39 -16.57)"/><path class="n" d="M273.83,36.9h-4a1.71,1.71,0,0,0,.57,1.19,1.85,1.85,0,0,0,1.3.46,2.17,2.17,0,0,0,.81-.16,1.9,1.9,0,0,0,.63-.46l.36.41a2.16,2.16,0,0,1-.78.58,2.71,2.71,0,0,1-1,.19,2.57,2.57,0,0,1-1.29-.31,2.14,2.14,0,0,1-.88-.86,2.44,2.44,0,0,1-.32-1.24,2.56,2.56,0,0,1,.3-1.24,2.29,2.29,0,0,1,.83-.86,2.49,2.49,0,0,1,2.37,0,2.17,2.17,0,0,1,.81.86,2.5,2.5,0,0,1,.3,1.24Zm-3.43-1.62a1.72,1.72,0,0,0-.53,1.14h3.36a1.72,1.72,0,0,0-.53-1.14,1.75,1.75,0,0,0-2.3,0Z" transform="translate(-19.39 -16.57)"/><path class="n" d="M279,34.82a2,2,0,0,1,.52,1.5v2.75h-.64V36.39a1.57,1.57,0,0,0-.37-1.13,1.36,1.36,0,0,0-1.05-.39,1.64,1.64,0,0,0-1.21.46,1.69,1.69,0,0,0-.44,1.25v2.49h-.64V34.33h.61v.88a1.73,1.73,0,0,1,.72-.67,2.32,2.32,0,0,1,1.08-.24A1.94,1.94,0,0,1,279,34.82Z" transform="translate(-19.39 -16.57)"/><path class="n" d="M283.73,38.78a1.26,1.26,0,0,1-.44.25,1.73,1.73,0,0,1-.56.08,1.38,1.38,0,0,1-1-.36,1.36,1.36,0,0,1-.36-1V34.87h-.85v-.54h.85v-1H282v1h1.44v.54H282V37.7a.88.88,0,0,0,.21.64.79.79,0,0,0,.61.22,1.26,1.26,0,0,0,.38-.06.92.92,0,0,0,.32-.18Z" transform="translate(-19.39 -16.57)"/><path class="n" d="M288.84,36.9h-4a1.71,1.71,0,0,0,.57,1.19,1.86,1.86,0,0,0,1.3.46,2.17,2.17,0,0,0,.81-.16,1.94,1.94,0,0,0,.64-.46l.36.41a2.19,2.19,0,0,1-.79.58,2.71,2.71,0,0,1-1,.19,2.57,2.57,0,0,1-1.29-.31,2.14,2.14,0,0,1-.88-.86,2.43,2.43,0,0,1-.31-1.24,2.56,2.56,0,0,1,.3-1.24,2.19,2.19,0,0,1,.82-.86,2.39,2.39,0,0,1,1.19-.3,2.33,2.33,0,0,1,1.18.3,2.26,2.26,0,0,1,.82.86,2.61,2.61,0,0,1,.29,1.24Zm-3.43-1.62a1.77,1.77,0,0,0-.53,1.14h3.36a1.72,1.72,0,0,0-.53-1.14,1.59,1.59,0,0,0-1.15-.43A1.61,1.61,0,0,0,285.41,35.28Z" transform="translate(-19.39 -16.57)"/><path class="n" d="M296.9,33.35a2.18,2.18,0,0,1,0,3.16,2.88,2.88,0,0,1-1.89.57h-1.69v2h-.67v-6.3H295A2.83,2.83,0,0,1,296.9,33.35Zm-.48,2.74a1.43,1.43,0,0,0,.5-1.16,1.46,1.46,0,0,0-.5-1.18,2.21,2.21,0,0,0-1.43-.4h-1.67v3.14H295A2.21,2.21,0,0,0,296.42,36.09Z" transform="translate(-19.39 -16.57)"/><path class="n" d="M300.05,34.54a2.34,2.34,0,0,1,1.11-.24v.62H301a1.51,1.51,0,0,0-1.17.46,1.84,1.84,0,0,0-.42,1.29v2.41h-.64V34.33h.61v.93A1.56,1.56,0,0,1,300.05,34.54Z" transform="translate(-19.39 -16.57)"/><path class="n" d="M302.3,33.16a.43.43,0,0,1-.14-.32.43.43,0,0,1,.14-.31.45.45,0,0,1,.33-.14.46.46,0,0,1,.47.44.45.45,0,0,1-.14.33.44.44,0,0,1-.33.14A.45.45,0,0,1,302.3,33.16Zm0,1.17H303v4.74h-.64Z" transform="translate(-19.39 -16.57)"/><path class="n" d="M308.71,34.33l-2.11,4.74h-.66l-2.09-4.74h.66l1.78,4,1.79-4Z" transform="translate(-19.39 -16.57)"/><path class="n" d="M313.59,36.9h-4a1.71,1.71,0,0,0,.57,1.19,1.85,1.85,0,0,0,1.3.46,2.17,2.17,0,0,0,.81-.16,1.94,1.94,0,0,0,.64-.46l.36.41a2.19,2.19,0,0,1-.79.58,2.71,2.71,0,0,1-1,.19,2.57,2.57,0,0,1-1.29-.31,2.14,2.14,0,0,1-.88-.86A2.43,2.43,0,0,1,309,36.7a2.56,2.56,0,0,1,.3-1.24,2.19,2.19,0,0,1,.82-.86,2.39,2.39,0,0,1,1.19-.3,2.33,2.33,0,0,1,1.18.3,2.26,2.26,0,0,1,.82.86,2.61,2.61,0,0,1,.29,1.24Zm-3.43-1.62a1.77,1.77,0,0,0-.53,1.14H313a1.72,1.72,0,0,0-.53-1.14,1.59,1.59,0,0,0-1.15-.43A1.61,1.61,0,0,0,310.16,35.28Zm1.8-2.8h.85l-1.46,1.12h-.63Z" transform="translate(-19.39 -16.57)"/><path class="n" d="M319,36.9h-4a1.67,1.67,0,0,0,.57,1.19,1.84,1.84,0,0,0,1.29.46,2.09,2.09,0,0,0,.81-.16,1.84,1.84,0,0,0,.64-.46l.36.41a2.11,2.11,0,0,1-.79.58,2.66,2.66,0,0,1-1,.19,2.63,2.63,0,0,1-1.3-.31,2.18,2.18,0,0,1-.87-.86,2.44,2.44,0,0,1-.32-1.24,2.56,2.56,0,0,1,.3-1.24,2.21,2.21,0,0,1,.83-.86,2.35,2.35,0,0,1,1.18-.3,2.3,2.3,0,0,1,1.18.3,2.19,2.19,0,0,1,.82.86,2.5,2.5,0,0,1,.3,1.24Zm-3.43-1.62a1.72,1.72,0,0,0-.53,1.14h3.36a1.77,1.77,0,0,0-.53-1.14,1.75,1.75,0,0,0-2.3,0Z" transform="translate(-19.39 -16.57)"/></g></g><g class="k"><g class="k"><path class="n" d="M228.43,21.77c0,1.06-.82,2-2.61,2a4.39,4.39,0,0,1-2.41-.67L224,22a3.06,3.06,0,0,0,1.8.57c.73,0,1.18-.3,1.18-.81s-.35-.78-1.18-.78h-.66V20l1.29-1.47h-2.68V17.39h4.41v.95L226.72,20A1.79,1.79,0,0,1,228.43,21.77Z" transform="translate(-19.39 -16.57)"/><path class="n" d="M229.1,20.54c0-2.08,1.15-3.26,2.7-3.26s2.7,1.18,2.7,3.26-1.14,3.26-2.7,3.26S229.1,22.62,229.1,20.54Zm3.94,0c0-1.43-.51-2-1.24-2s-1.22.59-1.22,2,.5,2,1.22,2S233,22,233,20.54Z" transform="translate(-19.39 -16.57)"/><path class="n" d="M235.11,19.06a1.57,1.57,0,1,1,3.12,0,1.57,1.57,0,1,1-3.12,0Zm2.22,0c0-.68-.26-1-.66-1s-.66.33-.66,1,.27,1,.66,1S237.33,19.73,237.33,19.06Zm3.1-1.67h1.07l-4.31,6.3h-1.07Zm-1,4.64a1.57,1.57,0,1,1,3.12,0,1.57,1.57,0,1,1-3.12,0Zm2.22,0c0-.67-.27-1-.66-1s-.66.32-.66,1,.27,1,.66,1S241.61,22.69,241.61,22Z" transform="translate(-19.39 -16.57)"/></g><g class="k"><path class="n" d="M253.32,17.39l-2.79,6.3h-.66l-2.79-6.3h.72l2.41,5.48,2.43-5.48Z" transform="translate(-19.39 -16.57)"/><path class="n" d="M257.85,21.52h-4a1.73,1.73,0,0,0,.57,1.2,1.88,1.88,0,0,0,1.29.45,1.92,1.92,0,0,0,.81-.16,1.61,1.61,0,0,0,.64-.46l.36.42a2,2,0,0,1-.78.57,2.75,2.75,0,0,1-1,.2,2.63,2.63,0,0,1-1.3-.31,2.25,2.25,0,0,1-.87-.86,2.46,2.46,0,0,1-.32-1.24,2.57,2.57,0,0,1,.3-1.25,2.19,2.19,0,0,1,.83-.85,2.37,2.37,0,0,1,1.19-.31,2.3,2.3,0,0,1,1.17.31,2.1,2.1,0,0,1,.82.85,2.54,2.54,0,0,1,.3,1.25Zm-3.43-1.61a1.7,1.7,0,0,0-.53,1.14h3.36a1.7,1.7,0,0,0-.53-1.14,1.72,1.72,0,0,0-2.3,0Z" transform="translate(-19.39 -16.57)"/><path class="n" d="M263,19.44a2,2,0,0,1,.52,1.51v2.74h-.64V21a1.55,1.55,0,0,0-.37-1.12,1.36,1.36,0,0,0-1.05-.39,1.63,1.63,0,0,0-1.21.45,1.74,1.74,0,0,0-.45,1.26v2.48h-.63V19h.61v.87a1.73,1.73,0,0,1,.72-.67,2.32,2.32,0,0,1,1.08-.24A2,2,0,0,1,263,19.44Z" transform="translate(-19.39 -16.57)"/><path class="n" d="M267.75,23.41a1.25,1.25,0,0,1-.44.24,1.77,1.77,0,0,1-.56.09,1.25,1.25,0,0,1-1.38-1.38V19.5h-.85V19h.85v-1H266v1h1.44v.54H266v2.83a.9.9,0,0,0,.21.64.78.78,0,0,0,.6.22,1.27,1.27,0,0,0,.39-.06,1.4,1.4,0,0,0,.32-.18Z" transform="translate(-19.39 -16.57)"/><path class="n" d="M272.86,21.52h-4a1.73,1.73,0,0,0,.57,1.2,1.89,1.89,0,0,0,1.3.45,2,2,0,0,0,.81-.16,1.69,1.69,0,0,0,.64-.46l.36.42a2.06,2.06,0,0,1-.79.57,2.71,2.71,0,0,1-1,.2,2.57,2.57,0,0,1-1.29-.31,2.21,2.21,0,0,1-.88-.86,2.62,2.62,0,0,1,0-2.49,2.16,2.16,0,0,1,.82-.85,2.37,2.37,0,0,1,1.19-.31,2.33,2.33,0,0,1,1.18.31,2.23,2.23,0,0,1,.82.85,2.65,2.65,0,0,1,.29,1.25Zm-3.43-1.61a1.7,1.7,0,0,0-.53,1.14h3.36a1.7,1.7,0,0,0-.53-1.14,1.72,1.72,0,0,0-2.3,0Z" transform="translate(-19.39 -16.57)"/><path class="n" d="M280.92,18a2.18,2.18,0,0,1,0,3.16,2.88,2.88,0,0,1-1.89.57h-1.69v2h-.67v-6.3H279A2.88,2.88,0,0,1,280.92,18Zm-.48,2.74a1.61,1.61,0,0,0,0-2.33A2.21,2.21,0,0,0,279,18h-1.67v3.15H279A2.21,2.21,0,0,0,280.44,20.71Z" transform="translate(-19.39 -16.57)"/><path class="n" d="M287.26,19v4.73h-.61v-.86a1.78,1.78,0,0,1-.69.67,2.09,2.09,0,0,1-1,.24,2,2,0,0,1-1.46-.52A2,2,0,0,1,283,21.7V19h.64v2.68a1.58,1.58,0,0,0,.37,1.14,1.42,1.42,0,0,0,1.05.38,1.56,1.56,0,0,0,1.18-.45,1.76,1.76,0,0,0,.43-1.27V19Z" transform="translate(-19.39 -16.57)"/><path class="n" d="M292.7,19.23a2.08,2.08,0,0,1,.84.85,2.44,2.44,0,0,1,.31,1.25,2.49,2.49,0,0,1-.31,1.25,2.15,2.15,0,0,1-.84.85,2.34,2.34,0,0,1-1.21.31,2.3,2.3,0,0,1-1.06-.25,1.9,1.9,0,0,1-.76-.73v.93h-.62V17h.64v2.84a2,2,0,0,1,.76-.7,2.24,2.24,0,0,1,1-.24A2.34,2.34,0,0,1,292.7,19.23Zm-.35,3.71a1.58,1.58,0,0,0,.63-.65,1.9,1.9,0,0,0,.23-1,2,2,0,0,0-.23-1,1.58,1.58,0,0,0-.63-.65,1.9,1.9,0,0,0-1.81,0,1.71,1.71,0,0,0-.63.65,2.07,2.07,0,0,0-.23,1,2,2,0,0,0,.23,1,1.71,1.71,0,0,0,.63.65,1.9,1.9,0,0,0,1.81,0Z" transform="translate(-19.39 -16.57)"/><path class="n" d="M295.16,17h.63v6.67h-.63Z" transform="translate(-19.39 -16.57)"/><path class="n" d="M297.57,17.79a.46.46,0,0,1,.66-.64.41.41,0,0,1,.14.31.47.47,0,0,1-.8.33Zm0,1.17h.64v4.73h-.64Z" transform="translate(-19.39 -16.57)"/><path class="n" d="M304.32,19v6.48h-.64V22.8a2,2,0,0,1-.76.7,2.24,2.24,0,0,1-1,.24,2.41,2.41,0,0,1-1.21-.3,2.15,2.15,0,0,1-.84-.85,2.5,2.5,0,0,1-.31-1.26,2.44,2.44,0,0,1,.31-1.25,2.08,2.08,0,0,1,.84-.85,2.34,2.34,0,0,1,1.21-.31,2.19,2.19,0,0,1,1.06.26,1.9,1.9,0,0,1,.77.72V19Zm-1.49,4a1.71,1.71,0,0,0,.63-.65,2.12,2.12,0,0,0,0-1.92,1.71,1.71,0,0,0-.63-.65,1.73,1.73,0,0,0-.9-.24,1.71,1.71,0,0,0-.9.24,1.58,1.58,0,0,0-.63.65,2.12,2.12,0,0,0,0,1.92,1.58,1.58,0,0,0,.63.65,1.7,1.7,0,0,0,.9.23A1.72,1.72,0,0,0,302.83,22.94Z" transform="translate(-19.39 -16.57)"/><path class="n" d="M310.37,19v4.73h-.62v-.86a1.78,1.78,0,0,1-.69.67,2.07,2.07,0,0,1-1,.24,1.84,1.84,0,0,1-2-2V19h.64v2.68a1.63,1.63,0,0,0,.37,1.14,1.43,1.43,0,0,0,1.06.38,1.54,1.54,0,0,0,1.17-.45,1.77,1.77,0,0,0,.44-1.27V19Z" transform="translate(-19.39 -16.57)"/><path class="n" d="M316.28,21.52h-4a1.66,1.66,0,0,0,.57,1.2,1.88,1.88,0,0,0,1.29.45A1.92,1.92,0,0,0,315,23a1.61,1.61,0,0,0,.64-.46L316,23a2,2,0,0,1-.79.57,2.68,2.68,0,0,1-1,.2,2.62,2.62,0,0,1-1.29-.31,2.27,2.27,0,0,1-.88-.86,2.46,2.46,0,0,1-.31-1.24,2.57,2.57,0,0,1,.3-1.25,2.19,2.19,0,0,1,.83-.85,2.4,2.4,0,0,1,2.36,0,2.16,2.16,0,0,1,.82.85,2.54,2.54,0,0,1,.3,1.25Zm-3.44-1.61a1.74,1.74,0,0,0-.52,1.14h3.36a1.75,1.75,0,0,0-.53-1.14,1.74,1.74,0,0,0-2.31,0Z" transform="translate(-19.39 -16.57)"/></g></g><g class="k"><g class="k"><path class="n" d="M253.48,53.26v1.18h-4.76V53.5l2.43-2.3c.56-.53.66-.85.66-1.16,0-.49-.34-.78-1-.78a1.56,1.56,0,0,0-1.31.63l-1.06-.69A2.94,2.94,0,0,1,250.94,48c1.4,0,2.34.72,2.34,1.87a2.54,2.54,0,0,1-1.06,2l-1.45,1.37Z" transform="translate(-19.39 -16.57)"/><path class="n" d="M258.74,52.52c0,1.06-.82,2-2.61,2a4.39,4.39,0,0,1-2.41-.67l.57-1.12a3.08,3.08,0,0,0,1.8.57c.73,0,1.18-.3,1.18-.81s-.35-.78-1.18-.78h-.66v-1l1.29-1.47H254V48.14h4.41v1L257,50.71A1.79,1.79,0,0,1,258.74,52.52Z" transform="translate(-19.39 -16.57)"/><path class="n" d="M259.37,53.63a.87.87,0,0,1,1.74,0,.87.87,0,1,1-1.74,0Z" transform="translate(-19.39 -16.57)"/><path class="n" d="M266.86,52.45a2.17,2.17,0,0,1-2.39,2.1c-1.74,0-2.82-1.09-2.82-3.12a3.08,3.08,0,0,1,3.22-3.4,3.39,3.39,0,0,1,1.75.44l-.54,1.07a2,2,0,0,0-1.18-.32,1.67,1.67,0,0,0-1.77,1.83,2.13,2.13,0,0,1,1.56-.56A2,2,0,0,1,266.86,52.45Zm-1.42.08a1,1,0,0,0-1.07-1,1,1,0,0,0-1.09,1c0,.54.41.93,1.11.93A.94.94,0,0,0,265.44,52.53Z" transform="translate(-19.39 -16.57)"/><path class="n" d="M267.1,49.81a1.57,1.57,0,1,1,1.57,1.74A1.57,1.57,0,0,1,267.1,49.81Zm2.22,0c0-.68-.26-1-.65-1s-.66.33-.66,1,.27,1,.66,1S269.32,50.48,269.32,49.81Zm3.1-1.67h1.07l-4.3,6.3h-1.07Zm-1,4.64a1.57,1.57,0,1,1,1.56,1.74A1.57,1.57,0,0,1,271.38,52.78Zm2.22,0c0-.67-.26-1-.66-1s-.66.32-.66,1,.27,1,.66,1S273.6,53.44,273.6,52.78Z" transform="translate(-19.39 -16.57)"/></g><g class="k"><path class="n" d="M285.93,54.44l-1.44-2a4.24,4.24,0,0,1-.51,0h-1.69v2h-.67v-6.3H284a2.85,2.85,0,0,1,1.89.58,1.94,1.94,0,0,1,.69,1.58,2,2,0,0,1-1.44,2l1.54,2.16Zm-.53-3a1.45,1.45,0,0,0,.49-1.17,1.42,1.42,0,0,0-.49-1.17,2.25,2.25,0,0,0-1.44-.41h-1.67v3.16H284A2.25,2.25,0,0,0,285.4,51.47Z" transform="translate(-19.39 -16.57)"/><path class="n" d="M292.12,52.27h-4a1.66,1.66,0,0,0,.57,1.2,1.88,1.88,0,0,0,1.29.45,2,2,0,0,0,.81-.16,1.61,1.61,0,0,0,.64-.46l.36.42a2,2,0,0,1-.79.57,2.68,2.68,0,0,1-1,.2,2.62,2.62,0,0,1-1.29-.31,2.27,2.27,0,0,1-.88-.86,2.46,2.46,0,0,1-.31-1.24,2.57,2.57,0,0,1,.3-1.25,2.19,2.19,0,0,1,.83-.85A2.4,2.4,0,0,1,291,50a2.16,2.16,0,0,1,.82.85,2.54,2.54,0,0,1,.3,1.25Zm-3.44-1.61a1.74,1.74,0,0,0-.52,1.14h3.36a1.75,1.75,0,0,0-.53-1.14,1.74,1.74,0,0,0-2.31,0Zm1.8-2.8h.85L289.88,49h-.63Z" transform="translate(-19.39 -16.57)"/><path class="n" d="M296.38,50.14a1.82,1.82,0,0,1,.49,1.37v2.93h-.61v-.73a1.55,1.55,0,0,1-.64.57,2.19,2.19,0,0,1-1,.21,2,2,0,0,1-1.26-.38,1.29,1.29,0,0,1,0-2,2.1,2.1,0,0,1,1.39-.37h1.5v-.29a1.19,1.19,0,0,0-.34-.93,1.43,1.43,0,0,0-1-.32,2.47,2.47,0,0,0-.86.15,2.3,2.3,0,0,0-.72.41l-.28-.48a2.54,2.54,0,0,1,.86-.47,3.41,3.41,0,0,1,1.06-.17A2,2,0,0,1,296.38,50.14Zm-.73,3.6a1.54,1.54,0,0,0,.58-.72v-.77h-1.48c-.81,0-1.22.28-1.22.84a.79.79,0,0,0,.32.66,1.42,1.42,0,0,0,.88.23A1.68,1.68,0,0,0,295.65,53.74Z" transform="translate(-19.39 -16.57)"/><path class="n" d="M298.61,47.77h.64v6.67h-.64Z" transform="translate(-19.39 -16.57)"/><path class="n" d="M301,48.54a.46.46,0,0,1,.66-.64.38.38,0,0,1,.14.31.42.42,0,0,1-.14.33.46.46,0,0,1-.66,0Zm0,1.17h.64v4.73H301Z" transform="translate(-19.39 -16.57)"/><path class="n" d="M303.62,54.32a2.3,2.3,0,0,1-.83-.42l.29-.5a2.4,2.4,0,0,0,.75.38,2.92,2.92,0,0,0,.93.15,1.83,1.83,0,0,0,1-.2.65.65,0,0,0,.31-.57.49.49,0,0,0-.17-.41,1.11,1.11,0,0,0-.43-.23q-.27-.08-.69-.15a6.45,6.45,0,0,1-.93-.22,1.37,1.37,0,0,1-.6-.38A1.09,1.09,0,0,1,303,51a1.18,1.18,0,0,1,.5-1,2.23,2.23,0,0,1,1.37-.38,3.2,3.2,0,0,1,.92.13,2.56,2.56,0,0,1,.76.31l-.28.52a2.39,2.39,0,0,0-1.4-.41,1.58,1.58,0,0,0-.92.22.67.67,0,0,0-.31.57.55.55,0,0,0,.18.43,1,1,0,0,0,.43.24,7.27,7.27,0,0,0,.72.15c.38.08.69.15.91.22a1.26,1.26,0,0,1,.59.37,1,1,0,0,1,.24.72,1.13,1.13,0,0,1-.52,1,2.38,2.38,0,0,1-1.43.37A3.62,3.62,0,0,1,303.62,54.32Z" transform="translate(-19.39 -16.57)"/><path class="n" d="M310.93,50.14a1.78,1.78,0,0,1,.49,1.37v2.93h-.61v-.73a1.46,1.46,0,0,1-.63.57,2.2,2.2,0,0,1-1,.21,2,2,0,0,1-1.26-.38,1.29,1.29,0,0,1,0-2,2.12,2.12,0,0,1,1.39-.37h1.5v-.29a1.19,1.19,0,0,0-.34-.93,1.43,1.43,0,0,0-1-.32,2.51,2.51,0,0,0-.86.15,2.24,2.24,0,0,0-.71.41l-.29-.48a2.64,2.64,0,0,1,.86-.47,3.43,3.43,0,0,1,1.07-.17A2,2,0,0,1,310.93,50.14Zm-.72,3.6a1.47,1.47,0,0,0,.57-.72v-.77H309.3c-.81,0-1.22.28-1.22.84a.79.79,0,0,0,.32.66,1.42,1.42,0,0,0,.88.23A1.74,1.74,0,0,0,310.21,53.74Z" transform="translate(-19.39 -16.57)"/><path class="n" d="M315.65,54.16a1.25,1.25,0,0,1-.44.24,1.73,1.73,0,0,1-.56.09,1.25,1.25,0,0,1-1.38-1.38V50.25h-.85v-.54h.85v-1h.64v1h1.44v.54h-1.44v2.83a.9.9,0,0,0,.21.64.79.79,0,0,0,.61.22,1.21,1.21,0,0,0,.38-.06,1.4,1.4,0,0,0,.32-.18Z" transform="translate(-19.39 -16.57)"/><path class="n" d="M316.8,48.54a.46.46,0,0,1,0-.64.48.48,0,0,1,.34-.13.44.44,0,0,1,.33.13.41.41,0,0,1,.14.31.48.48,0,0,1-.47.47A.49.49,0,0,1,316.8,48.54Zm0,1.17h.64v4.73h-.64Z" transform="translate(-19.39 -16.57)"/><path class="n" d="M319.94,54.18a2.25,2.25,0,0,1-.87-.86,2.66,2.66,0,0,1,0-2.49,2.22,2.22,0,0,1,.87-.85,2.6,2.6,0,0,1,2.46,0,2.13,2.13,0,0,1,.86.85,2.66,2.66,0,0,1,0,2.49,2.16,2.16,0,0,1-.86.86,2.6,2.6,0,0,1-2.46,0Zm2.13-.49a1.58,1.58,0,0,0,.63-.65,2,2,0,0,0,.22-1,2.07,2.07,0,0,0-.22-1,1.58,1.58,0,0,0-.63-.65,1.88,1.88,0,0,0-1.8,0,1.58,1.58,0,0,0-.63.65,2,2,0,0,0-.23,1,1.9,1.9,0,0,0,.23,1,1.58,1.58,0,0,0,.63.65,1.88,1.88,0,0,0,1.8,0Z" transform="translate(-19.39 -16.57)"/><path class="n" d="M328.71,50.19a2,2,0,0,1,.52,1.51v2.74h-.64V51.76a1.59,1.59,0,0,0-.36-1.12,1.4,1.4,0,0,0-1.06-.39,1.63,1.63,0,0,0-1.21.45,1.77,1.77,0,0,0-.44,1.26v2.48h-.64V49.71h.61v.87a1.79,1.79,0,0,1,.72-.67,2.32,2.32,0,0,1,1.08-.24A2,2,0,0,1,328.71,50.19Z" transform="translate(-19.39 -16.57)"/><path class="n" d="M331.14,54.32a2.38,2.38,0,0,1-.83-.42l.29-.5a2.4,2.4,0,0,0,.75.38,2.94,2.94,0,0,0,.94.15,1.79,1.79,0,0,0,.95-.2.65.65,0,0,0,.31-.57.49.49,0,0,0-.17-.41,1.11,1.11,0,0,0-.43-.23,6.42,6.42,0,0,0-.69-.15,6.45,6.45,0,0,1-.93-.22,1.37,1.37,0,0,1-.6-.38,1.09,1.09,0,0,1-.25-.75,1.18,1.18,0,0,1,.5-1,2.24,2.24,0,0,1,1.38-.38,3.18,3.18,0,0,1,.91.13,2.56,2.56,0,0,1,.76.31l-.28.52a2.38,2.38,0,0,0-1.39-.41,1.6,1.6,0,0,0-.93.22.67.67,0,0,0-.31.57.55.55,0,0,0,.18.43,1,1,0,0,0,.44.24,6.2,6.2,0,0,0,.72.15c.37.08.68.15.91.22a1.29,1.29,0,0,1,.58.37,1,1,0,0,1,.24.72,1.14,1.14,0,0,1-.51,1,2.44,2.44,0,0,1-1.44.37A3.67,3.67,0,0,1,331.14,54.32Z" transform="translate(-19.39 -16.57)"/></g></g><g class="k"><g class="k"><path class="n" d="M265.81,81.91a3.06,3.06,0,0,1-3.22,3.39,3.35,3.35,0,0,1-1.74-.43l.54-1.07a2,2,0,0,0,1.18.31,1.68,1.68,0,0,0,1.77-1.83,2.15,2.15,0,0,1-1.57.56,2,2,0,0,1-2.17-2,2.17,2.17,0,0,1,2.39-2.1C264.74,78.78,265.81,79.87,265.81,81.91Zm-1.63-1.1a1,1,0,0,0-1.1-.94.95.95,0,1,0,0,1.88A1,1,0,0,0,264.18,80.81Z" transform="translate(-19.39 -16.57)"/><path class="n" d="M266.4,80.56a1.57,1.57,0,1,1,3.12,0,1.57,1.57,0,1,1-3.12,0Zm2.22,0c0-.68-.26-1-.65-1s-.66.33-.66,1,.27,1,.66,1S268.62,81.23,268.62,80.56Zm3.1-1.67h1.07l-4.3,6.3h-1.07Zm-1,4.64a1.57,1.57,0,1,1,1.56,1.74A1.57,1.57,0,0,1,270.68,83.53Zm2.22,0c0-.67-.26-1-.66-1s-.66.32-.66,1,.27,1,.66,1S272.9,84.19,272.9,83.53Z" transform="translate(-19.39 -16.57)"/></g><g class="k"><path class="n" d="M282.05,83.51h-3.51l-.75,1.68h-.69l2.88-6.3h.65l2.88,6.3h-.7Zm-.24-.54-1.51-3.38L278.79,83Z" transform="translate(-19.39 -16.57)"/><path class="n" d="M291.72,80.94a2,2,0,0,1,.51,1.51v2.74h-.64V82.51a1.57,1.57,0,0,0-.35-1.12,1.29,1.29,0,0,0-1-.39,1.54,1.54,0,0,0-1.17.45,1.81,1.81,0,0,0-.42,1.26v2.48H288V82.51a1.62,1.62,0,0,0-.35-1.12,1.32,1.32,0,0,0-1-.39,1.51,1.51,0,0,0-1.15.45,1.77,1.77,0,0,0-.43,1.26v2.48h-.64V80.46H285v.86a1.74,1.74,0,0,1,.71-.66,2.15,2.15,0,0,1,1-.24,2,2,0,0,1,1,.26,1.48,1.48,0,0,1,.65.74,2,2,0,0,1,.75-.73,2.33,2.33,0,0,1,1.13-.27A1.83,1.83,0,0,1,291.72,80.94Z" transform="translate(-19.39 -16.57)"/><path class="n" d="M298.11,83h-4a1.73,1.73,0,0,0,.57,1.2,1.88,1.88,0,0,0,1.29.45,1.92,1.92,0,0,0,.81-.16,1.72,1.72,0,0,0,.64-.46l.36.41A1.92,1.92,0,0,1,297,85a2.66,2.66,0,0,1-1,.2,2.74,2.74,0,0,1-1.3-.31,2.32,2.32,0,0,1-.87-.86,2.46,2.46,0,0,1-.32-1.24,2.57,2.57,0,0,1,.3-1.25,2.19,2.19,0,0,1,.83-.85,2.36,2.36,0,0,1,1.18-.31,2.31,2.31,0,0,1,1.18.31,2.16,2.16,0,0,1,.82.85,2.54,2.54,0,0,1,.3,1.25Zm-3.43-1.61a1.7,1.7,0,0,0-.53,1.14h3.36a1.7,1.7,0,0,0-.53-1.14,1.72,1.72,0,0,0-2.3,0Zm1.79-2.8h.86l-1.46,1.11h-.63Z" transform="translate(-19.39 -16.57)"/><path class="n" d="M299.42,78.52h.64v6.67h-.64Z" transform="translate(-19.39 -16.57)"/><path class="n" d="M301.84,79.29a.46.46,0,0,1,.66-.64.41.41,0,0,1,.14.31.45.45,0,0,1-.14.33.48.48,0,0,1-.66,0Zm0,1.17h.63v4.73h-.63Z" transform="translate(-19.39 -16.57)"/><path class="n" d="M305,84.93a2.32,2.32,0,0,1-.87-.86,2.66,2.66,0,0,1,0-2.49,2.22,2.22,0,0,1,.87-.85,2.52,2.52,0,0,1,1.23-.31,2.5,2.5,0,0,1,1.23.31,2.13,2.13,0,0,1,.86.85,2.66,2.66,0,0,1,0,2.49,2.22,2.22,0,0,1-.86.86,2.5,2.5,0,0,1-1.23.31A2.52,2.52,0,0,1,305,84.93Zm2.14-.49a1.62,1.62,0,0,0,.62-.65,2,2,0,0,0,.23-1,2.07,2.07,0,0,0-.23-1,1.62,1.62,0,0,0-.62-.65,1.84,1.84,0,0,0-.91-.23,1.8,1.8,0,0,0-.9.23,1.58,1.58,0,0,0-.63.65,2,2,0,0,0-.23,1,1.9,1.9,0,0,0,.23,1,1.58,1.58,0,0,0,.63.65,1.8,1.8,0,0,0,.9.23A1.84,1.84,0,0,0,307.11,84.44Z" transform="translate(-19.39 -16.57)"/><path class="n" d="M311.19,80.67a2.21,2.21,0,0,1,1.1-.25V81h-.15a1.52,1.52,0,0,0-1.17.45,1.86,1.86,0,0,0-.42,1.29v2.41h-.64V80.46h.61v.93A1.51,1.51,0,0,1,311.19,80.67Z" transform="translate(-19.39 -16.57)"/><path class="n" d="M316.52,80.89a1.82,1.82,0,0,1,.49,1.37v2.93h-.61v-.73a1.55,1.55,0,0,1-.64.57,2.19,2.19,0,0,1-1,.21,2,2,0,0,1-1.26-.38,1.29,1.29,0,0,1,0-2,2.1,2.1,0,0,1,1.39-.37h1.5v-.29a1.19,1.19,0,0,0-.34-.93,1.43,1.43,0,0,0-1-.32,2.47,2.47,0,0,0-.86.15,2.14,2.14,0,0,0-.71.41l-.29-.48a2.64,2.64,0,0,1,.86-.47,3.41,3.41,0,0,1,1.06-.17A2,2,0,0,1,316.52,80.89Zm-.73,3.6a1.48,1.48,0,0,0,.58-.72V83h-1.48c-.81,0-1.22.28-1.22.84a.79.79,0,0,0,.32.66,1.42,1.42,0,0,0,.88.23A1.68,1.68,0,0,0,315.79,84.49Z" transform="translate(-19.39 -16.57)"/><path class="n" d="M321.24,84.91a1.21,1.21,0,0,1-.45.24,1.67,1.67,0,0,1-.55.09,1.24,1.24,0,0,1-1.38-1.38V81H318v-.54h.85v-1h.63v1h1.44V81h-1.44v2.83a.86.86,0,0,0,.22.64.78.78,0,0,0,.6.22,1.27,1.27,0,0,0,.39-.06,1.65,1.65,0,0,0,.32-.18Z" transform="translate(-19.39 -16.57)"/><path class="n" d="M322.39,79.29a.46.46,0,0,1,0-.64.44.44,0,0,1,.33-.13.45.45,0,0,1,.34.13.4.4,0,0,1,.13.31.44.44,0,0,1-.13.33.45.45,0,0,1-.34.13A.44.44,0,0,1,322.39,79.29Zm0,1.17H323v4.73h-.64Z" transform="translate(-19.39 -16.57)"/><path class="n" d="M325.52,84.93a2.36,2.36,0,0,1-.86-.86,2.58,2.58,0,0,1,0-2.49,2.26,2.26,0,0,1,.86-.85,2.62,2.62,0,0,1,2.47,0,2.2,2.2,0,0,1,.86.85,2.66,2.66,0,0,1,0,2.49,2.29,2.29,0,0,1-.86.86,2.62,2.62,0,0,1-2.47,0Zm2.14-.49a1.58,1.58,0,0,0,.63-.65,2,2,0,0,0,.22-1,2.07,2.07,0,0,0-.22-1,1.58,1.58,0,0,0-.63-.65,1.9,1.9,0,0,0-1.81,0,1.64,1.64,0,0,0-.63.65,2.07,2.07,0,0,0-.23,1,2,2,0,0,0,.23,1,1.64,1.64,0,0,0,.63.65,1.9,1.9,0,0,0,1.81,0Z" transform="translate(-19.39 -16.57)"/><path class="n" d="M334.29,80.94a2,2,0,0,1,.53,1.51v2.74h-.64V82.51a1.53,1.53,0,0,0-.37-1.12,1.36,1.36,0,0,0-1.05-.39,1.63,1.63,0,0,0-1.21.45,1.74,1.74,0,0,0-.45,1.26v2.48h-.64V80.46h.62v.87a1.73,1.73,0,0,1,.72-.67,2.32,2.32,0,0,1,1.08-.24A1.94,1.94,0,0,1,334.29,80.94Z" transform="translate(-19.39 -16.57)"/><path class="n" d="M336.72,85.07a2.33,2.33,0,0,1-.82-.42l.29-.5a2.4,2.4,0,0,0,.75.38,2.92,2.92,0,0,0,.93.15,1.86,1.86,0,0,0,1-.2.65.65,0,0,0,.31-.57.52.52,0,0,0-.17-.41,1.11,1.11,0,0,0-.43-.23c-.18,0-.41-.1-.7-.15a6.61,6.61,0,0,1-.92-.22,1.26,1.26,0,0,1-.6-.38,1,1,0,0,1-.25-.75,1.18,1.18,0,0,1,.5-1,2.23,2.23,0,0,1,1.37-.38,3.57,3.57,0,0,1,.92.12,2.85,2.85,0,0,1,.76.32l-.28.52a2.41,2.41,0,0,0-1.4-.41,1.58,1.58,0,0,0-.92.22.64.64,0,0,0-.31.56.56.56,0,0,0,.18.44,1.12,1.12,0,0,0,.43.24,7.27,7.27,0,0,0,.72.15c.38.08.68.15.91.22a1.26,1.26,0,0,1,.59.37,1,1,0,0,1,.24.72,1.13,1.13,0,0,1-.52,1,2.38,2.38,0,0,1-1.43.37A3.73,3.73,0,0,1,336.72,85.07Z" transform="translate(-19.39 -16.57)"/></g></g><g class="k"><g class="k"><path class="n" d="M264.54,98.59c0,1.11-.82,2.09-2.62,2.09a4.4,4.4,0,0,1-2.41-.68l.58-1.12a3,3,0,0,0,1.79.57c.73,0,1.18-.3,1.18-.82s-.32-.82-1.47-.82H260l.33-3.54h3.84v1.17h-2.63l-.1,1.19h.52C263.8,96.63,264.54,97.47,264.54,98.59Z" transform="translate(-19.39 -16.57)"/><path class="n" d="M265.08,99.76a.88.88,0,0,1,1.75,0,.88.88,0,1,1-1.75,0Z" transform="translate(-19.39 -16.57)"/><path class="n" d="M272.57,98.58a2.16,2.16,0,0,1-2.38,2.1c-1.74,0-2.82-1.09-2.82-3.13a3.06,3.06,0,0,1,3.21-3.39,3.4,3.4,0,0,1,1.76.43l-.54,1.07a2.11,2.11,0,0,0-1.18-.31,1.67,1.67,0,0,0-1.77,1.82,2.16,2.16,0,0,1,1.55-.55A2,2,0,0,1,272.57,98.58Zm-1.41.07a.94.94,0,0,0-1.07-.94,1,1,0,0,0-1.09.94c0,.54.4.94,1.11.94A.94.94,0,0,0,271.16,98.65Z" transform="translate(-19.39 -16.57)"/><path class="n" d="M272.82,95.93a1.57,1.57,0,1,1,1.56,1.74A1.57,1.57,0,0,1,272.82,95.93Zm2.22,0c0-.67-.26-1-.66-1s-.66.34-.66,1,.27,1,.66,1S275,96.61,275,95.93Zm3.1-1.66h1.07l-4.31,6.3h-1.07Zm-1,4.63a1.57,1.57,0,1,1,1.56,1.74A1.56,1.56,0,0,1,277.1,98.9Zm2.22,0c0-.66-.27-1-.66-1s-.66.33-.66,1,.27,1,.66,1S279.32,99.57,279.32,98.9Z" transform="translate(-19.39 -16.57)"/></g><g class="k"><path class="n" d="M290.62,100v.58h-4.45v-6.3h4.32v.57h-3.66v2.24h3.26v.57h-3.26V100Z" transform="translate(-19.39 -16.57)"/><path class="n" d="M296.3,95.83v6.48h-.64V99.68a2,2,0,0,1-.76.7,2.34,2.34,0,0,1-1,.23,2.44,2.44,0,0,1-1.21-.3,2.08,2.08,0,0,1-.84-.85,2.7,2.7,0,0,1,0-2.51,2.11,2.11,0,0,1,.85-.85,2.43,2.43,0,0,1,1.2-.3,2.22,2.22,0,0,1,1.07.25,2,2,0,0,1,.76.72v-.94Zm-1.49,4a1.6,1.6,0,0,0,.63-.66,2.12,2.12,0,0,0,0-1.92,1.64,1.64,0,0,0-.63-.65,1.69,1.69,0,0,0-.89-.23,1.74,1.74,0,0,0-.91.23,1.64,1.64,0,0,0-.63.65,2.12,2.12,0,0,0,0,1.92,1.6,1.6,0,0,0,.63.66,1.84,1.84,0,0,0,.91.23A1.79,1.79,0,0,0,294.81,99.82Z" transform="translate(-19.39 -16.57)"/><path class="n" d="M302.35,95.83v4.74h-.61V99.7a1.76,1.76,0,0,1-.7.68,2.17,2.17,0,0,1-1,.23,1.82,1.82,0,0,1-2-2V95.83h.64v2.69a1.57,1.57,0,0,0,.37,1.13,1.36,1.36,0,0,0,1.05.39,1.53,1.53,0,0,0,1.18-.46,1.74,1.74,0,0,0,.43-1.26V95.83Z" transform="translate(-19.39 -16.57)"/><path class="n" d="M304.13,94.66a.42.42,0,0,1-.13-.32.42.42,0,0,1,.13-.31.48.48,0,0,1,.67,0,.42.42,0,0,1,.13.31.44.44,0,0,1-.13.33.46.46,0,0,1-.34.14A.45.45,0,0,1,304.13,94.66Zm0,1.17h.64v4.74h-.64Z" transform="translate(-19.39 -16.57)"/><path class="n" d="M310.21,96.1a2.08,2.08,0,0,1,.84.85,2.7,2.7,0,0,1,0,2.51,2.08,2.08,0,0,1-.84.85,2.44,2.44,0,0,1-1.21.3,2.37,2.37,0,0,1-1-.23,2,2,0,0,1-.76-.7v2.63h-.64V95.83h.61v.94a2.09,2.09,0,0,1,.76-.72A2.22,2.22,0,0,1,309,95.8,2.47,2.47,0,0,1,310.21,96.1Zm-.35,3.72a1.67,1.67,0,0,0,.63-.66,2.12,2.12,0,0,0,0-1.92,1.71,1.71,0,0,0-.63-.65,1.9,1.9,0,0,0-1.81,0,1.64,1.64,0,0,0-.63.65,2.12,2.12,0,0,0,0,1.92,1.6,1.6,0,0,0,.63.66,1.9,1.9,0,0,0,1.81,0Z" transform="translate(-19.39 -16.57)"/><path class="n" d="M316.79,98.4h-4a1.66,1.66,0,0,0,.56,1.19,1.91,1.91,0,0,0,1.3.46,2.17,2.17,0,0,0,.81-.16,1.94,1.94,0,0,0,.64-.46l.36.41a2.19,2.19,0,0,1-.79.58,2.71,2.71,0,0,1-1,.19,2.57,2.57,0,0,1-1.29-.31,2.14,2.14,0,0,1-.88-.86,2.43,2.43,0,0,1-.31-1.24,2.56,2.56,0,0,1,.3-1.24,2.15,2.15,0,0,1,.83-.86,2.47,2.47,0,0,1,2.36,0,2.19,2.19,0,0,1,.82.86,2.5,2.5,0,0,1,.29,1.24Zm-3.44-1.62a1.71,1.71,0,0,0-.52,1.14h3.35a1.76,1.76,0,0,0-.52-1.14,1.63,1.63,0,0,0-1.16-.43A1.61,1.61,0,0,0,313.35,96.78Z" transform="translate(-19.39 -16.57)"/></g></g><g class="k"><g class="k"><path class="n" d="M258.43,114c0,1.06-.82,2-2.61,2a4.39,4.39,0,0,1-2.41-.67l.57-1.12a3.06,3.06,0,0,0,1.8.57c.73,0,1.18-.3,1.18-.81s-.35-.78-1.18-.78h-.66v-1l1.29-1.47h-2.68v-1.17h4.41v1l-1.42,1.62A1.79,1.79,0,0,1,258.43,114Z" transform="translate(-19.39 -16.57)"/><path class="n" d="M259.06,115.13a.87.87,0,0,1,1.74,0,.87.87,0,1,1-1.74,0Z" transform="translate(-19.39 -16.57)"/><path class="n" d="M267.23,114.62h-1v1.32h-1.43v-1.32h-3.39v-1l3-4h1.53l-2.76,3.79h1.7v-1.18h1.38v1.18h1Z" transform="translate(-19.39 -16.57)"/><path class="n" d="M267.28,111.31a1.57,1.57,0,1,1,3.13,0,1.57,1.57,0,1,1-3.13,0Zm2.23,0c0-.68-.26-1-.66-1s-.66.33-.66,1,.27,1,.66,1S269.51,112,269.51,111.31Zm3.09-1.67h1.07l-4.3,6.3H268.3Zm-1,4.64a1.57,1.57,0,1,1,1.56,1.74A1.57,1.57,0,0,1,271.57,114.28Zm2.21,0c0-.67-.26-1-.65-1s-.66.32-.66,1,.27,1,.66,1S273.78,114.94,273.78,114.28Z" transform="translate(-19.39 -16.57)"/></g><g class="k"><path class="n" d="M285,110.22a2.18,2.18,0,0,1,0,3.16,2.88,2.88,0,0,1-1.89.57h-1.69v2h-.67v-6.3h2.36A2.88,2.88,0,0,1,285,110.22Zm-.48,2.74a1.61,1.61,0,0,0,0-2.33,2.21,2.21,0,0,0-1.43-.41h-1.67v3.15h1.67A2.21,2.21,0,0,0,284.51,113Z" transform="translate(-19.39 -16.57)"/><path class="n" d="M288,110a.93.93,0,0,0-.21.66v.56h1.45v.54h-1.44v4.19h-.64v-4.19h-.84v-.54h.84v-.59a1.38,1.38,0,0,1,.38-1,1.43,1.43,0,0,1,1.06-.38,1.82,1.82,0,0,1,.52.08,1.05,1.05,0,0,1,.42.22l-.22.47a1.07,1.07,0,0,0-.7-.23A.81.81,0,0,0,288,110Z" transform="translate(-19.39 -16.57)"/><path class="n" d="M297.06,115.37v.57h-4.45v-6.3h4.32v.58h-3.65v2.24h3.25V113h-3.25v2.34Z" transform="translate(-19.39 -16.57)"/><path class="n" d="M299.13,115.68a2.18,2.18,0,0,1-.87-.86,2.66,2.66,0,0,1,0-2.49,2.22,2.22,0,0,1,.87-.85,2.61,2.61,0,0,1,1.26-.31,2.42,2.42,0,0,1,1.09.24,1.83,1.83,0,0,1,.76.7l-.48.32a1.41,1.41,0,0,0-.59-.52,1.72,1.72,0,0,0-.78-.18,1.91,1.91,0,0,0-.93.23,1.67,1.67,0,0,0-.64.65,2.07,2.07,0,0,0-.22,1,2,2,0,0,0,.22,1,1.67,1.67,0,0,0,.64.65,1.91,1.91,0,0,0,.93.23,1.85,1.85,0,0,0,.78-.17,1.41,1.41,0,0,0,.59-.52l.48.32a1.8,1.8,0,0,1-.77.7,2.38,2.38,0,0,1-1.08.24A2.5,2.5,0,0,1,299.13,115.68Z" transform="translate(-19.39 -16.57)"/><path class="n" d="M307.25,111.69a2,2,0,0,1,.52,1.51v2.74h-.63v-2.68a1.57,1.57,0,0,0-.37-1.12,1.4,1.4,0,0,0-1.06-.39,1.63,1.63,0,0,0-1.21.45,1.77,1.77,0,0,0-.44,1.26v2.48h-.64v-6.67h.64V112a1.66,1.66,0,0,1,.72-.64,2.32,2.32,0,0,1,1.05-.23A2,2,0,0,1,307.25,111.69Z" transform="translate(-19.39 -16.57)"/><path class="n" d="M312.59,111.64a1.78,1.78,0,0,1,.49,1.37v2.93h-.61v-.73a1.46,1.46,0,0,1-.63.57,2.2,2.2,0,0,1-1,.21,2,2,0,0,1-1.26-.38,1.31,1.31,0,0,1,0-2,2.12,2.12,0,0,1,1.39-.37h1.51V113a1.2,1.2,0,0,0-.35-.93,1.41,1.41,0,0,0-1-.32,2.51,2.51,0,0,0-.86.15,2.24,2.24,0,0,0-.71.41l-.29-.48a2.59,2.59,0,0,1,.87-.47,3.36,3.36,0,0,1,1.06-.17A2,2,0,0,1,312.59,111.64Zm-.72,3.6a1.54,1.54,0,0,0,.58-.72v-.77H311c-.81,0-1.21.28-1.21.84a.78.78,0,0,0,.31.66,1.42,1.42,0,0,0,.88.23A1.74,1.74,0,0,0,311.87,115.24Z" transform="translate(-19.39 -16.57)"/><path class="n" d="M318.65,111.69a2,2,0,0,1,.53,1.51v2.74h-.64v-2.68a1.53,1.53,0,0,0-.37-1.12,1.39,1.39,0,0,0-1.05-.39,1.61,1.61,0,0,0-1.21.45,1.74,1.74,0,0,0-.45,1.26v2.48h-.64v-4.73h.61v.87a1.82,1.82,0,0,1,.73-.67,2.31,2.31,0,0,1,1.07-.24A2,2,0,0,1,318.65,111.69Z" transform="translate(-19.39 -16.57)"/><path class="n" d="M325.32,111.21v4.16a2.4,2.4,0,0,1-.59,1.78,2.45,2.45,0,0,1-1.78.58,3.94,3.94,0,0,1-1.25-.19,2.62,2.62,0,0,1-1-.54l.33-.48a2.48,2.48,0,0,0,.83.48,3.22,3.22,0,0,0,1,.17,1.8,1.8,0,0,0,1.32-.42,1.73,1.73,0,0,0,.43-1.3v-.6a2,2,0,0,1-.78.68,2.36,2.36,0,0,1-1.07.23,2.46,2.46,0,0,1-1.21-.29,2.1,2.1,0,0,1-.85-.82,2.44,2.44,0,0,1,0-2.38,2.07,2.07,0,0,1,.85-.81,2.55,2.55,0,0,1,1.21-.29,2.3,2.3,0,0,1,1.09.25,1.94,1.94,0,0,1,.78.7v-.91Zm-1.5,3.77a1.59,1.59,0,0,0,.64-.62,1.68,1.68,0,0,0,.23-.9,1.7,1.7,0,0,0-.23-.9,1.61,1.61,0,0,0-.63-.61,2,2,0,0,0-.94-.22,1.9,1.9,0,0,0-.92.22,1.56,1.56,0,0,0-.64.61,1.88,1.88,0,0,0,0,1.8,1.73,1.73,0,0,0,.64.62,2.05,2.05,0,0,0,1.85,0Z" transform="translate(-19.39 -16.57)"/><path class="n" d="M331.23,113.77h-4a1.66,1.66,0,0,0,.57,1.2,1.88,1.88,0,0,0,1.29.45,1.92,1.92,0,0,0,.81-.16,1.72,1.72,0,0,0,.64-.46l.36.41a1.92,1.92,0,0,1-.79.58,2.68,2.68,0,0,1-1,.2,2.73,2.73,0,0,1-1.29-.31,2.34,2.34,0,0,1-.88-.86,2.46,2.46,0,0,1-.31-1.24,2.57,2.57,0,0,1,.3-1.25,2.19,2.19,0,0,1,.83-.85,2.4,2.4,0,0,1,2.36,0,2.16,2.16,0,0,1,.82.85,2.54,2.54,0,0,1,.3,1.25Zm-3.44-1.61a1.74,1.74,0,0,0-.52,1.14h3.36a1.75,1.75,0,0,0-.53-1.14,1.74,1.74,0,0,0-2.31,0Z" transform="translate(-19.39 -16.57)"/></g></g></svg>