<?xml version="1.0" encoding="utf-8"?>
<!-- Generator: Adobe Illustrator 24.3.0, SVG Export Plug-In . SVG Version: 6.00 Build 0)  -->
<svg version="1.1" id="Calque_1" xmlns="http://www.w3.org/2000/svg" xmlns:xlink="http://www.w3.org/1999/xlink" x="0px" y="0px"
	 viewBox="0 0 961 240" style="enable-background:new 0 0 961 240;" xml:space="preserve">
<style type="text/css">
	.st0{fill-rule:evenodd;clip-rule:evenodd;fill:#FFFFFF;}
</style>
<path class="st0" d="M3.8,4.7C27.7,34.1,54.1,71,58.3,77c0.2,0.3,0.4,0.5,0.5,0.7c2.3,3.2,4.1,5.5,5.6,7.3l0,0l0,0
	c3.2,4,4.1,5.2,2.2,6.2c-1.5,0.9-3.1,1.2-4.7,1.2c-1.8,0-3.8-0.9-5.2-2.3c-1-1-8.1-11.3-17.6-26.3c-7.3-11.5-13.4-21-13.6-21.1
	c-0.4-0.4-0.4-0.4,12.9,23.6c8.3,15,14,26.1,14,26.8c0,1.4-0.4,2.2-2.2,4.2c-2.9,3.3-4.3,7-5.2,14.8c-1.1,8.6-4.1,14.8-12.4,25.2
	c-4.9,6.1-5.7,7.2-6.9,9.7c-1.5,3.1-2,4.8-2.1,8.8c-0.2,4.1,0.2,6.8,1.4,10.8c1.1,3.5,2.2,5.8,5.2,10.3c2.5,4,4,6.9,4,8
	c0,0.9,0.2,0.9,4.1,0c9.4-2.1,17-5.9,21.3-10.5c2.6-2.9,3.3-4.4,3.3-8.3c0-2.6-0.1-3.1-0.8-4.6c-1.1-2.4-3.1-4.4-7.6-7.5
	c-5.9-4-8.4-7.3-9-11.8c-0.6-3.7,0.1-6.3,3.3-13.1c3.4-7.1,4.2-10.1,4.7-17.3c0.4-4.6,0.9-6.4,2.2-7.9c1.4-1.5,2.6-2,6-2.5
	c5.5-0.8,9.1-2.2,12-4.9c2.5-2.3,3.6-4.6,3.7-8l0.1-2.6l-1.4-1.7C71,78.4,0.4,0,0,0C0,0,1.6,2.1,3.8,4.7z M37.1,160.5
	c1.1-2.1,0.5-4.7-1.4-6c-1.8-1.2-4.6-0.6-4.6,0.9c0,0.5,0.3,0.8,0.9,1.1c1,0.5,1.1,1.1,0.3,2.3c-0.8,1.2-0.7,2.3,0.2,3
	C33.9,163.1,36,162.4,37.1,160.5z M71.7,48.3c-2.3-0.4-2.4-0.4-1.3-0.6c2-0.3,6.9,0.1,10.2,0.9c7.8,1.9,14.8,6.6,22.4,15.1l2,2.3
	l2.9-0.5c12.1-2,24.4-0.4,34.7,4.4c2.8,1.3,7.3,3.9,7.8,4.6c0.2,0.2,0.5,1.6,0.7,3.1c0.8,5.1,0.4,9-1.2,12c-0.8,1.6-0.9,2.1-0.3,3.5
	c0.5,1.1,1.7,1.9,3,1.9c2.6,0,5.3-4.2,6.6-10l0.5-2.3l1,1.1c5.5,6.3,9.8,14.9,10.6,21l0.2,1.6l-0.9-1.4c-1.6-2.5-3.2-4.2-5.2-5.6
	c-3.7-2.5-7.6-3.3-17.9-3.9c-9.3-0.5-14.6-1.3-19.9-3c-8.9-2.9-13.4-6.8-24-20.9C98.8,65.5,95.8,62,93,59.2
	C86.4,52.9,79.9,49.6,71.7,48.3z M152.5,62.2c0.2-4.2,0.8-6.9,1.9-9.4c0.4-1,0.9-1.8,0.9-1.8c0.1,0-0.1,0.7-0.4,1.6
	c-0.8,2.4-1,5.8-0.4,9.7c0.7,4.9,1.1,5.6,6.3,11c2.4,2.5,5.2,5.6,6.3,7l1.9,2.5l-1.9-1.8c-2.3-2.1-7.5-6.3-8.6-6.9
	c-0.8-0.4-0.9-0.4-1.4,0.1c-0.4,0.4-0.5,1.1-0.6,4.2c-0.1,4.9-0.8,8-2.3,11.2c-0.9,1.7-1,1.3-0.2-0.6c0.6-1.4,0.6-2.1,0.6-6.8
	c0-9.5-1.1-11.8-7.7-15.7c-1.7-1-4.4-2.4-6.1-3.2c-1.7-0.8-3-1.4-3-1.5c0.2-0.2,6.6,1.7,9.1,2.7c3.8,1.5,4.5,1.7,4.9,1.5
	C152.2,65.8,152.3,64.9,152.5,62.2z M69.2,54.9c-0.6,7.3,2.2,17.2,6.8,23.6c3.6,5,9.1,8.8,13.2,9.2c2.7,0.2,3.5-0.6,2.3-2.4
	c-1.7-2.5-3.7-6.3-4.3-7.9c-0.3-1-1.1-4-1.6-6.7c-1.9-9-3.8-12.6-8.2-15.2c-1.6-1-5-2.3-7-2.6l-1-0.2L69.2,54.9z M146.9,126.2
	c-21.5-8.8-29.1-16.3-29.1-29.2c0-1.9,0.1-3.4,0.1-3.4c0.1,0,0.9,0.6,1.8,1.4c4.4,3.5,9.3,5,22.8,7c8,1.2,12.4,2.1,16.6,3.5
	c13.1,4.4,21.3,13.3,23.2,25.5c0.6,3.5,0.2,10.2-0.7,13.7c-0.7,2.8-2.9,7.7-3.5,7.9c-0.2,0.1-0.3-0.6-0.4-1.4
	c-0.2-4.6-2.5-9-6.3-12.3C167.1,135,161.2,132,146.9,126.2z M130.7,125.2c0.3,0.9,0.8,3,1,4.6c1.7,10.4-3.7,18.7-14.1,22
	c-1.1,0.3-5.5,1.2-9.7,1.9c-8.6,1.4-12.4,2.5-16.2,4.3c-2.7,1.3-6,3.3-5.8,3.5c0.1,0.1,0.7-0.1,1.4-0.3c4.8-1.7,10.2-2.6,18.4-3
	c3.2-0.2,6.9-0.4,8.2-0.6c7.3-0.9,12.3-3.2,16.3-7.2c2.2-2.2,3.5-4.3,4.5-7.3c0.7-1.9,0.8-2.6,0.8-5.9c0-3.4-0.1-4-0.8-6.1
	c-0.9-2.7-2.1-4.8-3.5-6.4l-1-1.2L130.7,125.2z M141.6,147.5c-2.9-6.2-3.5-12.2-2-17.8c0.2-0.6,0.4-1.1,0.6-1.1
	c0.2,0,0.8,0.4,1.5,0.8c1.3,0.9,4,2.4,11,6.3c8.8,4.8,13.8,8.6,17.2,12.9c3,3.7,4.8,8,5.7,13.2c0.5,2.9,0.2,10-0.5,13
	c-2.4,9.4-7.9,16.7-15.7,21c-1.1,0.6-2.2,1.1-2.3,1.1c-0.1,0,0.3-1.1,0.9-2.4c2.6-5.6,2.9-11,0.9-17c-1.2-3.7-3.7-8.2-8.7-15.8
	C144.5,153,143.1,150.6,141.6,147.5z M87.8,167.9c-9.1,1.5-19,6.3-27,13.1l-2.4,2l2.1,0.3c10.9,1.7,13.8,3.2,21.4,11.1
	c4.4,4.5,5.8,5.5,9.4,6.5c5.3,1.4,10.5-1.1,12.3-5.9c0.8-2.1,0.7-5.7-0.2-7.4c-2.2-4.2-8.6-5.6-11.6-2.5c-2.6,2.6-1.8,6.5,1.4,7.1
	c0.7,0.2,0.7,0.1-0.2-0.3c-1.4-0.6-2-1.5-2-2.9c0-3.3,3.7-5.2,7.2-3.6c2.5,1.2,3.6,2.7,3.6,5.3c0,4.1-3.4,7.2-7.5,6.7
	c-2.1-0.3-4.8-1.7-6.2-3.3c-3.5-4-2.2-10.4,2.8-12.9c3.8-1.9,8.8-1.4,12.6,1.2c4.5,2.9,6.4,5.6,10.2,14.5c1.2,2.9,2.9,6.1,3.6,7.2
	c3.6,5.5,8,8.2,13.2,8.2c2.9,0,5.1-0.5,7.8-1.9c2-1,4.9-3,4.7-3.2c-0.1-0.1-0.9,0.2-1.9,0.6c-5.7,2.3-11.6,2.1-14.9-0.4
	c-2.1-1.6-3.8-4.7-4.7-8.6c-0.2-0.7-0.7-3.7-1.1-6.7c-1.2-7.6-2.3-11-4.9-14.9c-2.7-4-7.9-7.3-13.7-8.8
	C98.2,167.5,91.7,167.2,87.8,167.9z M75.1,109.3c0.8-2.9,3.3-5.7,5.9-6.5c1.7-0.5,5.1-0.2,6.7,0.6c3.1,1.6,5.4,5.2,4.9,7.9
	c-0.6,3.2-5.7,5.8-11.7,5.8c-3,0-4.1-0.4-5.3-1.9C74.9,114.2,74.6,111.1,75.1,109.3z M86.9,104.6c1.6,1,2,2.4,1,3.7
	c-0.6,0.9-2.6,1.8-4,1.8c-2.1,0-4.5-1.5-4.5-2.9C79.4,104.3,83.9,102.8,86.9,104.6z M550.6,112.7c-4.8-16.1,3.1-29.4,20.1-33.6
	c4.9-1.2,26.9-0.7,30.7,0.8c1.4,0.5,2,2.6,2,6.7c0,3.3,0.4,7.3,0.8,8.9c0.7,2.4,0.3,2.9-2.3,2.9c-2.3,0-3.7-1.4-5.6-5.5
	c-3.1-6.5-6.9-8.6-15.6-8.6c-11.2,0-19.4,7.5-18.1,16.6c0.9,5.9,6.8,11.8,20.1,19.8c12.6,7.6,20,13.9,23,19.5
	c7.9,15,1.1,31.1-16.4,39.2c-9,4.2-24.1,4.6-34.7,1l-6.8-2.3v-10.8c0-9.8,0.2-10.8,2.5-10.8c1.9,0,2.7,1.2,3.3,5.1
	c1.6,9.6,9,15.5,19.4,15.5c10.2,0,17.4-5.6,20.1-15.7c1.2-4.3,1-5.9-1.3-10.7c-2.8-5.7-7.5-9.5-23.8-18.8
	C559,126.5,552.6,119.6,550.6,112.7z M232.8,85.5c-2.2,0-3.1-0.7-3.1-2.6c0-2.5,0.9-2.6,18.2-2.6c16.1,0,18.1,0.2,17.8,2.1
	c-0.2,1.1-2.5,2.7-4.9,3.5l-4.5,1.5l-0.4,32.9c-0.3,21.9,0.1,34.6,1.1,38c2.9,10.2,11.9,16.1,24.5,16.1c8.8,0,13.9-2.1,20.4-8.2
	c6.9-6.6,8-12.8,8-45.2c0-32-0.6-34.6-7.4-35.3c-3.1-0.3-4.2-1-4.2-2.9c0-2.3,1-2.5,15.5-2.5c14.7,0,15.5,0.1,15.5,2.6
	c0,1.6-0.9,2.6-2.3,2.6c-6,0.1-6.1,0.6-6.9,35.7c-0.8,36.4-1.6,40.7-9,49.6c-2.1,2.6-7.2,6.3-11.3,8.3c-6.6,3.2-8.8,3.6-20.3,3.6
	c-10.7,0-14.1-0.5-19.4-3c-7.8-3.5-12.9-8.1-16.6-15c-2.6-4.8-2.8-7.4-3.4-40.1C239.4,87.3,239,85.5,232.8,85.5z M353.8,85.5
	c-3,0-3.8-0.6-3.8-2.6c0-2.4,0.8-2.6,13.3-2.5l13.3,0.1l6.3,7.3c3.5,4,14.8,16.6,25.3,27.9c10.4,11.3,22.3,24.5,26.5,29.3
	c4.2,4.8,8.1,8.7,8.8,8.7c0.6,0,1-13.5,0.7-31l-0.4-31l-3.6-3.1c-2-1.7-5-3.1-6.8-3.1c-2.3,0-3.2-0.7-3.2-2.6
	c0-2.5,0.7-2.6,17.8-2.3c14.6,0.3,17.8,0.7,17.8,2.2c0,1.1-1.8,2.2-4.3,2.8c-2.4,0.5-5,1.6-5.8,2.4c-1.1,1.1-1.6,14.7-1.9,47.2
	l-0.4,45.7h-3.7c-3.2,0-7.1-3.6-27.6-26.1c-13.1-14.4-28.4-31.4-34-37.9c-5.6-6.5-10.6-11.9-11.1-11.9c-1.5-0.2-1.1,57.9,0.4,63.4
	c1.2,4.3,2,5,7.1,6.4c4.1,1.1,5.8,2.2,5.8,3.8c0,2.1-1.6,2.3-18.1,2.3c-16.8,0-18.1-0.2-18.1-2.4c0-1.6,1.2-2.7,3.8-3.2
	c7.9-1.6,8.4-4.1,8.9-42.2c0.2-21.4-0.1-36.3-1-39.5C364.1,88,360.4,85.5,353.8,85.5z M489.3,85.5c-2.8,0-3.6-0.6-3.6-2.6
	c0-2.5,0.9-2.6,19.4-2.6c18.5,0,19.4,0.1,19.4,2.6c0,1.9-0.9,2.6-3.2,2.6c-1.8,0-4.4,1.2-5.9,2.6c-2.6,2.6-2.6,3.8-2.3,43.3
	c0.4,38.5,0.5,40.7,2.9,42.5c1.4,1,3.9,1.8,5.5,1.8c2.1,0,3,0.7,3,2.6c0,2.5-0.9,2.6-19.4,2.6c-18.1,0-19.4-0.2-19.4-2.4
	c0-1.8,1.3-2.6,5.1-3.2c7.6-1.2,8-3.7,7.6-48.3c-0.4-35.7-0.5-37.9-2.9-39.6C494.1,86.3,491.3,85.5,489.3,85.5z M624.6,85.5
	c-1.8,0-3.1-1-3.5-2.6c-0.7-2.5,0-2.6,18.6-2.6c18.4,0,19.3,0.1,19.3,2.6c0,2-0.9,2.6-3.7,2.6c-8.1,0-8,1.5,4.4,35.2
	c6.3,17.2,12.4,33.4,13.5,36.2l2.1,5l9.9-26.3c11.6-30.9,13.1-36.7,11.2-42.3c-1.4-3.9-6.7-7.8-10.8-7.8c-1.1,0-2-1.1-2-2.6
	c0-2.5,0.9-2.6,20-2.6c19.2,0,20,0.1,20,2.6c0,1.8-0.9,2.6-3,2.6c-5.4,0-7.8,2.9-7.1,8.5c0.8,5.8,23,67.9,24,66.9
	c1.5-1.5,26.1-68.4,26.1-71c0-3.1-2.2-4.5-7.2-4.5c-2.3,0-3.1-0.7-3.1-2.6c0-2.4,0.9-2.6,15.5-2.6c13.2,0,15.5,0.3,15.5,2
	c0,1.1-1.6,2.6-3.6,3.2c-4.4,1.5-5.5,3.3-11.1,17.5c-2.4,6.3-10.1,25.8-17,43.5c-6.9,17.7-12.8,32.9-13.2,33.8
	c-0.4,0.9-2.5,1.7-4.8,1.7h-4.1l-9.3-24.2c-5.1-13.3-11.1-29-13.4-35c-3.9-10.2-4.2-10.6-5.7-7.7c-0.9,1.7-7,17.5-13.6,35
	l-12.1,31.9l-4.5-0.4l-4.5-0.4l-17.2-45c-9.6-25.1-18.5-46.3-20-48C628.8,86.8,626.2,85.5,624.6,85.5z M883.2,86
	c-0.2-0.5-0.2-2.2-0.2-2.2s0-0.6,0.2-1c0.3-0.3,0.4-0.3,1.3-0.4l0,0c3.5-0.3,10.5-0.9,16.3-1.1c0.5,0,1.1-0.1,1.8-0.1l0,0l0,0
	c6.4-0.3,17.9-0.7,25.9-0.3c15.2,0.8,26,8.1,29.7,20.2c3.7,12.1,1.7,23.5-3.3,30.8c-5,7.2-13.4,13.5-27.5,13.1
	c-11.6-0.3-14.7-2.5-17.1-4.2c-0.5-0.4-1-0.7-1.6-1v15.5c0.1,10.5,0.2,15.6,1,17.5c1.1,2.5,3.6,4.1,8.4,5.3c0,0,2.2,0.5,2.8,1.1
	c0.6,0.5,0.6,1.8,0.6,1.8s0.1,1.1-0.3,1.7c-0.5,0.6-1.3,0.5-1.3,0.5l-21.5-0.2l-12.9,0c0,0-1.4,0.3-1.9-0.3
	c-0.5-0.5-0.5-1.7-0.5-1.7s0.1-1.2,0.7-1.8c0.6-0.5,2.8-1.2,2.8-1.2c5-1.4,7.2-2.9,8.3-5.7c0.9-2.2,0.9-6.4,0.9-40.5
	c0-32.3-0.1-38.3-0.8-40.1c-1.1-2.6-3.8-3.2-7.7-4.2l0,0c-0.8-0.2-1.6-0.4-2.5-0.6C884.8,86.7,883.4,86.5,883.2,86z M945.6,112.4
	c0,5.3-0.1,13.6-5.7,18.9c-5.6,5.3-16.7,6.8-24.3,5.3c-2.4-0.5-3.7-1.2-4.8-1.7l-0.1-0.1l-1.9-1l-0.1-18.6
	c-0.1-11.7,0.1-19.3,0.3-20.3c0.3-6.1,9.3-6.9,13.8-6.7C941.7,88.1,945.1,104.1,945.6,112.4z M822.9,81.3c-0.4,0.2-1,0.4-1.6,0.6
	l-5.1,2.6l-3.6,9.1c-2,5-5.7,14.2-8.1,20.4c-4.5,11.3-7.5,18.8-10.6,26.6c-0.9,2.3-3.7,9.3-6.2,15.5c-2.5,6.2-5,12.1-5.5,13.2
	c-0.1,0.2-0.2,0.4-0.3,0.5c-1.4,2.6-3.8,7.1-8.1,7.8c0,0-2.3,0.2-3.2,1.1c-0.9,0.9-0.8,1.6-0.8,1.6v1.1c0,0,0.1,0.5,0.6,0.8
	c0.5,0.3,1.2,0.3,1.2,0.3l15.6-0.2h16.1c0,0,1.1,0.1,1.6-0.2c0.4-0.4,0.6-0.9,0.6-0.9v-1.1c0,0-0.2-1.2-0.9-1.7
	c-0.6-0.5-3-0.8-3-0.8c-6.4-0.8-7.6-5.7-6.8-10.1c0.4-2.2,3-10.1,5.9-18.1l1-2.8l16.9-0.1c9.3-0.1,17.3,0,17.8,0.1
	c0.7,0.2,1.8,2.3,4.8,9.7c4.6,11.2,4.9,12.6,3.9,14.7c-0.1,0.1-0.1,0.3-0.2,0.4c-0.9,2-2.8,6-7.4,6.4c0,0-2.5,0.1-3.1,0.8
	c-0.6,0.7-0.5,1.6-0.5,1.6v1.1c0,0,0.2,0.7,0.5,0.9c0.3,0.3,0.8,0.2,0.8,0.2l15.3-0.1l21.5,0c0,0,0.8,0.1,1.1-0.2
	c0.2-0.3,0.3-0.7,0.3-0.7v-1.5c0,0-0.1-0.8-0.5-1.2c-0.4-0.4-3.2-0.9-3.2-0.9c-3.6-0.6-5.3-3.5-6.7-5.7c-0.3-0.6-0.6-1.1-0.9-1.5
	c-0.6-0.8-2.8-5.4-4.5-9.8c-1.7-4.4-5.6-14.3-8.6-22.1c-3-7.7-7.2-18.6-9.3-24c-2.1-5.5-6.2-15.9-9-23.1c-0.5-1.2-0.9-2.3-1.2-3.2
	l0,0c-1.9-4.9-2.6-6.8-2.9-7.1c-0.7-0.9-2.8,0-2.8,0S823.4,81.1,822.9,81.3z M822.6,110.6c-0.7-1.7-1.9-4.6-2.7-6.6
	c-1.4-3.6-2-4.4-2.4-3.7c-0.1,0.2-1,2.7-2,5.4c-6.2,18-9.1,26-9.6,27.6c-0.4,1-0.6,1.9-0.6,2.2c0,0.3,5.1,0.5,13.8,0.5
	c7.6,0,13.8-0.1,13.8-0.2c0-0.1-0.7-1.8-1.5-3.8c-0.8-2-2.8-6.9-4.5-11C825.2,116.9,823.3,112.3,822.6,110.6z"/>
</svg>
