<svg id="Calque_1" data-name="Calque 1" xmlns="http://www.w3.org/2000/svg" xmlns:xlink="http://www.w3.org/1999/xlink" viewBox="0 0 1158.69 220.74"><defs><style>.cls-1,.cls-104,.cls-105,.cls-106,.cls-107,.cls-108,.cls-109,.cls-110,.cls-111,.cls-112,.cls-113,.cls-120,.cls-2,.cls-3,.cls-61,.cls-62{fill:none;}.cls-2,.cls-62{stroke:#fff;}.cls-3{stroke:#e11e1c;stroke-opacity:0;}.cls-4{fill:#64c4ef;}.cls-5{fill:#58c0e4;}.cls-6{fill:#3bbced;}.cls-7{fill:#0096cc;}.cls-8{fill:#3dbced;}.cls-9{fill:#03779b;}.cls-10,.cls-125,.cls-129,.cls-132{fill:#06a2db;}.cls-11,.cls-116,.cls-12,.cls-125,.cls-129,.cls-132,.cls-22,.cls-28,.cls-33,.cls-37,.cls-57,.cls-63,.cls-66,.cls-69{isolation:isolate;}.cls-12,.cls-17,.cls-33,.cls-36,.cls-37{font-size:12.41px;}.cls-12,.cls-121,.cls-124,.cls-17,.cls-22,.cls-25,.cls-28,.cls-30{fill:#fff;}.cls-12,.cls-17,.cls-22,.cls-25,.cls-28,.cls-30,.cls-33,.cls-36,.cls-57{font-family:Montserrat-Bold, Montserrat;font-weight:700;}.cls-13{letter-spacing:-0.01em;}.cls-14{letter-spacing:-0.01em;}.cls-15{letter-spacing:0em;}.cls-16{letter-spacing:-0.01em;}.cls-18{letter-spacing:0.02em;}.cls-19{letter-spacing:-0.01em;}.cls-20{letter-spacing:-0.02em;}.cls-21{fill:#015c7a;fill-rule:evenodd;}.cls-22,.cls-25{font-size:15.16px;}.cls-23{letter-spacing:-0.01em;}.cls-24{letter-spacing:-0.02em;}.cls-26{letter-spacing:-0.02em;}.cls-27{letter-spacing:-0.01em;}.cls-28,.cls-30{font-size:23.44px;}.cls-29{letter-spacing:0.01em;}.cls-31{letter-spacing:-0.05em;}.cls-32{letter-spacing:-0.02em;}.cls-33,.cls-36,.cls-37,.cls-57,.cls-63,.cls-66,.cls-69{fill:#4b4a4a;}.cls-34{letter-spacing:-0.03em;}.cls-35{letter-spacing:0em;}.cls-116,.cls-37,.cls-63,.cls-66,.cls-69,.cls-74{font-family:Montserrat-Regular, Montserrat;}.cls-38{letter-spacing:-0.01em;}.cls-39{letter-spacing:-0.02em;}.cls-40{letter-spacing:0em;}.cls-41{letter-spacing:0em;}.cls-42{letter-spacing:0.01em;}.cls-43{letter-spacing:-0.02em;}.cls-44{letter-spacing:0em;}.cls-45{letter-spacing:-0.01em;}.cls-46{letter-spacing:-0.02em;}.cls-47{letter-spacing:-0.02em;}.cls-48{letter-spacing:-0.02em;}.cls-49{letter-spacing:-0.01em;}.cls-50{letter-spacing:-0.02em;}.cls-51{letter-spacing:-0.01em;}.cls-52{letter-spacing:0em;}.cls-53{letter-spacing:-0.01em;}.cls-54{letter-spacing:-0.05em;}.cls-55{letter-spacing:-0.02em;}.cls-56{letter-spacing:-0.01em;}.cls-57{font-size:17.92px;}.cls-58{letter-spacing:-0.06em;}.cls-59{letter-spacing:0em;}.cls-60{letter-spacing:-0.02em;}.cls-61{stroke:#9a9999;}.cls-61,.cls-62{stroke-width:0.5px;stroke-dasharray:1;}.cls-63,.cls-66,.cls-69{font-size:16.17px;}.cls-63,.cls-73{letter-spacing:0em;}.cls-64{letter-spacing:0em;}.cls-65{letter-spacing:0em;}.cls-67,.cls-69{letter-spacing:0em;}.cls-68{letter-spacing:-0.01em;}.cls-70{letter-spacing:0em;}.cls-71{letter-spacing:0em;}.cls-72{letter-spacing:-0.02em;}.cls-74{font-size:9.56px;}.cls-116,.cls-74{fill:#4d4a4b;}.cls-75{letter-spacing:-0.05em;}.cls-76{letter-spacing:-0.02em;}.cls-77{letter-spacing:0em;}.cls-78{letter-spacing:-0.01em;}.cls-79{letter-spacing:-0.02em;}.cls-80{letter-spacing:-0.02em;}.cls-81{letter-spacing:-0.02em;}.cls-82{letter-spacing:0em;}.cls-83{letter-spacing:-0.01em;}.cls-84{letter-spacing:-0.01em;}.cls-85{letter-spacing:-0.01em;}.cls-86{letter-spacing:-0.01em;}.cls-87{letter-spacing:-0.02em;}.cls-88{letter-spacing:-0.02em;}.cls-89{letter-spacing:-0.01em;}.cls-90{letter-spacing:0em;}.cls-91{letter-spacing:-0.01em;}.cls-92{fill:#b4b4b5;}.cls-93{fill:url(#Nouvelle_nuance_de_dégradé_1_2);}.cls-94{fill:#e37c3a;}.cls-95{fill:#fbe194;}.cls-96{fill:#3a7743;}.cls-97{fill:#6ba552;}.cls-98{fill:#90c17e;}.cls-99{fill:#d34d94;}.cls-100{fill:#4975b4;}.cls-101{clip-path:url(#clip-path);}.cls-102{fill:#b45395;}.cls-103{fill:#f2bc41;}.cls-104{stroke:#06a2db;}.cls-104,.cls-105,.cls-106,.cls-107,.cls-108,.cls-109,.cls-110,.cls-111,.cls-112,.cls-113{stroke-miterlimit:10;stroke-width:2px;}.cls-105{stroke:#4975b4;}.cls-106{stroke:#b45395;}.cls-107{stroke:#90c17e;}.cls-108{stroke:#6ba552;}.cls-109{stroke:#3a7743;}.cls-110{stroke:#fbe194;}.cls-111{stroke:#e37c3a;}.cls-112{stroke:#f2bc41;}.cls-113{stroke:#b4b4b5;}.cls-114{fill-opacity:0;}.cls-115{fill:#959493;}.cls-116{font-size:15.29px;}.cls-117{letter-spacing:-0.01em;}.cls-118{letter-spacing:-0.02em;}.cls-119{letter-spacing:-0.01em;}.cls-120{stroke:#959493;stroke-opacity:0.51;stroke-width:0.3px;}.cls-121{font-size:24.26px;}.cls-121,.cls-125,.cls-129,.cls-132{font-family:Montserrat-SemiBold, Montserrat;font-weight:600;}.cls-122{letter-spacing:-0.01em;}.cls-123{letter-spacing:0em;}.cls-125,.cls-129,.cls-132{font-size:12.13px;}.cls-126{letter-spacing:-0.02em;}.cls-127{letter-spacing:0em;}.cls-128{letter-spacing:-0.03em;}.cls-129{letter-spacing:0em;}.cls-130{letter-spacing:-0.01em;}.cls-131{letter-spacing:0em;}.cls-132{letter-spacing:-0.06em;}.cls-133{letter-spacing:-0.03em;}.cls-134{letter-spacing:0.01em;}</style><linearGradient id="Nouvelle_nuance_de_dégradé_1_2" x1="1095.46" y1="72.21" x2="1104.03" y2="72.21" gradientUnits="userSpaceOnUse"><stop offset="0.11" stop-color="#f4b626"/><stop offset="0.45" stop-color="#f6cd25"/><stop offset="0.78" stop-color="#f9e823"/></linearGradient><clipPath id="clip-path" transform="translate(-18.01 -13.98)"><rect class="cls-1" x="573.21" y="50.19" width="513.86" height="157.63"/></clipPath></defs><title>web-split</title><g id="Token-Split"><g id="Gold-Spiral-2"><g id="Gold-Spiral"><path id="path1875" class="cls-1" d="M323.13,161.45C323.13,97.69,271.15,46,207,46" transform="translate(-18.01 -13.98)"/><path id="path2762" class="cls-1" d="M251.39,232.79c39.62,0,71.74-31.94,71.74-71.34" transform="translate(-18.01 -13.98)"/><path id="path2764" class="cls-1" d="M207,188.69a44.22,44.22,0,0,0,44.35,44.1" transform="translate(-18.01 -13.98)"/><path id="path2766" class="cls-1" d="M207,188.69a27.32,27.32,0,0,1,27.39-27.24" transform="translate(-18.01 -13.98)"/><path id="path2768" class="cls-1" d="M251.39,178.31a16.81,16.81,0,0,0-5-11.92,17,17,0,0,0-12-4.94" transform="translate(-18.01 -13.98)"/><path id="path2770" class="cls-1" d="M251.39,178.31A10.41,10.41,0,0,1,241,188.69" transform="translate(-18.01 -13.98)"/><path id="path2772" class="cls-2" d="M234.43,182.2a6.5,6.5,0,0,0,6.52,6.49" transform="translate(-18.01 -13.98)"/><path id="path2774" class="cls-2" d="M234.43,182.2a3.9,3.9,0,0,1,3.91-3.89" transform="translate(-18.01 -13.98)"/><path id="rect2784" class="cls-3" d="M238.53,182.2v-3.89" transform="translate(-18.01 -13.98)"/><path id="rect2786" class="cls-3" d="M241,184.72h-6.52" transform="translate(-18.01 -13.98)"/><path id="rect2788" class="cls-3" d="M238.34,181.1H241" transform="translate(-18.01 -13.98)"/><path id="rect2790" class="cls-3" d="M239.84,180.91v1.29" transform="translate(-18.01 -13.98)"/><path id="rect2794" class="cls-2" d="M241.14,178.31v10.38" transform="translate(-18.01 -13.98)"/><path id="rect2796" class="cls-1" d="M234.43,178.5h17" transform="translate(-18.01 -13.98)"/><path id="rect2798" class="cls-1" d="M234.62,188.69V161.45" transform="translate(-18.01 -13.98)"/><path id="rect2800" class="cls-1" d="M251.39,188.88H207" transform="translate(-18.01 -13.98)"/><path id="rect2802" class="cls-1" d="M251.58,161.45v71.34" transform="translate(-18.01 -13.98)"/><path id="rect2804" class="cls-1" d="M207,161.57H323.2" transform="translate(-18.01 -13.98)"/><path id="rect2806" class="cls-1" d="M207.23,232.79V46" transform="translate(-18.01 -13.98)"/><path id="path1028" class="cls-3" d="M241,180.91a2.6,2.6,0,0,0-2.61-2.6" transform="translate(-18.01 -13.98)"/><path id="path1030" class="cls-3" d="M241,180.91a1.3,1.3,0,0,1-.38.91,1.28,1.28,0,0,1-.92.38" transform="translate(-18.01 -13.98)"/><path id="path1034" class="cls-3" d="M238.35,180.9a1.26,1.26,0,0,0,.38.92,1.3,1.3,0,0,0,.92.38" transform="translate(-18.01 -13.98)"/><path id="path9807" class="cls-4" d="M208.51,102.79V45.48l3.53.15a115.67,115.67,0,0,1,47.61,12.08,111.05,111.05,0,0,1,30.24,21.76,114,114,0,0,1,33.53,76l.19,4.71-57.55,0-57.55,0Z" transform="translate(-18.01 -13.98)"/><path id="path9809" class="cls-5" d="M252.67,197.05l0-35.27h70.81v1.95a71.14,71.14,0,0,1-67.8,68.41l-3.08.19Z" transform="translate(-18.01 -13.98)"/><path id="path9817" class="cls-6" d="M241.39,183.33v-4.82h9.39l-.18,1.33a10.06,10.06,0,0,1-8,8.11l-1.23.2Z" transform="translate(-18.01 -13.98)"/><path id="path9811" class="cls-7" d="M248,232.08a47.14,47.14,0,0,1-19.94-6.61c-11.66-7.42-19.46-20.34-20.22-33.45l-.17-3.07,21.66,0L251,189v43.25l-1-.05c-.53,0-1.45-.09-2-.15Z" transform="translate(-18.01 -13.98)"/><path id="path9813" class="cls-8" d="M207.76,186.89c0-5.35,3.16-12.34,7.61-16.83s12-8,17.68-8h1.15l0,13.14-.06,13.15H207.76Z" transform="translate(-18.01 -13.98)"/><path id="path9815" class="cls-9" d="M234.78,170v-7.89h.84c3.07,0,7.57,2.1,10.3,4.8s4.76,7,4.78,10.07v1l-8,0-8,0Z" transform="translate(-18.01 -13.98)"/><path id="path9805" class="cls-10" d="M204.72,45.36Q122.14,46,72.51,99.2T18,234.63l93.12.09h93.59l0-93.72Q204.1,109.52,204.72,45.36Z" transform="translate(-18.01 -13.98)"/><g class="cls-11"><text class="cls-12" transform="translate(238.27 164.96)">Ne<tspan class="cls-13" x="17.85" y="0">t</tspan><tspan class="cls-14" x="23.13" y="0">w</tspan><tspan x="34.57" y="0">o</tspan><tspan class="cls-15" x="42.69" y="0">r</tspan><tspan x="47.99" y="0">k </tspan></text><text class="cls-12" transform="translate(238.27 180.12)"><tspan class="cls-16">P</tspan><tspan x="8.95" y="0">ool</tspan></text><text class="cls-17" transform="translate(267.2 180.12)"> </text><text class="cls-12" transform="translate(238.27 195.29)">1<tspan class="cls-18" x="4.86" y="0">4</tspan><tspan class="cls-19" x="13.66" y="0">.</tspan><tspan class="cls-20" x="16.75" y="0">6</tspan><tspan x="24.41" y="0">%</tspan></text></g><path id="Path-16" class="cls-21" d="M241.05,178.52q-6.26.39-6.25,4.66t6.25,5Z" transform="translate(-18.01 -13.98)"/></g><g class="cls-11"><text class="cls-22" transform="translate(194.43 120.33)">23<tspan class="cls-23" x="17.92" y="0">.</tspan><tspan class="cls-24" x="21.7" y="0">6</tspan><tspan x="31.06" y="0">%</tspan></text><text class="cls-25" transform="translate(238.79 120.33)"> </text><text class="cls-22" transform="translate(194.43 139.63)">Deli<tspan class="cls-26" x="31.22" y="0">v</tspan><tspan x="40.06" y="0">e</tspan><tspan class="cls-27" x="49.63" y="0">r</tspan><tspan x="56.06" y="0">ables</tspan></text></g><g class="cls-11"><text class="cls-28" transform="translate(99.74 150.03)">3<tspan class="cls-29" x="13.87" y="0">8.2</tspan><tspan x="50.01" y="0">%</tspan></text><text class="cls-30" transform="translate(170.3 150.03)"> </text><text class="cls-28" transform="translate(95.85 177.61)"><tspan class="cls-31">T</tspan><tspan x="13.19" y="0">o</tspan><tspan class="cls-32" x="28.55" y="0">k</tspan><tspan x="43.47" y="0">en</tspan></text><text class="cls-30" transform="translate(170.3 177.61)"> </text><text class="cls-28" transform="translate(112.42 205.18)">Sale</text></g><g class="cls-11"><text class="cls-33" transform="translate(317.13 192.88)">3.<tspan class="cls-34" x="10.6" y="0">4</tspan><tspan class="cls-35" x="18.77" y="0">%</tspan></text><text class="cls-36" transform="translate(353.37 192.88)"> </text><text class="cls-37" transform="translate(353.37 192.88)">Ma<tspan class="cls-38" x="19.17" y="0">r</tspan><tspan class="cls-39" x="24.05" y="0">k</tspan><tspan class="cls-35" x="31.24" y="0">eti</tspan><tspan class="cls-40" x="47.11" y="0">n</tspan><tspan class="cls-41" x="55.53" y="0">g</tspan></text></g><g class="cls-11"><text class="cls-33" transform="translate(306.1 214.07)"><tspan class="cls-42">2.2</tspan><tspan x="18.26" y="0">%</tspan></text><text class="cls-36" transform="translate(341.72 214.07)"> </text><text class="cls-37" transform="translate(341.72 214.07)"><tspan class="cls-43">F</tspan><tspan x="7.63" y="0">ou</tspan><tspan class="cls-44" x="23.76" y="0">n</tspan><tspan x="32.18" y="0">dation</tspan></text></g><g class="cls-11"><text class="cls-33" transform="translate(322.64 108.09)">1<tspan class="cls-18" x="4.86" y="0">4</tspan><tspan class="cls-19" x="13.66" y="0">.</tspan><tspan class="cls-20" x="16.75" y="0">6</tspan><tspan x="24.41" y="0">%</tspan></text><text class="cls-36" transform="translate(365.77 108.09)"> </text><text class="cls-37" transform="translate(365.77 108.09)">Ne<tspan class="cls-45" x="17.58" y="0">t</tspan><tspan class="cls-14" x="22.49" y="0">w</tspan><tspan x="33.21" y="0">o</tspan><tspan class="cls-38" x="40.99" y="0">r</tspan><tspan x="45.87" y="0">k </tspan><tspan class="cls-19" x="56.58" y="0">P</tspan><tspan x="65.32" y="0">ool</tspan></text></g><g class="cls-11"><text class="cls-33" transform="translate(299.2 65.7)"><tspan class="cls-42">8.2</tspan><tspan x="19.13" y="0">%</tspan></text><text class="cls-36" transform="translate(335.89 65.7)"> </text><text class="cls-37" transform="translate(335.89 65.7)"><tspan class="cls-46">P</tspan><tspan class="cls-38" x="8.62" y="0">r</tspan><tspan x="13.5" y="0">i</tspan><tspan class="cls-47" x="16.84" y="0">v</tspan><tspan x="23.36" y="0">a</tspan><tspan class="cls-48" x="30.68" y="0">t</tspan><tspan x="35.48" y="0">e Sale</tspan></text></g><g class="cls-11"><text class="cls-33" transform="translate(281.28 44.51)">30%</text><text class="cls-36" transform="translate(313.85 44.51)"> </text><text class="cls-37" transform="translate(313.85 44.51)">Public Sale</text></g><g class="cls-11"><text class="cls-33" transform="translate(315.75 86.9)">23<tspan class="cls-49" x="14.67" y="0">.</tspan><tspan class="cls-50" x="17.75" y="0">6</tspan><tspan x="25.41" y="0">%</tspan></text><text class="cls-36" transform="translate(360.1 86.9)"> </text><text class="cls-37" transform="translate(360.1 86.9)">Deli<tspan class="cls-14" x="24.42" y="0">v</tspan><tspan x="30.96" y="0">e</tspan><tspan class="cls-51" x="38.45" y="0">r</tspan><tspan x="43.31" y="0">ables</tspan></text></g><g class="cls-11"><text class="cls-33" transform="translate(332.29 129.29)">9%</text><text class="cls-36" transform="translate(355.25 129.29)"> </text><text class="cls-37" transform="translate(355.25 129.29)">Enha<tspan class="cls-52" x="32.42" y="0">n</tspan><tspan class="cls-53" x="40.84" y="0">c</tspan><tspan x="47.72" y="0">e</tspan><tspan class="cls-40" x="55.21" y="0">m</tspan><tspan class="cls-35" x="68.4" y="0">ent</tspan></text></g><g class="cls-11"><text class="cls-33" transform="translate(330.91 150.49)">5<tspan class="cls-49" x="7.38" y="0">.</tspan><tspan class="cls-50" x="10.47" y="0">6</tspan><tspan x="18.13" y="0">%</tspan></text><text class="cls-36" transform="translate(366.37 150.49)"> </text><text class="cls-37" transform="translate(366.37 150.49)"><tspan class="cls-54">T</tspan><tspan class="cls-55" x="6.44" y="0">e</tspan><tspan x="13.75" y="0">am</tspan></text></g><g class="cls-11"><text class="cls-33" transform="translate(322.64 171.68)">3.<tspan class="cls-34" x="10.6" y="0">4</tspan><tspan class="cls-35" x="18.77" y="0">%</tspan></text><text class="cls-36" transform="translate(358.88 171.68)"> </text><text class="cls-37" transform="translate(358.88 171.68)"><tspan class="cls-14">E</tspan><tspan class="cls-48" x="8.11" y="0">x</tspan><tspan class="cls-56" x="14.5" y="0">c</tspan><tspan class="cls-41" x="21.39" y="0">h. </tspan><tspan class="cls-49" x="35.67" y="0">P</tspan><tspan x="44.42" y="0">ool</tspan></text></g></g><g class="cls-11"><text class="cls-57" transform="translate(12.45 15.23)"><tspan class="cls-58">T</tspan><tspan class="cls-59" x="10.09" y="0">o</tspan><tspan class="cls-60" x="21.83" y="0">k</tspan><tspan x="33.25" y="0">en Split</tspan></text></g></g><g id="Group-2"><path id="Path-2" class="cls-61" d="M597.87,214,597,40.25" transform="translate(-18.01 -13.98)"/><path id="Path-3" class="cls-61" d="M648.55,214l-1-173.7" transform="translate(-18.01 -13.98)"/><path class="cls-61" d="M698.09,214l0-173.7" transform="translate(-18.01 -13.98)"/><path class="cls-61" d="M747.89,214l.78-173.7" transform="translate(-18.01 -13.98)"/><path class="cls-61" d="M799.45,214l-.24-173.7" transform="translate(-18.01 -13.98)"/><path class="cls-61" d="M851,214l.78-173.7" transform="translate(-18.01 -13.98)"/><path class="cls-61" d="M897.91,214l.37-173.7" transform="translate(-18.01 -13.98)"/><path class="cls-61" d="M960.94,214l.3-173.7" transform="translate(-18.01 -13.98)"/><path class="cls-61" d="M1024.26,214l-.34-173.7" transform="translate(-18.01 -13.98)"/><path class="cls-61" d="M1087.29,214l-.41-173.7" transform="translate(-18.01 -13.98)"/></g><path id="Path-22" class="cls-62" d="M789.54,187.34V67.05" transform="translate(-18.01 -13.98)"/><g class="cls-11"><text class="cls-63" transform="translate(588.63 216.25)">2<tspan class="cls-64" x="9.12" y="0">0</tspan><tspan x="19.8" y="0">2</tspan><tspan class="cls-65" x="28.92" y="0">0</tspan></text></g><g class="cls-11"><text class="cls-66" transform="translate(1027.63 216.25)"><tspan class="cls-67">2</tspan><tspan x="9.12" y="0">050</tspan></text></g><g class="cls-11"><text class="cls-66" transform="translate(962.23 216.25)"><tspan class="cls-67">2</tspan><tspan x="9.12" y="0">040</tspan></text></g><g class="cls-11"><text class="cls-66" transform="translate(900.75 216.25)"><tspan class="cls-67">2</tspan><tspan class="cls-68" x="9.12" y="0">0</tspan><tspan x="19.67" y="0">30</tspan></text></g><g class="cls-11"><text class="cls-69" transform="translate(839.97 216.25)">2<tspan class="cls-70" x="9.12" y="0">0</tspan><tspan class="cls-71" x="19.8" y="0">25</tspan></text></g><g class="cls-11"><text class="cls-66" transform="translate(789.27 216.25)"><tspan class="cls-67">2</tspan><tspan class="cls-70" x="9.12" y="0">0</tspan><tspan class="cls-72" x="19.8" y="0">2</tspan><tspan x="28.61" y="0">4</tspan></text></g><g class="cls-11"><text class="cls-69" transform="translate(739.75 216.25)">2<tspan class="cls-70" x="9.12" y="0">0</tspan><tspan class="cls-71" x="19.8" y="0">23</tspan></text></g><g class="cls-11"><text class="cls-69" transform="translate(689.6 216.25)">2<tspan class="cls-70" x="9.12" y="0">0</tspan><tspan class="cls-71" x="19.8" y="0">22</tspan></text></g><text class="cls-69" transform="translate(641.15 216.25)">2<tspan class="cls-70" x="9.12" y="0">0</tspan><tspan class="cls-71" x="19.8" y="0">21</tspan></text><g class="cls-11"><text class="cls-66" transform="translate(540.59 216.25)"><tspan class="cls-73">2</tspan><tspan class="cls-64" x="9.12" y="0">0</tspan><tspan x="19.8" y="0">19</tspan></text></g><path class="cls-62" d="M729.9,186.33V77.16" transform="translate(-18.01 -13.98)"/><path class="cls-62" d="M687.44,186.33V87.27" transform="translate(-18.01 -13.98)"/><path class="cls-62" d="M634.87,186.33V127.7" transform="translate(-18.01 -13.98)"/><path class="cls-62" d="M616.68,186.33V162.07" transform="translate(-18.01 -13.98)"/><g id="max"><text class="cls-74" transform="translate(1089.9 46.47)"><tspan class="cls-75">T</tspan><tspan x="4.96" y="0">o</tspan><tspan class="cls-76" x="10.95" y="0">k</tspan><tspan class="cls-77" x="16.49" y="0">en Bu</tspan><tspan class="cls-78" x="44.87" y="0">r</tspan><tspan x="48.63" y="0">n</tspan></text><text class="cls-74" transform="translate(1089.9 169.38)"><tspan class="cls-79">P</tspan><tspan class="cls-78" x="6.64" y="0">r</tspan><tspan x="10.4" y="0">i</tspan><tspan class="cls-80" x="12.97" y="0">v</tspan><tspan x="17.99" y="0">a</tspan><tspan class="cls-81" x="23.63" y="0">t</tspan><tspan x="27.33" y="0">e Sale</tspan></text><text class="cls-74" transform="translate(1089.9 154.01)">Ma<tspan class="cls-78" x="14.76" y="0">r</tspan><tspan class="cls-76" x="18.52" y="0">k</tspan><tspan x="24.06" y="0">eti</tspan><tspan class="cls-82" x="36.28" y="0">n</tspan><tspan x="42.77" y="0">g</tspan></text><text class="cls-74" transform="translate(1089.9 138.65)">Ne<tspan class="cls-83" x="13.54" y="0">t</tspan><tspan class="cls-84" x="17.32" y="0">w</tspan><tspan class="cls-77" x="25.58" y="0">o</tspan><tspan class="cls-85" x="31.57" y="0">r</tspan><tspan x="35.33" y="0">k </tspan><tspan class="cls-86" x="43.57" y="0">P</tspan><tspan x="50.31" y="0">ool</tspan></text><text class="cls-74" transform="translate(1089.9 123.29)"><tspan class="cls-87">F</tspan><tspan x="5.88" y="0">ou</tspan><tspan class="cls-82" x="18.3" y="0">n</tspan><tspan x="24.79" y="0">dation</tspan></text><text class="cls-74" transform="translate(1089.9 107.92)"><tspan class="cls-88">E</tspan><tspan class="cls-81" x="6.25" y="0">x</tspan><tspan class="cls-78" x="11.17" y="0">c</tspan><tspan x="16.47" y="0">h </tspan><tspan class="cls-86" x="25.44" y="0">P</tspan><tspan x="32.18" y="0">ool</tspan></text><text class="cls-74" transform="translate(1089.9 61.84)">Deli<tspan class="cls-84" x="18.8" y="0">v</tspan><tspan class="cls-77" x="23.84" y="0">e</tspan><tspan class="cls-89" x="29.61" y="0">r</tspan><tspan x="33.36" y="0">ables</tspan></text><text class="cls-74" transform="translate(1089.9 77.2)">Enha<tspan class="cls-90" x="24.97" y="0">n</tspan><tspan class="cls-91" x="31.46" y="0">c</tspan><tspan x="36.75" y="0">e</tspan><tspan class="cls-90" x="42.52" y="0">m</tspan><tspan class="cls-77" x="52.68" y="0">ent</tspan></text><text class="cls-74" transform="translate(1089.9 92.56)"><tspan class="cls-75">T</tspan><tspan class="cls-88" x="4.96" y="0">e</tspan><tspan x="10.59" y="0">am</tspan></text><text class="cls-74" transform="translate(1089.9 184.74)">Public Sale</text><path class="cls-92" d="M1094,52.14a1,1,0,0,1,1-1h9.55a1,1,0,0,1,1,1v9.55a1,1,0,0,1-1,1H1095a.94.94,0,0,1-1-1Z" transform="translate(-18.01 -13.98)"/><path class="cls-93" d="M1095.46,68.64a.71.71,0,0,1,.71-.72h7.15a.71.71,0,0,1,.71.72v7.14a.71.71,0,0,1-.71.72h-7.15a.71.71,0,0,1-.71-.72Z" transform="translate(-18.01 -13.98)"/><path class="cls-94" d="M1095.46,83.93a.71.71,0,0,1,.71-.71h7.15a.71.71,0,0,1,.71.71v7.15a.71.71,0,0,1-.71.71h-7.15a.71.71,0,0,1-.71-.71Z" transform="translate(-18.01 -13.98)"/><path class="cls-95" d="M1095.46,99.23a.71.71,0,0,1,.71-.71h7.15a.71.71,0,0,1,.71.71v7.15a.71.71,0,0,1-.71.71h-7.15a.71.71,0,0,1-.71-.71Z" transform="translate(-18.01 -13.98)"/><path class="cls-96" d="M1095.46,114.53a.71.71,0,0,1,.71-.72h7.15a.71.71,0,0,1,.71.72v7.14a.71.71,0,0,1-.71.72h-7.15a.71.71,0,0,1-.71-.72Z" transform="translate(-18.01 -13.98)"/><path class="cls-97" d="M1095.46,129.82a.71.71,0,0,1,.71-.71h7.15a.71.71,0,0,1,.71.71V137a.71.71,0,0,1-.71.72h-7.15a.71.71,0,0,1-.71-.72Z" transform="translate(-18.01 -13.98)"/><path class="cls-98" d="M1095.46,145.12a.71.71,0,0,1,.71-.71h7.15a.71.71,0,0,1,.71.71v7.15a.71.71,0,0,1-.71.71h-7.15a.71.71,0,0,1-.71-.71Z" transform="translate(-18.01 -13.98)"/><path class="cls-99" d="M1095.46,160.42a.71.71,0,0,1,.71-.72h7.15a.71.71,0,0,1,.71.72v7.14a.71.71,0,0,1-.71.72h-7.15a.71.71,0,0,1-.71-.72Z" transform="translate(-18.01 -13.98)"/><path class="cls-100" d="M1095.46,175.72a.71.71,0,0,1,.71-.72h7.15a.71.71,0,0,1,.71.72v7.14a.71.71,0,0,1-.71.72h-7.15a.71.71,0,0,1-.71-.72Z" transform="translate(-18.01 -13.98)"/><path class="cls-10" d="M1095.46,191a.71.71,0,0,1,.71-.71h7.15a.71.71,0,0,1,.71.71v7.15a.71.71,0,0,1-.71.71h-7.15a.71.71,0,0,1-.71-.71Z" transform="translate(-18.01 -13.98)"/><g id="max-2" data-name="max"><g id="max-3" data-name="max"><g class="cls-101"><path class="cls-10" d="M573.21,160.53s38.06,2,57.09,2.36,38.07,0,57.1,0H858.68c19,0,38.07-.39,57.1,0s38.06,1.26,57.09,2.37,38.07,2.91,57.1,4.25,57.09,3.83,57.09,3.83v34.48H573.21Z" transform="translate(-18.01 -13.98)"/></g><g class="cls-101"><path class="cls-100" d="M573.21,156.22s38.06-.58,57.09-1.51,38.07-3.41,57.1-4.1,38.06,0,57.09,0H858.68c19,0,38.07-.5,57.1,0s38.06,1.61,57.09,3,38.07,3.71,57.1,5.42,57.09,4.88,57.09,4.88v9.42s-38.06-2.48-57.09-3.83-38.07-3.15-57.1-4.25-38.06-2-57.09-2.37-38.07,0-57.1,0H687.4c-19,0-38.07.4-57.1,0s-57.09-2.36-57.09-2.36Z" transform="translate(-18.01 -13.98)"/></g><g class="cls-101"><path class="cls-102" d="M573.21,154.64s38.06-1.51,57.09-2.93,38.07-4.56,57.1-5.59,38.06-.5,57.09-.6,38.07,0,57.1,0h57.09c19,0,38.07-.54,57.1,0s38.06,1.75,57.09,3.28,38.07,4,57.1,5.9,57.09,5.31,57.09,5.31v3.91S1049,160.76,1030,159s-38.07-4-57.1-5.42-38.06-2.51-57.09-3-38.07,0-57.1,0H744.49c-19,0-38.06-.68-57.09,0s-38.07,3.16-57.1,4.1-57.09,1.51-57.09,1.51Z" transform="translate(-18.01 -13.98)"/></g><g class="cls-101"><path class="cls-98" d="M573.21,154.64s38.06-4.42,57.09-7.3,38.07-7.48,57.1-10,38.06-3.42,57.09-5,38.07-2.91,57.1-4.37,38.06-3.64,57.09-4.37,38.07-.74,57.1,0,38.06,2.36,57.09,4.43,38.07,5.45,57.1,8,57.09,7.18,57.09,7.18V160S1049,156.57,1030,154.7s-38.07-4.37-57.1-5.9-38.06-2.73-57.09-3.28-38.07,0-57.1,0H801.59c-19,0-38.07-.1-57.1,0s-38.06-.43-57.09.6-38.07,4.17-57.1,5.59S573.21,154.64,573.21,154.64Z" transform="translate(-18.01 -13.98)"/></g><g class="cls-101"><path class="cls-97" d="M573.21,154.64s38.06-5,57.09-8.13,38.07-8,57.1-10.78,38.06-4,57.09-5.8,38.07-3.6,57.1-5.19,38.06-3.65,57.09-4.38,38.07-.76,57.1,0,38.06,2.46,57.09,4.61,38.07,5.66,57.1,8.28,57.09,7.46,57.09,7.46v2.53s-38.06-4.65-57.09-7.18-38.07-5.91-57.1-8-38.06-3.69-57.09-4.43-38.07-.73-57.1,0-38.06,2.91-57.09,4.37-38.07,2.82-57.1,4.37-38.06,2.49-57.09,5-38.07,7.08-57.1,10S573.21,154.64,573.21,154.64Z" transform="translate(-18.01 -13.98)"/></g><g class="cls-101"><path class="cls-96" d="M573.21,151.49s38.06-6,57.09-9.47,38.07-8.52,57.1-11.38,38.06-4,57.09-5.8,38.07-3.6,57.1-5.2,38.06-3.64,57.09-4.37,38.07-.81,57.1,0,38.06,2.6,57.09,4.87,38.07,6,57.1,8.77,57.09,7.89,57.09,7.89v3.91s-38.06-4.83-57.09-7.46-38.07-6.14-57.1-8.28-38.06-3.84-57.09-4.61-38.07-.73-57.1,0-38.06,2.78-57.09,4.38-38.07,3.36-57.1,5.19-38.06,3-57.09,5.8-38.07,7.63-57.1,10.78-57.09,8.13-57.09,8.13Z" transform="translate(-18.01 -13.98)"/></g><g class="cls-101"><path class="cls-95" d="M573.21,150.54s38.06-6.95,57.09-10.91,38.07-9.52,57.1-12.89,38.06-5,57.09-7.29,38.07-4.6,57.1-6.69,38.06-4.9,57.09-5.87,38.07-.89,57.1,0,38.06,2.83,57.09,5.31,38.07,6.53,57.1,9.56,57.09,8.61,57.09,8.61v6.43s-38.06-5.11-57.09-7.89-38.07-6.49-57.1-8.77-38.06-4.06-57.09-4.87-38.07-.73-57.1,0-38.06,2.78-57.09,4.37-38.07,3.37-57.1,5.2-38.06,2.93-57.09,5.8-38.07,7.91-57.1,11.38-57.09,9.47-57.09,9.47Z" transform="translate(-18.01 -13.98)"/></g><g class="cls-101"><path class="cls-94" d="M573.21,150.54s38.06-6.95,57.09-10.91,38.07-9.52,57.1-12.89,38.06-4.51,57.09-7.29,38.07-6.4,57.1-9.39,38.06-6.69,57.09-8.57,38.07-2.35,57.1-2.69,38.06-1.28,57.09.63,38.07,7.41,57.1,10.84,57.09,9.75,57.09,9.75v10.35s-38.06-5.58-57.09-8.61-38.07-7.08-57.1-9.56-38.06-4.43-57.09-5.31-38.07-1-57.1,0-38.06,3.77-57.09,5.87-38.07,4.36-57.1,6.69-38.06,3.93-57.09,7.29-38.07,8.92-57.1,12.89S573.21,150.54,573.21,150.54Z" transform="translate(-18.01 -13.98)"/></g><g class="cls-101"><path class="cls-103" d="M573.21,150.23s38.06-7.44,57.09-12.4,38.07-12.27,57.1-17.38,38.06-8.33,57.09-13.28,38.07-11.09,57.1-16.43,38.06-11.9,57.09-15.6,38.07-5.06,57.1-6.59S953.84,64,972.87,66s38.07,9.69,57.1,14.19,57.09,12.76,57.09,12.76V120S1049,113.7,1030,110.27s-38.07-8.93-57.1-10.84-38.06-1-57.09-.63-38.07.82-57.1,2.69-38.06,5.58-57.09,8.57-38.07,6.61-57.1,9.39-38.06,3.93-57.09,7.29-38.07,8.92-57.1,12.89-57.09,10.91-57.09,10.91Z" transform="translate(-18.01 -13.98)"/></g><g class="cls-101"><path class="cls-92" d="M573.21,150.23s38.06-10.36,57.09-16.08,38.07-12.92,57.1-18.29,38.06-8.77,57.09-14,38.07-11.67,57.1-17.29,38.06-12.53,57.09-16.42,38.07-4,57.1-6.94,38.06-9.2,57.09-11,38.07,0,57.1,0h57.09V92.9S1049,84.63,1030,80.14,991.9,67.88,972.87,66s-38.06,1.07-57.09,2.6-38.07,2.89-57.1,6.59-38.06,10.26-57.09,15.6-38.07,11.48-57.1,16.43-38.06,8.17-57.09,13.28-38.07,12.42-57.1,17.38S573.21,150.23,573.21,150.23Z" transform="translate(-18.01 -13.98)"/></g><g class="cls-101"><path class="cls-104" d="M573.21,160.53s38.06,2,57.09,2.36,38.07,0,57.1,0H858.68c19,0,38.07-.39,57.1,0s38.06,1.26,57.09,2.37,38.07,2.91,57.1,4.25,57.09,3.83,57.09,3.83" transform="translate(-18.01 -13.98)"/></g><g class="cls-101"><path class="cls-105" d="M573.21,156.22s38.06-.58,57.09-1.51,38.07-3.41,57.1-4.1,38.06,0,57.09,0H858.68c19,0,38.07-.5,57.1,0s38.06,1.61,57.09,3,38.07,3.71,57.1,5.42,57.09,4.88,57.09,4.88" transform="translate(-18.01 -13.98)"/></g><g class="cls-101"><path class="cls-106" d="M573.21,154.64s38.06-1.51,57.09-2.93,38.07-4.56,57.1-5.59,38.06-.5,57.09-.6,38.07,0,57.1,0h57.09c19,0,38.07-.54,57.1,0s38.06,1.75,57.09,3.28,38.07,4,57.1,5.9,57.09,5.31,57.09,5.31" transform="translate(-18.01 -13.98)"/></g><g class="cls-101"><path class="cls-107" d="M573.21,154.64s38.06-4.42,57.09-7.3,38.07-7.48,57.1-10,38.06-3.42,57.09-5,38.07-2.91,57.1-4.37,38.06-3.64,57.09-4.37,38.07-.74,57.1,0,38.06,2.36,57.09,4.43,38.07,5.45,57.1,8,57.09,7.18,57.09,7.18" transform="translate(-18.01 -13.98)"/></g><g class="cls-101"><path class="cls-108" d="M573.21,154.64s38.06-5,57.09-8.13,38.07-8,57.1-10.78,38.06-4,57.09-5.8,38.07-3.6,57.1-5.19,38.06-3.65,57.09-4.38,38.07-.76,57.1,0,38.06,2.46,57.09,4.61,38.07,5.66,57.1,8.28,57.09,7.46,57.09,7.46" transform="translate(-18.01 -13.98)"/></g><g class="cls-101"><path class="cls-109" d="M573.21,151.49s38.06-6,57.09-9.47,38.07-8.52,57.1-11.38,38.06-4,57.09-5.8,38.07-3.6,57.1-5.2,38.06-3.64,57.09-4.37,38.07-.81,57.1,0,38.06,2.6,57.09,4.87,38.07,6,57.1,8.77,57.09,7.89,57.09,7.89" transform="translate(-18.01 -13.98)"/></g><g class="cls-101"><path class="cls-110" d="M573.21,150.54s38.06-6.95,57.09-10.91,38.07-9.52,57.1-12.89,38.06-5,57.09-7.29,38.07-4.6,57.1-6.69,38.06-4.9,57.09-5.87,38.07-.89,57.1,0,38.06,2.83,57.09,5.31,38.07,6.53,57.1,9.56,57.09,8.61,57.09,8.61" transform="translate(-18.01 -13.98)"/></g><g class="cls-101"><path class="cls-111" d="M573.21,150.54s38.06-6.95,57.09-10.91,38.07-9.52,57.1-12.89,38.06-4.51,57.09-7.29,38.07-6.4,57.1-9.39,38.06-6.69,57.09-8.57,38.07-2.35,57.1-2.69,38.06-1.28,57.09.63,38.07,7.41,57.1,10.84,57.09,9.75,57.09,9.75" transform="translate(-18.01 -13.98)"/></g><g class="cls-101"><path class="cls-112" d="M573.21,150.23s38.06-7.44,57.09-12.4,38.07-12.27,57.1-17.38,38.06-8.33,57.09-13.28,38.07-11.09,57.1-16.43,38.06-11.9,57.09-15.6,38.07-5.06,57.1-6.59S953.84,64,972.87,66s38.07,9.69,57.1,14.19,57.09,12.76,57.09,12.76" transform="translate(-18.01 -13.98)"/></g><g class="cls-101"><path class="cls-113" d="M573.21,150.23s38.06-10.36,57.09-16.08,38.07-12.92,57.1-18.29,38.06-8.77,57.09-14,38.07-11.67,57.1-17.29,38.06-12.53,57.09-16.42,38.07-4,57.1-6.94,38.06-9.2,57.09-11,38.07,0,57.1,0h57.09" transform="translate(-18.01 -13.98)"/></g><g class="cls-101"><path class="cls-114" d="M575,160.53a1.81,1.81,0,1,1-1.8-1.95A1.88,1.88,0,0,1,575,160.53Z" transform="translate(-18.01 -13.98)"/></g><g class="cls-101"><path class="cls-114" d="M632.11,162.89A1.81,1.81,0,1,1,630.3,161,1.88,1.88,0,0,1,632.11,162.89Z" transform="translate(-18.01 -13.98)"/></g><g class="cls-101"><path class="cls-114" d="M689.2,162.89a1.81,1.81,0,1,1-1.8-1.94A1.88,1.88,0,0,1,689.2,162.89Z" transform="translate(-18.01 -13.98)"/></g><g class="cls-101"><path class="cls-114" d="M746.3,162.89a1.81,1.81,0,1,1-1.81-1.94A1.88,1.88,0,0,1,746.3,162.89Z" transform="translate(-18.01 -13.98)"/></g><g class="cls-101"><path class="cls-114" d="M803.39,162.89a1.81,1.81,0,1,1-1.8-1.94A1.88,1.88,0,0,1,803.39,162.89Z" transform="translate(-18.01 -13.98)"/></g><g class="cls-101"><path class="cls-114" d="M860.49,162.89a1.81,1.81,0,1,1-1.81-1.94A1.88,1.88,0,0,1,860.49,162.89Z" transform="translate(-18.01 -13.98)"/></g><g class="cls-101"><path class="cls-114" d="M917.58,162.89a1.81,1.81,0,1,1-1.8-1.94A1.87,1.87,0,0,1,917.58,162.89Z" transform="translate(-18.01 -13.98)"/></g><g class="cls-101"><path class="cls-114" d="M974.68,165.26a1.81,1.81,0,1,1-1.81-1.95A1.88,1.88,0,0,1,974.68,165.26Z" transform="translate(-18.01 -13.98)"/></g><g class="cls-101"><path class="cls-114" d="M1031.77,169.51a1.81,1.81,0,1,1-1.8-1.94A1.87,1.87,0,0,1,1031.77,169.51Z" transform="translate(-18.01 -13.98)"/></g><g class="cls-101"><path class="cls-114" d="M1088.87,173.34a1.81,1.81,0,1,1-1.81-1.94A1.88,1.88,0,0,1,1088.87,173.34Z" transform="translate(-18.01 -13.98)"/></g><g class="cls-101"><path class="cls-114" d="M575,156.22a1.81,1.81,0,1,1-1.8-1.95A1.89,1.89,0,0,1,575,156.22Z" transform="translate(-18.01 -13.98)"/></g><g class="cls-101"><path class="cls-114" d="M632.11,154.71a1.81,1.81,0,1,1-1.81-2A1.88,1.88,0,0,1,632.11,154.71Z" transform="translate(-18.01 -13.98)"/></g><g class="cls-101"><path class="cls-114" d="M689.2,150.61a1.81,1.81,0,1,1-1.8-1.94A1.88,1.88,0,0,1,689.2,150.61Z" transform="translate(-18.01 -13.98)"/></g><g class="cls-101"><path class="cls-114" d="M746.3,150.61a1.81,1.81,0,1,1-1.81-1.94A1.88,1.88,0,0,1,746.3,150.61Z" transform="translate(-18.01 -13.98)"/></g><g class="cls-101"><path class="cls-114" d="M803.39,150.61a1.81,1.81,0,1,1-1.8-1.94A1.88,1.88,0,0,1,803.39,150.61Z" transform="translate(-18.01 -13.98)"/></g><g class="cls-101"><path class="cls-114" d="M860.49,150.61a1.81,1.81,0,1,1-1.81-1.94A1.88,1.88,0,0,1,860.49,150.61Z" transform="translate(-18.01 -13.98)"/></g><g class="cls-101"><path class="cls-114" d="M917.58,150.61a1.81,1.81,0,1,1-1.8-1.94A1.87,1.87,0,0,1,917.58,150.61Z" transform="translate(-18.01 -13.98)"/></g><g class="cls-101"><path class="cls-114" d="M974.68,153.62a1.81,1.81,0,1,1-1.81-1.94A1.88,1.88,0,0,1,974.68,153.62Z" transform="translate(-18.01 -13.98)"/></g><g class="cls-101"><path class="cls-114" d="M1031.77,159a1.81,1.81,0,1,1-1.8-1.94A1.87,1.87,0,0,1,1031.77,159Z" transform="translate(-18.01 -13.98)"/></g><g class="cls-101"><path class="cls-114" d="M1088.87,163.92a1.81,1.81,0,1,1-1.81-1.95A1.88,1.88,0,0,1,1088.87,163.92Z" transform="translate(-18.01 -13.98)"/></g><g class="cls-101"><path class="cls-114" d="M575,154.64a1.81,1.81,0,1,1-1.8-1.94A1.88,1.88,0,0,1,575,154.64Z" transform="translate(-18.01 -13.98)"/></g><g class="cls-101"><path class="cls-114" d="M632.11,151.71a1.81,1.81,0,1,1-1.81-1.94A1.88,1.88,0,0,1,632.11,151.71Z" transform="translate(-18.01 -13.98)"/></g><g class="cls-101"><path class="cls-114" d="M689.2,146.12a1.81,1.81,0,1,1-1.8-2A1.88,1.88,0,0,1,689.2,146.12Z" transform="translate(-18.01 -13.98)"/></g><g class="cls-101"><path class="cls-114" d="M746.3,145.52a1.81,1.81,0,1,1-1.81-1.94A1.88,1.88,0,0,1,746.3,145.52Z" transform="translate(-18.01 -13.98)"/></g><g class="cls-101"><path class="cls-114" d="M803.39,145.52a1.81,1.81,0,1,1-1.8-1.94A1.88,1.88,0,0,1,803.39,145.52Z" transform="translate(-18.01 -13.98)"/></g><g class="cls-101"><path class="cls-114" d="M860.49,145.52a1.81,1.81,0,1,1-1.81-1.94A1.88,1.88,0,0,1,860.49,145.52Z" transform="translate(-18.01 -13.98)"/></g><g class="cls-101"><path class="cls-114" d="M917.58,145.52a1.81,1.81,0,1,1-1.8-1.94A1.87,1.87,0,0,1,917.58,145.52Z" transform="translate(-18.01 -13.98)"/></g><g class="cls-101"><path class="cls-114" d="M974.68,148.8a1.81,1.81,0,1,1-1.81-2A1.88,1.88,0,0,1,974.68,148.8Z" transform="translate(-18.01 -13.98)"/></g><g class="cls-101"><path class="cls-114" d="M1031.77,154.7a1.81,1.81,0,1,1-1.8-1.94A1.87,1.87,0,0,1,1031.77,154.7Z" transform="translate(-18.01 -13.98)"/></g><g class="cls-101"><path class="cls-114" d="M1088.87,160a1.81,1.81,0,1,1-1.81-1.94A1.88,1.88,0,0,1,1088.87,160Z" transform="translate(-18.01 -13.98)"/></g><g class="cls-101"><path class="cls-114" d="M575,154.64a1.81,1.81,0,1,1-1.8-1.94A1.88,1.88,0,0,1,575,154.64Z" transform="translate(-18.01 -13.98)"/></g><g class="cls-101"><path class="cls-114" d="M632.11,147.34a1.81,1.81,0,1,1-1.81-2A1.88,1.88,0,0,1,632.11,147.34Z" transform="translate(-18.01 -13.98)"/></g><g class="cls-101"><path class="cls-114" d="M689.2,137.38a1.81,1.81,0,1,1-1.8-1.95A1.88,1.88,0,0,1,689.2,137.38Z" transform="translate(-18.01 -13.98)"/></g><g class="cls-101"><path class="cls-114" d="M746.3,132.4a1.81,1.81,0,1,1-1.81-1.94A1.88,1.88,0,0,1,746.3,132.4Z" transform="translate(-18.01 -13.98)"/></g><g class="cls-101"><path class="cls-114" d="M803.39,128a1.81,1.81,0,1,1-1.8-2A1.88,1.88,0,0,1,803.39,128Z" transform="translate(-18.01 -13.98)"/></g><g class="cls-101"><path class="cls-114" d="M860.49,123.66a1.81,1.81,0,1,1-1.81-2A1.88,1.88,0,0,1,860.49,123.66Z" transform="translate(-18.01 -13.98)"/></g><g class="cls-101"><path class="cls-114" d="M917.58,123.66a1.81,1.81,0,1,1-1.8-2A1.87,1.87,0,0,1,917.58,123.66Z" transform="translate(-18.01 -13.98)"/></g><g class="cls-101"><path class="cls-114" d="M974.68,128.09a1.81,1.81,0,1,1-1.81-2A1.88,1.88,0,0,1,974.68,128.09Z" transform="translate(-18.01 -13.98)"/></g><g class="cls-101"><path class="cls-114" d="M1031.77,136.06a1.81,1.81,0,1,1-1.8-1.95A1.87,1.87,0,0,1,1031.77,136.06Z" transform="translate(-18.01 -13.98)"/></g><g class="cls-101"><path class="cls-114" d="M1088.87,143.24a1.81,1.81,0,1,1-1.81-2A1.88,1.88,0,0,1,1088.87,143.24Z" transform="translate(-18.01 -13.98)"/></g><g class="cls-101"><path class="cls-114" d="M575,154.64a1.81,1.81,0,1,1-1.8-1.94A1.88,1.88,0,0,1,575,154.64Z" transform="translate(-18.01 -13.98)"/></g><g class="cls-101"><path class="cls-114" d="M632.11,146.51a1.81,1.81,0,1,1-1.81-1.94A1.88,1.88,0,0,1,632.11,146.51Z" transform="translate(-18.01 -13.98)"/></g><g class="cls-101"><path class="cls-114" d="M689.2,135.73a1.81,1.81,0,1,1-1.8-1.95A1.88,1.88,0,0,1,689.2,135.73Z" transform="translate(-18.01 -13.98)"/></g><g class="cls-101"><path class="cls-114" d="M746.3,129.93a1.81,1.81,0,1,1-1.81-1.94A1.88,1.88,0,0,1,746.3,129.93Z" transform="translate(-18.01 -13.98)"/></g><g class="cls-101"><path class="cls-114" d="M803.39,124.74a1.81,1.81,0,1,1-1.8-1.95A1.88,1.88,0,0,1,803.39,124.74Z" transform="translate(-18.01 -13.98)"/></g><g class="cls-101"><path class="cls-114" d="M860.49,120.36a1.81,1.81,0,1,1-1.81-1.94A1.88,1.88,0,0,1,860.49,120.36Z" transform="translate(-18.01 -13.98)"/></g><g class="cls-101"><path class="cls-114" d="M917.58,120.36a1.81,1.81,0,1,1-1.8-1.94A1.87,1.87,0,0,1,917.58,120.36Z" transform="translate(-18.01 -13.98)"/></g><g class="cls-101"><path class="cls-114" d="M974.68,125a1.81,1.81,0,1,1-1.81-2A1.88,1.88,0,0,1,974.68,125Z" transform="translate(-18.01 -13.98)"/></g><g class="cls-101"><path class="cls-114" d="M1031.77,133.25a1.81,1.81,0,1,1-1.8-1.94A1.87,1.87,0,0,1,1031.77,133.25Z" transform="translate(-18.01 -13.98)"/></g><g class="cls-101"><path class="cls-114" d="M1088.87,140.71a1.81,1.81,0,1,1-1.81-2A1.88,1.88,0,0,1,1088.87,140.71Z" transform="translate(-18.01 -13.98)"/></g><g class="cls-101"><path class="cls-114" d="M575,151.49a1.81,1.81,0,1,1-1.8-2A1.88,1.88,0,0,1,575,151.49Z" transform="translate(-18.01 -13.98)"/></g><g class="cls-101"><path class="cls-114" d="M632.11,142a1.81,1.81,0,1,1-1.81-1.94A1.88,1.88,0,0,1,632.11,142Z" transform="translate(-18.01 -13.98)"/></g><g class="cls-101"><path class="cls-114" d="M689.2,130.64a1.81,1.81,0,1,1-1.8-1.95A1.88,1.88,0,0,1,689.2,130.64Z" transform="translate(-18.01 -13.98)"/></g><g class="cls-101"><path class="cls-114" d="M746.3,124.84a1.81,1.81,0,1,1-1.81-2A1.88,1.88,0,0,1,746.3,124.84Z" transform="translate(-18.01 -13.98)"/></g><g class="cls-101"><path class="cls-114" d="M803.39,119.64a1.81,1.81,0,1,1-1.8-1.94A1.88,1.88,0,0,1,803.39,119.64Z" transform="translate(-18.01 -13.98)"/></g><g class="cls-101"><path class="cls-114" d="M860.49,115.27a1.81,1.81,0,1,1-1.81-1.94A1.88,1.88,0,0,1,860.49,115.27Z" transform="translate(-18.01 -13.98)"/></g><g class="cls-101"><path class="cls-114" d="M917.58,115.27a1.81,1.81,0,1,1-1.8-1.94A1.87,1.87,0,0,1,917.58,115.27Z" transform="translate(-18.01 -13.98)"/></g><g class="cls-101"><path class="cls-114" d="M974.68,120.14a1.81,1.81,0,1,1-1.81-1.94A1.88,1.88,0,0,1,974.68,120.14Z" transform="translate(-18.01 -13.98)"/></g><g class="cls-101"><path class="cls-114" d="M1031.77,128.91a1.81,1.81,0,1,1-1.8-2A1.87,1.87,0,0,1,1031.77,128.91Z" transform="translate(-18.01 -13.98)"/></g><g class="cls-101"><path class="cls-114" d="M1088.87,136.8a1.81,1.81,0,1,1-1.81-1.94A1.88,1.88,0,0,1,1088.87,136.8Z" transform="translate(-18.01 -13.98)"/></g><g class="cls-101"><path class="cls-114" d="M575,150.54a1.81,1.81,0,1,1-1.8-1.94A1.88,1.88,0,0,1,575,150.54Z" transform="translate(-18.01 -13.98)"/></g><g class="cls-101"><path class="cls-114" d="M632.11,139.63a1.81,1.81,0,1,1-1.81-1.95A1.88,1.88,0,0,1,632.11,139.63Z" transform="translate(-18.01 -13.98)"/></g><g class="cls-101"><path class="cls-114" d="M689.2,126.74a1.81,1.81,0,1,1-1.8-1.94A1.88,1.88,0,0,1,689.2,126.74Z" transform="translate(-18.01 -13.98)"/></g><g class="cls-101"><path class="cls-114" d="M746.3,119.45a1.81,1.81,0,1,1-1.81-2A1.89,1.89,0,0,1,746.3,119.45Z" transform="translate(-18.01 -13.98)"/></g><g class="cls-101"><path class="cls-114" d="M803.39,112.76a1.81,1.81,0,1,1-1.8-2A1.88,1.88,0,0,1,803.39,112.76Z" transform="translate(-18.01 -13.98)"/></g><g class="cls-101"><path class="cls-114" d="M860.49,106.89a1.81,1.81,0,1,1-1.81-2A1.88,1.88,0,0,1,860.49,106.89Z" transform="translate(-18.01 -13.98)"/></g><g class="cls-101"><path class="cls-114" d="M917.58,106.89a1.81,1.81,0,1,1-1.8-2A1.87,1.87,0,0,1,917.58,106.89Z" transform="translate(-18.01 -13.98)"/></g><g class="cls-101"><path class="cls-114" d="M974.68,112.2a1.81,1.81,0,1,1-1.81-2A1.88,1.88,0,0,1,974.68,112.2Z" transform="translate(-18.01 -13.98)"/></g><g class="cls-101"><path class="cls-114" d="M1031.77,121.76a1.81,1.81,0,1,1-1.8-2A1.88,1.88,0,0,1,1031.77,121.76Z" transform="translate(-18.01 -13.98)"/></g><g class="cls-101"><path class="cls-114" d="M1088.87,130.37a1.81,1.81,0,1,1-1.81-2A1.88,1.88,0,0,1,1088.87,130.37Z" transform="translate(-18.01 -13.98)"/></g><g class="cls-101"><path class="cls-114" d="M575,150.54a1.81,1.81,0,1,1-1.8-1.94A1.88,1.88,0,0,1,575,150.54Z" transform="translate(-18.01 -13.98)"/></g><g class="cls-101"><path class="cls-114" d="M632.11,139.63a1.81,1.81,0,1,1-1.81-1.95A1.88,1.88,0,0,1,632.11,139.63Z" transform="translate(-18.01 -13.98)"/></g><g class="cls-101"><path class="cls-114" d="M689.2,126.74a1.81,1.81,0,1,1-1.8-1.94A1.88,1.88,0,0,1,689.2,126.74Z" transform="translate(-18.01 -13.98)"/></g><g class="cls-101"><path class="cls-114" d="M746.3,119.45a1.81,1.81,0,1,1-1.81-2A1.89,1.89,0,0,1,746.3,119.45Z" transform="translate(-18.01 -13.98)"/></g><g class="cls-101"><path class="cls-114" d="M803.39,110.06a1.81,1.81,0,1,1-1.8-2A1.88,1.88,0,0,1,803.39,110.06Z" transform="translate(-18.01 -13.98)"/></g><g class="cls-101"><path class="cls-114" d="M860.49,101.49a1.81,1.81,0,1,1-1.81-1.94A1.88,1.88,0,0,1,860.49,101.49Z" transform="translate(-18.01 -13.98)"/></g><g class="cls-101"><path class="cls-114" d="M917.58,98.8a1.81,1.81,0,1,1-1.8-2A1.88,1.88,0,0,1,917.58,98.8Z" transform="translate(-18.01 -13.98)"/></g><g class="cls-101"><path class="cls-114" d="M974.68,99.43a1.81,1.81,0,1,1-1.81-2A1.89,1.89,0,0,1,974.68,99.43Z" transform="translate(-18.01 -13.98)"/></g><g class="cls-101"><path class="cls-114" d="M1031.77,110.27a1.81,1.81,0,1,1-1.8-2A1.87,1.87,0,0,1,1031.77,110.27Z" transform="translate(-18.01 -13.98)"/></g><g class="cls-101"><path class="cls-114" d="M1088.87,120a1.81,1.81,0,1,1-1.81-1.94A1.88,1.88,0,0,1,1088.87,120Z" transform="translate(-18.01 -13.98)"/></g><g class="cls-101"><path class="cls-114" d="M575,150.23a1.81,1.81,0,1,1-1.8-1.95A1.89,1.89,0,0,1,575,150.23Z" transform="translate(-18.01 -13.98)"/></g><g class="cls-101"><path class="cls-114" d="M632.11,137.83a1.81,1.81,0,1,1-1.81-2A1.89,1.89,0,0,1,632.11,137.83Z" transform="translate(-18.01 -13.98)"/></g><g class="cls-101"><path class="cls-114" d="M689.2,120.45a1.81,1.81,0,1,1-1.8-1.94A1.88,1.88,0,0,1,689.2,120.45Z" transform="translate(-18.01 -13.98)"/></g><g class="cls-101"><path class="cls-114" d="M746.3,107.17a1.81,1.81,0,1,1-1.81-2A1.88,1.88,0,0,1,746.3,107.17Z" transform="translate(-18.01 -13.98)"/></g><g class="cls-101"><path class="cls-114" d="M803.39,90.74a1.81,1.81,0,1,1-1.8-1.94A1.88,1.88,0,0,1,803.39,90.74Z" transform="translate(-18.01 -13.98)"/></g><g class="cls-101"><path class="cls-114" d="M860.49,75.14a1.81,1.81,0,1,1-1.81-2A1.88,1.88,0,0,1,860.49,75.14Z" transform="translate(-18.01 -13.98)"/></g><g class="cls-101"><path class="cls-114" d="M917.58,68.55a1.81,1.81,0,1,1-1.8-2A1.88,1.88,0,0,1,917.58,68.55Z" transform="translate(-18.01 -13.98)"/></g><g class="cls-101"><path class="cls-114" d="M974.68,66a1.81,1.81,0,1,1-1.81-2A1.88,1.88,0,0,1,974.68,66Z" transform="translate(-18.01 -13.98)"/></g><g class="cls-101"><path class="cls-114" d="M1031.77,80.14a1.81,1.81,0,1,1-1.8-2A1.87,1.87,0,0,1,1031.77,80.14Z" transform="translate(-18.01 -13.98)"/></g><g class="cls-101"><path class="cls-114" d="M1088.87,92.9a1.81,1.81,0,1,1-1.81-1.94A1.88,1.88,0,0,1,1088.87,92.9Z" transform="translate(-18.01 -13.98)"/></g><g class="cls-101"><path class="cls-114" d="M575,150.23a1.81,1.81,0,1,1-1.8-1.95A1.89,1.89,0,0,1,575,150.23Z" transform="translate(-18.01 -13.98)"/></g><g class="cls-101"><path class="cls-114" d="M632.11,134.15a1.81,1.81,0,1,1-1.81-2A1.88,1.88,0,0,1,632.11,134.15Z" transform="translate(-18.01 -13.98)"/></g><g class="cls-101"><path class="cls-114" d="M689.2,115.86a1.81,1.81,0,1,1-1.8-2A1.88,1.88,0,0,1,689.2,115.86Z" transform="translate(-18.01 -13.98)"/></g><g class="cls-101"><path class="cls-114" d="M746.3,101.87a1.81,1.81,0,1,1-1.81-1.94A1.88,1.88,0,0,1,746.3,101.87Z" transform="translate(-18.01 -13.98)"/></g><g class="cls-101"><path class="cls-114" d="M803.39,84.58a1.81,1.81,0,1,1-1.8-2A1.88,1.88,0,0,1,803.39,84.58Z" transform="translate(-18.01 -13.98)"/></g><g class="cls-101"><path class="cls-114" d="M860.49,68.16a1.81,1.81,0,1,1-1.81-2A1.88,1.88,0,0,1,860.49,68.16Z" transform="translate(-18.01 -13.98)"/></g><g class="cls-101"><path class="cls-114" d="M917.58,61.22a1.81,1.81,0,1,1-1.8-1.95A1.88,1.88,0,0,1,917.58,61.22Z" transform="translate(-18.01 -13.98)"/></g><g class="cls-101"><path class="cls-114" d="M974.68,50.19a1.81,1.81,0,1,1-1.81-1.95A1.88,1.88,0,0,1,974.68,50.19Z" transform="translate(-18.01 -13.98)"/></g><g class="cls-101"><path class="cls-114" d="M1031.77,50.19a1.81,1.81,0,1,1-1.8-1.95A1.87,1.87,0,0,1,1031.77,50.19Z" transform="translate(-18.01 -13.98)"/></g><g class="cls-101"><path class="cls-114" d="M1088.87,50.19a1.81,1.81,0,1,1-1.81-1.95A1.88,1.88,0,0,1,1088.87,50.19Z" transform="translate(-18.01 -13.98)"/></g></g><path class="cls-115" d="M537.12,28.93l8.6,17.2h-7.64V207.6H1108.9V200l17.2,8.6-17.2,8.6V209.5H536.17V46.13h-7.65Z" transform="translate(-18.01 -13.98)"/><g class="cls-11"><text class="cls-116" transform="translate(479.28 170.25)">2<tspan class="cls-117" x="8.68" y="0">5</tspan><tspan x="17.18" y="0">%</tspan></text></g><g class="cls-11"><text class="cls-116" transform="translate(478.48 128.27)">50%</text></g><g class="cls-11"><text class="cls-116" transform="translate(479.26 87.38)"><tspan class="cls-118">7</tspan><tspan class="cls-119" x="8.71" y="0">5</tspan><tspan x="17.21" y="0">%</tspan></text></g><g class="cls-11"><text class="cls-116" transform="translate(474.99 46.47)">100%</text></g><path id="Path-5" class="cls-120" d="M536,171.28h550.12" transform="translate(-18.01 -13.98)"/><path class="cls-120" d="M537.67,89.17h550.11" transform="translate(-18.01 -13.98)"/><path class="cls-120" d="M537.12,129.31h550.12" transform="translate(-18.01 -13.98)"/><path class="cls-120" d="M537.12,50.19h550.12" transform="translate(-18.01 -13.98)"/></g><g id="Target-Growth" class="cls-11"><text class="cls-121" transform="translate(676.51 166.29)">Max Ci<tspan class="cls-122" x="83.14" y="0">r</tspan><tspan x="93.09" y="0">culati</tspan><tspan class="cls-123" x="162.75" y="0">n</tspan><tspan x="179.49" y="0">g Supply</tspan></text></g></g><g id="chiffres" class="cls-11"><rect class="cls-124" x="980.79" y="46.47" width="23.61" height="9.7" rx="0.65"/><rect class="cls-124" x="915.75" y="37.08" width="26.71" height="10.58" rx="0.72"/><rect class="cls-124" x="1043.28" y="59.54" width="25.59" height="10.58" rx="0.71"/><text class="cls-125" transform="translate(552.86 125.85)">3<tspan class="cls-126" x="7.06" y="0">6</tspan><tspan class="cls-127" x="14.42" y="0">%</tspan></text><text class="cls-125" transform="translate(603.59 110.43)">4<tspan class="cls-128" x="8.24" y="0">4</tspan><tspan x="16.11" y="0">%</tspan></text><text class="cls-129" transform="translate(654.58 91.42)">5<tspan class="cls-130" x="7.02" y="0">5</tspan><tspan class="cls-131" x="13.99" y="0">%</tspan></text><text class="cls-125" transform="translate(703.92 79.35)">6<tspan class="cls-122" x="7.61" y="0">3</tspan><tspan class="cls-131" x="14.54" y="0">%</tspan></text><text class="cls-132" transform="translate(755.26 67.22)">7<tspan class="cls-133" x="6.59" y="0">4</tspan><tspan class="cls-131" x="14.46" y="0">%</tspan></text><text class="cls-125" transform="translate(806.36 54.43)">8<tspan class="cls-133" x="7.91" y="0">4</tspan><tspan class="cls-131" x="15.78" y="0">%</tspan></text><text class="cls-125" transform="translate(854.19 48.73)">8<tspan class="cls-122" x="7.91" y="0">8</tspan><tspan x="15.7" y="0">%</tspan></text><text class="cls-125" transform="translate(916.32 46.48)">90%</text><text class="cls-125" transform="translate(981.28 55.71)">81%</text><text class="cls-125" transform="translate(1043.55 69.24)">7<tspan class="cls-134" x="7.38" y="0">2</tspan><tspan x="14.56" y="0">%</tspan></text></g></svg>