<?xml version="1.0" encoding="utf-8"?>
<!-- Generator: Adobe Illustrator 24.3.0, SVG Export Plug-In . SVG Version: 6.00 Build 0)  -->
<svg version="1.1" id="Calque_1" xmlns="http://www.w3.org/2000/svg" xmlns:xlink="http://www.w3.org/1999/xlink" x="0px" y="0px"
	 viewBox="0 0 399 83" style="enable-background:new 0 0 399 83;" xml:space="preserve">
<style type="text/css">
	.st0{fill:#FFFFFF;}
	.st1{fill:#DBC158;}
</style>
<desc>Created with Sketch.</desc>
<g id="Page-1">
	<g id="Style-Guide" transform="translate(-57.000000, -860.000000)">
		<g id="_x33_" transform="translate(57.000000, 860.000000)">
			<g id="Group" transform="translate(101.474926, 16.159292)">
				<polygon id="Shape" class="st0" points="38.5,5.1 38.5,0.2 1,0.2 1,7.7 26.6,7.7 0.4,44.2 0.4,49 38.8,49 38.8,41.5 12.3,41.5 
									"/>
				<g transform="translate(49.886438, 0.000000)">
					<rect id="Rectangle-path" x="0.2" y="0.2" class="st0" width="33" height="7.5"/>
					<rect id="Rectangle-path_1_" x="0.2" y="20.3" class="st0" width="33" height="7.5"/>
					<polygon id="Shape_1_" class="st0" points="0.2,41.5 0.2,49 33.2,49 33.2,41.5 31.9,41.5 					"/>
				</g>
				<rect id="Rectangle-path_2_" x="211.2" y="0.2" class="st0" width="33" height="7.5"/>
				<rect id="Rectangle-path_3_" x="211.2" y="20.3" class="st0" width="33" height="7.5"/>
				<polygon id="Shape_2_" class="st0" points="211.2,41.5 211.2,49 244.2,49 244.2,41.5 242.9,41.5 				"/>
				<path id="Shape_3_" class="st0" d="M129.9,27.4c-0.7-0.9-1.6-1.7-2.6-2.3c-1-0.6-2.1-1.2-3.4-1.6v-0.1c2.2-1.2,3.8-2.6,4.7-4.4
					c1-1.8,1.4-3.7,1.4-5.8c0-1.2-0.2-2.4-0.5-3.6c-0.4-1.2-1-2.3-1.8-3.3c-0.8-1-1.8-2-3-2.9c-1.2-0.9-2.7-1.5-4.3-2.1
					c-2.2-0.7-5.1-1.1-8.8-1.1h-17V49h14.2c1.4,0,2.5,0,3.6,0c1.1,0,2-0.1,2.9-0.2c0.9-0.1,1.7-0.2,2.4-0.3c0.7-0.1,1.4-0.3,2-0.4
					c2.4-0.6,4.4-1.5,6-2.5c1.6-1.1,2.9-2.3,3.8-3.5c1-1.3,1.6-2.6,2-3.9c0.4-1.4,0.5-2.6,0.5-3.8c0-1.4-0.2-2.6-0.6-3.8
					C131.2,29.3,130.7,28.3,129.9,27.4z M103.7,7.7h7.3c1.3,0,2.4,0,3.3,0.1c0.9,0.1,1.6,0.2,2.3,0.4c1.6,0.5,2.7,1.2,3.4,2.3
					c0.7,1,1,2.2,1,3.4c0,1.2-0.3,2.4-0.9,3.3c-0.6,1-1.5,1.8-2.9,2.3c-1.2,0.5-3,0.7-5.4,0.7h-8.1L103.7,7.7L103.7,7.7z
					 M122.7,36.5c-0.2,0.7-0.6,1.3-1.1,1.9c-0.5,0.6-1.2,1.1-2,1.5c-0.8,0.5-1.9,0.8-3.1,1.1c-0.8,0.2-1.8,0.3-2.9,0.4
					c-1.1,0.1-2.4,0.1-4,0.1h-5.9V27.8h8.5c1.5,0,2.7,0,3.7,0.1s1.8,0.3,2.5,0.5c1.6,0.5,2.8,1.3,3.5,2.3c0.8,1,1.1,2.2,1.1,3.6
					C123,35,122.9,35.8,122.7,36.5z"/>
				<rect id="Rectangle-path_4_" x="143.5" y="0.2" class="st0" width="8.9" height="48.8"/>
				<polygon id="Shape_4_" class="st0" points="161.6,7.7 177.4,7.7 177.4,49 186.3,49 186.3,7.7 202.1,7.7 202.1,0.2 161.6,0.2 
									"/>
				<path id="Shape_5_" class="st0" d="M279.1,24.2l17-24h-10.3l-7,10c-2,2.9-3.6,5.3-4.9,7.3h-0.2c-1-1.5-2.6-3.9-5-7.4l-7-10
					h-10.3l17,24L250.7,49h10.2l7.6-10.9c1.8-2.6,3.5-5.1,5.2-7.6h0.1c1.6,2.4,3.3,4.9,5.2,7.6l7.6,10.9h10.2L279.1,24.2z"/>
			</g>
			<g id="Group-47">
				<path id="Shape_6_" class="st0" d="M48.1,57.6l-23.3-8.2L7.4,62.6c7.3,12.1,20.4,20.2,35.5,20.2c22.9,0,41.4-18.7,41.4-41.8
					c0-1.9-0.1-3.8-0.4-5.7L48.1,57.6z"/>
				<g id="Group_1_" transform="translate(1.353365, 0.000000)">
					<path id="Shape_7_" class="st0" d="M23.7,32.2V3.7c-1.7,0.8-3.3,1.8-4.9,2.8v25.9l1.8-1.4L23.7,32.2z"/>
					<path id="Shape_8_" class="st0" d="M33,0.5c-1.7,0.4-3.3,0.8-4.9,1.4v31.8l4.9,1.7V0.5z"/>
					<path id="Shape_9_" class="st0" d="M5.1,21.6C2,27.5,0.3,34.2,0.3,41.3c0,1.7,0.1,3.4,0.3,5l4.6-3.5L5.1,21.6L5.1,21.6z"/>
					<path id="Shape_10_" class="st0" d="M14.4,9.9c-1.8,1.5-3.4,3.3-4.9,5.1v24.5l4.9-3.7V9.9z"/>
					<path id="Shape_11_" class="st0" d="M60.8,4.2c-1.6-0.8-3.2-1.5-4.9-2.2v30.7l4.9-3V4.2z"/>
					<polygon id="Shape_12_" class="st0" points="42.2,0 37.4,0 37.4,37 42.2,38.7 					"/>
					<path id="Shape_13_" class="st0" d="M51.5,0.7C50.3,0.4,49,0.2,47.7,0h-1.1v38.5l4.9-3L51.5,0.7L51.5,0.7z"/>
					<path id="Shape_14_" class="st0" d="M70,10.9c-1.5-1.5-3.2-2.8-4.9-4v20.2l4.9-3V10.9z"/>
					<path id="Shape_15_" class="st0" d="M74.4,15.7v5.6l2.7-1.6C76.2,18.3,75.4,17,74.4,15.7z"/>
				</g>
				<path id="Shape_16_" class="st1" d="M82,23.1c-2.2,0-3.9,1.8-3.9,3.9c0,0.2,0,0.4,0,0.6L49.9,45c-0.7-0.6-1.6-1-2.6-1
					c-1.4,0-2.5,0.7-3.2,1.7l-16.9-6c-0.1-2.1-1.8-3.7-3.9-3.7c-2.2,0-3.9,1.8-3.9,3.9c0,0.4,0,0.8,0.2,1.2L5.9,51.6
					c-0.6-0.3-1.2-0.5-1.9-0.5c-2.2,0-3.9,1.8-3.9,3.9S1.8,59,3.9,59s3.9-1.8,3.9-3.9c0-0.3,0-0.6-0.1-0.9l13.9-10.6
					c0.5,0.3,1.1,0.4,1.7,0.4c1.1,0,2.1-0.5,2.8-1.2L43.5,49c0.4,1.7,1.9,3,3.8,3c2.2,0,3.9-1.8,3.9-3.9c0,0,0-0.1,0-0.1l28.5-17.7
					c0.6,0.5,1.4,0.7,2.2,0.7c2.2,0,3.9-1.8,3.9-3.9C85.9,24.8,84.1,23.1,82,23.1z M5.9,55.5c-0.2,1-1,1.6-2,1.6c0,0-0.1,0-0.1,0
					c-1.1-0.1-1.9-1-1.9-2c0-0.1,0-0.3,0-0.4c0.2-1,1-1.6,2-1.6c0,0,0.1,0,0.1,0c1.1,0.1,1.9,1,1.9,2C6,55.2,5.9,55.3,5.9,55.5z
					 M24,42c-0.1,0-0.2,0.1-0.4,0.1c-0.1,0-0.2,0-0.3,0c-1.1,0-2-0.9-2-2c0,0,0-0.1,0-0.1c0-1.1,0.9-2,2-2c0.8,0,1.5,0.5,1.8,1.1
					c0.1,0.3,0.2,0.6,0.2,0.9C25.4,40.9,24.8,41.7,24,42z M49,49.3c-0.3,0.4-0.7,0.6-1.2,0.7c-0.1,0-0.3,0-0.4,0c-1.1,0-2-0.9-2-2
					c0-0.6,0.3-1.2,0.7-1.5c0.4-0.3,0.8-0.5,1.4-0.5c0.3,0,0.6,0,0.8,0.2c0.7,0.3,1.2,1,1.2,1.9C49.4,48.5,49.3,48.9,49,49.3z
					 M83.9,27.6c-0.3,0.8-1,1.4-1.9,1.4c-0.1,0-0.2,0-0.3,0c-1-0.1-1.8-1-1.8-2c0-0.2,0-0.4,0.1-0.6c0.3-0.9,1-1.5,1.9-1.5
					c0.1,0,0.2,0,0.4,0c0.9,0.2,1.7,1,1.7,2C84,27.2,84,27.4,83.9,27.6z"/>
			</g>
		</g>
	</g>
</g>
</svg>
