<?xml version="1.0" encoding="utf-8"?>
<!-- Generator: Adobe Illustrator 18.0.0, SVG Export Plug-In . SVG Version: 6.00 Build 0)  -->
<!DOCTYPE svg PUBLIC "-//W3C//DTD SVG 1.1//EN" "http://www.w3.org/Graphics/SVG/1.1/DTD/svg11.dtd">
<svg version="1.1" id="Layer_1" xmlns="http://www.w3.org/2000/svg" xmlns:xlink="http://www.w3.org/1999/xlink" x="0px" y="0px"
	 width="150px" height="150px" viewBox="0 0 150 150" enable-background="new 0 0 150 150" xml:space="preserve">
<circle opacity="0.1" fill="#F89F36" cx="75" cy="75" r="75"/>
<path fill="#F89F36" d="M107.1,92.5c0.5-3.9-0.5-7.4-3.2-10.3c-1.3-1.3-2.8-2.4-4.3-3.6c0.2-0.1,0.4-0.2,0.6-0.2
	c9.5-1.9,12.4-14.9,7.6-21c-1.9-2.5-4.3-4.4-7-5.9c-1.9-1.1-3.9-2-5.9-2.9c1.1-3.7,2.6-8.8,3.8-12.9l-7.8-2.2c-1.2,4-2.6,9-3.8,12.6
	c-2.2-0.6-4.2-1.2-6.2-1.8c1-3.7,2.5-8.6,3.7-12.7l-7.7-2.2c-1.2,4.1-2.7,9.2-3.8,12.8c-5.3-1.6-10.4-3-15.7-4.6
	c-0.8,2.9-1.6,5.5-2.4,8.3c1.1,0.3,2.1,0.6,3,0.9c1,0.3,2,0.6,2.9,0.9c2.7,1,3.6,2.9,2.9,5.6c-3.3,11-6.6,22.2-9.8,33.2
	c-0.7,2.5-2,3.1-4.4,2.4c-1.7-0.5-3.5-1-5.2-1.5c-1.4,3-2.8,5.8-4.2,8.8c5.2,1.6,10.4,3.1,15.7,4.7c-1.1,4-2.6,9-3.8,13.2l7.8,2.2
	c1.3-4.2,2.7-9.1,3.8-13c2.2,0.7,4.1,1.3,6.2,2c-1.1,4-2.6,8.8-3.7,12.9l7.8,2.2c1.3-4.2,2.7-9.1,3.8-12.9c0.3,0,0.5,0.1,0.7,0.1
	c3.9,0.5,7.8,1.2,11.6,1.4c5.1,0.2,9.5-1.5,12.9-5.6C105.1,100.2,106.5,96.6,107.1,92.5z M78.3,53.6c4.8,1.4,9.7,2.3,13.5,5.6
	c2.6,2.1,3.3,4.9,2.3,7.7c-1.1,3-3.4,4.7-6.8,4.8c-4.6,0.2-9.1-1.2-13.6-2.7C75.2,63.9,76.7,58.9,78.3,53.6z M84.2,97.2
	c-4.9,0.7-9.4-0.6-14-1.8c-1.3-0.4-2.5-0.8-3.9-1.2c1.7-5.8,3.4-11.4,5.1-17.1c5.9,1.7,11.9,2.9,16.7,6.9c2.5,2.1,3.5,4.7,2.6,8
	C89.7,95.1,87.4,96.7,84.2,97.2z"/>
</svg>
