<?xml version="1.0" encoding="utf-8"?>
<!-- Generator: Adobe Illustrator 18.0.0, SVG Export Plug-In . SVG Version: 6.00 Build 0)  -->
<!DOCTYPE svg PUBLIC "-//W3C//DTD SVG 1.1//EN" "http://www.w3.org/Graphics/SVG/1.1/DTD/svg11.dtd">
<svg version="1.1" id="Layer_1" xmlns="http://www.w3.org/2000/svg" xmlns:xlink="http://www.w3.org/1999/xlink" x="0px" y="0px"
	 width="150px" height="150px" viewBox="0 0 150 150" enable-background="new 0 0 150 150" xml:space="preserve">
<circle opacity="0.1" fill="#5682FF" cx="75" cy="75" r="75"/>
<g>
	<g>
		<path fill="#5682FF" d="M37.9,97.8c1.3-3.7,2.4-7.1,3.7-10.6c0.1-0.3,0.8-0.6,1.1-0.6c2.1-0.1,4.2,0,6.3,0c13.6,0,27.3,0,40.9,0
			c1.1,0,1.6-0.3,1.9-1.4c2.3-6.7,4.6-13.4,7-20.1c0.1-0.4,0.2-0.7,0.4-1.3c-16.5,0-33,0-49.6,0c1.3-3.7,2.5-7.2,3.7-10.7
			c0.1-0.3,0.6-0.5,1-0.5c1.3-0.1,2.5,0,3.7,0c16.8,0,33.6,0.1,50.4-0.1c5-0.1,10.3,3.8,8.2,11.2c-1.6,5.5-3.7,10.8-5.5,16.2
			c-0.6,1.8-1.3,3.7-1.9,5.5c-2.3,6.5-7.1,10.3-13.6,12.2c-0.6,0.2-1.2,0.2-1.8,0.2c-18.1,0-36.3,0-54.4,0
			C38.9,97.8,38.5,97.8,37.9,97.8z"/>
		<path fill="#5682FF" d="M69.3,69.8c-1.3,3.5-2.5,6.9-3.7,10.1c-0.1,0.3-0.6,0.4-0.9,0.4c-9.4,0-18.8,0-28.2,0
			c-0.1,0-0.3-0.1-0.5-0.2c1.2-3.3,2.3-6.5,3.6-9.8c0.1-0.3,0.6-0.6,1-0.6C50,69.8,59.5,69.8,69.3,69.8z"/>
	</g>
</g>
</svg>
