<?xml version="1.0" encoding="utf-8"?>
<!-- Generator: Adobe Illustrator 18.0.0, SVG Export Plug-In . SVG Version: 6.00 Build 0)  -->
<!DOCTYPE svg PUBLIC "-//W3C//DTD SVG 1.1//EN" "http://www.w3.org/Graphics/SVG/1.1/DTD/svg11.dtd">
<svg version="1.1" id="Layer_1" xmlns="http://www.w3.org/2000/svg" xmlns:xlink="http://www.w3.org/1999/xlink" x="0px" y="0px"
	 width="150px" height="150px" viewBox="0 0 150 150" enable-background="new 0 0 150 150" xml:space="preserve">
<circle opacity="0.1" fill="#729CEE" cx="75" cy="75" r="75"/>
<g>
	<g>
		<path fill="#729CEE" d="M103,51.9c0,7.4-5.5,14.6-13.6,15.5c-1.4,0.2-2.9,0.2-4.3,0.5c-4.6,0.9-6.6,6.6-3.6,10.1
			c1.2,1.5,3,2,4.9,2.2c2,0.2,4,0.3,5.9,0.9c6,2,9.4,6.3,10.4,12.6c1.4,8.4-4.3,16-12.2,17.8c-8.6,2-17.5-3.9-19-12.5
			c-0.7-3.8,0.1-7.3,1.8-10.6c0.7-1.4,1.3-2.8,1.2-4.4c-0.1-2.6-1.8-4.7-4.4-5.6c-2.3-0.8-4.8-0.1-6.4,1.9c-1,1.2-1.8,2.7-2.8,3.9
			c-4.1,4.9-9.4,6.6-15.6,5.3C39.1,88,35,84,33.5,77.8c-2.3-8.8,3.3-17.7,12.2-19.3c6.5-1.2,11.9,0.9,15.9,6.2
			c0.8,1.1,1.6,2.4,2.6,3.4c3.3,3.3,9.1,1.7,10.3-2.8c0.4-1.7,0.1-3.4-0.8-5c-1.5-2.8-2.5-5.9-2.4-9.1c0.2-7.5,6.2-14,13.7-15
			c8.4-1.1,16.2,4.4,17.8,12.9C102.9,50,102.9,51,103,51.9z"/>
	</g>
</g>
</svg>
