<?xml version="1.0" encoding="UTF-8"?>
<svg width="218px" height="212px" viewBox="0 0 218 212" version="1.1" xmlns="http://www.w3.org/2000/svg" xmlns:xlink="http://www.w3.org/1999/xlink">
    <!-- Generator: Sketch 57.1 (83088) - https://sketch.com -->
    <title>white-logo</title>
    <desc>Created with Sketch.</desc>
    <g id="Page-1" stroke="none" stroke-width="1" fill="none" fill-rule="evenodd">
        <g id="white-logo" fill="#FFFFFF" fill-rule="nonzero">
            <path d="M57.1956024,30.1973038 C59.5137024,29.7419968 66.6912994,28.4179001 75.8383026,28.5083008 C90.8365021,28.6567002 102.455002,32.5162964 109.574402,34.9436035 C117.802994,37.7488022 136.0383,44.8737945 154.481003,60.8827057 C161.440704,66.923996 166.630295,72.6683045 170.158493,76.9302063 C171.804596,73.6587982 173.219193,70.3029022 174.368698,66.9416046 C175.879303,62.5227966 176.993393,57.954895 177.679001,53.3661041 L178.763702,46.1096039 C174.370499,41.8827973 168.465607,36.6679001 161.035706,31.2929993 C157.501099,28.7360993 146.253098,20.8128968 131.863693,14.4231034 C120.453796,9.3563004 93.9076995,-2.4320983 59.7684021,1.785698 C34.4309006,4.9160996 16.6196976,15.4171982 12.5066986,17.9262009 C9.5075989,19.7556992 6.5982971,21.723198 3.8597031,23.7750016 L1.9755021,25.1864014 L1.6952973,27.5239029 C1.2888032,30.9135971 1.0390015,34.4176025 0.9532014,37.9364014 C0.6727983,49.5182038 2.1200029,67.4212952 10.6070024,86.9371949 C13.0566026,92.5717011 15.9935991,98.1112977 19.3374025,103.402206 C20.2637025,104.867798 22.1206972,107.684097 24.8766023,111.307205 C24.5924989,109.256805 24.3447038,107.204605 24.1390001,105.180893 C22.9329988,93.3442994 22.9411012,81.2557068 24.1621019,69.251999 C25.1724016,59.3204042 26.8524019,51.3435975 28.0579988,46.307602 C28.605797,44.0191956 29.1135026,42.1038972 29.4962999,40.7108994 C32.7654039,38.7865983 36.9084016,36.632103 41.8724977,34.6765976 C44.921402,33.4754028 50.2687988,31.558403 57.1956024,30.1973038 Z" id="Path"></path>
            <path d="M136.421707,169.798904 C127.315506,173.889709 119.567703,176.423309 114.603394,177.897186 C112.347794,178.5672 110.434998,179.084992 109.037704,179.44989 C105.736496,177.581085 101.799103,175.070099 97.6233979,171.7491 C95.0588074,169.709305 90.7250062,166.036606 86.0827943,160.718308 C84.5296022,158.938599 79.7938996,153.384506 75.2987977,145.417893 C67.9282075,132.354904 65.4613038,120.363007 64.0034944,112.983902 C62.3186952,104.4552 59.3715059,85.1002961 64.0142976,61.1240999 C65.7662965,52.0760957 68.1463014,44.7099001 70.0729982,39.5232012 C66.4170992,39.7333986 62.8034975,40.1864016 59.3177034,40.8715975 C54.7355959,41.7724993 50.2227022,43.0917971 45.9058992,44.7922976 L39.0793001,47.4812014 C37.614998,53.3990939 36.0513002,61.1206057 35.1117021,70.2424929 C34.6647035,74.5821078 33.4268037,88.2845003 35.0877,103.940994 C36.4047013,116.355698 39.4690019,145.239502 60.1911927,172.695893 C75.571106,193.074005 93.5706025,203.2482 97.8000947,205.555603 C100.884201,207.238404 104.042694,208.773895 107.188797,210.119812 L109.353394,211.045899 L111.5177,210.119812 C114.656693,208.776886 117.815903,207.241394 120.906296,205.556305 C131.076599,200.00821 145.857605,189.803314 158.515305,172.695496 C162.169998,167.756806 165.498795,162.443299 168.408997,156.902298 C169.215103,155.367203 170.725693,152.350601 172.485306,148.152497 C170.8517,149.423798 169.198502,150.664597 167.548798,151.854508 C157.901001,158.8172 147.427994,164.854401 136.421707,169.798904 Z" id="Path"></path>
            <path d="M217.757202,37.8125 C217.672302,34.3003998 217.42279,30.7970963 217.015289,27.399498 L216.735107,25.0619965 L214.850891,23.6505967 C212.118591,21.6036988 209.209015,19.6356965 206.204407,17.8015977 C196.314606,11.768097 180.086487,4.0696031 158.941498,1.6617967 C152.837402,0.9660035 146.571304,0.7398988 140.317505,0.989998 C138.585098,1.0595018 135.2173,1.2595979 130.701904,1.8346025 C132.619598,2.613701 134.520798,3.4253007 136.376205,4.259102 C147.229996,9.1328966 157.6949,15.1841966 167.479996,22.2435991 C175.575806,28.0843965 181.64389,33.5276033 185.402405,37.0895006 C187.11029,38.7080995 188.515289,40.1055986 189.529999,41.1334993 C189.562286,44.9268953 189.356506,49.5921022 188.567902,54.8688966 C188.08371,58.1098024 187.07019,63.6992036 184.785309,70.3786012 C184.020813,72.613907 181.578796,79.4918977 176.927002,87.3681032 C169.299301,100.282898 160.147507,108.414902 154.485794,113.367005 C147.942093,119.090607 132.6539,131.320404 109.568695,139.287506 C100.856705,142.294205 93.2873992,143.916504 87.8323058,144.841202 C89.8423003,147.9021 92.0413054,150.805206 94.3775939,153.4814 C97.4488982,156.998993 100.8479,160.247605 104.479004,163.135895 L110.2211,167.703507 C116.078201,166.012604 123.546997,163.505997 131.916595,159.759003 C135.8983,157.976303 148.384002,152.1969 161.112304,142.930405 C171.205307,135.582504 194.687195,118.486893 208.104187,86.812607 C218.062012,63.3043976 217.873505,42.629097 217.757202,37.8125 Z" id="Path"></path>
        </g>
    </g>
</svg>