<?xml version="1.0" encoding="UTF-8"?>
<svg width="383px" height="308px" viewBox="0 0 383 308" version="1.1" xmlns="http://www.w3.org/2000/svg" xmlns:xlink="http://www.w3.org/1999/xlink">
    <!-- Generator: Sketch 57.1 (83088) - https://sketch.com -->
    <title>07-Uniris-Logo-Blue-Centr-RGB</title>
    <desc>Created with Sketch.</desc>
    <g id="Page-1" stroke="none" stroke-width="1" fill="none" fill-rule="evenodd">
        <g id="07-Uniris-Logo-Blue-Centr-RGB" fill="#00A4DB" fill-rule="nonzero">
            <g id="Group" transform="translate(0.000000, 243.000000)">
                <path d="M43.1569977,37.5600281 C43.1569977,47.4510498 37.8538971,55.2000427 26.7406006,55.2000427 C15.6270981,55.2000427 10.1231003,47.4510498 10.1231003,37.5600281 L10.1231003,2.2833252 L0.0282974,2.2833252 L0.0282974,37.5600281 C0.0282974,53.4663391 10.1231003,64.8852539 26.7406006,64.8852539 C43.5637055,64.8852539 53.2496948,53.4663391 53.2496948,37.5600281 L53.2496948,2.2833252 L43.1569977,2.2833252 L43.1569977,37.5600281 L43.1569977,37.5600281 Z" id="Path"></path>
                <polygon id="Path" points="129.756897 42.6587524 87.4458008 2.2833252 84.7951965 2.2833252 84.7951965 63.4581299 94.8887939 63.4581299 94.8887939 22.4717407 137.200607 63.4581299 139.851395 63.4581299 139.851395 2.2833252 129.756897 2.2833252"></polygon>
                <rect id="Rectangle" x="171.998291" y="2.2833252" width="10.0936003" height="61.1748009"></rect>
                <path d="M252.6604,41.9449463 C260.407806,38.8863525 265.403992,32.5643311 265.403992,22.9803467 C265.403992,9.726532 256.02301,2.2833252 240.627197,2.2833252 L214.11969,2.2833252 L214.11969,63.4581299 L224.214203,63.4581299 L224.214203,44.0853272 L241.64859,44.0853272 L256.636108,63.4581299 L267.851715,63.4581299 L267.851715,62.0308533 L252.6604,42.5562439 L252.6604,41.9449463 Z M240.934113,35.3174438 L224.214203,35.3174438 L224.214203,11.2560424 L240.322815,11.2560424 C249.29541,11.2560424 255.006012,15.3335265 255.006012,23.3880309 C255.006012,31.5453491 249.396912,35.3174438 240.934113,35.3174438 Z" id="Shape"></path>
                <rect id="Rectangle" x="295.114594" y="2.2833252" width="10.0929003" height="61.1748009"></rect>
                <path d="M361.090088,27.2627258 C349.976715,24.2040405 346.407898,22.1661377 346.407898,17.9846496 C346.407898,13.0907287 351.098694,10.3378295 358.744598,10.3378295 C369.450409,10.3378295 375.7724,15.3335265 375.7724,15.3335265 L381.277588,7.0757445 C381.277588,7.0757445 374.548096,0.9584349 358.744598,0.9584349 C343.757294,0.9584349 335.396698,7.6870421 335.396698,18.3923338 C335.396698,27.9762266 342.227692,32.5643309 356.604706,36.6434324 C368.3284,40.0076292 371.48999,42.3529356 371.48999,47.0433347 C371.48999,51.9367368 367.718109,55.5056455 358.642395,55.5056455 C347.732696,55.5056455 340.392914,49.5917356 340.392914,49.5917356 L334.886993,57.2382505 C334.886993,57.2382505 342.6362,64.8852537 358.847107,64.8852537 C375.364807,64.8852537 382.705597,56.7296446 382.705597,46.3297422 C382.705597,36.8467407 376.588409,31.4428406 361.090088,27.2627258 Z" id="Path"></path>
            </g>
            <g id="Group" transform="translate(95.000000, 0.000000)">
                <path d="M50.3486023,26.7058411 C52.3937073,26.303833 58.7267151,25.1357422 66.7969055,25.2155457 C80.0299072,25.346344 90.2809143,28.7518464 96.5624084,30.8931427 C103.822388,33.3683472 119.911713,39.6547394 136.183411,53.7794342 C142.324188,59.1097412 146.90271,64.1777344 150.015991,67.9380341 C151.468201,65.0518341 152.716187,62.0908356 153.730408,59.1252442 C155.063385,55.2263337 156.046204,51.1962433 156.651093,47.1476441 L157.608093,40.7451325 C153.732086,37.0157471 148.522186,32.4146424 141.966705,27.6723328 C138.848114,25.4163361 128.924103,18.425644 116.228394,12.7879334 C106.161285,8.3177338 82.7395935,-2.0830535 52.6186981,1.6380463 C30.2631073,4.4001465 14.5484009,13.6650391 10.9196014,15.8788453 C8.2734069,17.4930421 5.7064972,19.2291413 3.2901001,21.0393372 L1.6277008,22.2845459 L1.3804932,24.3469391 C1.0218964,27.3377381 0.8014984,30.4293366 0.7257996,33.533844 C0.4783936,43.752533 1.7552948,59.5484467 9.2433014,76.767334 C11.4044037,81.7385407 13.9960022,86.626236 16.946106,91.2942352 C17.7635041,92.5874328 19.4019928,95.0723419 21.8334046,98.2690429 C21.5827027,96.4600372 21.3641968,94.6491393 21.182602,92.8637389 C20.1184998,82.4202422 20.1259003,71.754547 21.2030946,61.1636351 C22.0944062,52.400833 23.5765992,45.363037 24.6403962,40.9198454 C25.1237031,38.9006346 25.5715943,37.210739 25.9093934,35.9818419 C28.7935944,34.2838439 32.4492036,32.3832396 36.8289948,30.6577452 C39.5187988,29.5980377 44.2368927,27.9065399 50.3486023,26.7058411 Z" id="Path"></path>
                <path d="M120.249695,149.876343 C112.215515,153.485626 105.379394,155.721039 100.99939,157.021454 C99.0093078,157.612427 97.3216857,158.069336 96.0887146,158.391327 C93.1760864,156.742432 89.7020874,154.527039 86.0179138,151.596741 C83.755188,149.797241 79.9313965,146.557037 75.8356933,141.864532 C74.4650878,140.294342 70.2871093,135.394043 66.3208007,128.365051 C59.8176879,116.839447 57.6414031,106.25914 56.3553008,99.7484435 C54.868698,92.2235412 52.268402,75.1466369 56.3647002,53.9924468 C57.9107054,46.0092467 60.0104064,39.5100402 61.7102965,34.9339446 C58.4845885,35.1194457 55.296295,35.5189361 52.2207945,36.1235351 C48.1779936,36.9185333 44.1963041,38.0825347 40.3874052,39.5827331 L34.3643949,41.9553375 C33.0724943,47.1767425 31.6929929,53.9892425 30.8637998,62.0375366 C30.4694059,65.8664398 29.377197,77.9560394 30.8426053,91.7698364 C32.0046994,102.723343 34.7082059,128.207336 52.9915921,152.432342 C66.5613095,170.411835 82.442413,179.388733 86.1738889,181.424652 C88.8948972,182.909149 91.6817014,184.264038 94.4576108,185.451538 L96.3671872,186.268738 L98.2770993,185.451538 C101.046295,184.266754 103.833709,182.911743 106.560485,181.425049 C115.533691,176.530029 128.575012,167.526031 139.743103,152.431946 C142.96759,148.074554 145.904602,143.386444 148.472412,138.49765 C149.183593,137.143249 150.516296,134.48175 152.068908,130.77774 C150.627502,131.899231 149.168792,132.994049 147.713104,134.044037 C139.200989,140.187042 129.96051,145.513733 120.249695,149.876343 Z" id="Path"></path>
                <path d="M192.012085,33.4247437 C191.937286,30.325943 191.717102,27.2347413 191.357605,24.2373353 L191.110413,22.1749421 L189.447998,20.9294434 C187.037109,19.1234436 184.470093,17.387146 181.819214,15.769043 C173.093414,10.445343 158.775085,3.6533356 140.119202,1.5287476 C134.733307,0.9148407 129.204712,0.7152405 123.687103,0.9360352 C122.158386,0.9972382 119.187286,1.1737366 115.203308,1.6812439 C116.895111,2.3687439 118.57251,3.0847473 120.209595,3.8202362 C129.786102,8.120636 139.019104,13.4597473 147.652405,19.6881409 C154.79541,24.841446 160.149292,29.644043 163.465698,32.7868347 C164.972595,34.2148437 166.212097,35.4478454 167.107208,36.3547363 C167.135589,39.7016449 166.954193,43.8176422 166.258392,48.4733429 C165.831299,51.33284 164.937103,56.2646332 162.921112,62.1577454 C162.24649,64.1297455 160.091797,70.1984406 155.98761,77.1476441 C149.25769,88.542038 141.183105,95.7171326 136.187805,100.086334 C130.414215,105.136246 116.925507,115.926544 96.5574035,122.956238 C88.870697,125.608948 82.1921996,127.040131 77.3793029,127.855927 C79.1527099,130.556854 81.0931091,133.118134 83.1542968,135.47934 C85.8640136,138.583038 88.8630981,141.449127 92.0668029,143.997528 L97.132904,148.027435 C102.30069,146.535553 108.890411,144.324036 116.274994,141.018036 C119.787994,139.44513 130.803986,134.346039 142.034393,126.170136 C150.939514,119.687134 171.657501,104.603638 183.4953,76.6574403 C192.281097,55.9159393 192.114685,37.6740417 192.012085,33.4247437 Z" id="Path"></path>
            </g>
        </g>
    </g>
</svg>