<?xml version="1.0" encoding="UTF-8"?>
<svg width="413px" height="107px" viewBox="0 0 413 107" version="1.1" xmlns="http://www.w3.org/2000/svg" xmlns:xlink="http://www.w3.org/1999/xlink">
    <!-- Generator: Sketch 57.1 (83088) - https://sketch.com -->
    <title>logo-white-left</title>
    <desc>Created with Sketch.</desc>
    <g id="Page-1" stroke="none" stroke-width="1" fill="none" fill-rule="evenodd">
        <g id="logo-white-left" fill="#FFFFFF" fill-rule="nonzero">
            <g id="Group">
                <path d="M28.7173996,15.4977036 C29.8876038,15.2676011 33.5109024,14.5992966 38.1280975,14.6449967 C45.6994018,14.7198029 51.5644073,16.6681977 55.1582031,17.893303 C59.3119964,19.3096009 68.5171966,22.9063035 77.8271026,30.9876023 C81.3403015,34.037201 83.9600067,36.9368973 85.7411041,39.0883027 C86.5720978,37.4368974 87.2861023,35.7428971 87.8665008,34.0459977 C88.6289977,31.8153993 89.1912994,29.5095979 89.537506,27.1931001 L90.0850982,23.5300981 C87.8674011,21.3964006 84.8865966,18.7638017 81.1358947,16.0505983 C79.3515929,14.7599031 73.673706,10.7602007 66.4100036,7.5347978 C60.650299,4.9768983 47.2496948,-0.9737013 30.016098,1.1554033 C17.2257004,2.7357027 8.234703,8.0364992 6.1585006,9.3031999 C4.6444015,10.2267 3.1757964,11.2199022 1.7935027,12.2556001 L0.8423003,12.9680024 L0.7007979,14.1479035 C0.4955977,15.8591004 0.3696974,17.6278992 0.3263014,19.4041978 C0.1846007,25.250702 0.9151991,34.2882997 5.1994017,44.1399003 C6.4358977,46.9841004 7.9186018,49.7806016 9.6063994,52.4512025 C10.0742034,53.1912995 11.0115965,54.6128999 12.402603,56.4419023 C12.2593001,55.4067003 12.1343001,54.3707963 12.0305022,53.3491975 C11.4216002,47.3740998 11.4257964,41.2718965 12.0421981,35.2123033 C12.5522002,30.1988985 13.4000014,26.1722032 14.0087966,23.6299974 C14.2853011,22.4748003 14.541397,21.5078966 14.7348022,20.8049013 C16.3851013,19.8333971 18.4765014,18.7457964 20.9823989,17.7585985 C22.5214005,17.152298 25.2207031,16.1847 28.7173996,15.4977036 Z" id="Path"></path>
                <path d="M68.7108002,85.968399 C64.1141053,88.0335998 60.2028046,89.3125 57.6968994,90.0565032 C56.5583038,90.3948058 55.5928039,90.6562041 54.8872986,90.840393 C53.2209015,89.8970031 51.2333069,88.6293945 49.1253967,86.9528961 C47.8307953,85.9232025 45.6430969,84.069397 43.2996978,81.3845978 C42.5155029,80.4862061 40.1249999,77.682602 37.8557967,73.6609955 C34.1351012,67.066803 32.8899001,61.0131989 32.1541976,57.2882004 C31.3035964,52.9829025 29.8158034,43.2126007 32.1595,31.1094971 C33.0439986,26.5419007 34.2453994,22.8235016 35.217903,20.2053986 C33.3723982,20.3113022 31.5482024,20.540001 29.788597,20.8859024 C27.4756011,21.3407974 25.1974028,22.0067978 23.0183028,22.8649979 L19.5721968,24.2223969 C18.833,27.2099 18.0438002,31.1075974 17.5692976,35.7124024 C17.3435972,37.9030991 16.7190016,44.8199006 17.5574034,52.7232972 C18.2221983,58.9903031 19.768997,73.5708009 30.2295988,87.4309998 C37.9933012,97.717804 47.0796965,102.853806 49.2144926,104.018494 C50.7714994,104.867905 52.3659056,105.643097 53.9539946,106.322495 L55.0464934,106.789993 L56.1392058,106.322495 C57.7236022,105.644699 59.3184966,104.869598 60.8784941,104.018906 C66.0126036,101.218094 73.4741057,96.0666047 79.8636015,87.4306031 C81.7086027,84.9378052 83.3889006,82.2552949 84.8580015,79.4584046 C85.265106,78.6835023 86.0274961,77.1605988 86.915695,75.041504 C86.0912016,75.6831971 85.2565001,76.3096009 84.4235991,76.9102021 C79.5534973,80.4248962 74.2667999,83.4725952 68.7108002,85.968399 Z" id="Path"></path>
                <path d="M109.768997,19.3415985 C109.726105,17.5689011 109.600296,15.8002014 109.394501,14.0851974 L109.253006,12.9051971 L108.301804,12.1929016 C106.922501,11.1595001 105.453903,10.1660004 103.937302,9.2401962 C98.9447936,6.1945038 90.7528075,2.3082962 80.0789946,1.0929031 C76.9974974,0.7414016 73.8343047,0.6274032 70.6773985,0.753601 C69.8027952,0.7886962 68.1027983,0.889801 65.8233946,1.1800994 C66.7915037,1.5733031 67.7512968,1.9829024 68.6876982,2.4039001 C74.1669005,4.8643035 79.4494017,7.9189987 84.3890074,11.4825973 C88.4756926,14.4309005 91.5390013,17.1785964 93.4362944,18.976799 C94.2984923,19.7938995 95.0075987,20.4991989 95.5200041,21.0182037 C95.5361021,22.9330978 95.4322966,25.2881012 95.0341948,27.9518966 C94.7897948,29.587799 94.2781981,32.4094009 93.1248015,35.7811965 C92.7389983,36.9094008 91.5059966,40.3815993 89.1578978,44.3574981 C85.307495,50.8767013 80.6874999,54.981903 77.8296965,57.4817962 C74.5263975,60.3707961 66.8088072,66.5446014 55.1553954,70.5664062 C50.7574004,72.0841979 46.9365996,72.902893 44.1828002,73.3697967 C45.1974944,74.9149932 46.307495,76.3804016 47.4869994,77.7312927 C49.0372924,79.5070953 50.7530059,81.1468963 52.5859984,82.6051941 L55.4846953,84.9107971 C58.4412993,84.0572052 62.2115935,82.7919006 66.4365996,80.9002075 C68.4465941,80.0005035 74.749298,77.0830993 81.1746062,72.4051971 C86.2696074,68.6959991 98.1233062,60.0662002 104.896103,44.0771026 C109.923004,32.2099991 109.827606,21.7730026 109.768997,19.3415985 Z" id="Path"></path>
            </g>
            <g id="Group" transform="translate(141.000000, 31.000000)">
                <path d="M31.07901,26.0301971 C31.07901,33.0312042 27.3252869,38.5164032 19.4588928,38.5164032 C11.5924072,38.5164032 7.6963043,33.0312042 7.6963043,26.0301971 L7.6963043,1.0597992 L0.5509949,1.0597992 L0.5509949,26.0301971 C0.5509949,37.2891998 7.6963043,45.3715972 19.4588928,45.3715972 C31.3670044,45.3715972 38.2232055,37.2891997 38.2232055,26.0301971 L38.2232055,1.0597992 L31.07901,1.0597992 L31.07901,26.0301971 Z" id="Path"></path>
                <polygon id="Path" points="92.377594 29.6389008 62.4283142 1.0597992 60.5521851 1.0597992 60.5521851 44.3616028 67.6968079 44.3616028 67.6968079 15.3498993 97.646698 44.3616028 99.5228882 44.3616028 99.5228882 1.0597992 92.377594 1.0597992"></polygon>
                <rect id="Rectangle" x="122.277588" y="1.0597992" width="7.1447001" height="43.3017998"></rect>
                <path d="M179.373413,29.1337967 C184.857208,26.9689026 188.393707,22.4941025 188.393707,15.7098999 C188.393707,6.3284988 181.753296,1.0597992 170.855713,1.0597992 L152.092804,1.0597992 L152.092804,44.3616028 L159.238098,44.3616028 L159.238098,30.6488037 L171.578705,30.6488037 L182.187409,44.3616028 L190.126312,44.3616028 L190.126312,43.3515015 L179.373413,29.5664978 L179.373413,29.1337967 Z M171.072906,24.4427032 L159.238098,24.4427032 L159.238098,7.4110031 L170.640198,7.4110031 C176.991394,7.4110031 181.0336,10.2975006 181.0336,15.9985962 C181.0336,21.7724991 177.063202,24.4427032 171.072906,24.4427032 Z" id="Shape"></path>
                <rect id="Rectangle" x="209.423889" y="1.0597992" width="7.1440001" height="43.3017998"></rect>
                <path d="M256.12381,18.7413025 C248.257385,16.5762024 245.73111,15.1336975 245.73111,12.1738968 C245.73111,8.7098007 249.051605,6.7612 254.463593,6.7612 C262.041595,6.7612 266.51651,10.2975007 266.51651,10.2975007 L270.4133,4.4521028 C270.4133,4.4521028 265.649689,0.1222002 254.463593,0.1222002 C243.854889,0.1222002 237.937103,4.884804 237.937103,12.4626009 C237.937103,19.2462008 242.772186,22.4941027 252.948914,25.3812029 C261.247406,27.762604 263.485107,29.4226992 263.485107,32.7425997 C263.485107,36.2064059 260.815308,38.7326052 254.391205,38.7326052 C246.668915,38.7326052 241.473602,34.5464937 241.473602,34.5464937 L237.576202,39.958893 C237.576202,39.958893 243.06131,45.3715975 254.536102,45.3715975 C266.227997,45.3715975 271.424011,39.5989077 271.424011,32.2376024 C271.424011,25.5251999 267.094086,21.6999969 256.12381,18.7413025 Z" id="Path"></path>
            </g>
        </g>
    </g>
</svg>